%TF.GenerationSoftware,KiCad,Pcbnew,5.1.0*%
%TF.CreationDate,2019-04-08T01:08:36+02:00*%
%TF.ProjectId,BeerEyePi,42656572-4579-4655-9069-2e6b69636164,rev?*%
%TF.SameCoordinates,Original*%
%TF.FileFunction,Copper,L2,Bot*%
%TF.FilePolarity,Positive*%
%FSLAX46Y46*%
G04 Gerber Fmt 4.6, Leading zero omitted, Abs format (unit mm)*
G04 Created by KiCad (PCBNEW 5.1.0) date 2019-04-08 01:08:36*
%MOMM*%
%LPD*%
G04 APERTURE LIST*
%ADD10R,1.700000X1.700000*%
%ADD11O,1.700000X1.700000*%
%ADD12C,0.100000*%
%ADD13C,1.150000*%
%ADD14R,1.900000X0.800000*%
%ADD15R,1.550000X0.600000*%
%ADD16C,0.900000*%
%ADD17C,0.350000*%
%ADD18C,0.250000*%
%ADD19C,0.254000*%
G04 APERTURE END LIST*
D10*
X139920000Y-107080000D03*
D11*
X139920000Y-104540000D03*
X142460000Y-107080000D03*
X142460000Y-104540000D03*
X145000000Y-107080000D03*
X145000000Y-104540000D03*
X147540000Y-107080000D03*
X147540000Y-104540000D03*
X150080000Y-107080000D03*
X150080000Y-104540000D03*
D12*
G36*
X125696505Y-115513204D02*
G01*
X125720773Y-115516804D01*
X125744572Y-115522765D01*
X125767671Y-115531030D01*
X125789850Y-115541520D01*
X125810893Y-115554132D01*
X125830599Y-115568747D01*
X125848777Y-115585223D01*
X125865253Y-115603401D01*
X125879868Y-115623107D01*
X125892480Y-115644150D01*
X125902970Y-115666329D01*
X125911235Y-115689428D01*
X125917196Y-115713227D01*
X125920796Y-115737495D01*
X125922000Y-115761999D01*
X125922000Y-116412001D01*
X125920796Y-116436505D01*
X125917196Y-116460773D01*
X125911235Y-116484572D01*
X125902970Y-116507671D01*
X125892480Y-116529850D01*
X125879868Y-116550893D01*
X125865253Y-116570599D01*
X125848777Y-116588777D01*
X125830599Y-116605253D01*
X125810893Y-116619868D01*
X125789850Y-116632480D01*
X125767671Y-116642970D01*
X125744572Y-116651235D01*
X125720773Y-116657196D01*
X125696505Y-116660796D01*
X125672001Y-116662000D01*
X124771999Y-116662000D01*
X124747495Y-116660796D01*
X124723227Y-116657196D01*
X124699428Y-116651235D01*
X124676329Y-116642970D01*
X124654150Y-116632480D01*
X124633107Y-116619868D01*
X124613401Y-116605253D01*
X124595223Y-116588777D01*
X124578747Y-116570599D01*
X124564132Y-116550893D01*
X124551520Y-116529850D01*
X124541030Y-116507671D01*
X124532765Y-116484572D01*
X124526804Y-116460773D01*
X124523204Y-116436505D01*
X124522000Y-116412001D01*
X124522000Y-115761999D01*
X124523204Y-115737495D01*
X124526804Y-115713227D01*
X124532765Y-115689428D01*
X124541030Y-115666329D01*
X124551520Y-115644150D01*
X124564132Y-115623107D01*
X124578747Y-115603401D01*
X124595223Y-115585223D01*
X124613401Y-115568747D01*
X124633107Y-115554132D01*
X124654150Y-115541520D01*
X124676329Y-115531030D01*
X124699428Y-115522765D01*
X124723227Y-115516804D01*
X124747495Y-115513204D01*
X124771999Y-115512000D01*
X125672001Y-115512000D01*
X125696505Y-115513204D01*
X125696505Y-115513204D01*
G37*
D13*
X125222000Y-116087000D03*
D12*
G36*
X125696505Y-113463204D02*
G01*
X125720773Y-113466804D01*
X125744572Y-113472765D01*
X125767671Y-113481030D01*
X125789850Y-113491520D01*
X125810893Y-113504132D01*
X125830599Y-113518747D01*
X125848777Y-113535223D01*
X125865253Y-113553401D01*
X125879868Y-113573107D01*
X125892480Y-113594150D01*
X125902970Y-113616329D01*
X125911235Y-113639428D01*
X125917196Y-113663227D01*
X125920796Y-113687495D01*
X125922000Y-113711999D01*
X125922000Y-114362001D01*
X125920796Y-114386505D01*
X125917196Y-114410773D01*
X125911235Y-114434572D01*
X125902970Y-114457671D01*
X125892480Y-114479850D01*
X125879868Y-114500893D01*
X125865253Y-114520599D01*
X125848777Y-114538777D01*
X125830599Y-114555253D01*
X125810893Y-114569868D01*
X125789850Y-114582480D01*
X125767671Y-114592970D01*
X125744572Y-114601235D01*
X125720773Y-114607196D01*
X125696505Y-114610796D01*
X125672001Y-114612000D01*
X124771999Y-114612000D01*
X124747495Y-114610796D01*
X124723227Y-114607196D01*
X124699428Y-114601235D01*
X124676329Y-114592970D01*
X124654150Y-114582480D01*
X124633107Y-114569868D01*
X124613401Y-114555253D01*
X124595223Y-114538777D01*
X124578747Y-114520599D01*
X124564132Y-114500893D01*
X124551520Y-114479850D01*
X124541030Y-114457671D01*
X124532765Y-114434572D01*
X124526804Y-114410773D01*
X124523204Y-114386505D01*
X124522000Y-114362001D01*
X124522000Y-113711999D01*
X124523204Y-113687495D01*
X124526804Y-113663227D01*
X124532765Y-113639428D01*
X124541030Y-113616329D01*
X124551520Y-113594150D01*
X124564132Y-113573107D01*
X124578747Y-113553401D01*
X124595223Y-113535223D01*
X124613401Y-113518747D01*
X124633107Y-113504132D01*
X124654150Y-113491520D01*
X124676329Y-113481030D01*
X124699428Y-113472765D01*
X124723227Y-113466804D01*
X124747495Y-113463204D01*
X124771999Y-113462000D01*
X125672001Y-113462000D01*
X125696505Y-113463204D01*
X125696505Y-113463204D01*
G37*
D13*
X125222000Y-114037000D03*
D12*
G36*
X129443005Y-115513204D02*
G01*
X129467273Y-115516804D01*
X129491072Y-115522765D01*
X129514171Y-115531030D01*
X129536350Y-115541520D01*
X129557393Y-115554132D01*
X129577099Y-115568747D01*
X129595277Y-115585223D01*
X129611753Y-115603401D01*
X129626368Y-115623107D01*
X129638980Y-115644150D01*
X129649470Y-115666329D01*
X129657735Y-115689428D01*
X129663696Y-115713227D01*
X129667296Y-115737495D01*
X129668500Y-115761999D01*
X129668500Y-116412001D01*
X129667296Y-116436505D01*
X129663696Y-116460773D01*
X129657735Y-116484572D01*
X129649470Y-116507671D01*
X129638980Y-116529850D01*
X129626368Y-116550893D01*
X129611753Y-116570599D01*
X129595277Y-116588777D01*
X129577099Y-116605253D01*
X129557393Y-116619868D01*
X129536350Y-116632480D01*
X129514171Y-116642970D01*
X129491072Y-116651235D01*
X129467273Y-116657196D01*
X129443005Y-116660796D01*
X129418501Y-116662000D01*
X128518499Y-116662000D01*
X128493995Y-116660796D01*
X128469727Y-116657196D01*
X128445928Y-116651235D01*
X128422829Y-116642970D01*
X128400650Y-116632480D01*
X128379607Y-116619868D01*
X128359901Y-116605253D01*
X128341723Y-116588777D01*
X128325247Y-116570599D01*
X128310632Y-116550893D01*
X128298020Y-116529850D01*
X128287530Y-116507671D01*
X128279265Y-116484572D01*
X128273304Y-116460773D01*
X128269704Y-116436505D01*
X128268500Y-116412001D01*
X128268500Y-115761999D01*
X128269704Y-115737495D01*
X128273304Y-115713227D01*
X128279265Y-115689428D01*
X128287530Y-115666329D01*
X128298020Y-115644150D01*
X128310632Y-115623107D01*
X128325247Y-115603401D01*
X128341723Y-115585223D01*
X128359901Y-115568747D01*
X128379607Y-115554132D01*
X128400650Y-115541520D01*
X128422829Y-115531030D01*
X128445928Y-115522765D01*
X128469727Y-115516804D01*
X128493995Y-115513204D01*
X128518499Y-115512000D01*
X129418501Y-115512000D01*
X129443005Y-115513204D01*
X129443005Y-115513204D01*
G37*
D13*
X128968500Y-116087000D03*
D12*
G36*
X129443005Y-113463204D02*
G01*
X129467273Y-113466804D01*
X129491072Y-113472765D01*
X129514171Y-113481030D01*
X129536350Y-113491520D01*
X129557393Y-113504132D01*
X129577099Y-113518747D01*
X129595277Y-113535223D01*
X129611753Y-113553401D01*
X129626368Y-113573107D01*
X129638980Y-113594150D01*
X129649470Y-113616329D01*
X129657735Y-113639428D01*
X129663696Y-113663227D01*
X129667296Y-113687495D01*
X129668500Y-113711999D01*
X129668500Y-114362001D01*
X129667296Y-114386505D01*
X129663696Y-114410773D01*
X129657735Y-114434572D01*
X129649470Y-114457671D01*
X129638980Y-114479850D01*
X129626368Y-114500893D01*
X129611753Y-114520599D01*
X129595277Y-114538777D01*
X129577099Y-114555253D01*
X129557393Y-114569868D01*
X129536350Y-114582480D01*
X129514171Y-114592970D01*
X129491072Y-114601235D01*
X129467273Y-114607196D01*
X129443005Y-114610796D01*
X129418501Y-114612000D01*
X128518499Y-114612000D01*
X128493995Y-114610796D01*
X128469727Y-114607196D01*
X128445928Y-114601235D01*
X128422829Y-114592970D01*
X128400650Y-114582480D01*
X128379607Y-114569868D01*
X128359901Y-114555253D01*
X128341723Y-114538777D01*
X128325247Y-114520599D01*
X128310632Y-114500893D01*
X128298020Y-114479850D01*
X128287530Y-114457671D01*
X128279265Y-114434572D01*
X128273304Y-114410773D01*
X128269704Y-114386505D01*
X128268500Y-114362001D01*
X128268500Y-113711999D01*
X128269704Y-113687495D01*
X128273304Y-113663227D01*
X128279265Y-113639428D01*
X128287530Y-113616329D01*
X128298020Y-113594150D01*
X128310632Y-113573107D01*
X128325247Y-113553401D01*
X128341723Y-113535223D01*
X128359901Y-113518747D01*
X128379607Y-113504132D01*
X128400650Y-113491520D01*
X128422829Y-113481030D01*
X128445928Y-113472765D01*
X128469727Y-113466804D01*
X128493995Y-113463204D01*
X128518499Y-113462000D01*
X129418501Y-113462000D01*
X129443005Y-113463204D01*
X129443005Y-113463204D01*
G37*
D13*
X128968500Y-114037000D03*
D12*
G36*
X133253005Y-120720204D02*
G01*
X133277273Y-120723804D01*
X133301072Y-120729765D01*
X133324171Y-120738030D01*
X133346350Y-120748520D01*
X133367393Y-120761132D01*
X133387099Y-120775747D01*
X133405277Y-120792223D01*
X133421753Y-120810401D01*
X133436368Y-120830107D01*
X133448980Y-120851150D01*
X133459470Y-120873329D01*
X133467735Y-120896428D01*
X133473696Y-120920227D01*
X133477296Y-120944495D01*
X133478500Y-120968999D01*
X133478500Y-121619001D01*
X133477296Y-121643505D01*
X133473696Y-121667773D01*
X133467735Y-121691572D01*
X133459470Y-121714671D01*
X133448980Y-121736850D01*
X133436368Y-121757893D01*
X133421753Y-121777599D01*
X133405277Y-121795777D01*
X133387099Y-121812253D01*
X133367393Y-121826868D01*
X133346350Y-121839480D01*
X133324171Y-121849970D01*
X133301072Y-121858235D01*
X133277273Y-121864196D01*
X133253005Y-121867796D01*
X133228501Y-121869000D01*
X132328499Y-121869000D01*
X132303995Y-121867796D01*
X132279727Y-121864196D01*
X132255928Y-121858235D01*
X132232829Y-121849970D01*
X132210650Y-121839480D01*
X132189607Y-121826868D01*
X132169901Y-121812253D01*
X132151723Y-121795777D01*
X132135247Y-121777599D01*
X132120632Y-121757893D01*
X132108020Y-121736850D01*
X132097530Y-121714671D01*
X132089265Y-121691572D01*
X132083304Y-121667773D01*
X132079704Y-121643505D01*
X132078500Y-121619001D01*
X132078500Y-120968999D01*
X132079704Y-120944495D01*
X132083304Y-120920227D01*
X132089265Y-120896428D01*
X132097530Y-120873329D01*
X132108020Y-120851150D01*
X132120632Y-120830107D01*
X132135247Y-120810401D01*
X132151723Y-120792223D01*
X132169901Y-120775747D01*
X132189607Y-120761132D01*
X132210650Y-120748520D01*
X132232829Y-120738030D01*
X132255928Y-120729765D01*
X132279727Y-120723804D01*
X132303995Y-120720204D01*
X132328499Y-120719000D01*
X133228501Y-120719000D01*
X133253005Y-120720204D01*
X133253005Y-120720204D01*
G37*
D13*
X132778500Y-121294000D03*
D12*
G36*
X133253005Y-118670204D02*
G01*
X133277273Y-118673804D01*
X133301072Y-118679765D01*
X133324171Y-118688030D01*
X133346350Y-118698520D01*
X133367393Y-118711132D01*
X133387099Y-118725747D01*
X133405277Y-118742223D01*
X133421753Y-118760401D01*
X133436368Y-118780107D01*
X133448980Y-118801150D01*
X133459470Y-118823329D01*
X133467735Y-118846428D01*
X133473696Y-118870227D01*
X133477296Y-118894495D01*
X133478500Y-118918999D01*
X133478500Y-119569001D01*
X133477296Y-119593505D01*
X133473696Y-119617773D01*
X133467735Y-119641572D01*
X133459470Y-119664671D01*
X133448980Y-119686850D01*
X133436368Y-119707893D01*
X133421753Y-119727599D01*
X133405277Y-119745777D01*
X133387099Y-119762253D01*
X133367393Y-119776868D01*
X133346350Y-119789480D01*
X133324171Y-119799970D01*
X133301072Y-119808235D01*
X133277273Y-119814196D01*
X133253005Y-119817796D01*
X133228501Y-119819000D01*
X132328499Y-119819000D01*
X132303995Y-119817796D01*
X132279727Y-119814196D01*
X132255928Y-119808235D01*
X132232829Y-119799970D01*
X132210650Y-119789480D01*
X132189607Y-119776868D01*
X132169901Y-119762253D01*
X132151723Y-119745777D01*
X132135247Y-119727599D01*
X132120632Y-119707893D01*
X132108020Y-119686850D01*
X132097530Y-119664671D01*
X132089265Y-119641572D01*
X132083304Y-119617773D01*
X132079704Y-119593505D01*
X132078500Y-119569001D01*
X132078500Y-118918999D01*
X132079704Y-118894495D01*
X132083304Y-118870227D01*
X132089265Y-118846428D01*
X132097530Y-118823329D01*
X132108020Y-118801150D01*
X132120632Y-118780107D01*
X132135247Y-118760401D01*
X132151723Y-118742223D01*
X132169901Y-118725747D01*
X132189607Y-118711132D01*
X132210650Y-118698520D01*
X132232829Y-118688030D01*
X132255928Y-118679765D01*
X132279727Y-118673804D01*
X132303995Y-118670204D01*
X132328499Y-118669000D01*
X133228501Y-118669000D01*
X133253005Y-118670204D01*
X133253005Y-118670204D01*
G37*
D13*
X132778500Y-119244000D03*
D12*
G36*
X126966505Y-127315204D02*
G01*
X126990773Y-127318804D01*
X127014572Y-127324765D01*
X127037671Y-127333030D01*
X127059850Y-127343520D01*
X127080893Y-127356132D01*
X127100599Y-127370747D01*
X127118777Y-127387223D01*
X127135253Y-127405401D01*
X127149868Y-127425107D01*
X127162480Y-127446150D01*
X127172970Y-127468329D01*
X127181235Y-127491428D01*
X127187196Y-127515227D01*
X127190796Y-127539495D01*
X127192000Y-127563999D01*
X127192000Y-128214001D01*
X127190796Y-128238505D01*
X127187196Y-128262773D01*
X127181235Y-128286572D01*
X127172970Y-128309671D01*
X127162480Y-128331850D01*
X127149868Y-128352893D01*
X127135253Y-128372599D01*
X127118777Y-128390777D01*
X127100599Y-128407253D01*
X127080893Y-128421868D01*
X127059850Y-128434480D01*
X127037671Y-128444970D01*
X127014572Y-128453235D01*
X126990773Y-128459196D01*
X126966505Y-128462796D01*
X126942001Y-128464000D01*
X126041999Y-128464000D01*
X126017495Y-128462796D01*
X125993227Y-128459196D01*
X125969428Y-128453235D01*
X125946329Y-128444970D01*
X125924150Y-128434480D01*
X125903107Y-128421868D01*
X125883401Y-128407253D01*
X125865223Y-128390777D01*
X125848747Y-128372599D01*
X125834132Y-128352893D01*
X125821520Y-128331850D01*
X125811030Y-128309671D01*
X125802765Y-128286572D01*
X125796804Y-128262773D01*
X125793204Y-128238505D01*
X125792000Y-128214001D01*
X125792000Y-127563999D01*
X125793204Y-127539495D01*
X125796804Y-127515227D01*
X125802765Y-127491428D01*
X125811030Y-127468329D01*
X125821520Y-127446150D01*
X125834132Y-127425107D01*
X125848747Y-127405401D01*
X125865223Y-127387223D01*
X125883401Y-127370747D01*
X125903107Y-127356132D01*
X125924150Y-127343520D01*
X125946329Y-127333030D01*
X125969428Y-127324765D01*
X125993227Y-127318804D01*
X126017495Y-127315204D01*
X126041999Y-127314000D01*
X126942001Y-127314000D01*
X126966505Y-127315204D01*
X126966505Y-127315204D01*
G37*
D13*
X126492000Y-127889000D03*
D12*
G36*
X126966505Y-125265204D02*
G01*
X126990773Y-125268804D01*
X127014572Y-125274765D01*
X127037671Y-125283030D01*
X127059850Y-125293520D01*
X127080893Y-125306132D01*
X127100599Y-125320747D01*
X127118777Y-125337223D01*
X127135253Y-125355401D01*
X127149868Y-125375107D01*
X127162480Y-125396150D01*
X127172970Y-125418329D01*
X127181235Y-125441428D01*
X127187196Y-125465227D01*
X127190796Y-125489495D01*
X127192000Y-125513999D01*
X127192000Y-126164001D01*
X127190796Y-126188505D01*
X127187196Y-126212773D01*
X127181235Y-126236572D01*
X127172970Y-126259671D01*
X127162480Y-126281850D01*
X127149868Y-126302893D01*
X127135253Y-126322599D01*
X127118777Y-126340777D01*
X127100599Y-126357253D01*
X127080893Y-126371868D01*
X127059850Y-126384480D01*
X127037671Y-126394970D01*
X127014572Y-126403235D01*
X126990773Y-126409196D01*
X126966505Y-126412796D01*
X126942001Y-126414000D01*
X126041999Y-126414000D01*
X126017495Y-126412796D01*
X125993227Y-126409196D01*
X125969428Y-126403235D01*
X125946329Y-126394970D01*
X125924150Y-126384480D01*
X125903107Y-126371868D01*
X125883401Y-126357253D01*
X125865223Y-126340777D01*
X125848747Y-126322599D01*
X125834132Y-126302893D01*
X125821520Y-126281850D01*
X125811030Y-126259671D01*
X125802765Y-126236572D01*
X125796804Y-126212773D01*
X125793204Y-126188505D01*
X125792000Y-126164001D01*
X125792000Y-125513999D01*
X125793204Y-125489495D01*
X125796804Y-125465227D01*
X125802765Y-125441428D01*
X125811030Y-125418329D01*
X125821520Y-125396150D01*
X125834132Y-125375107D01*
X125848747Y-125355401D01*
X125865223Y-125337223D01*
X125883401Y-125320747D01*
X125903107Y-125306132D01*
X125924150Y-125293520D01*
X125946329Y-125283030D01*
X125969428Y-125274765D01*
X125993227Y-125268804D01*
X126017495Y-125265204D01*
X126041999Y-125264000D01*
X126942001Y-125264000D01*
X126966505Y-125265204D01*
X126966505Y-125265204D01*
G37*
D13*
X126492000Y-125839000D03*
D12*
G36*
X133253005Y-111875704D02*
G01*
X133277273Y-111879304D01*
X133301072Y-111885265D01*
X133324171Y-111893530D01*
X133346350Y-111904020D01*
X133367393Y-111916632D01*
X133387099Y-111931247D01*
X133405277Y-111947723D01*
X133421753Y-111965901D01*
X133436368Y-111985607D01*
X133448980Y-112006650D01*
X133459470Y-112028829D01*
X133467735Y-112051928D01*
X133473696Y-112075727D01*
X133477296Y-112099995D01*
X133478500Y-112124499D01*
X133478500Y-112774501D01*
X133477296Y-112799005D01*
X133473696Y-112823273D01*
X133467735Y-112847072D01*
X133459470Y-112870171D01*
X133448980Y-112892350D01*
X133436368Y-112913393D01*
X133421753Y-112933099D01*
X133405277Y-112951277D01*
X133387099Y-112967753D01*
X133367393Y-112982368D01*
X133346350Y-112994980D01*
X133324171Y-113005470D01*
X133301072Y-113013735D01*
X133277273Y-113019696D01*
X133253005Y-113023296D01*
X133228501Y-113024500D01*
X132328499Y-113024500D01*
X132303995Y-113023296D01*
X132279727Y-113019696D01*
X132255928Y-113013735D01*
X132232829Y-113005470D01*
X132210650Y-112994980D01*
X132189607Y-112982368D01*
X132169901Y-112967753D01*
X132151723Y-112951277D01*
X132135247Y-112933099D01*
X132120632Y-112913393D01*
X132108020Y-112892350D01*
X132097530Y-112870171D01*
X132089265Y-112847072D01*
X132083304Y-112823273D01*
X132079704Y-112799005D01*
X132078500Y-112774501D01*
X132078500Y-112124499D01*
X132079704Y-112099995D01*
X132083304Y-112075727D01*
X132089265Y-112051928D01*
X132097530Y-112028829D01*
X132108020Y-112006650D01*
X132120632Y-111985607D01*
X132135247Y-111965901D01*
X132151723Y-111947723D01*
X132169901Y-111931247D01*
X132189607Y-111916632D01*
X132210650Y-111904020D01*
X132232829Y-111893530D01*
X132255928Y-111885265D01*
X132279727Y-111879304D01*
X132303995Y-111875704D01*
X132328499Y-111874500D01*
X133228501Y-111874500D01*
X133253005Y-111875704D01*
X133253005Y-111875704D01*
G37*
D13*
X132778500Y-112449500D03*
D12*
G36*
X133253005Y-113925704D02*
G01*
X133277273Y-113929304D01*
X133301072Y-113935265D01*
X133324171Y-113943530D01*
X133346350Y-113954020D01*
X133367393Y-113966632D01*
X133387099Y-113981247D01*
X133405277Y-113997723D01*
X133421753Y-114015901D01*
X133436368Y-114035607D01*
X133448980Y-114056650D01*
X133459470Y-114078829D01*
X133467735Y-114101928D01*
X133473696Y-114125727D01*
X133477296Y-114149995D01*
X133478500Y-114174499D01*
X133478500Y-114824501D01*
X133477296Y-114849005D01*
X133473696Y-114873273D01*
X133467735Y-114897072D01*
X133459470Y-114920171D01*
X133448980Y-114942350D01*
X133436368Y-114963393D01*
X133421753Y-114983099D01*
X133405277Y-115001277D01*
X133387099Y-115017753D01*
X133367393Y-115032368D01*
X133346350Y-115044980D01*
X133324171Y-115055470D01*
X133301072Y-115063735D01*
X133277273Y-115069696D01*
X133253005Y-115073296D01*
X133228501Y-115074500D01*
X132328499Y-115074500D01*
X132303995Y-115073296D01*
X132279727Y-115069696D01*
X132255928Y-115063735D01*
X132232829Y-115055470D01*
X132210650Y-115044980D01*
X132189607Y-115032368D01*
X132169901Y-115017753D01*
X132151723Y-115001277D01*
X132135247Y-114983099D01*
X132120632Y-114963393D01*
X132108020Y-114942350D01*
X132097530Y-114920171D01*
X132089265Y-114897072D01*
X132083304Y-114873273D01*
X132079704Y-114849005D01*
X132078500Y-114824501D01*
X132078500Y-114174499D01*
X132079704Y-114149995D01*
X132083304Y-114125727D01*
X132089265Y-114101928D01*
X132097530Y-114078829D01*
X132108020Y-114056650D01*
X132120632Y-114035607D01*
X132135247Y-114015901D01*
X132151723Y-113997723D01*
X132169901Y-113981247D01*
X132189607Y-113966632D01*
X132210650Y-113954020D01*
X132232829Y-113943530D01*
X132255928Y-113935265D01*
X132279727Y-113929304D01*
X132303995Y-113925704D01*
X132328499Y-113924500D01*
X133228501Y-113924500D01*
X133253005Y-113925704D01*
X133253005Y-113925704D01*
G37*
D13*
X132778500Y-114499500D03*
D12*
G36*
X140428505Y-118670204D02*
G01*
X140452773Y-118673804D01*
X140476572Y-118679765D01*
X140499671Y-118688030D01*
X140521850Y-118698520D01*
X140542893Y-118711132D01*
X140562599Y-118725747D01*
X140580777Y-118742223D01*
X140597253Y-118760401D01*
X140611868Y-118780107D01*
X140624480Y-118801150D01*
X140634970Y-118823329D01*
X140643235Y-118846428D01*
X140649196Y-118870227D01*
X140652796Y-118894495D01*
X140654000Y-118918999D01*
X140654000Y-119569001D01*
X140652796Y-119593505D01*
X140649196Y-119617773D01*
X140643235Y-119641572D01*
X140634970Y-119664671D01*
X140624480Y-119686850D01*
X140611868Y-119707893D01*
X140597253Y-119727599D01*
X140580777Y-119745777D01*
X140562599Y-119762253D01*
X140542893Y-119776868D01*
X140521850Y-119789480D01*
X140499671Y-119799970D01*
X140476572Y-119808235D01*
X140452773Y-119814196D01*
X140428505Y-119817796D01*
X140404001Y-119819000D01*
X139503999Y-119819000D01*
X139479495Y-119817796D01*
X139455227Y-119814196D01*
X139431428Y-119808235D01*
X139408329Y-119799970D01*
X139386150Y-119789480D01*
X139365107Y-119776868D01*
X139345401Y-119762253D01*
X139327223Y-119745777D01*
X139310747Y-119727599D01*
X139296132Y-119707893D01*
X139283520Y-119686850D01*
X139273030Y-119664671D01*
X139264765Y-119641572D01*
X139258804Y-119617773D01*
X139255204Y-119593505D01*
X139254000Y-119569001D01*
X139254000Y-118918999D01*
X139255204Y-118894495D01*
X139258804Y-118870227D01*
X139264765Y-118846428D01*
X139273030Y-118823329D01*
X139283520Y-118801150D01*
X139296132Y-118780107D01*
X139310747Y-118760401D01*
X139327223Y-118742223D01*
X139345401Y-118725747D01*
X139365107Y-118711132D01*
X139386150Y-118698520D01*
X139408329Y-118688030D01*
X139431428Y-118679765D01*
X139455227Y-118673804D01*
X139479495Y-118670204D01*
X139503999Y-118669000D01*
X140404001Y-118669000D01*
X140428505Y-118670204D01*
X140428505Y-118670204D01*
G37*
D13*
X139954000Y-119244000D03*
D12*
G36*
X140428505Y-120720204D02*
G01*
X140452773Y-120723804D01*
X140476572Y-120729765D01*
X140499671Y-120738030D01*
X140521850Y-120748520D01*
X140542893Y-120761132D01*
X140562599Y-120775747D01*
X140580777Y-120792223D01*
X140597253Y-120810401D01*
X140611868Y-120830107D01*
X140624480Y-120851150D01*
X140634970Y-120873329D01*
X140643235Y-120896428D01*
X140649196Y-120920227D01*
X140652796Y-120944495D01*
X140654000Y-120968999D01*
X140654000Y-121619001D01*
X140652796Y-121643505D01*
X140649196Y-121667773D01*
X140643235Y-121691572D01*
X140634970Y-121714671D01*
X140624480Y-121736850D01*
X140611868Y-121757893D01*
X140597253Y-121777599D01*
X140580777Y-121795777D01*
X140562599Y-121812253D01*
X140542893Y-121826868D01*
X140521850Y-121839480D01*
X140499671Y-121849970D01*
X140476572Y-121858235D01*
X140452773Y-121864196D01*
X140428505Y-121867796D01*
X140404001Y-121869000D01*
X139503999Y-121869000D01*
X139479495Y-121867796D01*
X139455227Y-121864196D01*
X139431428Y-121858235D01*
X139408329Y-121849970D01*
X139386150Y-121839480D01*
X139365107Y-121826868D01*
X139345401Y-121812253D01*
X139327223Y-121795777D01*
X139310747Y-121777599D01*
X139296132Y-121757893D01*
X139283520Y-121736850D01*
X139273030Y-121714671D01*
X139264765Y-121691572D01*
X139258804Y-121667773D01*
X139255204Y-121643505D01*
X139254000Y-121619001D01*
X139254000Y-120968999D01*
X139255204Y-120944495D01*
X139258804Y-120920227D01*
X139264765Y-120896428D01*
X139273030Y-120873329D01*
X139283520Y-120851150D01*
X139296132Y-120830107D01*
X139310747Y-120810401D01*
X139327223Y-120792223D01*
X139345401Y-120775747D01*
X139365107Y-120761132D01*
X139386150Y-120748520D01*
X139408329Y-120738030D01*
X139431428Y-120729765D01*
X139455227Y-120723804D01*
X139479495Y-120720204D01*
X139503999Y-120719000D01*
X140404001Y-120719000D01*
X140428505Y-120720204D01*
X140428505Y-120720204D01*
G37*
D13*
X139954000Y-121294000D03*
D12*
G36*
X136809005Y-118670204D02*
G01*
X136833273Y-118673804D01*
X136857072Y-118679765D01*
X136880171Y-118688030D01*
X136902350Y-118698520D01*
X136923393Y-118711132D01*
X136943099Y-118725747D01*
X136961277Y-118742223D01*
X136977753Y-118760401D01*
X136992368Y-118780107D01*
X137004980Y-118801150D01*
X137015470Y-118823329D01*
X137023735Y-118846428D01*
X137029696Y-118870227D01*
X137033296Y-118894495D01*
X137034500Y-118918999D01*
X137034500Y-119569001D01*
X137033296Y-119593505D01*
X137029696Y-119617773D01*
X137023735Y-119641572D01*
X137015470Y-119664671D01*
X137004980Y-119686850D01*
X136992368Y-119707893D01*
X136977753Y-119727599D01*
X136961277Y-119745777D01*
X136943099Y-119762253D01*
X136923393Y-119776868D01*
X136902350Y-119789480D01*
X136880171Y-119799970D01*
X136857072Y-119808235D01*
X136833273Y-119814196D01*
X136809005Y-119817796D01*
X136784501Y-119819000D01*
X135884499Y-119819000D01*
X135859995Y-119817796D01*
X135835727Y-119814196D01*
X135811928Y-119808235D01*
X135788829Y-119799970D01*
X135766650Y-119789480D01*
X135745607Y-119776868D01*
X135725901Y-119762253D01*
X135707723Y-119745777D01*
X135691247Y-119727599D01*
X135676632Y-119707893D01*
X135664020Y-119686850D01*
X135653530Y-119664671D01*
X135645265Y-119641572D01*
X135639304Y-119617773D01*
X135635704Y-119593505D01*
X135634500Y-119569001D01*
X135634500Y-118918999D01*
X135635704Y-118894495D01*
X135639304Y-118870227D01*
X135645265Y-118846428D01*
X135653530Y-118823329D01*
X135664020Y-118801150D01*
X135676632Y-118780107D01*
X135691247Y-118760401D01*
X135707723Y-118742223D01*
X135725901Y-118725747D01*
X135745607Y-118711132D01*
X135766650Y-118698520D01*
X135788829Y-118688030D01*
X135811928Y-118679765D01*
X135835727Y-118673804D01*
X135859995Y-118670204D01*
X135884499Y-118669000D01*
X136784501Y-118669000D01*
X136809005Y-118670204D01*
X136809005Y-118670204D01*
G37*
D13*
X136334500Y-119244000D03*
D12*
G36*
X136809005Y-120720204D02*
G01*
X136833273Y-120723804D01*
X136857072Y-120729765D01*
X136880171Y-120738030D01*
X136902350Y-120748520D01*
X136923393Y-120761132D01*
X136943099Y-120775747D01*
X136961277Y-120792223D01*
X136977753Y-120810401D01*
X136992368Y-120830107D01*
X137004980Y-120851150D01*
X137015470Y-120873329D01*
X137023735Y-120896428D01*
X137029696Y-120920227D01*
X137033296Y-120944495D01*
X137034500Y-120968999D01*
X137034500Y-121619001D01*
X137033296Y-121643505D01*
X137029696Y-121667773D01*
X137023735Y-121691572D01*
X137015470Y-121714671D01*
X137004980Y-121736850D01*
X136992368Y-121757893D01*
X136977753Y-121777599D01*
X136961277Y-121795777D01*
X136943099Y-121812253D01*
X136923393Y-121826868D01*
X136902350Y-121839480D01*
X136880171Y-121849970D01*
X136857072Y-121858235D01*
X136833273Y-121864196D01*
X136809005Y-121867796D01*
X136784501Y-121869000D01*
X135884499Y-121869000D01*
X135859995Y-121867796D01*
X135835727Y-121864196D01*
X135811928Y-121858235D01*
X135788829Y-121849970D01*
X135766650Y-121839480D01*
X135745607Y-121826868D01*
X135725901Y-121812253D01*
X135707723Y-121795777D01*
X135691247Y-121777599D01*
X135676632Y-121757893D01*
X135664020Y-121736850D01*
X135653530Y-121714671D01*
X135645265Y-121691572D01*
X135639304Y-121667773D01*
X135635704Y-121643505D01*
X135634500Y-121619001D01*
X135634500Y-120968999D01*
X135635704Y-120944495D01*
X135639304Y-120920227D01*
X135645265Y-120896428D01*
X135653530Y-120873329D01*
X135664020Y-120851150D01*
X135676632Y-120830107D01*
X135691247Y-120810401D01*
X135707723Y-120792223D01*
X135725901Y-120775747D01*
X135745607Y-120761132D01*
X135766650Y-120748520D01*
X135788829Y-120738030D01*
X135811928Y-120729765D01*
X135835727Y-120723804D01*
X135859995Y-120720204D01*
X135884499Y-120719000D01*
X136784501Y-120719000D01*
X136809005Y-120720204D01*
X136809005Y-120720204D01*
G37*
D13*
X136334500Y-121294000D03*
D12*
G36*
X120108505Y-119495704D02*
G01*
X120132773Y-119499304D01*
X120156572Y-119505265D01*
X120179671Y-119513530D01*
X120201850Y-119524020D01*
X120222893Y-119536632D01*
X120242599Y-119551247D01*
X120260777Y-119567723D01*
X120277253Y-119585901D01*
X120291868Y-119605607D01*
X120304480Y-119626650D01*
X120314970Y-119648829D01*
X120323235Y-119671928D01*
X120329196Y-119695727D01*
X120332796Y-119719995D01*
X120334000Y-119744499D01*
X120334000Y-120394501D01*
X120332796Y-120419005D01*
X120329196Y-120443273D01*
X120323235Y-120467072D01*
X120314970Y-120490171D01*
X120304480Y-120512350D01*
X120291868Y-120533393D01*
X120277253Y-120553099D01*
X120260777Y-120571277D01*
X120242599Y-120587753D01*
X120222893Y-120602368D01*
X120201850Y-120614980D01*
X120179671Y-120625470D01*
X120156572Y-120633735D01*
X120132773Y-120639696D01*
X120108505Y-120643296D01*
X120084001Y-120644500D01*
X119183999Y-120644500D01*
X119159495Y-120643296D01*
X119135227Y-120639696D01*
X119111428Y-120633735D01*
X119088329Y-120625470D01*
X119066150Y-120614980D01*
X119045107Y-120602368D01*
X119025401Y-120587753D01*
X119007223Y-120571277D01*
X118990747Y-120553099D01*
X118976132Y-120533393D01*
X118963520Y-120512350D01*
X118953030Y-120490171D01*
X118944765Y-120467072D01*
X118938804Y-120443273D01*
X118935204Y-120419005D01*
X118934000Y-120394501D01*
X118934000Y-119744499D01*
X118935204Y-119719995D01*
X118938804Y-119695727D01*
X118944765Y-119671928D01*
X118953030Y-119648829D01*
X118963520Y-119626650D01*
X118976132Y-119605607D01*
X118990747Y-119585901D01*
X119007223Y-119567723D01*
X119025401Y-119551247D01*
X119045107Y-119536632D01*
X119066150Y-119524020D01*
X119088329Y-119513530D01*
X119111428Y-119505265D01*
X119135227Y-119499304D01*
X119159495Y-119495704D01*
X119183999Y-119494500D01*
X120084001Y-119494500D01*
X120108505Y-119495704D01*
X120108505Y-119495704D01*
G37*
D13*
X119634000Y-120069500D03*
D12*
G36*
X120108505Y-121545704D02*
G01*
X120132773Y-121549304D01*
X120156572Y-121555265D01*
X120179671Y-121563530D01*
X120201850Y-121574020D01*
X120222893Y-121586632D01*
X120242599Y-121601247D01*
X120260777Y-121617723D01*
X120277253Y-121635901D01*
X120291868Y-121655607D01*
X120304480Y-121676650D01*
X120314970Y-121698829D01*
X120323235Y-121721928D01*
X120329196Y-121745727D01*
X120332796Y-121769995D01*
X120334000Y-121794499D01*
X120334000Y-122444501D01*
X120332796Y-122469005D01*
X120329196Y-122493273D01*
X120323235Y-122517072D01*
X120314970Y-122540171D01*
X120304480Y-122562350D01*
X120291868Y-122583393D01*
X120277253Y-122603099D01*
X120260777Y-122621277D01*
X120242599Y-122637753D01*
X120222893Y-122652368D01*
X120201850Y-122664980D01*
X120179671Y-122675470D01*
X120156572Y-122683735D01*
X120132773Y-122689696D01*
X120108505Y-122693296D01*
X120084001Y-122694500D01*
X119183999Y-122694500D01*
X119159495Y-122693296D01*
X119135227Y-122689696D01*
X119111428Y-122683735D01*
X119088329Y-122675470D01*
X119066150Y-122664980D01*
X119045107Y-122652368D01*
X119025401Y-122637753D01*
X119007223Y-122621277D01*
X118990747Y-122603099D01*
X118976132Y-122583393D01*
X118963520Y-122562350D01*
X118953030Y-122540171D01*
X118944765Y-122517072D01*
X118938804Y-122493273D01*
X118935204Y-122469005D01*
X118934000Y-122444501D01*
X118934000Y-121794499D01*
X118935204Y-121769995D01*
X118938804Y-121745727D01*
X118944765Y-121721928D01*
X118953030Y-121698829D01*
X118963520Y-121676650D01*
X118976132Y-121655607D01*
X118990747Y-121635901D01*
X119007223Y-121617723D01*
X119025401Y-121601247D01*
X119045107Y-121586632D01*
X119066150Y-121574020D01*
X119088329Y-121563530D01*
X119111428Y-121555265D01*
X119135227Y-121549304D01*
X119159495Y-121545704D01*
X119183999Y-121544500D01*
X120084001Y-121544500D01*
X120108505Y-121545704D01*
X120108505Y-121545704D01*
G37*
D13*
X119634000Y-122119500D03*
D12*
G36*
X153139505Y-118109704D02*
G01*
X153163773Y-118113304D01*
X153187572Y-118119265D01*
X153210671Y-118127530D01*
X153232850Y-118138020D01*
X153253893Y-118150632D01*
X153273599Y-118165247D01*
X153291777Y-118181723D01*
X153308253Y-118199901D01*
X153322868Y-118219607D01*
X153335480Y-118240650D01*
X153345970Y-118262829D01*
X153354235Y-118285928D01*
X153360196Y-118309727D01*
X153363796Y-118333995D01*
X153365000Y-118358499D01*
X153365000Y-119258501D01*
X153363796Y-119283005D01*
X153360196Y-119307273D01*
X153354235Y-119331072D01*
X153345970Y-119354171D01*
X153335480Y-119376350D01*
X153322868Y-119397393D01*
X153308253Y-119417099D01*
X153291777Y-119435277D01*
X153273599Y-119451753D01*
X153253893Y-119466368D01*
X153232850Y-119478980D01*
X153210671Y-119489470D01*
X153187572Y-119497735D01*
X153163773Y-119503696D01*
X153139505Y-119507296D01*
X153115001Y-119508500D01*
X152464999Y-119508500D01*
X152440495Y-119507296D01*
X152416227Y-119503696D01*
X152392428Y-119497735D01*
X152369329Y-119489470D01*
X152347150Y-119478980D01*
X152326107Y-119466368D01*
X152306401Y-119451753D01*
X152288223Y-119435277D01*
X152271747Y-119417099D01*
X152257132Y-119397393D01*
X152244520Y-119376350D01*
X152234030Y-119354171D01*
X152225765Y-119331072D01*
X152219804Y-119307273D01*
X152216204Y-119283005D01*
X152215000Y-119258501D01*
X152215000Y-118358499D01*
X152216204Y-118333995D01*
X152219804Y-118309727D01*
X152225765Y-118285928D01*
X152234030Y-118262829D01*
X152244520Y-118240650D01*
X152257132Y-118219607D01*
X152271747Y-118199901D01*
X152288223Y-118181723D01*
X152306401Y-118165247D01*
X152326107Y-118150632D01*
X152347150Y-118138020D01*
X152369329Y-118127530D01*
X152392428Y-118119265D01*
X152416227Y-118113304D01*
X152440495Y-118109704D01*
X152464999Y-118108500D01*
X153115001Y-118108500D01*
X153139505Y-118109704D01*
X153139505Y-118109704D01*
G37*
D13*
X152790000Y-118808500D03*
D12*
G36*
X151089505Y-118109704D02*
G01*
X151113773Y-118113304D01*
X151137572Y-118119265D01*
X151160671Y-118127530D01*
X151182850Y-118138020D01*
X151203893Y-118150632D01*
X151223599Y-118165247D01*
X151241777Y-118181723D01*
X151258253Y-118199901D01*
X151272868Y-118219607D01*
X151285480Y-118240650D01*
X151295970Y-118262829D01*
X151304235Y-118285928D01*
X151310196Y-118309727D01*
X151313796Y-118333995D01*
X151315000Y-118358499D01*
X151315000Y-119258501D01*
X151313796Y-119283005D01*
X151310196Y-119307273D01*
X151304235Y-119331072D01*
X151295970Y-119354171D01*
X151285480Y-119376350D01*
X151272868Y-119397393D01*
X151258253Y-119417099D01*
X151241777Y-119435277D01*
X151223599Y-119451753D01*
X151203893Y-119466368D01*
X151182850Y-119478980D01*
X151160671Y-119489470D01*
X151137572Y-119497735D01*
X151113773Y-119503696D01*
X151089505Y-119507296D01*
X151065001Y-119508500D01*
X150414999Y-119508500D01*
X150390495Y-119507296D01*
X150366227Y-119503696D01*
X150342428Y-119497735D01*
X150319329Y-119489470D01*
X150297150Y-119478980D01*
X150276107Y-119466368D01*
X150256401Y-119451753D01*
X150238223Y-119435277D01*
X150221747Y-119417099D01*
X150207132Y-119397393D01*
X150194520Y-119376350D01*
X150184030Y-119354171D01*
X150175765Y-119331072D01*
X150169804Y-119307273D01*
X150166204Y-119283005D01*
X150165000Y-119258501D01*
X150165000Y-118358499D01*
X150166204Y-118333995D01*
X150169804Y-118309727D01*
X150175765Y-118285928D01*
X150184030Y-118262829D01*
X150194520Y-118240650D01*
X150207132Y-118219607D01*
X150221747Y-118199901D01*
X150238223Y-118181723D01*
X150256401Y-118165247D01*
X150276107Y-118150632D01*
X150297150Y-118138020D01*
X150319329Y-118127530D01*
X150342428Y-118119265D01*
X150366227Y-118113304D01*
X150390495Y-118109704D01*
X150414999Y-118108500D01*
X151065001Y-118108500D01*
X151089505Y-118109704D01*
X151089505Y-118109704D01*
G37*
D13*
X150740000Y-118808500D03*
D12*
G36*
X151080505Y-110489704D02*
G01*
X151104773Y-110493304D01*
X151128572Y-110499265D01*
X151151671Y-110507530D01*
X151173850Y-110518020D01*
X151194893Y-110530632D01*
X151214599Y-110545247D01*
X151232777Y-110561723D01*
X151249253Y-110579901D01*
X151263868Y-110599607D01*
X151276480Y-110620650D01*
X151286970Y-110642829D01*
X151295235Y-110665928D01*
X151301196Y-110689727D01*
X151304796Y-110713995D01*
X151306000Y-110738499D01*
X151306000Y-111638501D01*
X151304796Y-111663005D01*
X151301196Y-111687273D01*
X151295235Y-111711072D01*
X151286970Y-111734171D01*
X151276480Y-111756350D01*
X151263868Y-111777393D01*
X151249253Y-111797099D01*
X151232777Y-111815277D01*
X151214599Y-111831753D01*
X151194893Y-111846368D01*
X151173850Y-111858980D01*
X151151671Y-111869470D01*
X151128572Y-111877735D01*
X151104773Y-111883696D01*
X151080505Y-111887296D01*
X151056001Y-111888500D01*
X150405999Y-111888500D01*
X150381495Y-111887296D01*
X150357227Y-111883696D01*
X150333428Y-111877735D01*
X150310329Y-111869470D01*
X150288150Y-111858980D01*
X150267107Y-111846368D01*
X150247401Y-111831753D01*
X150229223Y-111815277D01*
X150212747Y-111797099D01*
X150198132Y-111777393D01*
X150185520Y-111756350D01*
X150175030Y-111734171D01*
X150166765Y-111711072D01*
X150160804Y-111687273D01*
X150157204Y-111663005D01*
X150156000Y-111638501D01*
X150156000Y-110738499D01*
X150157204Y-110713995D01*
X150160804Y-110689727D01*
X150166765Y-110665928D01*
X150175030Y-110642829D01*
X150185520Y-110620650D01*
X150198132Y-110599607D01*
X150212747Y-110579901D01*
X150229223Y-110561723D01*
X150247401Y-110545247D01*
X150267107Y-110530632D01*
X150288150Y-110518020D01*
X150310329Y-110507530D01*
X150333428Y-110499265D01*
X150357227Y-110493304D01*
X150381495Y-110489704D01*
X150405999Y-110488500D01*
X151056001Y-110488500D01*
X151080505Y-110489704D01*
X151080505Y-110489704D01*
G37*
D13*
X150731000Y-111188500D03*
D12*
G36*
X153130505Y-110489704D02*
G01*
X153154773Y-110493304D01*
X153178572Y-110499265D01*
X153201671Y-110507530D01*
X153223850Y-110518020D01*
X153244893Y-110530632D01*
X153264599Y-110545247D01*
X153282777Y-110561723D01*
X153299253Y-110579901D01*
X153313868Y-110599607D01*
X153326480Y-110620650D01*
X153336970Y-110642829D01*
X153345235Y-110665928D01*
X153351196Y-110689727D01*
X153354796Y-110713995D01*
X153356000Y-110738499D01*
X153356000Y-111638501D01*
X153354796Y-111663005D01*
X153351196Y-111687273D01*
X153345235Y-111711072D01*
X153336970Y-111734171D01*
X153326480Y-111756350D01*
X153313868Y-111777393D01*
X153299253Y-111797099D01*
X153282777Y-111815277D01*
X153264599Y-111831753D01*
X153244893Y-111846368D01*
X153223850Y-111858980D01*
X153201671Y-111869470D01*
X153178572Y-111877735D01*
X153154773Y-111883696D01*
X153130505Y-111887296D01*
X153106001Y-111888500D01*
X152455999Y-111888500D01*
X152431495Y-111887296D01*
X152407227Y-111883696D01*
X152383428Y-111877735D01*
X152360329Y-111869470D01*
X152338150Y-111858980D01*
X152317107Y-111846368D01*
X152297401Y-111831753D01*
X152279223Y-111815277D01*
X152262747Y-111797099D01*
X152248132Y-111777393D01*
X152235520Y-111756350D01*
X152225030Y-111734171D01*
X152216765Y-111711072D01*
X152210804Y-111687273D01*
X152207204Y-111663005D01*
X152206000Y-111638501D01*
X152206000Y-110738499D01*
X152207204Y-110713995D01*
X152210804Y-110689727D01*
X152216765Y-110665928D01*
X152225030Y-110642829D01*
X152235520Y-110620650D01*
X152248132Y-110599607D01*
X152262747Y-110579901D01*
X152279223Y-110561723D01*
X152297401Y-110545247D01*
X152317107Y-110530632D01*
X152338150Y-110518020D01*
X152360329Y-110507530D01*
X152383428Y-110499265D01*
X152407227Y-110493304D01*
X152431495Y-110489704D01*
X152455999Y-110488500D01*
X153106001Y-110488500D01*
X153130505Y-110489704D01*
X153130505Y-110489704D01*
G37*
D13*
X152781000Y-111188500D03*
D10*
X108370000Y-104540000D03*
D11*
X108370000Y-102000000D03*
X110910000Y-104540000D03*
X110910000Y-102000000D03*
X113450000Y-104540000D03*
X113450000Y-102000000D03*
X115990000Y-104540000D03*
X115990000Y-102000000D03*
X118530000Y-104540000D03*
X118530000Y-102000000D03*
X121070000Y-104540000D03*
X121070000Y-102000000D03*
X123610000Y-104540000D03*
X123610000Y-102000000D03*
X126150000Y-104540000D03*
X126150000Y-102000000D03*
D10*
X109000000Y-111190000D03*
D11*
X109000000Y-113730000D03*
X109000000Y-116270000D03*
X109000000Y-118810000D03*
D10*
X156000000Y-111190000D03*
D11*
X156000000Y-113730000D03*
X156000000Y-116270000D03*
X156000000Y-118810000D03*
D14*
X114974500Y-110238500D03*
X114974500Y-112138500D03*
X111974500Y-111188500D03*
X111974500Y-116268500D03*
X114974500Y-117218500D03*
X114974500Y-115318500D03*
X114974500Y-120398500D03*
X114974500Y-122298500D03*
X111974500Y-121348500D03*
D15*
X123792000Y-123825000D03*
X123792000Y-122555000D03*
X123792000Y-121285000D03*
X123792000Y-120015000D03*
X129192000Y-120015000D03*
X129192000Y-121285000D03*
X129192000Y-122555000D03*
X129192000Y-123825000D03*
D12*
G36*
X136555005Y-104972204D02*
G01*
X136579273Y-104975804D01*
X136603072Y-104981765D01*
X136626171Y-104990030D01*
X136648350Y-105000520D01*
X136669393Y-105013132D01*
X136689099Y-105027747D01*
X136707277Y-105044223D01*
X136723753Y-105062401D01*
X136738368Y-105082107D01*
X136750980Y-105103150D01*
X136761470Y-105125329D01*
X136769735Y-105148428D01*
X136775696Y-105172227D01*
X136779296Y-105196495D01*
X136780500Y-105220999D01*
X136780500Y-105871001D01*
X136779296Y-105895505D01*
X136775696Y-105919773D01*
X136769735Y-105943572D01*
X136761470Y-105966671D01*
X136750980Y-105988850D01*
X136738368Y-106009893D01*
X136723753Y-106029599D01*
X136707277Y-106047777D01*
X136689099Y-106064253D01*
X136669393Y-106078868D01*
X136648350Y-106091480D01*
X136626171Y-106101970D01*
X136603072Y-106110235D01*
X136579273Y-106116196D01*
X136555005Y-106119796D01*
X136530501Y-106121000D01*
X135630499Y-106121000D01*
X135605995Y-106119796D01*
X135581727Y-106116196D01*
X135557928Y-106110235D01*
X135534829Y-106101970D01*
X135512650Y-106091480D01*
X135491607Y-106078868D01*
X135471901Y-106064253D01*
X135453723Y-106047777D01*
X135437247Y-106029599D01*
X135422632Y-106009893D01*
X135410020Y-105988850D01*
X135399530Y-105966671D01*
X135391265Y-105943572D01*
X135385304Y-105919773D01*
X135381704Y-105895505D01*
X135380500Y-105871001D01*
X135380500Y-105220999D01*
X135381704Y-105196495D01*
X135385304Y-105172227D01*
X135391265Y-105148428D01*
X135399530Y-105125329D01*
X135410020Y-105103150D01*
X135422632Y-105082107D01*
X135437247Y-105062401D01*
X135453723Y-105044223D01*
X135471901Y-105027747D01*
X135491607Y-105013132D01*
X135512650Y-105000520D01*
X135534829Y-104990030D01*
X135557928Y-104981765D01*
X135581727Y-104975804D01*
X135605995Y-104972204D01*
X135630499Y-104971000D01*
X136530501Y-104971000D01*
X136555005Y-104972204D01*
X136555005Y-104972204D01*
G37*
D13*
X136080500Y-105546000D03*
D12*
G36*
X136555005Y-102922204D02*
G01*
X136579273Y-102925804D01*
X136603072Y-102931765D01*
X136626171Y-102940030D01*
X136648350Y-102950520D01*
X136669393Y-102963132D01*
X136689099Y-102977747D01*
X136707277Y-102994223D01*
X136723753Y-103012401D01*
X136738368Y-103032107D01*
X136750980Y-103053150D01*
X136761470Y-103075329D01*
X136769735Y-103098428D01*
X136775696Y-103122227D01*
X136779296Y-103146495D01*
X136780500Y-103170999D01*
X136780500Y-103821001D01*
X136779296Y-103845505D01*
X136775696Y-103869773D01*
X136769735Y-103893572D01*
X136761470Y-103916671D01*
X136750980Y-103938850D01*
X136738368Y-103959893D01*
X136723753Y-103979599D01*
X136707277Y-103997777D01*
X136689099Y-104014253D01*
X136669393Y-104028868D01*
X136648350Y-104041480D01*
X136626171Y-104051970D01*
X136603072Y-104060235D01*
X136579273Y-104066196D01*
X136555005Y-104069796D01*
X136530501Y-104071000D01*
X135630499Y-104071000D01*
X135605995Y-104069796D01*
X135581727Y-104066196D01*
X135557928Y-104060235D01*
X135534829Y-104051970D01*
X135512650Y-104041480D01*
X135491607Y-104028868D01*
X135471901Y-104014253D01*
X135453723Y-103997777D01*
X135437247Y-103979599D01*
X135422632Y-103959893D01*
X135410020Y-103938850D01*
X135399530Y-103916671D01*
X135391265Y-103893572D01*
X135385304Y-103869773D01*
X135381704Y-103845505D01*
X135380500Y-103821001D01*
X135380500Y-103170999D01*
X135381704Y-103146495D01*
X135385304Y-103122227D01*
X135391265Y-103098428D01*
X135399530Y-103075329D01*
X135410020Y-103053150D01*
X135422632Y-103032107D01*
X135437247Y-103012401D01*
X135453723Y-102994223D01*
X135471901Y-102977747D01*
X135491607Y-102963132D01*
X135512650Y-102950520D01*
X135534829Y-102940030D01*
X135557928Y-102931765D01*
X135581727Y-102925804D01*
X135605995Y-102922204D01*
X135630499Y-102921000D01*
X136530501Y-102921000D01*
X136555005Y-102922204D01*
X136555005Y-102922204D01*
G37*
D13*
X136080500Y-103496000D03*
D12*
G36*
X133253005Y-102922204D02*
G01*
X133277273Y-102925804D01*
X133301072Y-102931765D01*
X133324171Y-102940030D01*
X133346350Y-102950520D01*
X133367393Y-102963132D01*
X133387099Y-102977747D01*
X133405277Y-102994223D01*
X133421753Y-103012401D01*
X133436368Y-103032107D01*
X133448980Y-103053150D01*
X133459470Y-103075329D01*
X133467735Y-103098428D01*
X133473696Y-103122227D01*
X133477296Y-103146495D01*
X133478500Y-103170999D01*
X133478500Y-103821001D01*
X133477296Y-103845505D01*
X133473696Y-103869773D01*
X133467735Y-103893572D01*
X133459470Y-103916671D01*
X133448980Y-103938850D01*
X133436368Y-103959893D01*
X133421753Y-103979599D01*
X133405277Y-103997777D01*
X133387099Y-104014253D01*
X133367393Y-104028868D01*
X133346350Y-104041480D01*
X133324171Y-104051970D01*
X133301072Y-104060235D01*
X133277273Y-104066196D01*
X133253005Y-104069796D01*
X133228501Y-104071000D01*
X132328499Y-104071000D01*
X132303995Y-104069796D01*
X132279727Y-104066196D01*
X132255928Y-104060235D01*
X132232829Y-104051970D01*
X132210650Y-104041480D01*
X132189607Y-104028868D01*
X132169901Y-104014253D01*
X132151723Y-103997777D01*
X132135247Y-103979599D01*
X132120632Y-103959893D01*
X132108020Y-103938850D01*
X132097530Y-103916671D01*
X132089265Y-103893572D01*
X132083304Y-103869773D01*
X132079704Y-103845505D01*
X132078500Y-103821001D01*
X132078500Y-103170999D01*
X132079704Y-103146495D01*
X132083304Y-103122227D01*
X132089265Y-103098428D01*
X132097530Y-103075329D01*
X132108020Y-103053150D01*
X132120632Y-103032107D01*
X132135247Y-103012401D01*
X132151723Y-102994223D01*
X132169901Y-102977747D01*
X132189607Y-102963132D01*
X132210650Y-102950520D01*
X132232829Y-102940030D01*
X132255928Y-102931765D01*
X132279727Y-102925804D01*
X132303995Y-102922204D01*
X132328499Y-102921000D01*
X133228501Y-102921000D01*
X133253005Y-102922204D01*
X133253005Y-102922204D01*
G37*
D13*
X132778500Y-103496000D03*
D12*
G36*
X133253005Y-104972204D02*
G01*
X133277273Y-104975804D01*
X133301072Y-104981765D01*
X133324171Y-104990030D01*
X133346350Y-105000520D01*
X133367393Y-105013132D01*
X133387099Y-105027747D01*
X133405277Y-105044223D01*
X133421753Y-105062401D01*
X133436368Y-105082107D01*
X133448980Y-105103150D01*
X133459470Y-105125329D01*
X133467735Y-105148428D01*
X133473696Y-105172227D01*
X133477296Y-105196495D01*
X133478500Y-105220999D01*
X133478500Y-105871001D01*
X133477296Y-105895505D01*
X133473696Y-105919773D01*
X133467735Y-105943572D01*
X133459470Y-105966671D01*
X133448980Y-105988850D01*
X133436368Y-106009893D01*
X133421753Y-106029599D01*
X133405277Y-106047777D01*
X133387099Y-106064253D01*
X133367393Y-106078868D01*
X133346350Y-106091480D01*
X133324171Y-106101970D01*
X133301072Y-106110235D01*
X133277273Y-106116196D01*
X133253005Y-106119796D01*
X133228501Y-106121000D01*
X132328499Y-106121000D01*
X132303995Y-106119796D01*
X132279727Y-106116196D01*
X132255928Y-106110235D01*
X132232829Y-106101970D01*
X132210650Y-106091480D01*
X132189607Y-106078868D01*
X132169901Y-106064253D01*
X132151723Y-106047777D01*
X132135247Y-106029599D01*
X132120632Y-106009893D01*
X132108020Y-105988850D01*
X132097530Y-105966671D01*
X132089265Y-105943572D01*
X132083304Y-105919773D01*
X132079704Y-105895505D01*
X132078500Y-105871001D01*
X132078500Y-105220999D01*
X132079704Y-105196495D01*
X132083304Y-105172227D01*
X132089265Y-105148428D01*
X132097530Y-105125329D01*
X132108020Y-105103150D01*
X132120632Y-105082107D01*
X132135247Y-105062401D01*
X132151723Y-105044223D01*
X132169901Y-105027747D01*
X132189607Y-105013132D01*
X132210650Y-105000520D01*
X132232829Y-104990030D01*
X132255928Y-104981765D01*
X132279727Y-104975804D01*
X132303995Y-104972204D01*
X132328499Y-104971000D01*
X133228501Y-104971000D01*
X133253005Y-104972204D01*
X133253005Y-104972204D01*
G37*
D13*
X132778500Y-105546000D03*
D12*
G36*
X129951005Y-102922204D02*
G01*
X129975273Y-102925804D01*
X129999072Y-102931765D01*
X130022171Y-102940030D01*
X130044350Y-102950520D01*
X130065393Y-102963132D01*
X130085099Y-102977747D01*
X130103277Y-102994223D01*
X130119753Y-103012401D01*
X130134368Y-103032107D01*
X130146980Y-103053150D01*
X130157470Y-103075329D01*
X130165735Y-103098428D01*
X130171696Y-103122227D01*
X130175296Y-103146495D01*
X130176500Y-103170999D01*
X130176500Y-103821001D01*
X130175296Y-103845505D01*
X130171696Y-103869773D01*
X130165735Y-103893572D01*
X130157470Y-103916671D01*
X130146980Y-103938850D01*
X130134368Y-103959893D01*
X130119753Y-103979599D01*
X130103277Y-103997777D01*
X130085099Y-104014253D01*
X130065393Y-104028868D01*
X130044350Y-104041480D01*
X130022171Y-104051970D01*
X129999072Y-104060235D01*
X129975273Y-104066196D01*
X129951005Y-104069796D01*
X129926501Y-104071000D01*
X129026499Y-104071000D01*
X129001995Y-104069796D01*
X128977727Y-104066196D01*
X128953928Y-104060235D01*
X128930829Y-104051970D01*
X128908650Y-104041480D01*
X128887607Y-104028868D01*
X128867901Y-104014253D01*
X128849723Y-103997777D01*
X128833247Y-103979599D01*
X128818632Y-103959893D01*
X128806020Y-103938850D01*
X128795530Y-103916671D01*
X128787265Y-103893572D01*
X128781304Y-103869773D01*
X128777704Y-103845505D01*
X128776500Y-103821001D01*
X128776500Y-103170999D01*
X128777704Y-103146495D01*
X128781304Y-103122227D01*
X128787265Y-103098428D01*
X128795530Y-103075329D01*
X128806020Y-103053150D01*
X128818632Y-103032107D01*
X128833247Y-103012401D01*
X128849723Y-102994223D01*
X128867901Y-102977747D01*
X128887607Y-102963132D01*
X128908650Y-102950520D01*
X128930829Y-102940030D01*
X128953928Y-102931765D01*
X128977727Y-102925804D01*
X129001995Y-102922204D01*
X129026499Y-102921000D01*
X129926501Y-102921000D01*
X129951005Y-102922204D01*
X129951005Y-102922204D01*
G37*
D13*
X129476500Y-103496000D03*
D12*
G36*
X129951005Y-104972204D02*
G01*
X129975273Y-104975804D01*
X129999072Y-104981765D01*
X130022171Y-104990030D01*
X130044350Y-105000520D01*
X130065393Y-105013132D01*
X130085099Y-105027747D01*
X130103277Y-105044223D01*
X130119753Y-105062401D01*
X130134368Y-105082107D01*
X130146980Y-105103150D01*
X130157470Y-105125329D01*
X130165735Y-105148428D01*
X130171696Y-105172227D01*
X130175296Y-105196495D01*
X130176500Y-105220999D01*
X130176500Y-105871001D01*
X130175296Y-105895505D01*
X130171696Y-105919773D01*
X130165735Y-105943572D01*
X130157470Y-105966671D01*
X130146980Y-105988850D01*
X130134368Y-106009893D01*
X130119753Y-106029599D01*
X130103277Y-106047777D01*
X130085099Y-106064253D01*
X130065393Y-106078868D01*
X130044350Y-106091480D01*
X130022171Y-106101970D01*
X129999072Y-106110235D01*
X129975273Y-106116196D01*
X129951005Y-106119796D01*
X129926501Y-106121000D01*
X129026499Y-106121000D01*
X129001995Y-106119796D01*
X128977727Y-106116196D01*
X128953928Y-106110235D01*
X128930829Y-106101970D01*
X128908650Y-106091480D01*
X128887607Y-106078868D01*
X128867901Y-106064253D01*
X128849723Y-106047777D01*
X128833247Y-106029599D01*
X128818632Y-106009893D01*
X128806020Y-105988850D01*
X128795530Y-105966671D01*
X128787265Y-105943572D01*
X128781304Y-105919773D01*
X128777704Y-105895505D01*
X128776500Y-105871001D01*
X128776500Y-105220999D01*
X128777704Y-105196495D01*
X128781304Y-105172227D01*
X128787265Y-105148428D01*
X128795530Y-105125329D01*
X128806020Y-105103150D01*
X128818632Y-105082107D01*
X128833247Y-105062401D01*
X128849723Y-105044223D01*
X128867901Y-105027747D01*
X128887607Y-105013132D01*
X128908650Y-105000520D01*
X128930829Y-104990030D01*
X128953928Y-104981765D01*
X128977727Y-104975804D01*
X129001995Y-104972204D01*
X129026499Y-104971000D01*
X129926501Y-104971000D01*
X129951005Y-104972204D01*
X129951005Y-104972204D01*
G37*
D13*
X129476500Y-105546000D03*
D16*
X122745500Y-115633500D03*
X129667000Y-125603000D03*
X122745500Y-114363500D03*
X146685000Y-112903000D03*
X136842500Y-114490500D03*
X146685000Y-111188500D03*
X132778500Y-110553500D03*
X118872000Y-110553500D03*
X150749000Y-116840000D03*
X151700000Y-102900000D03*
X142494000Y-111188500D03*
X123317000Y-126619000D03*
X129667000Y-127254000D03*
X131191000Y-123063000D03*
X119824500Y-112522000D03*
X120650000Y-111442500D03*
X135001000Y-110299500D03*
X138176000Y-119189500D03*
X135826500Y-112141000D03*
X117348000Y-122298500D03*
X125666500Y-107759500D03*
X120459500Y-108966000D03*
X112014000Y-109728000D03*
X112014000Y-114808000D03*
X112014000Y-119888000D03*
X131064000Y-121285000D03*
X121793000Y-121666000D03*
X127127000Y-120777000D03*
D17*
X125222000Y-114037000D02*
X125547000Y-114362000D01*
X125222000Y-114037000D02*
X124883500Y-114375500D01*
X124883500Y-114375500D02*
X122745500Y-114363500D01*
X128643500Y-114362000D02*
X125420000Y-114362000D01*
X125420000Y-114362000D02*
X125222000Y-114037000D01*
X128968500Y-114037000D02*
X128643500Y-114362000D01*
X132579000Y-114300000D02*
X132778500Y-114499500D01*
X129231500Y-114300000D02*
X132579000Y-114300000D01*
X128968500Y-114037000D02*
X129231500Y-114300000D01*
X136198500Y-114499500D02*
X132778500Y-114499500D01*
X136198500Y-114499500D02*
X136833500Y-114499500D01*
X136842500Y-114490500D02*
X136833500Y-114499500D01*
X136833500Y-114499500D02*
X132778500Y-114499500D01*
X156000000Y-113730000D02*
X154560500Y-113730000D01*
X146685000Y-112903000D02*
X153733500Y-112903000D01*
X153733500Y-112903000D02*
X154560500Y-113730000D01*
X146685000Y-111188500D02*
X150740000Y-111188500D01*
X132778500Y-110553500D02*
X132778500Y-112449500D01*
X150740000Y-118808500D02*
X150749000Y-118799500D01*
X150749000Y-118799500D02*
X150749000Y-116840000D01*
X118872000Y-110553500D02*
X115824000Y-107505500D01*
X111335500Y-107505500D02*
X115824000Y-107505500D01*
X108370000Y-104540000D02*
X111335500Y-107505500D01*
X149180000Y-102900000D02*
X147540000Y-104540000D01*
X151700000Y-102900000D02*
X149180000Y-102900000D01*
X142460000Y-111154500D02*
X142494000Y-111188500D01*
X142460000Y-107080000D02*
X142460000Y-111154500D01*
X126873000Y-127508000D02*
X126492000Y-127889000D01*
X126111000Y-127508000D02*
X126492000Y-127889000D01*
X123444000Y-126619000D02*
X124333000Y-127508000D01*
X124333000Y-127508000D02*
X126111000Y-127508000D01*
X126492000Y-127889000D02*
X129032000Y-127889000D01*
X129032000Y-127889000D02*
X129667000Y-127254000D01*
X130683000Y-122555000D02*
X131191000Y-123063000D01*
X129192000Y-122555000D02*
X130683000Y-122555000D01*
D18*
X152790000Y-118808500D02*
X155998500Y-118808500D01*
X155998500Y-118808500D02*
X156000000Y-118810000D01*
X152790000Y-111188500D02*
X155998500Y-111188500D01*
X155998500Y-111188500D02*
X156000000Y-111190000D01*
X116268500Y-106743500D02*
X113113500Y-106743500D01*
X119824500Y-110299500D02*
X116268500Y-106743500D01*
X119824500Y-112522000D02*
X119824500Y-110299500D01*
X110910000Y-104540000D02*
X113113500Y-106743500D01*
X115145500Y-106235500D02*
X113450000Y-104540000D01*
X115145500Y-106235500D02*
X116522500Y-106235500D01*
X120650000Y-111442500D02*
X120650000Y-110363000D01*
X120650000Y-110363000D02*
X116522500Y-106235500D01*
X138176000Y-119189500D02*
X138230500Y-119244000D01*
X138230500Y-119244000D02*
X139954000Y-119244000D01*
X135001000Y-110299500D02*
X135826500Y-111125000D01*
X135826500Y-111125000D02*
X135826500Y-112141000D01*
X117348000Y-113474500D02*
X117348000Y-117218500D01*
X117348000Y-117218500D02*
X117348000Y-120967500D01*
X117348000Y-120967500D02*
X117348000Y-121031000D01*
X114974500Y-117218500D02*
X117348000Y-117218500D01*
X114974500Y-112138500D02*
X115567500Y-112138500D01*
X115567500Y-112138500D02*
X117348000Y-113474500D01*
X117348000Y-121031000D02*
X117348000Y-113474500D01*
X114974500Y-122298500D02*
X117348000Y-122298500D01*
X117348000Y-120967500D02*
X117348000Y-122298500D01*
X119634000Y-122119500D02*
X120069500Y-122555000D01*
X120069500Y-122555000D02*
X123792000Y-122555000D01*
X119634000Y-122119500D02*
X119455000Y-122298500D01*
X119455000Y-122298500D02*
X117348000Y-122298500D01*
X115990000Y-104540000D02*
X120416000Y-108966000D01*
X120416000Y-108966000D02*
X120459500Y-108966000D01*
X136080500Y-105546000D02*
X134192498Y-107434002D01*
X125991998Y-107434002D02*
X125666500Y-107759500D01*
X134192498Y-107434002D02*
X125991998Y-107434002D01*
X121070000Y-104540000D02*
X123464000Y-106934000D01*
X132778500Y-105546000D02*
X131390500Y-106934000D01*
X131390500Y-106934000D02*
X123464000Y-106934000D01*
X123610000Y-104540000D02*
X125496000Y-106426000D01*
X125496000Y-106426000D02*
X125496000Y-106426000D01*
X125496000Y-106426000D02*
X128596500Y-106426000D01*
X128596500Y-106426000D02*
X129476500Y-105546000D01*
X114302500Y-110238500D02*
X114974500Y-110238500D01*
X113792000Y-109728000D02*
X114302500Y-110238500D01*
X112014000Y-109728000D02*
X113792000Y-109728000D01*
X112524500Y-115318500D02*
X114974500Y-115318500D01*
X112014000Y-114808000D02*
X112524500Y-115318500D01*
X114429500Y-120398500D02*
X114974500Y-120398500D01*
X113919000Y-119888000D02*
X114429500Y-120398500D01*
X112014000Y-119888000D02*
X113919000Y-119888000D01*
X140950000Y-101225000D02*
X142460000Y-102735000D01*
X142460000Y-102735000D02*
X142460000Y-104540000D01*
X129000000Y-101225000D02*
X140950000Y-101225000D01*
X126950000Y-103275000D02*
X129000000Y-101225000D01*
X117265000Y-103275000D02*
X126950000Y-103275000D01*
X115990000Y-102000000D02*
X117265000Y-103275000D01*
X145000000Y-105877919D02*
X145000000Y-104540000D01*
X145000000Y-107080000D02*
X145000000Y-105877919D01*
X145000000Y-104540000D02*
X141160000Y-100700000D01*
X119830000Y-100700000D02*
X118530000Y-102000000D01*
X141160000Y-100700000D02*
X119830000Y-100700000D01*
X139954000Y-121294000D02*
X136334500Y-121294000D01*
X132778500Y-121294000D02*
X136334500Y-121294000D01*
X132778500Y-121294000D02*
X131073000Y-121294000D01*
X131073000Y-121294000D02*
X131064000Y-121285000D01*
X121793000Y-121666000D02*
X122174000Y-121285000D01*
X122174000Y-121285000D02*
X123792000Y-121285000D01*
X111974500Y-111188500D02*
X109001500Y-111188500D01*
X109001500Y-111188500D02*
X109000000Y-111190000D01*
X129192000Y-121285000D02*
X127635000Y-121285000D01*
X127635000Y-121285000D02*
X127127000Y-120777000D01*
X111974500Y-116268500D02*
X109001500Y-116268500D01*
X109001500Y-116268500D02*
X109000000Y-116270000D01*
X111094000Y-121348500D02*
X109000000Y-118810000D01*
X111974500Y-121348500D02*
X111094000Y-121348500D01*
D19*
G36*
X107540986Y-100759294D02*
G01*
X107314866Y-100944866D01*
X107129294Y-101170986D01*
X106991401Y-101428966D01*
X106906487Y-101708889D01*
X106877815Y-102000000D01*
X106906487Y-102291111D01*
X106991401Y-102571034D01*
X107129294Y-102829014D01*
X107314866Y-103055134D01*
X107344687Y-103079607D01*
X107275820Y-103100498D01*
X107165506Y-103159463D01*
X107068815Y-103238815D01*
X106989463Y-103335506D01*
X106930498Y-103445820D01*
X106894188Y-103565518D01*
X106881928Y-103690000D01*
X106881928Y-105390000D01*
X106894188Y-105514482D01*
X106930498Y-105634180D01*
X106989463Y-105744494D01*
X107068815Y-105841185D01*
X107165506Y-105920537D01*
X107275820Y-105979502D01*
X107395518Y-106015812D01*
X107520000Y-106028072D01*
X108712560Y-106028072D01*
X110734605Y-108050118D01*
X110759972Y-108081028D01*
X110811390Y-108123225D01*
X110883310Y-108182249D01*
X110927746Y-108206000D01*
X111024027Y-108257463D01*
X111176712Y-108303780D01*
X111295709Y-108315500D01*
X111295711Y-108315500D01*
X111335499Y-108319419D01*
X111375287Y-108315500D01*
X115488488Y-108315500D01*
X117787000Y-110614013D01*
X117787000Y-110660363D01*
X117828696Y-110869983D01*
X117910485Y-111067440D01*
X118029225Y-111245147D01*
X118180353Y-111396275D01*
X118358060Y-111515015D01*
X118555517Y-111596804D01*
X118765137Y-111638500D01*
X118978863Y-111638500D01*
X119064500Y-111621466D01*
X119064500Y-111747578D01*
X118981725Y-111830353D01*
X118862985Y-112008060D01*
X118781196Y-112205517D01*
X118739500Y-112415137D01*
X118739500Y-112628863D01*
X118781196Y-112838483D01*
X118862985Y-113035940D01*
X118981725Y-113213647D01*
X119132853Y-113364775D01*
X119310560Y-113483515D01*
X119508017Y-113565304D01*
X119717637Y-113607000D01*
X119931363Y-113607000D01*
X120140983Y-113565304D01*
X120338440Y-113483515D01*
X120516147Y-113364775D01*
X120667275Y-113213647D01*
X120786015Y-113035940D01*
X120867804Y-112838483D01*
X120909500Y-112628863D01*
X120909500Y-112497139D01*
X120966483Y-112485804D01*
X121163940Y-112404015D01*
X121341647Y-112285275D01*
X121492775Y-112134147D01*
X121611515Y-111956440D01*
X121693304Y-111758983D01*
X121735000Y-111549363D01*
X121735000Y-111335637D01*
X121693304Y-111126017D01*
X121611515Y-110928560D01*
X121492775Y-110750853D01*
X121410000Y-110668078D01*
X121410000Y-110400322D01*
X121413676Y-110362999D01*
X121410000Y-110325676D01*
X121410000Y-110325667D01*
X121399003Y-110214014D01*
X121355546Y-110070753D01*
X121284974Y-109938724D01*
X121234307Y-109876986D01*
X121213799Y-109851996D01*
X121213795Y-109851992D01*
X121190001Y-109822999D01*
X121161008Y-109799205D01*
X121160862Y-109799060D01*
X121302275Y-109657647D01*
X121421015Y-109479940D01*
X121502804Y-109282483D01*
X121544500Y-109072863D01*
X121544500Y-108859137D01*
X121502804Y-108649517D01*
X121421015Y-108452060D01*
X121302275Y-108274353D01*
X121151147Y-108123225D01*
X120973440Y-108004485D01*
X120775983Y-107922696D01*
X120566363Y-107881000D01*
X120405802Y-107881000D01*
X117430797Y-104905996D01*
X117453513Y-104831111D01*
X117482185Y-104540000D01*
X117453513Y-104248889D01*
X117388630Y-104035000D01*
X119671370Y-104035000D01*
X119606487Y-104248889D01*
X119577815Y-104540000D01*
X119606487Y-104831111D01*
X119691401Y-105111034D01*
X119829294Y-105369014D01*
X120014866Y-105595134D01*
X120240986Y-105780706D01*
X120498966Y-105918599D01*
X120778889Y-106003513D01*
X120997050Y-106025000D01*
X121142950Y-106025000D01*
X121361111Y-106003513D01*
X121435996Y-105980797D01*
X122900201Y-107445003D01*
X122923999Y-107474001D01*
X123039724Y-107568974D01*
X123171753Y-107639546D01*
X123315014Y-107683003D01*
X123426667Y-107694000D01*
X123426676Y-107694000D01*
X123463999Y-107697676D01*
X123501322Y-107694000D01*
X124581500Y-107694000D01*
X124581500Y-107866363D01*
X124623196Y-108075983D01*
X124704985Y-108273440D01*
X124823725Y-108451147D01*
X124974853Y-108602275D01*
X125152560Y-108721015D01*
X125350017Y-108802804D01*
X125559637Y-108844500D01*
X125773363Y-108844500D01*
X125982983Y-108802804D01*
X126180440Y-108721015D01*
X126358147Y-108602275D01*
X126509275Y-108451147D01*
X126628015Y-108273440D01*
X126660919Y-108194002D01*
X134155176Y-108194002D01*
X134192498Y-108197678D01*
X134229820Y-108194002D01*
X134229831Y-108194002D01*
X134341484Y-108183005D01*
X134484745Y-108139548D01*
X134616774Y-108068976D01*
X134732499Y-107974003D01*
X134756302Y-107944999D01*
X135942230Y-106759072D01*
X136530501Y-106759072D01*
X136703755Y-106742008D01*
X136870351Y-106691472D01*
X137023887Y-106609405D01*
X137158462Y-106498962D01*
X137268905Y-106364387D01*
X137350972Y-106210851D01*
X137401508Y-106044255D01*
X137418572Y-105871001D01*
X137418572Y-105220999D01*
X137401508Y-105047745D01*
X137350972Y-104881149D01*
X137268905Y-104727613D01*
X137158462Y-104593038D01*
X137151906Y-104587658D01*
X137231685Y-104522185D01*
X137311037Y-104425494D01*
X137370002Y-104315180D01*
X137406312Y-104195482D01*
X137407530Y-104183109D01*
X138478519Y-104183109D01*
X138599186Y-104413000D01*
X139793000Y-104413000D01*
X139793000Y-103219845D01*
X139563110Y-103098524D01*
X139415901Y-103143175D01*
X139153080Y-103268359D01*
X138919731Y-103442412D01*
X138724822Y-103658645D01*
X138575843Y-103908748D01*
X138478519Y-104183109D01*
X137407530Y-104183109D01*
X137418572Y-104071000D01*
X137415500Y-103781750D01*
X137256750Y-103623000D01*
X136207500Y-103623000D01*
X136207500Y-103643000D01*
X135953500Y-103643000D01*
X135953500Y-103623000D01*
X134904250Y-103623000D01*
X134745500Y-103781750D01*
X134742428Y-104071000D01*
X134754688Y-104195482D01*
X134790998Y-104315180D01*
X134849963Y-104425494D01*
X134929315Y-104522185D01*
X135009094Y-104587658D01*
X135002538Y-104593038D01*
X134892095Y-104727613D01*
X134810028Y-104881149D01*
X134759492Y-105047745D01*
X134742428Y-105220999D01*
X134742428Y-105809270D01*
X133877697Y-106674002D01*
X133601035Y-106674002D01*
X133721887Y-106609405D01*
X133856462Y-106498962D01*
X133966905Y-106364387D01*
X134048972Y-106210851D01*
X134099508Y-106044255D01*
X134116572Y-105871001D01*
X134116572Y-105220999D01*
X134099508Y-105047745D01*
X134048972Y-104881149D01*
X133966905Y-104727613D01*
X133856462Y-104593038D01*
X133849906Y-104587658D01*
X133929685Y-104522185D01*
X134009037Y-104425494D01*
X134068002Y-104315180D01*
X134104312Y-104195482D01*
X134116572Y-104071000D01*
X134113500Y-103781750D01*
X133954750Y-103623000D01*
X132905500Y-103623000D01*
X132905500Y-103643000D01*
X132651500Y-103643000D01*
X132651500Y-103623000D01*
X131602250Y-103623000D01*
X131443500Y-103781750D01*
X131440428Y-104071000D01*
X131452688Y-104195482D01*
X131488998Y-104315180D01*
X131547963Y-104425494D01*
X131627315Y-104522185D01*
X131707094Y-104587658D01*
X131700538Y-104593038D01*
X131590095Y-104727613D01*
X131508028Y-104881149D01*
X131457492Y-105047745D01*
X131440428Y-105220999D01*
X131440428Y-105809270D01*
X131075699Y-106174000D01*
X130758151Y-106174000D01*
X130797508Y-106044255D01*
X130814572Y-105871001D01*
X130814572Y-105220999D01*
X130797508Y-105047745D01*
X130746972Y-104881149D01*
X130664905Y-104727613D01*
X130554462Y-104593038D01*
X130547906Y-104587658D01*
X130627685Y-104522185D01*
X130707037Y-104425494D01*
X130766002Y-104315180D01*
X130802312Y-104195482D01*
X130814572Y-104071000D01*
X130811500Y-103781750D01*
X130652750Y-103623000D01*
X129603500Y-103623000D01*
X129603500Y-103643000D01*
X129349500Y-103643000D01*
X129349500Y-103623000D01*
X128300250Y-103623000D01*
X128141500Y-103781750D01*
X128138428Y-104071000D01*
X128150688Y-104195482D01*
X128186998Y-104315180D01*
X128245963Y-104425494D01*
X128325315Y-104522185D01*
X128405094Y-104587658D01*
X128398538Y-104593038D01*
X128288095Y-104727613D01*
X128206028Y-104881149D01*
X128155492Y-105047745D01*
X128138428Y-105220999D01*
X128138428Y-105666000D01*
X127118784Y-105666000D01*
X127205134Y-105595134D01*
X127390706Y-105369014D01*
X127528599Y-105111034D01*
X127613513Y-104831111D01*
X127642185Y-104540000D01*
X127613513Y-104248889D01*
X127528599Y-103968966D01*
X127459627Y-103839928D01*
X127490001Y-103815001D01*
X127513804Y-103785997D01*
X128140954Y-103158847D01*
X128141500Y-103210250D01*
X128300250Y-103369000D01*
X129349500Y-103369000D01*
X129349500Y-102444750D01*
X129603500Y-102444750D01*
X129603500Y-103369000D01*
X130652750Y-103369000D01*
X130811500Y-103210250D01*
X130814572Y-102921000D01*
X131440428Y-102921000D01*
X131443500Y-103210250D01*
X131602250Y-103369000D01*
X132651500Y-103369000D01*
X132651500Y-102444750D01*
X132905500Y-102444750D01*
X132905500Y-103369000D01*
X133954750Y-103369000D01*
X134113500Y-103210250D01*
X134116572Y-102921000D01*
X134742428Y-102921000D01*
X134745500Y-103210250D01*
X134904250Y-103369000D01*
X135953500Y-103369000D01*
X135953500Y-102444750D01*
X136207500Y-102444750D01*
X136207500Y-103369000D01*
X137256750Y-103369000D01*
X137415500Y-103210250D01*
X137418572Y-102921000D01*
X137406312Y-102796518D01*
X137370002Y-102676820D01*
X137311037Y-102566506D01*
X137231685Y-102469815D01*
X137134994Y-102390463D01*
X137024680Y-102331498D01*
X136904982Y-102295188D01*
X136780500Y-102282928D01*
X136366250Y-102286000D01*
X136207500Y-102444750D01*
X135953500Y-102444750D01*
X135794750Y-102286000D01*
X135380500Y-102282928D01*
X135256018Y-102295188D01*
X135136320Y-102331498D01*
X135026006Y-102390463D01*
X134929315Y-102469815D01*
X134849963Y-102566506D01*
X134790998Y-102676820D01*
X134754688Y-102796518D01*
X134742428Y-102921000D01*
X134116572Y-102921000D01*
X134104312Y-102796518D01*
X134068002Y-102676820D01*
X134009037Y-102566506D01*
X133929685Y-102469815D01*
X133832994Y-102390463D01*
X133722680Y-102331498D01*
X133602982Y-102295188D01*
X133478500Y-102282928D01*
X133064250Y-102286000D01*
X132905500Y-102444750D01*
X132651500Y-102444750D01*
X132492750Y-102286000D01*
X132078500Y-102282928D01*
X131954018Y-102295188D01*
X131834320Y-102331498D01*
X131724006Y-102390463D01*
X131627315Y-102469815D01*
X131547963Y-102566506D01*
X131488998Y-102676820D01*
X131452688Y-102796518D01*
X131440428Y-102921000D01*
X130814572Y-102921000D01*
X130802312Y-102796518D01*
X130766002Y-102676820D01*
X130707037Y-102566506D01*
X130627685Y-102469815D01*
X130530994Y-102390463D01*
X130420680Y-102331498D01*
X130300982Y-102295188D01*
X130176500Y-102282928D01*
X129762250Y-102286000D01*
X129603500Y-102444750D01*
X129349500Y-102444750D01*
X129190750Y-102286000D01*
X129015104Y-102284697D01*
X129314802Y-101985000D01*
X140635199Y-101985000D01*
X141700000Y-103049803D01*
X141700000Y-103262405D01*
X141630986Y-103299294D01*
X141404866Y-103484866D01*
X141219294Y-103710986D01*
X141184799Y-103775523D01*
X141115178Y-103658645D01*
X140920269Y-103442412D01*
X140686920Y-103268359D01*
X140424099Y-103143175D01*
X140276890Y-103098524D01*
X140047000Y-103219845D01*
X140047000Y-104413000D01*
X140067000Y-104413000D01*
X140067000Y-104667000D01*
X140047000Y-104667000D01*
X140047000Y-104687000D01*
X139793000Y-104687000D01*
X139793000Y-104667000D01*
X138599186Y-104667000D01*
X138478519Y-104896891D01*
X138575843Y-105171252D01*
X138724822Y-105421355D01*
X138901626Y-105617502D01*
X138825820Y-105640498D01*
X138715506Y-105699463D01*
X138618815Y-105778815D01*
X138539463Y-105875506D01*
X138480498Y-105985820D01*
X138444188Y-106105518D01*
X138431928Y-106230000D01*
X138431928Y-107930000D01*
X138444188Y-108054482D01*
X138480498Y-108174180D01*
X138539463Y-108284494D01*
X138618815Y-108381185D01*
X138715506Y-108460537D01*
X138825820Y-108519502D01*
X138945518Y-108555812D01*
X139070000Y-108568072D01*
X140770000Y-108568072D01*
X140894482Y-108555812D01*
X141014180Y-108519502D01*
X141124494Y-108460537D01*
X141221185Y-108381185D01*
X141300537Y-108284494D01*
X141359502Y-108174180D01*
X141380393Y-108105313D01*
X141404866Y-108135134D01*
X141630986Y-108320706D01*
X141650000Y-108330869D01*
X141650001Y-110498685D01*
X141532485Y-110674560D01*
X141450696Y-110872017D01*
X141409000Y-111081637D01*
X141409000Y-111295363D01*
X141450696Y-111504983D01*
X141532485Y-111702440D01*
X141651225Y-111880147D01*
X141802353Y-112031275D01*
X141980060Y-112150015D01*
X142177517Y-112231804D01*
X142387137Y-112273500D01*
X142600863Y-112273500D01*
X142810483Y-112231804D01*
X143007940Y-112150015D01*
X143185647Y-112031275D01*
X143336775Y-111880147D01*
X143455515Y-111702440D01*
X143537304Y-111504983D01*
X143579000Y-111295363D01*
X143579000Y-111081637D01*
X145600000Y-111081637D01*
X145600000Y-111295363D01*
X145641696Y-111504983D01*
X145723485Y-111702440D01*
X145842225Y-111880147D01*
X145993353Y-112031275D01*
X146015016Y-112045750D01*
X145993353Y-112060225D01*
X145842225Y-112211353D01*
X145723485Y-112389060D01*
X145641696Y-112586517D01*
X145600000Y-112796137D01*
X145600000Y-113009863D01*
X145641696Y-113219483D01*
X145723485Y-113416940D01*
X145842225Y-113594647D01*
X145993353Y-113745775D01*
X146171060Y-113864515D01*
X146368517Y-113946304D01*
X146578137Y-113988000D01*
X146791863Y-113988000D01*
X147001483Y-113946304D01*
X147198940Y-113864515D01*
X147376647Y-113745775D01*
X147409422Y-113713000D01*
X153397988Y-113713000D01*
X153959605Y-114274618D01*
X153984972Y-114305528D01*
X154053783Y-114361999D01*
X154108311Y-114406749D01*
X154249026Y-114481963D01*
X154277169Y-114490500D01*
X154401712Y-114528280D01*
X154520709Y-114540000D01*
X154520712Y-114540000D01*
X154560500Y-114543919D01*
X154600288Y-114540000D01*
X154749131Y-114540000D01*
X154759294Y-114559014D01*
X154944866Y-114785134D01*
X155170986Y-114970706D01*
X155235523Y-115005201D01*
X155118645Y-115074822D01*
X154902412Y-115269731D01*
X154728359Y-115503080D01*
X154603175Y-115765901D01*
X154558524Y-115913110D01*
X154679845Y-116143000D01*
X155873000Y-116143000D01*
X155873000Y-116123000D01*
X156127000Y-116123000D01*
X156127000Y-116143000D01*
X157320155Y-116143000D01*
X157441476Y-115913110D01*
X157396825Y-115765901D01*
X157271641Y-115503080D01*
X157097588Y-115269731D01*
X156881355Y-115074822D01*
X156764477Y-115005201D01*
X156829014Y-114970706D01*
X157055134Y-114785134D01*
X157131553Y-114692017D01*
X157373000Y-114692017D01*
X157373000Y-115307983D01*
X157493169Y-115912112D01*
X157728889Y-116481190D01*
X158071101Y-116993346D01*
X158506654Y-117428899D01*
X159018810Y-117771111D01*
X159587888Y-118006831D01*
X160192017Y-118127000D01*
X160807983Y-118127000D01*
X161412112Y-118006831D01*
X161981190Y-117771111D01*
X162493346Y-117428899D01*
X162928899Y-116993346D01*
X163271111Y-116481190D01*
X163506831Y-115912112D01*
X163627000Y-115307983D01*
X163627000Y-114692017D01*
X163506831Y-114087888D01*
X163271111Y-113518810D01*
X162928899Y-113006654D01*
X162493346Y-112571101D01*
X161981190Y-112228889D01*
X161412112Y-111993169D01*
X160807983Y-111873000D01*
X160192017Y-111873000D01*
X159587888Y-111993169D01*
X159018810Y-112228889D01*
X158506654Y-112571101D01*
X158071101Y-113006654D01*
X157728889Y-113518810D01*
X157493169Y-114087888D01*
X157373000Y-114692017D01*
X157131553Y-114692017D01*
X157240706Y-114559014D01*
X157378599Y-114301034D01*
X157463513Y-114021111D01*
X157492185Y-113730000D01*
X157463513Y-113438889D01*
X157378599Y-113158966D01*
X157240706Y-112900986D01*
X157055134Y-112674866D01*
X157025313Y-112650393D01*
X157094180Y-112629502D01*
X157204494Y-112570537D01*
X157301185Y-112491185D01*
X157380537Y-112394494D01*
X157439502Y-112284180D01*
X157475812Y-112164482D01*
X157488072Y-112040000D01*
X157488072Y-110340000D01*
X157475812Y-110215518D01*
X157439502Y-110095820D01*
X157380537Y-109985506D01*
X157301185Y-109888815D01*
X157204494Y-109809463D01*
X157094180Y-109750498D01*
X156974482Y-109714188D01*
X156850000Y-109701928D01*
X155150000Y-109701928D01*
X155025518Y-109714188D01*
X154905820Y-109750498D01*
X154795506Y-109809463D01*
X154698815Y-109888815D01*
X154619463Y-109985506D01*
X154560498Y-110095820D01*
X154524188Y-110215518D01*
X154511928Y-110340000D01*
X154511928Y-110428500D01*
X153935527Y-110428500D01*
X153926472Y-110398649D01*
X153844405Y-110245113D01*
X153733962Y-110110538D01*
X153599387Y-110000095D01*
X153445851Y-109918028D01*
X153279255Y-109867492D01*
X153106001Y-109850428D01*
X152455999Y-109850428D01*
X152282745Y-109867492D01*
X152116149Y-109918028D01*
X151962613Y-110000095D01*
X151828038Y-110110538D01*
X151756000Y-110198316D01*
X151683962Y-110110538D01*
X151549387Y-110000095D01*
X151395851Y-109918028D01*
X151229255Y-109867492D01*
X151056001Y-109850428D01*
X150405999Y-109850428D01*
X150232745Y-109867492D01*
X150066149Y-109918028D01*
X149912613Y-110000095D01*
X149778038Y-110110538D01*
X149667595Y-110245113D01*
X149596298Y-110378500D01*
X147409422Y-110378500D01*
X147376647Y-110345725D01*
X147198940Y-110226985D01*
X147001483Y-110145196D01*
X146791863Y-110103500D01*
X146578137Y-110103500D01*
X146368517Y-110145196D01*
X146171060Y-110226985D01*
X145993353Y-110345725D01*
X145842225Y-110496853D01*
X145723485Y-110674560D01*
X145641696Y-110872017D01*
X145600000Y-111081637D01*
X143579000Y-111081637D01*
X143537304Y-110872017D01*
X143455515Y-110674560D01*
X143336775Y-110496853D01*
X143270000Y-110430078D01*
X143270000Y-108330869D01*
X143289014Y-108320706D01*
X143515134Y-108135134D01*
X143700706Y-107909014D01*
X143730000Y-107854209D01*
X143759294Y-107909014D01*
X143944866Y-108135134D01*
X144170986Y-108320706D01*
X144428966Y-108458599D01*
X144708889Y-108543513D01*
X144927050Y-108565000D01*
X145072950Y-108565000D01*
X145291111Y-108543513D01*
X145571034Y-108458599D01*
X145829014Y-108320706D01*
X146055134Y-108135134D01*
X146240706Y-107909014D01*
X146270000Y-107854209D01*
X146299294Y-107909014D01*
X146484866Y-108135134D01*
X146710986Y-108320706D01*
X146968966Y-108458599D01*
X147248889Y-108543513D01*
X147467050Y-108565000D01*
X147612950Y-108565000D01*
X147831111Y-108543513D01*
X148111034Y-108458599D01*
X148369014Y-108320706D01*
X148595134Y-108135134D01*
X148780706Y-107909014D01*
X148815201Y-107844477D01*
X148884822Y-107961355D01*
X149079731Y-108177588D01*
X149313080Y-108351641D01*
X149575901Y-108476825D01*
X149723110Y-108521476D01*
X149953000Y-108400155D01*
X149953000Y-107207000D01*
X150207000Y-107207000D01*
X150207000Y-108400155D01*
X150436890Y-108521476D01*
X150584099Y-108476825D01*
X150846920Y-108351641D01*
X151080269Y-108177588D01*
X151275178Y-107961355D01*
X151424157Y-107711252D01*
X151521481Y-107436891D01*
X151400814Y-107207000D01*
X150207000Y-107207000D01*
X149953000Y-107207000D01*
X149933000Y-107207000D01*
X149933000Y-106953000D01*
X149953000Y-106953000D01*
X149953000Y-106933000D01*
X150207000Y-106933000D01*
X150207000Y-106953000D01*
X151400814Y-106953000D01*
X151521481Y-106723109D01*
X151424157Y-106448748D01*
X151275178Y-106198645D01*
X151080269Y-105982412D01*
X150851244Y-105811584D01*
X150909014Y-105780706D01*
X151135134Y-105595134D01*
X151320706Y-105369014D01*
X151458599Y-105111034D01*
X151543513Y-104831111D01*
X151572185Y-104540000D01*
X151543513Y-104248889D01*
X151458599Y-103968966D01*
X151452183Y-103956963D01*
X151593137Y-103985000D01*
X151806863Y-103985000D01*
X152016483Y-103943304D01*
X152213940Y-103861515D01*
X152391647Y-103742775D01*
X152542775Y-103591647D01*
X152661515Y-103413940D01*
X152743304Y-103216483D01*
X152785000Y-103006863D01*
X152785000Y-102793137D01*
X152743304Y-102583517D01*
X152661515Y-102386060D01*
X152542775Y-102208353D01*
X152391647Y-102057225D01*
X152213940Y-101938485D01*
X152016483Y-101856696D01*
X151806863Y-101815000D01*
X151593137Y-101815000D01*
X151383517Y-101856696D01*
X151186060Y-101938485D01*
X151008353Y-102057225D01*
X150975578Y-102090000D01*
X149219787Y-102090000D01*
X149179999Y-102086081D01*
X149140211Y-102090000D01*
X149140209Y-102090000D01*
X149021212Y-102101720D01*
X148868527Y-102148037D01*
X148827102Y-102170179D01*
X148727810Y-102223251D01*
X148676464Y-102265390D01*
X148604472Y-102324472D01*
X148579105Y-102355382D01*
X147851742Y-103082745D01*
X147831111Y-103076487D01*
X147612950Y-103055000D01*
X147467050Y-103055000D01*
X147248889Y-103076487D01*
X146968966Y-103161401D01*
X146710986Y-103299294D01*
X146484866Y-103484866D01*
X146299294Y-103710986D01*
X146270000Y-103765791D01*
X146240706Y-103710986D01*
X146055134Y-103484866D01*
X145829014Y-103299294D01*
X145571034Y-103161401D01*
X145291111Y-103076487D01*
X145072950Y-103055000D01*
X144927050Y-103055000D01*
X144708889Y-103076487D01*
X144634005Y-103099203D01*
X142219801Y-100685000D01*
X160255423Y-100685000D01*
X160042494Y-100773198D01*
X159538527Y-101109938D01*
X159109938Y-101538527D01*
X158773198Y-102042494D01*
X158541248Y-102602472D01*
X158423000Y-103196942D01*
X158423000Y-103803058D01*
X158541248Y-104397528D01*
X158773198Y-104957506D01*
X159109938Y-105461473D01*
X159538527Y-105890062D01*
X160042494Y-106226802D01*
X160189794Y-106287815D01*
X159920997Y-106341282D01*
X159559750Y-106490915D01*
X159234636Y-106708149D01*
X158958149Y-106984636D01*
X158740915Y-107309750D01*
X158591282Y-107670997D01*
X158515000Y-108054495D01*
X158515000Y-108445505D01*
X158591282Y-108829003D01*
X158740915Y-109190250D01*
X158958149Y-109515364D01*
X159234636Y-109791851D01*
X159559750Y-110009085D01*
X159920997Y-110158718D01*
X160304495Y-110235000D01*
X160695505Y-110235000D01*
X161079003Y-110158718D01*
X161440250Y-110009085D01*
X161765364Y-109791851D01*
X162041851Y-109515364D01*
X162259085Y-109190250D01*
X162408718Y-108829003D01*
X162485000Y-108445505D01*
X162485000Y-108054495D01*
X162408718Y-107670997D01*
X162259085Y-107309750D01*
X162041851Y-106984636D01*
X161765364Y-106708149D01*
X161569085Y-106577000D01*
X161803058Y-106577000D01*
X162397528Y-106458752D01*
X162957506Y-106226802D01*
X163461473Y-105890062D01*
X163890062Y-105461473D01*
X164226802Y-104957506D01*
X164315001Y-104744574D01*
X164315000Y-125255423D01*
X164226802Y-125042494D01*
X163890062Y-124538527D01*
X163461473Y-124109938D01*
X162957506Y-123773198D01*
X162397528Y-123541248D01*
X161803058Y-123423000D01*
X161569085Y-123423000D01*
X161765364Y-123291851D01*
X162041851Y-123015364D01*
X162259085Y-122690250D01*
X162408718Y-122329003D01*
X162485000Y-121945505D01*
X162485000Y-121554495D01*
X162408718Y-121170997D01*
X162259085Y-120809750D01*
X162041851Y-120484636D01*
X161765364Y-120208149D01*
X161440250Y-119990915D01*
X161079003Y-119841282D01*
X160695505Y-119765000D01*
X160304495Y-119765000D01*
X159920997Y-119841282D01*
X159559750Y-119990915D01*
X159234636Y-120208149D01*
X158958149Y-120484636D01*
X158740915Y-120809750D01*
X158591282Y-121170997D01*
X158515000Y-121554495D01*
X158515000Y-121945505D01*
X158591282Y-122329003D01*
X158740915Y-122690250D01*
X158958149Y-123015364D01*
X159234636Y-123291851D01*
X159559750Y-123509085D01*
X159920997Y-123658718D01*
X160189794Y-123712185D01*
X160042494Y-123773198D01*
X159538527Y-124109938D01*
X159109938Y-124538527D01*
X158773198Y-125042494D01*
X158541248Y-125602472D01*
X158423000Y-126196942D01*
X158423000Y-126803058D01*
X158541248Y-127397528D01*
X158773198Y-127957506D01*
X159109938Y-128461473D01*
X159538527Y-128890062D01*
X160042494Y-129226802D01*
X160255423Y-129315000D01*
X104744577Y-129315000D01*
X104957506Y-129226802D01*
X105461473Y-128890062D01*
X105890062Y-128461473D01*
X106226802Y-127957506D01*
X106458752Y-127397528D01*
X106577000Y-126803058D01*
X106577000Y-126512137D01*
X122232000Y-126512137D01*
X122232000Y-126725863D01*
X122273696Y-126935483D01*
X122355485Y-127132940D01*
X122474225Y-127310647D01*
X122625353Y-127461775D01*
X122803060Y-127580515D01*
X123000517Y-127662304D01*
X123210137Y-127704000D01*
X123383487Y-127704000D01*
X123732105Y-128052618D01*
X123757472Y-128083528D01*
X123796165Y-128115282D01*
X123880810Y-128184749D01*
X123935538Y-128214001D01*
X124021527Y-128259963D01*
X124174212Y-128306280D01*
X124293209Y-128318000D01*
X124293212Y-128318000D01*
X124333000Y-128321919D01*
X124372788Y-128318000D01*
X125164171Y-128318000D01*
X125170992Y-128387255D01*
X125221528Y-128553851D01*
X125303595Y-128707387D01*
X125414038Y-128841962D01*
X125548613Y-128952405D01*
X125702149Y-129034472D01*
X125868745Y-129085008D01*
X126041999Y-129102072D01*
X126942001Y-129102072D01*
X127115255Y-129085008D01*
X127281851Y-129034472D01*
X127435387Y-128952405D01*
X127569962Y-128841962D01*
X127680405Y-128707387D01*
X127684888Y-128699000D01*
X128992212Y-128699000D01*
X129032000Y-128702919D01*
X129071788Y-128699000D01*
X129071791Y-128699000D01*
X129190788Y-128687280D01*
X129343473Y-128640963D01*
X129484189Y-128565749D01*
X129607528Y-128464528D01*
X129632899Y-128433613D01*
X129727512Y-128339000D01*
X129773863Y-128339000D01*
X129983483Y-128297304D01*
X130180940Y-128215515D01*
X130358647Y-128096775D01*
X130509775Y-127945647D01*
X130628515Y-127767940D01*
X130710304Y-127570483D01*
X130752000Y-127360863D01*
X130752000Y-127147137D01*
X130710304Y-126937517D01*
X130628515Y-126740060D01*
X130509775Y-126562353D01*
X130358647Y-126411225D01*
X130180940Y-126292485D01*
X129983483Y-126210696D01*
X129773863Y-126169000D01*
X129560137Y-126169000D01*
X129350517Y-126210696D01*
X129153060Y-126292485D01*
X128975353Y-126411225D01*
X128824225Y-126562353D01*
X128705485Y-126740060D01*
X128623696Y-126937517D01*
X128595553Y-127079000D01*
X127684888Y-127079000D01*
X127680405Y-127070613D01*
X127569962Y-126936038D01*
X127563406Y-126930658D01*
X127643185Y-126865185D01*
X127722537Y-126768494D01*
X127781502Y-126658180D01*
X127817812Y-126538482D01*
X127830072Y-126414000D01*
X127827000Y-126124750D01*
X127668250Y-125966000D01*
X126619000Y-125966000D01*
X126619000Y-125986000D01*
X126365000Y-125986000D01*
X126365000Y-125966000D01*
X125315750Y-125966000D01*
X125157000Y-126124750D01*
X125153928Y-126414000D01*
X125166188Y-126538482D01*
X125202498Y-126658180D01*
X125223783Y-126698000D01*
X124668513Y-126698000D01*
X124381975Y-126411462D01*
X124360304Y-126302517D01*
X124278515Y-126105060D01*
X124159775Y-125927353D01*
X124008647Y-125776225D01*
X123830940Y-125657485D01*
X123633483Y-125575696D01*
X123423863Y-125534000D01*
X123210137Y-125534000D01*
X123000517Y-125575696D01*
X122803060Y-125657485D01*
X122625353Y-125776225D01*
X122474225Y-125927353D01*
X122355485Y-126105060D01*
X122273696Y-126302517D01*
X122232000Y-126512137D01*
X106577000Y-126512137D01*
X106577000Y-126196942D01*
X106458752Y-125602472D01*
X106318553Y-125264000D01*
X125153928Y-125264000D01*
X125157000Y-125553250D01*
X125315750Y-125712000D01*
X126365000Y-125712000D01*
X126365000Y-124787750D01*
X126619000Y-124787750D01*
X126619000Y-125712000D01*
X127668250Y-125712000D01*
X127827000Y-125553250D01*
X127830072Y-125264000D01*
X127817812Y-125139518D01*
X127781502Y-125019820D01*
X127722537Y-124909506D01*
X127643185Y-124812815D01*
X127546494Y-124733463D01*
X127436180Y-124674498D01*
X127316482Y-124638188D01*
X127192000Y-124625928D01*
X126777750Y-124629000D01*
X126619000Y-124787750D01*
X126365000Y-124787750D01*
X126206250Y-124629000D01*
X125792000Y-124625928D01*
X125667518Y-124638188D01*
X125547820Y-124674498D01*
X125437506Y-124733463D01*
X125340815Y-124812815D01*
X125261463Y-124909506D01*
X125202498Y-125019820D01*
X125166188Y-125139518D01*
X125153928Y-125264000D01*
X106318553Y-125264000D01*
X106226802Y-125042494D01*
X105890062Y-124538527D01*
X105461473Y-124109938D01*
X104957506Y-123773198D01*
X104810206Y-123712185D01*
X105079003Y-123658718D01*
X105440250Y-123509085D01*
X105765364Y-123291851D01*
X106041851Y-123015364D01*
X106259085Y-122690250D01*
X106408718Y-122329003D01*
X106485000Y-121945505D01*
X106485000Y-121554495D01*
X106408718Y-121170997D01*
X106259085Y-120809750D01*
X106041851Y-120484636D01*
X105765364Y-120208149D01*
X105440250Y-119990915D01*
X105079003Y-119841282D01*
X104695505Y-119765000D01*
X104304495Y-119765000D01*
X103920997Y-119841282D01*
X103559750Y-119990915D01*
X103234636Y-120208149D01*
X102958149Y-120484636D01*
X102740915Y-120809750D01*
X102591282Y-121170997D01*
X102515000Y-121554495D01*
X102515000Y-121945505D01*
X102591282Y-122329003D01*
X102740915Y-122690250D01*
X102958149Y-123015364D01*
X103234636Y-123291851D01*
X103430915Y-123423000D01*
X103196942Y-123423000D01*
X102602472Y-123541248D01*
X102042494Y-123773198D01*
X101538527Y-124109938D01*
X101109938Y-124538527D01*
X100773198Y-125042494D01*
X100685000Y-125255423D01*
X100685000Y-114692017D01*
X101373000Y-114692017D01*
X101373000Y-115307983D01*
X101493169Y-115912112D01*
X101728889Y-116481190D01*
X102071101Y-116993346D01*
X102506654Y-117428899D01*
X103018810Y-117771111D01*
X103587888Y-118006831D01*
X104192017Y-118127000D01*
X104807983Y-118127000D01*
X105412112Y-118006831D01*
X105981190Y-117771111D01*
X106493346Y-117428899D01*
X106928899Y-116993346D01*
X107271111Y-116481190D01*
X107506831Y-115912112D01*
X107627000Y-115307983D01*
X107627000Y-114692017D01*
X107506831Y-114087888D01*
X107358589Y-113730000D01*
X107507815Y-113730000D01*
X107536487Y-114021111D01*
X107621401Y-114301034D01*
X107759294Y-114559014D01*
X107944866Y-114785134D01*
X108170986Y-114970706D01*
X108225791Y-115000000D01*
X108170986Y-115029294D01*
X107944866Y-115214866D01*
X107759294Y-115440986D01*
X107621401Y-115698966D01*
X107536487Y-115978889D01*
X107507815Y-116270000D01*
X107536487Y-116561111D01*
X107621401Y-116841034D01*
X107759294Y-117099014D01*
X107944866Y-117325134D01*
X108170986Y-117510706D01*
X108225791Y-117540000D01*
X108170986Y-117569294D01*
X107944866Y-117754866D01*
X107759294Y-117980986D01*
X107621401Y-118238966D01*
X107536487Y-118518889D01*
X107507815Y-118810000D01*
X107536487Y-119101111D01*
X107621401Y-119381034D01*
X107759294Y-119639014D01*
X107944866Y-119865134D01*
X108170986Y-120050706D01*
X108428966Y-120188599D01*
X108708889Y-120273513D01*
X108927050Y-120295000D01*
X109072950Y-120295000D01*
X109227232Y-120279805D01*
X110386428Y-121685069D01*
X110386428Y-121748500D01*
X110398688Y-121872982D01*
X110434998Y-121992680D01*
X110493963Y-122102994D01*
X110573315Y-122199685D01*
X110670006Y-122279037D01*
X110780320Y-122338002D01*
X110900018Y-122374312D01*
X111024500Y-122386572D01*
X112924500Y-122386572D01*
X113048982Y-122374312D01*
X113168680Y-122338002D01*
X113278994Y-122279037D01*
X113375685Y-122199685D01*
X113386428Y-122186595D01*
X113386428Y-122698500D01*
X113398688Y-122822982D01*
X113434998Y-122942680D01*
X113493963Y-123052994D01*
X113573315Y-123149685D01*
X113670006Y-123229037D01*
X113780320Y-123288002D01*
X113900018Y-123324312D01*
X114024500Y-123336572D01*
X115924500Y-123336572D01*
X116048982Y-123324312D01*
X116168680Y-123288002D01*
X116278994Y-123229037D01*
X116375685Y-123149685D01*
X116450518Y-123058500D01*
X116573578Y-123058500D01*
X116656353Y-123141275D01*
X116834060Y-123260015D01*
X117031517Y-123341804D01*
X117241137Y-123383500D01*
X117454863Y-123383500D01*
X117664483Y-123341804D01*
X117861940Y-123260015D01*
X118039647Y-123141275D01*
X118122422Y-123058500D01*
X118544580Y-123058500D01*
X118556038Y-123072462D01*
X118690613Y-123182905D01*
X118844149Y-123264972D01*
X119010745Y-123315508D01*
X119183999Y-123332572D01*
X120084001Y-123332572D01*
X120257255Y-123315508D01*
X120258930Y-123315000D01*
X122417130Y-123315000D01*
X122391188Y-123400518D01*
X122378928Y-123525000D01*
X122378928Y-124125000D01*
X122391188Y-124249482D01*
X122427498Y-124369180D01*
X122486463Y-124479494D01*
X122565815Y-124576185D01*
X122662506Y-124655537D01*
X122772820Y-124714502D01*
X122892518Y-124750812D01*
X123017000Y-124763072D01*
X124567000Y-124763072D01*
X124691482Y-124750812D01*
X124811180Y-124714502D01*
X124921494Y-124655537D01*
X125018185Y-124576185D01*
X125097537Y-124479494D01*
X125156502Y-124369180D01*
X125192812Y-124249482D01*
X125205072Y-124125000D01*
X125205072Y-123525000D01*
X125192812Y-123400518D01*
X125156502Y-123280820D01*
X125107957Y-123190000D01*
X125156502Y-123099180D01*
X125192812Y-122979482D01*
X125205072Y-122855000D01*
X125205072Y-122255000D01*
X125192812Y-122130518D01*
X125156502Y-122010820D01*
X125107957Y-121920000D01*
X125156502Y-121829180D01*
X125192812Y-121709482D01*
X125205072Y-121585000D01*
X125205072Y-120985000D01*
X125192812Y-120860518D01*
X125156502Y-120740820D01*
X125118721Y-120670137D01*
X126042000Y-120670137D01*
X126042000Y-120883863D01*
X126083696Y-121093483D01*
X126165485Y-121290940D01*
X126284225Y-121468647D01*
X126435353Y-121619775D01*
X126613060Y-121738515D01*
X126810517Y-121820304D01*
X127020137Y-121862000D01*
X127140082Y-121862000D01*
X127210724Y-121919974D01*
X127342753Y-121990546D01*
X127486014Y-122034003D01*
X127597667Y-122045000D01*
X127597676Y-122045000D01*
X127634999Y-122048676D01*
X127672322Y-122045000D01*
X127817130Y-122045000D01*
X127791188Y-122130518D01*
X127778928Y-122255000D01*
X127778928Y-122855000D01*
X127791188Y-122979482D01*
X127827498Y-123099180D01*
X127876043Y-123190000D01*
X127827498Y-123280820D01*
X127791188Y-123400518D01*
X127778928Y-123525000D01*
X127778928Y-124125000D01*
X127791188Y-124249482D01*
X127827498Y-124369180D01*
X127886463Y-124479494D01*
X127965815Y-124576185D01*
X128062506Y-124655537D01*
X128172820Y-124714502D01*
X128292518Y-124750812D01*
X128417000Y-124763072D01*
X129967000Y-124763072D01*
X130091482Y-124750812D01*
X130211180Y-124714502D01*
X130321494Y-124655537D01*
X130418185Y-124576185D01*
X130497537Y-124479494D01*
X130556502Y-124369180D01*
X130592812Y-124249482D01*
X130605072Y-124125000D01*
X130605072Y-123976414D01*
X130677060Y-124024515D01*
X130874517Y-124106304D01*
X131084137Y-124148000D01*
X131297863Y-124148000D01*
X131507483Y-124106304D01*
X131704940Y-124024515D01*
X131882647Y-123905775D01*
X132033775Y-123754647D01*
X132152515Y-123576940D01*
X132234304Y-123379483D01*
X132276000Y-123169863D01*
X132276000Y-122956137D01*
X132234304Y-122746517D01*
X132152515Y-122549060D01*
X132102333Y-122473957D01*
X132155245Y-122490008D01*
X132328499Y-122507072D01*
X133228501Y-122507072D01*
X133401755Y-122490008D01*
X133568351Y-122439472D01*
X133721887Y-122357405D01*
X133856462Y-122246962D01*
X133966905Y-122112387D01*
X133998114Y-122054000D01*
X135114886Y-122054000D01*
X135146095Y-122112387D01*
X135256538Y-122246962D01*
X135391113Y-122357405D01*
X135544649Y-122439472D01*
X135711245Y-122490008D01*
X135884499Y-122507072D01*
X136784501Y-122507072D01*
X136957755Y-122490008D01*
X137124351Y-122439472D01*
X137277887Y-122357405D01*
X137412462Y-122246962D01*
X137522905Y-122112387D01*
X137554114Y-122054000D01*
X138734386Y-122054000D01*
X138765595Y-122112387D01*
X138876038Y-122246962D01*
X139010613Y-122357405D01*
X139164149Y-122439472D01*
X139330745Y-122490008D01*
X139503999Y-122507072D01*
X140404001Y-122507072D01*
X140577255Y-122490008D01*
X140743851Y-122439472D01*
X140897387Y-122357405D01*
X141031962Y-122246962D01*
X141142405Y-122112387D01*
X141224472Y-121958851D01*
X141275008Y-121792255D01*
X141292072Y-121619001D01*
X141292072Y-120968999D01*
X141275008Y-120795745D01*
X141224472Y-120629149D01*
X141142405Y-120475613D01*
X141031962Y-120341038D01*
X140944184Y-120269000D01*
X141031962Y-120196962D01*
X141142405Y-120062387D01*
X141224472Y-119908851D01*
X141275008Y-119742255D01*
X141292072Y-119569001D01*
X141292072Y-118918999D01*
X141275008Y-118745745D01*
X141224472Y-118579149D01*
X141142405Y-118425613D01*
X141087326Y-118358499D01*
X149526928Y-118358499D01*
X149526928Y-119258501D01*
X149543992Y-119431755D01*
X149594528Y-119598351D01*
X149676595Y-119751887D01*
X149787038Y-119886462D01*
X149921613Y-119996905D01*
X150075149Y-120078972D01*
X150241745Y-120129508D01*
X150414999Y-120146572D01*
X151065001Y-120146572D01*
X151238255Y-120129508D01*
X151404851Y-120078972D01*
X151558387Y-119996905D01*
X151692962Y-119886462D01*
X151765000Y-119798684D01*
X151837038Y-119886462D01*
X151971613Y-119996905D01*
X152125149Y-120078972D01*
X152291745Y-120129508D01*
X152464999Y-120146572D01*
X153115001Y-120146572D01*
X153288255Y-120129508D01*
X153454851Y-120078972D01*
X153608387Y-119996905D01*
X153742962Y-119886462D01*
X153853405Y-119751887D01*
X153935472Y-119598351D01*
X153944527Y-119568500D01*
X154721604Y-119568500D01*
X154759294Y-119639014D01*
X154944866Y-119865134D01*
X155170986Y-120050706D01*
X155428966Y-120188599D01*
X155708889Y-120273513D01*
X155927050Y-120295000D01*
X156072950Y-120295000D01*
X156291111Y-120273513D01*
X156571034Y-120188599D01*
X156829014Y-120050706D01*
X157055134Y-119865134D01*
X157240706Y-119639014D01*
X157378599Y-119381034D01*
X157463513Y-119101111D01*
X157492185Y-118810000D01*
X157463513Y-118518889D01*
X157378599Y-118238966D01*
X157240706Y-117980986D01*
X157055134Y-117754866D01*
X156829014Y-117569294D01*
X156764477Y-117534799D01*
X156881355Y-117465178D01*
X157097588Y-117270269D01*
X157271641Y-117036920D01*
X157396825Y-116774099D01*
X157441476Y-116626890D01*
X157320155Y-116397000D01*
X156127000Y-116397000D01*
X156127000Y-116417000D01*
X155873000Y-116417000D01*
X155873000Y-116397000D01*
X154679845Y-116397000D01*
X154558524Y-116626890D01*
X154603175Y-116774099D01*
X154728359Y-117036920D01*
X154902412Y-117270269D01*
X155118645Y-117465178D01*
X155235523Y-117534799D01*
X155170986Y-117569294D01*
X154944866Y-117754866D01*
X154759294Y-117980986D01*
X154723207Y-118048500D01*
X153944527Y-118048500D01*
X153935472Y-118018649D01*
X153853405Y-117865113D01*
X153742962Y-117730538D01*
X153608387Y-117620095D01*
X153454851Y-117538028D01*
X153288255Y-117487492D01*
X153115001Y-117470428D01*
X152464999Y-117470428D01*
X152291745Y-117487492D01*
X152125149Y-117538028D01*
X151971613Y-117620095D01*
X151837038Y-117730538D01*
X151765000Y-117818316D01*
X151692962Y-117730538D01*
X151559000Y-117620598D01*
X151559000Y-117564422D01*
X151591775Y-117531647D01*
X151710515Y-117353940D01*
X151792304Y-117156483D01*
X151834000Y-116946863D01*
X151834000Y-116733137D01*
X151792304Y-116523517D01*
X151710515Y-116326060D01*
X151591775Y-116148353D01*
X151440647Y-115997225D01*
X151262940Y-115878485D01*
X151065483Y-115796696D01*
X150855863Y-115755000D01*
X150642137Y-115755000D01*
X150432517Y-115796696D01*
X150235060Y-115878485D01*
X150057353Y-115997225D01*
X149906225Y-116148353D01*
X149787485Y-116326060D01*
X149705696Y-116523517D01*
X149664000Y-116733137D01*
X149664000Y-116946863D01*
X149705696Y-117156483D01*
X149787485Y-117353940D01*
X149906225Y-117531647D01*
X149939001Y-117564423D01*
X149939001Y-117610801D01*
X149921613Y-117620095D01*
X149787038Y-117730538D01*
X149676595Y-117865113D01*
X149594528Y-118018649D01*
X149543992Y-118185245D01*
X149526928Y-118358499D01*
X141087326Y-118358499D01*
X141031962Y-118291038D01*
X140897387Y-118180595D01*
X140743851Y-118098528D01*
X140577255Y-118047992D01*
X140404001Y-118030928D01*
X139503999Y-118030928D01*
X139330745Y-118047992D01*
X139164149Y-118098528D01*
X139010613Y-118180595D01*
X138876038Y-118291038D01*
X138843550Y-118330624D01*
X138689940Y-118227985D01*
X138492483Y-118146196D01*
X138282863Y-118104500D01*
X138069137Y-118104500D01*
X137859517Y-118146196D01*
X137662060Y-118227985D01*
X137553539Y-118300496D01*
X137485685Y-118217815D01*
X137388994Y-118138463D01*
X137278680Y-118079498D01*
X137158982Y-118043188D01*
X137034500Y-118030928D01*
X136620250Y-118034000D01*
X136461500Y-118192750D01*
X136461500Y-119117000D01*
X136481500Y-119117000D01*
X136481500Y-119371000D01*
X136461500Y-119371000D01*
X136461500Y-119391000D01*
X136207500Y-119391000D01*
X136207500Y-119371000D01*
X135158250Y-119371000D01*
X134999500Y-119529750D01*
X134996428Y-119819000D01*
X135008688Y-119943482D01*
X135044998Y-120063180D01*
X135103963Y-120173494D01*
X135183315Y-120270185D01*
X135263094Y-120335658D01*
X135256538Y-120341038D01*
X135146095Y-120475613D01*
X135114886Y-120534000D01*
X133998114Y-120534000D01*
X133966905Y-120475613D01*
X133856462Y-120341038D01*
X133849906Y-120335658D01*
X133929685Y-120270185D01*
X134009037Y-120173494D01*
X134068002Y-120063180D01*
X134104312Y-119943482D01*
X134116572Y-119819000D01*
X134113500Y-119529750D01*
X133954750Y-119371000D01*
X132905500Y-119371000D01*
X132905500Y-119391000D01*
X132651500Y-119391000D01*
X132651500Y-119371000D01*
X131602250Y-119371000D01*
X131443500Y-119529750D01*
X131440428Y-119819000D01*
X131452688Y-119943482D01*
X131488998Y-120063180D01*
X131547963Y-120173494D01*
X131627315Y-120270185D01*
X131707094Y-120335658D01*
X131700538Y-120341038D01*
X131666423Y-120382607D01*
X131577940Y-120323485D01*
X131380483Y-120241696D01*
X131170863Y-120200000D01*
X130957137Y-120200000D01*
X130747517Y-120241696D01*
X130605072Y-120300698D01*
X130605072Y-119715000D01*
X130592812Y-119590518D01*
X130556502Y-119470820D01*
X130497537Y-119360506D01*
X130418185Y-119263815D01*
X130321494Y-119184463D01*
X130211180Y-119125498D01*
X130091482Y-119089188D01*
X129967000Y-119076928D01*
X128417000Y-119076928D01*
X128292518Y-119089188D01*
X128172820Y-119125498D01*
X128062506Y-119184463D01*
X127965815Y-119263815D01*
X127886463Y-119360506D01*
X127827498Y-119470820D01*
X127791188Y-119590518D01*
X127778928Y-119715000D01*
X127778928Y-119907686D01*
X127640940Y-119815485D01*
X127443483Y-119733696D01*
X127233863Y-119692000D01*
X127020137Y-119692000D01*
X126810517Y-119733696D01*
X126613060Y-119815485D01*
X126435353Y-119934225D01*
X126284225Y-120085353D01*
X126165485Y-120263060D01*
X126083696Y-120460517D01*
X126042000Y-120670137D01*
X125118721Y-120670137D01*
X125107957Y-120650000D01*
X125156502Y-120559180D01*
X125192812Y-120439482D01*
X125205072Y-120315000D01*
X125202000Y-120300750D01*
X125043250Y-120142000D01*
X123919000Y-120142000D01*
X123919000Y-120162000D01*
X123665000Y-120162000D01*
X123665000Y-120142000D01*
X122540750Y-120142000D01*
X122382000Y-120300750D01*
X122378928Y-120315000D01*
X122391188Y-120439482D01*
X122417130Y-120525000D01*
X122211322Y-120525000D01*
X122173999Y-120521324D01*
X122136676Y-120525000D01*
X122136667Y-120525000D01*
X122025014Y-120535997D01*
X121881753Y-120579454D01*
X121878861Y-120581000D01*
X121686137Y-120581000D01*
X121476517Y-120622696D01*
X121279060Y-120704485D01*
X121101353Y-120823225D01*
X120950225Y-120974353D01*
X120831485Y-121152060D01*
X120787409Y-121258470D01*
X120711962Y-121166538D01*
X120705406Y-121161158D01*
X120785185Y-121095685D01*
X120864537Y-120998994D01*
X120923502Y-120888680D01*
X120959812Y-120768982D01*
X120972072Y-120644500D01*
X120969000Y-120355250D01*
X120810250Y-120196500D01*
X119761000Y-120196500D01*
X119761000Y-120216500D01*
X119507000Y-120216500D01*
X119507000Y-120196500D01*
X118457750Y-120196500D01*
X118299000Y-120355250D01*
X118295928Y-120644500D01*
X118308188Y-120768982D01*
X118344498Y-120888680D01*
X118403463Y-120998994D01*
X118482815Y-121095685D01*
X118562594Y-121161158D01*
X118556038Y-121166538D01*
X118445595Y-121301113D01*
X118363528Y-121454649D01*
X118338092Y-121538500D01*
X118122422Y-121538500D01*
X118108000Y-121524078D01*
X118108000Y-119494500D01*
X118295928Y-119494500D01*
X118299000Y-119783750D01*
X118457750Y-119942500D01*
X119507000Y-119942500D01*
X119507000Y-119018250D01*
X119761000Y-119018250D01*
X119761000Y-119942500D01*
X120810250Y-119942500D01*
X120969000Y-119783750D01*
X120969730Y-119715000D01*
X122378928Y-119715000D01*
X122382000Y-119729250D01*
X122540750Y-119888000D01*
X123665000Y-119888000D01*
X123665000Y-119238750D01*
X123919000Y-119238750D01*
X123919000Y-119888000D01*
X125043250Y-119888000D01*
X125202000Y-119729250D01*
X125205072Y-119715000D01*
X125192812Y-119590518D01*
X125156502Y-119470820D01*
X125097537Y-119360506D01*
X125018185Y-119263815D01*
X124921494Y-119184463D01*
X124811180Y-119125498D01*
X124691482Y-119089188D01*
X124567000Y-119076928D01*
X124077750Y-119080000D01*
X123919000Y-119238750D01*
X123665000Y-119238750D01*
X123506250Y-119080000D01*
X123017000Y-119076928D01*
X122892518Y-119089188D01*
X122772820Y-119125498D01*
X122662506Y-119184463D01*
X122565815Y-119263815D01*
X122486463Y-119360506D01*
X122427498Y-119470820D01*
X122391188Y-119590518D01*
X122378928Y-119715000D01*
X120969730Y-119715000D01*
X120972072Y-119494500D01*
X120959812Y-119370018D01*
X120923502Y-119250320D01*
X120864537Y-119140006D01*
X120785185Y-119043315D01*
X120688494Y-118963963D01*
X120578180Y-118904998D01*
X120458482Y-118868688D01*
X120334000Y-118856428D01*
X119919750Y-118859500D01*
X119761000Y-119018250D01*
X119507000Y-119018250D01*
X119348250Y-118859500D01*
X118934000Y-118856428D01*
X118809518Y-118868688D01*
X118689820Y-118904998D01*
X118579506Y-118963963D01*
X118482815Y-119043315D01*
X118403463Y-119140006D01*
X118344498Y-119250320D01*
X118308188Y-119370018D01*
X118295928Y-119494500D01*
X118108000Y-119494500D01*
X118108000Y-118669000D01*
X131440428Y-118669000D01*
X131443500Y-118958250D01*
X131602250Y-119117000D01*
X132651500Y-119117000D01*
X132651500Y-118192750D01*
X132905500Y-118192750D01*
X132905500Y-119117000D01*
X133954750Y-119117000D01*
X134113500Y-118958250D01*
X134116572Y-118669000D01*
X134996428Y-118669000D01*
X134999500Y-118958250D01*
X135158250Y-119117000D01*
X136207500Y-119117000D01*
X136207500Y-118192750D01*
X136048750Y-118034000D01*
X135634500Y-118030928D01*
X135510018Y-118043188D01*
X135390320Y-118079498D01*
X135280006Y-118138463D01*
X135183315Y-118217815D01*
X135103963Y-118314506D01*
X135044998Y-118424820D01*
X135008688Y-118544518D01*
X134996428Y-118669000D01*
X134116572Y-118669000D01*
X134104312Y-118544518D01*
X134068002Y-118424820D01*
X134009037Y-118314506D01*
X133929685Y-118217815D01*
X133832994Y-118138463D01*
X133722680Y-118079498D01*
X133602982Y-118043188D01*
X133478500Y-118030928D01*
X133064250Y-118034000D01*
X132905500Y-118192750D01*
X132651500Y-118192750D01*
X132492750Y-118034000D01*
X132078500Y-118030928D01*
X131954018Y-118043188D01*
X131834320Y-118079498D01*
X131724006Y-118138463D01*
X131627315Y-118217815D01*
X131547963Y-118314506D01*
X131488998Y-118424820D01*
X131452688Y-118544518D01*
X131440428Y-118669000D01*
X118108000Y-118669000D01*
X118108000Y-117255833D01*
X118111677Y-117218500D01*
X118108000Y-117181167D01*
X118108000Y-116662000D01*
X123883928Y-116662000D01*
X123896188Y-116786482D01*
X123932498Y-116906180D01*
X123991463Y-117016494D01*
X124070815Y-117113185D01*
X124167506Y-117192537D01*
X124277820Y-117251502D01*
X124397518Y-117287812D01*
X124522000Y-117300072D01*
X124936250Y-117297000D01*
X125095000Y-117138250D01*
X125095000Y-116214000D01*
X125349000Y-116214000D01*
X125349000Y-117138250D01*
X125507750Y-117297000D01*
X125922000Y-117300072D01*
X126046482Y-117287812D01*
X126166180Y-117251502D01*
X126276494Y-117192537D01*
X126373185Y-117113185D01*
X126452537Y-117016494D01*
X126511502Y-116906180D01*
X126547812Y-116786482D01*
X126560072Y-116662000D01*
X127630428Y-116662000D01*
X127642688Y-116786482D01*
X127678998Y-116906180D01*
X127737963Y-117016494D01*
X127817315Y-117113185D01*
X127914006Y-117192537D01*
X128024320Y-117251502D01*
X128144018Y-117287812D01*
X128268500Y-117300072D01*
X128682750Y-117297000D01*
X128841500Y-117138250D01*
X128841500Y-116214000D01*
X129095500Y-116214000D01*
X129095500Y-117138250D01*
X129254250Y-117297000D01*
X129668500Y-117300072D01*
X129792982Y-117287812D01*
X129912680Y-117251502D01*
X130022994Y-117192537D01*
X130119685Y-117113185D01*
X130199037Y-117016494D01*
X130258002Y-116906180D01*
X130294312Y-116786482D01*
X130306572Y-116662000D01*
X130303500Y-116372750D01*
X130144750Y-116214000D01*
X129095500Y-116214000D01*
X128841500Y-116214000D01*
X127792250Y-116214000D01*
X127633500Y-116372750D01*
X127630428Y-116662000D01*
X126560072Y-116662000D01*
X126557000Y-116372750D01*
X126398250Y-116214000D01*
X125349000Y-116214000D01*
X125095000Y-116214000D01*
X124045750Y-116214000D01*
X123887000Y-116372750D01*
X123883928Y-116662000D01*
X118108000Y-116662000D01*
X118108000Y-114256637D01*
X121660500Y-114256637D01*
X121660500Y-114470363D01*
X121702196Y-114679983D01*
X121783985Y-114877440D01*
X121902725Y-115055147D01*
X122053853Y-115206275D01*
X122231560Y-115325015D01*
X122429017Y-115406804D01*
X122638637Y-115448500D01*
X122852363Y-115448500D01*
X123061983Y-115406804D01*
X123259440Y-115325015D01*
X123437147Y-115206275D01*
X123465867Y-115177555D01*
X123979206Y-115180436D01*
X123932498Y-115267820D01*
X123896188Y-115387518D01*
X123883928Y-115512000D01*
X123887000Y-115801250D01*
X124045750Y-115960000D01*
X125095000Y-115960000D01*
X125095000Y-115940000D01*
X125349000Y-115940000D01*
X125349000Y-115960000D01*
X126398250Y-115960000D01*
X126557000Y-115801250D01*
X126560072Y-115512000D01*
X126547812Y-115387518D01*
X126511502Y-115267820D01*
X126460284Y-115172000D01*
X127730216Y-115172000D01*
X127678998Y-115267820D01*
X127642688Y-115387518D01*
X127630428Y-115512000D01*
X127633500Y-115801250D01*
X127792250Y-115960000D01*
X128841500Y-115960000D01*
X128841500Y-115940000D01*
X129095500Y-115940000D01*
X129095500Y-115960000D01*
X130144750Y-115960000D01*
X130303500Y-115801250D01*
X130306572Y-115512000D01*
X130294312Y-115387518D01*
X130258002Y-115267820D01*
X130199037Y-115157506D01*
X130160050Y-115110000D01*
X131491541Y-115110000D01*
X131508028Y-115164351D01*
X131590095Y-115317887D01*
X131700538Y-115452462D01*
X131835113Y-115562905D01*
X131988649Y-115644972D01*
X132155245Y-115695508D01*
X132328499Y-115712572D01*
X133228501Y-115712572D01*
X133401755Y-115695508D01*
X133568351Y-115644972D01*
X133721887Y-115562905D01*
X133856462Y-115452462D01*
X133966905Y-115317887D01*
X133971388Y-115309500D01*
X136127078Y-115309500D01*
X136150853Y-115333275D01*
X136328560Y-115452015D01*
X136526017Y-115533804D01*
X136735637Y-115575500D01*
X136949363Y-115575500D01*
X137158983Y-115533804D01*
X137356440Y-115452015D01*
X137534147Y-115333275D01*
X137685275Y-115182147D01*
X137804015Y-115004440D01*
X137885804Y-114806983D01*
X137927500Y-114597363D01*
X137927500Y-114383637D01*
X137885804Y-114174017D01*
X137804015Y-113976560D01*
X137685275Y-113798853D01*
X137534147Y-113647725D01*
X137356440Y-113528985D01*
X137158983Y-113447196D01*
X136949363Y-113405500D01*
X136735637Y-113405500D01*
X136526017Y-113447196D01*
X136328560Y-113528985D01*
X136150853Y-113647725D01*
X136109078Y-113689500D01*
X133971388Y-113689500D01*
X133966905Y-113681113D01*
X133856462Y-113546538D01*
X133768684Y-113474500D01*
X133856462Y-113402462D01*
X133966905Y-113267887D01*
X134048972Y-113114351D01*
X134099508Y-112947755D01*
X134116572Y-112774501D01*
X134116572Y-112124499D01*
X134099508Y-111951245D01*
X134048972Y-111784649D01*
X133966905Y-111631113D01*
X133856462Y-111496538D01*
X133721887Y-111386095D01*
X133588500Y-111314798D01*
X133588500Y-111277922D01*
X133621275Y-111245147D01*
X133740015Y-111067440D01*
X133821804Y-110869983D01*
X133863500Y-110660363D01*
X133863500Y-110446637D01*
X133821804Y-110237017D01*
X133803422Y-110192637D01*
X133916000Y-110192637D01*
X133916000Y-110406363D01*
X133957696Y-110615983D01*
X134039485Y-110813440D01*
X134158225Y-110991147D01*
X134309353Y-111142275D01*
X134487060Y-111261015D01*
X134684517Y-111342804D01*
X134894137Y-111384500D01*
X135011198Y-111384500D01*
X135029888Y-111403190D01*
X134983725Y-111449353D01*
X134864985Y-111627060D01*
X134783196Y-111824517D01*
X134741500Y-112034137D01*
X134741500Y-112247863D01*
X134783196Y-112457483D01*
X134864985Y-112654940D01*
X134983725Y-112832647D01*
X135134853Y-112983775D01*
X135312560Y-113102515D01*
X135510017Y-113184304D01*
X135719637Y-113226000D01*
X135933363Y-113226000D01*
X136142983Y-113184304D01*
X136340440Y-113102515D01*
X136518147Y-112983775D01*
X136669275Y-112832647D01*
X136788015Y-112654940D01*
X136869804Y-112457483D01*
X136911500Y-112247863D01*
X136911500Y-112034137D01*
X136869804Y-111824517D01*
X136788015Y-111627060D01*
X136669275Y-111449353D01*
X136586500Y-111366578D01*
X136586500Y-111162322D01*
X136590176Y-111124999D01*
X136586500Y-111087676D01*
X136586500Y-111087667D01*
X136575503Y-110976014D01*
X136532046Y-110832753D01*
X136461474Y-110700724D01*
X136366501Y-110584999D01*
X136337504Y-110561202D01*
X136086000Y-110309698D01*
X136086000Y-110192637D01*
X136044304Y-109983017D01*
X135962515Y-109785560D01*
X135843775Y-109607853D01*
X135692647Y-109456725D01*
X135514940Y-109337985D01*
X135317483Y-109256196D01*
X135107863Y-109214500D01*
X134894137Y-109214500D01*
X134684517Y-109256196D01*
X134487060Y-109337985D01*
X134309353Y-109456725D01*
X134158225Y-109607853D01*
X134039485Y-109785560D01*
X133957696Y-109983017D01*
X133916000Y-110192637D01*
X133803422Y-110192637D01*
X133740015Y-110039560D01*
X133621275Y-109861853D01*
X133470147Y-109710725D01*
X133292440Y-109591985D01*
X133094983Y-109510196D01*
X132885363Y-109468500D01*
X132671637Y-109468500D01*
X132462017Y-109510196D01*
X132264560Y-109591985D01*
X132086853Y-109710725D01*
X131935725Y-109861853D01*
X131816985Y-110039560D01*
X131735196Y-110237017D01*
X131693500Y-110446637D01*
X131693500Y-110660363D01*
X131735196Y-110869983D01*
X131816985Y-111067440D01*
X131935725Y-111245147D01*
X131968500Y-111277922D01*
X131968500Y-111314798D01*
X131835113Y-111386095D01*
X131700538Y-111496538D01*
X131590095Y-111631113D01*
X131508028Y-111784649D01*
X131457492Y-111951245D01*
X131440428Y-112124499D01*
X131440428Y-112774501D01*
X131457492Y-112947755D01*
X131508028Y-113114351D01*
X131590095Y-113267887D01*
X131700538Y-113402462D01*
X131788316Y-113474500D01*
X131769430Y-113490000D01*
X130274721Y-113490000D01*
X130238972Y-113372149D01*
X130156905Y-113218613D01*
X130046462Y-113084038D01*
X129911887Y-112973595D01*
X129758351Y-112891528D01*
X129591755Y-112840992D01*
X129418501Y-112823928D01*
X128518499Y-112823928D01*
X128345245Y-112840992D01*
X128178649Y-112891528D01*
X128025113Y-112973595D01*
X127890538Y-113084038D01*
X127780095Y-113218613D01*
X127698028Y-113372149D01*
X127647492Y-113538745D01*
X127646186Y-113552000D01*
X126544314Y-113552000D01*
X126543008Y-113538745D01*
X126492472Y-113372149D01*
X126410405Y-113218613D01*
X126299962Y-113084038D01*
X126165387Y-112973595D01*
X126011851Y-112891528D01*
X125845255Y-112840992D01*
X125672001Y-112823928D01*
X124771999Y-112823928D01*
X124598745Y-112840992D01*
X124432149Y-112891528D01*
X124278613Y-112973595D01*
X124144038Y-113084038D01*
X124033595Y-113218613D01*
X123951528Y-113372149D01*
X123900992Y-113538745D01*
X123898902Y-113559962D01*
X123473999Y-113557577D01*
X123437147Y-113520725D01*
X123259440Y-113401985D01*
X123061983Y-113320196D01*
X122852363Y-113278500D01*
X122638637Y-113278500D01*
X122429017Y-113320196D01*
X122231560Y-113401985D01*
X122053853Y-113520725D01*
X121902725Y-113671853D01*
X121783985Y-113849560D01*
X121702196Y-114047017D01*
X121660500Y-114256637D01*
X118108000Y-114256637D01*
X118108000Y-113532690D01*
X118110535Y-113516234D01*
X118108000Y-113457993D01*
X118108000Y-113437167D01*
X118106376Y-113420675D01*
X118104025Y-113366669D01*
X118099055Y-113346345D01*
X118097003Y-113325514D01*
X118081304Y-113273761D01*
X118068462Y-113221248D01*
X118059622Y-113202284D01*
X118053546Y-113182253D01*
X118028056Y-113134566D01*
X118005212Y-113085558D01*
X117992837Y-113068675D01*
X117982974Y-113050224D01*
X117948680Y-113008437D01*
X117916705Y-112964816D01*
X117901274Y-112950673D01*
X117888001Y-112934499D01*
X117846209Y-112900201D01*
X117833997Y-112889008D01*
X117817345Y-112876513D01*
X117772276Y-112839526D01*
X117757590Y-112831676D01*
X116562572Y-111934993D01*
X116562572Y-111738500D01*
X116550312Y-111614018D01*
X116514002Y-111494320D01*
X116455037Y-111384006D01*
X116375685Y-111287315D01*
X116278994Y-111207963D01*
X116242582Y-111188500D01*
X116278994Y-111169037D01*
X116375685Y-111089685D01*
X116455037Y-110992994D01*
X116514002Y-110882680D01*
X116550312Y-110762982D01*
X116562572Y-110638500D01*
X116562572Y-109838500D01*
X116550312Y-109714018D01*
X116514002Y-109594320D01*
X116455037Y-109484006D01*
X116375685Y-109387315D01*
X116278994Y-109307963D01*
X116168680Y-109248998D01*
X116048982Y-109212688D01*
X115924500Y-109200428D01*
X114342201Y-109200428D01*
X114332001Y-109187999D01*
X114216276Y-109093026D01*
X114084247Y-109022454D01*
X113940986Y-108978997D01*
X113829333Y-108968000D01*
X113829322Y-108968000D01*
X113792000Y-108964324D01*
X113754678Y-108968000D01*
X112788422Y-108968000D01*
X112705647Y-108885225D01*
X112527940Y-108766485D01*
X112330483Y-108684696D01*
X112120863Y-108643000D01*
X111907137Y-108643000D01*
X111697517Y-108684696D01*
X111500060Y-108766485D01*
X111322353Y-108885225D01*
X111171225Y-109036353D01*
X111052485Y-109214060D01*
X110970696Y-109411517D01*
X110929000Y-109621137D01*
X110929000Y-109834863D01*
X110970696Y-110044483D01*
X111014968Y-110151367D01*
X110900018Y-110162688D01*
X110780320Y-110198998D01*
X110670006Y-110257963D01*
X110573315Y-110337315D01*
X110498482Y-110428500D01*
X110488072Y-110428500D01*
X110488072Y-110340000D01*
X110475812Y-110215518D01*
X110439502Y-110095820D01*
X110380537Y-109985506D01*
X110301185Y-109888815D01*
X110204494Y-109809463D01*
X110094180Y-109750498D01*
X109974482Y-109714188D01*
X109850000Y-109701928D01*
X108150000Y-109701928D01*
X108025518Y-109714188D01*
X107905820Y-109750498D01*
X107795506Y-109809463D01*
X107698815Y-109888815D01*
X107619463Y-109985506D01*
X107560498Y-110095820D01*
X107524188Y-110215518D01*
X107511928Y-110340000D01*
X107511928Y-112040000D01*
X107524188Y-112164482D01*
X107560498Y-112284180D01*
X107619463Y-112394494D01*
X107698815Y-112491185D01*
X107795506Y-112570537D01*
X107905820Y-112629502D01*
X107974687Y-112650393D01*
X107944866Y-112674866D01*
X107759294Y-112900986D01*
X107621401Y-113158966D01*
X107536487Y-113438889D01*
X107507815Y-113730000D01*
X107358589Y-113730000D01*
X107271111Y-113518810D01*
X106928899Y-113006654D01*
X106493346Y-112571101D01*
X105981190Y-112228889D01*
X105412112Y-111993169D01*
X104807983Y-111873000D01*
X104192017Y-111873000D01*
X103587888Y-111993169D01*
X103018810Y-112228889D01*
X102506654Y-112571101D01*
X102071101Y-113006654D01*
X101728889Y-113518810D01*
X101493169Y-114087888D01*
X101373000Y-114692017D01*
X100685000Y-114692017D01*
X100685000Y-104744577D01*
X100773198Y-104957506D01*
X101109938Y-105461473D01*
X101538527Y-105890062D01*
X102042494Y-106226802D01*
X102602472Y-106458752D01*
X103196942Y-106577000D01*
X103430915Y-106577000D01*
X103234636Y-106708149D01*
X102958149Y-106984636D01*
X102740915Y-107309750D01*
X102591282Y-107670997D01*
X102515000Y-108054495D01*
X102515000Y-108445505D01*
X102591282Y-108829003D01*
X102740915Y-109190250D01*
X102958149Y-109515364D01*
X103234636Y-109791851D01*
X103559750Y-110009085D01*
X103920997Y-110158718D01*
X104304495Y-110235000D01*
X104695505Y-110235000D01*
X105079003Y-110158718D01*
X105440250Y-110009085D01*
X105765364Y-109791851D01*
X106041851Y-109515364D01*
X106259085Y-109190250D01*
X106408718Y-108829003D01*
X106485000Y-108445505D01*
X106485000Y-108054495D01*
X106408718Y-107670997D01*
X106259085Y-107309750D01*
X106041851Y-106984636D01*
X105765364Y-106708149D01*
X105440250Y-106490915D01*
X105079003Y-106341282D01*
X104810206Y-106287815D01*
X104957506Y-106226802D01*
X105461473Y-105890062D01*
X105890062Y-105461473D01*
X106226802Y-104957506D01*
X106458752Y-104397528D01*
X106577000Y-103803058D01*
X106577000Y-103196942D01*
X106458752Y-102602472D01*
X106226802Y-102042494D01*
X105890062Y-101538527D01*
X105461473Y-101109938D01*
X104957506Y-100773198D01*
X104744577Y-100685000D01*
X107679980Y-100685000D01*
X107540986Y-100759294D01*
X107540986Y-100759294D01*
G37*
X107540986Y-100759294D02*
X107314866Y-100944866D01*
X107129294Y-101170986D01*
X106991401Y-101428966D01*
X106906487Y-101708889D01*
X106877815Y-102000000D01*
X106906487Y-102291111D01*
X106991401Y-102571034D01*
X107129294Y-102829014D01*
X107314866Y-103055134D01*
X107344687Y-103079607D01*
X107275820Y-103100498D01*
X107165506Y-103159463D01*
X107068815Y-103238815D01*
X106989463Y-103335506D01*
X106930498Y-103445820D01*
X106894188Y-103565518D01*
X106881928Y-103690000D01*
X106881928Y-105390000D01*
X106894188Y-105514482D01*
X106930498Y-105634180D01*
X106989463Y-105744494D01*
X107068815Y-105841185D01*
X107165506Y-105920537D01*
X107275820Y-105979502D01*
X107395518Y-106015812D01*
X107520000Y-106028072D01*
X108712560Y-106028072D01*
X110734605Y-108050118D01*
X110759972Y-108081028D01*
X110811390Y-108123225D01*
X110883310Y-108182249D01*
X110927746Y-108206000D01*
X111024027Y-108257463D01*
X111176712Y-108303780D01*
X111295709Y-108315500D01*
X111295711Y-108315500D01*
X111335499Y-108319419D01*
X111375287Y-108315500D01*
X115488488Y-108315500D01*
X117787000Y-110614013D01*
X117787000Y-110660363D01*
X117828696Y-110869983D01*
X117910485Y-111067440D01*
X118029225Y-111245147D01*
X118180353Y-111396275D01*
X118358060Y-111515015D01*
X118555517Y-111596804D01*
X118765137Y-111638500D01*
X118978863Y-111638500D01*
X119064500Y-111621466D01*
X119064500Y-111747578D01*
X118981725Y-111830353D01*
X118862985Y-112008060D01*
X118781196Y-112205517D01*
X118739500Y-112415137D01*
X118739500Y-112628863D01*
X118781196Y-112838483D01*
X118862985Y-113035940D01*
X118981725Y-113213647D01*
X119132853Y-113364775D01*
X119310560Y-113483515D01*
X119508017Y-113565304D01*
X119717637Y-113607000D01*
X119931363Y-113607000D01*
X120140983Y-113565304D01*
X120338440Y-113483515D01*
X120516147Y-113364775D01*
X120667275Y-113213647D01*
X120786015Y-113035940D01*
X120867804Y-112838483D01*
X120909500Y-112628863D01*
X120909500Y-112497139D01*
X120966483Y-112485804D01*
X121163940Y-112404015D01*
X121341647Y-112285275D01*
X121492775Y-112134147D01*
X121611515Y-111956440D01*
X121693304Y-111758983D01*
X121735000Y-111549363D01*
X121735000Y-111335637D01*
X121693304Y-111126017D01*
X121611515Y-110928560D01*
X121492775Y-110750853D01*
X121410000Y-110668078D01*
X121410000Y-110400322D01*
X121413676Y-110362999D01*
X121410000Y-110325676D01*
X121410000Y-110325667D01*
X121399003Y-110214014D01*
X121355546Y-110070753D01*
X121284974Y-109938724D01*
X121234307Y-109876986D01*
X121213799Y-109851996D01*
X121213795Y-109851992D01*
X121190001Y-109822999D01*
X121161008Y-109799205D01*
X121160862Y-109799060D01*
X121302275Y-109657647D01*
X121421015Y-109479940D01*
X121502804Y-109282483D01*
X121544500Y-109072863D01*
X121544500Y-108859137D01*
X121502804Y-108649517D01*
X121421015Y-108452060D01*
X121302275Y-108274353D01*
X121151147Y-108123225D01*
X120973440Y-108004485D01*
X120775983Y-107922696D01*
X120566363Y-107881000D01*
X120405802Y-107881000D01*
X117430797Y-104905996D01*
X117453513Y-104831111D01*
X117482185Y-104540000D01*
X117453513Y-104248889D01*
X117388630Y-104035000D01*
X119671370Y-104035000D01*
X119606487Y-104248889D01*
X119577815Y-104540000D01*
X119606487Y-104831111D01*
X119691401Y-105111034D01*
X119829294Y-105369014D01*
X120014866Y-105595134D01*
X120240986Y-105780706D01*
X120498966Y-105918599D01*
X120778889Y-106003513D01*
X120997050Y-106025000D01*
X121142950Y-106025000D01*
X121361111Y-106003513D01*
X121435996Y-105980797D01*
X122900201Y-107445003D01*
X122923999Y-107474001D01*
X123039724Y-107568974D01*
X123171753Y-107639546D01*
X123315014Y-107683003D01*
X123426667Y-107694000D01*
X123426676Y-107694000D01*
X123463999Y-107697676D01*
X123501322Y-107694000D01*
X124581500Y-107694000D01*
X124581500Y-107866363D01*
X124623196Y-108075983D01*
X124704985Y-108273440D01*
X124823725Y-108451147D01*
X124974853Y-108602275D01*
X125152560Y-108721015D01*
X125350017Y-108802804D01*
X125559637Y-108844500D01*
X125773363Y-108844500D01*
X125982983Y-108802804D01*
X126180440Y-108721015D01*
X126358147Y-108602275D01*
X126509275Y-108451147D01*
X126628015Y-108273440D01*
X126660919Y-108194002D01*
X134155176Y-108194002D01*
X134192498Y-108197678D01*
X134229820Y-108194002D01*
X134229831Y-108194002D01*
X134341484Y-108183005D01*
X134484745Y-108139548D01*
X134616774Y-108068976D01*
X134732499Y-107974003D01*
X134756302Y-107944999D01*
X135942230Y-106759072D01*
X136530501Y-106759072D01*
X136703755Y-106742008D01*
X136870351Y-106691472D01*
X137023887Y-106609405D01*
X137158462Y-106498962D01*
X137268905Y-106364387D01*
X137350972Y-106210851D01*
X137401508Y-106044255D01*
X137418572Y-105871001D01*
X137418572Y-105220999D01*
X137401508Y-105047745D01*
X137350972Y-104881149D01*
X137268905Y-104727613D01*
X137158462Y-104593038D01*
X137151906Y-104587658D01*
X137231685Y-104522185D01*
X137311037Y-104425494D01*
X137370002Y-104315180D01*
X137406312Y-104195482D01*
X137407530Y-104183109D01*
X138478519Y-104183109D01*
X138599186Y-104413000D01*
X139793000Y-104413000D01*
X139793000Y-103219845D01*
X139563110Y-103098524D01*
X139415901Y-103143175D01*
X139153080Y-103268359D01*
X138919731Y-103442412D01*
X138724822Y-103658645D01*
X138575843Y-103908748D01*
X138478519Y-104183109D01*
X137407530Y-104183109D01*
X137418572Y-104071000D01*
X137415500Y-103781750D01*
X137256750Y-103623000D01*
X136207500Y-103623000D01*
X136207500Y-103643000D01*
X135953500Y-103643000D01*
X135953500Y-103623000D01*
X134904250Y-103623000D01*
X134745500Y-103781750D01*
X134742428Y-104071000D01*
X134754688Y-104195482D01*
X134790998Y-104315180D01*
X134849963Y-104425494D01*
X134929315Y-104522185D01*
X135009094Y-104587658D01*
X135002538Y-104593038D01*
X134892095Y-104727613D01*
X134810028Y-104881149D01*
X134759492Y-105047745D01*
X134742428Y-105220999D01*
X134742428Y-105809270D01*
X133877697Y-106674002D01*
X133601035Y-106674002D01*
X133721887Y-106609405D01*
X133856462Y-106498962D01*
X133966905Y-106364387D01*
X134048972Y-106210851D01*
X134099508Y-106044255D01*
X134116572Y-105871001D01*
X134116572Y-105220999D01*
X134099508Y-105047745D01*
X134048972Y-104881149D01*
X133966905Y-104727613D01*
X133856462Y-104593038D01*
X133849906Y-104587658D01*
X133929685Y-104522185D01*
X134009037Y-104425494D01*
X134068002Y-104315180D01*
X134104312Y-104195482D01*
X134116572Y-104071000D01*
X134113500Y-103781750D01*
X133954750Y-103623000D01*
X132905500Y-103623000D01*
X132905500Y-103643000D01*
X132651500Y-103643000D01*
X132651500Y-103623000D01*
X131602250Y-103623000D01*
X131443500Y-103781750D01*
X131440428Y-104071000D01*
X131452688Y-104195482D01*
X131488998Y-104315180D01*
X131547963Y-104425494D01*
X131627315Y-104522185D01*
X131707094Y-104587658D01*
X131700538Y-104593038D01*
X131590095Y-104727613D01*
X131508028Y-104881149D01*
X131457492Y-105047745D01*
X131440428Y-105220999D01*
X131440428Y-105809270D01*
X131075699Y-106174000D01*
X130758151Y-106174000D01*
X130797508Y-106044255D01*
X130814572Y-105871001D01*
X130814572Y-105220999D01*
X130797508Y-105047745D01*
X130746972Y-104881149D01*
X130664905Y-104727613D01*
X130554462Y-104593038D01*
X130547906Y-104587658D01*
X130627685Y-104522185D01*
X130707037Y-104425494D01*
X130766002Y-104315180D01*
X130802312Y-104195482D01*
X130814572Y-104071000D01*
X130811500Y-103781750D01*
X130652750Y-103623000D01*
X129603500Y-103623000D01*
X129603500Y-103643000D01*
X129349500Y-103643000D01*
X129349500Y-103623000D01*
X128300250Y-103623000D01*
X128141500Y-103781750D01*
X128138428Y-104071000D01*
X128150688Y-104195482D01*
X128186998Y-104315180D01*
X128245963Y-104425494D01*
X128325315Y-104522185D01*
X128405094Y-104587658D01*
X128398538Y-104593038D01*
X128288095Y-104727613D01*
X128206028Y-104881149D01*
X128155492Y-105047745D01*
X128138428Y-105220999D01*
X128138428Y-105666000D01*
X127118784Y-105666000D01*
X127205134Y-105595134D01*
X127390706Y-105369014D01*
X127528599Y-105111034D01*
X127613513Y-104831111D01*
X127642185Y-104540000D01*
X127613513Y-104248889D01*
X127528599Y-103968966D01*
X127459627Y-103839928D01*
X127490001Y-103815001D01*
X127513804Y-103785997D01*
X128140954Y-103158847D01*
X128141500Y-103210250D01*
X128300250Y-103369000D01*
X129349500Y-103369000D01*
X129349500Y-102444750D01*
X129603500Y-102444750D01*
X129603500Y-103369000D01*
X130652750Y-103369000D01*
X130811500Y-103210250D01*
X130814572Y-102921000D01*
X131440428Y-102921000D01*
X131443500Y-103210250D01*
X131602250Y-103369000D01*
X132651500Y-103369000D01*
X132651500Y-102444750D01*
X132905500Y-102444750D01*
X132905500Y-103369000D01*
X133954750Y-103369000D01*
X134113500Y-103210250D01*
X134116572Y-102921000D01*
X134742428Y-102921000D01*
X134745500Y-103210250D01*
X134904250Y-103369000D01*
X135953500Y-103369000D01*
X135953500Y-102444750D01*
X136207500Y-102444750D01*
X136207500Y-103369000D01*
X137256750Y-103369000D01*
X137415500Y-103210250D01*
X137418572Y-102921000D01*
X137406312Y-102796518D01*
X137370002Y-102676820D01*
X137311037Y-102566506D01*
X137231685Y-102469815D01*
X137134994Y-102390463D01*
X137024680Y-102331498D01*
X136904982Y-102295188D01*
X136780500Y-102282928D01*
X136366250Y-102286000D01*
X136207500Y-102444750D01*
X135953500Y-102444750D01*
X135794750Y-102286000D01*
X135380500Y-102282928D01*
X135256018Y-102295188D01*
X135136320Y-102331498D01*
X135026006Y-102390463D01*
X134929315Y-102469815D01*
X134849963Y-102566506D01*
X134790998Y-102676820D01*
X134754688Y-102796518D01*
X134742428Y-102921000D01*
X134116572Y-102921000D01*
X134104312Y-102796518D01*
X134068002Y-102676820D01*
X134009037Y-102566506D01*
X133929685Y-102469815D01*
X133832994Y-102390463D01*
X133722680Y-102331498D01*
X133602982Y-102295188D01*
X133478500Y-102282928D01*
X133064250Y-102286000D01*
X132905500Y-102444750D01*
X132651500Y-102444750D01*
X132492750Y-102286000D01*
X132078500Y-102282928D01*
X131954018Y-102295188D01*
X131834320Y-102331498D01*
X131724006Y-102390463D01*
X131627315Y-102469815D01*
X131547963Y-102566506D01*
X131488998Y-102676820D01*
X131452688Y-102796518D01*
X131440428Y-102921000D01*
X130814572Y-102921000D01*
X130802312Y-102796518D01*
X130766002Y-102676820D01*
X130707037Y-102566506D01*
X130627685Y-102469815D01*
X130530994Y-102390463D01*
X130420680Y-102331498D01*
X130300982Y-102295188D01*
X130176500Y-102282928D01*
X129762250Y-102286000D01*
X129603500Y-102444750D01*
X129349500Y-102444750D01*
X129190750Y-102286000D01*
X129015104Y-102284697D01*
X129314802Y-101985000D01*
X140635199Y-101985000D01*
X141700000Y-103049803D01*
X141700000Y-103262405D01*
X141630986Y-103299294D01*
X141404866Y-103484866D01*
X141219294Y-103710986D01*
X141184799Y-103775523D01*
X141115178Y-103658645D01*
X140920269Y-103442412D01*
X140686920Y-103268359D01*
X140424099Y-103143175D01*
X140276890Y-103098524D01*
X140047000Y-103219845D01*
X140047000Y-104413000D01*
X140067000Y-104413000D01*
X140067000Y-104667000D01*
X140047000Y-104667000D01*
X140047000Y-104687000D01*
X139793000Y-104687000D01*
X139793000Y-104667000D01*
X138599186Y-104667000D01*
X138478519Y-104896891D01*
X138575843Y-105171252D01*
X138724822Y-105421355D01*
X138901626Y-105617502D01*
X138825820Y-105640498D01*
X138715506Y-105699463D01*
X138618815Y-105778815D01*
X138539463Y-105875506D01*
X138480498Y-105985820D01*
X138444188Y-106105518D01*
X138431928Y-106230000D01*
X138431928Y-107930000D01*
X138444188Y-108054482D01*
X138480498Y-108174180D01*
X138539463Y-108284494D01*
X138618815Y-108381185D01*
X138715506Y-108460537D01*
X138825820Y-108519502D01*
X138945518Y-108555812D01*
X139070000Y-108568072D01*
X140770000Y-108568072D01*
X140894482Y-108555812D01*
X141014180Y-108519502D01*
X141124494Y-108460537D01*
X141221185Y-108381185D01*
X141300537Y-108284494D01*
X141359502Y-108174180D01*
X141380393Y-108105313D01*
X141404866Y-108135134D01*
X141630986Y-108320706D01*
X141650000Y-108330869D01*
X141650001Y-110498685D01*
X141532485Y-110674560D01*
X141450696Y-110872017D01*
X141409000Y-111081637D01*
X141409000Y-111295363D01*
X141450696Y-111504983D01*
X141532485Y-111702440D01*
X141651225Y-111880147D01*
X141802353Y-112031275D01*
X141980060Y-112150015D01*
X142177517Y-112231804D01*
X142387137Y-112273500D01*
X142600863Y-112273500D01*
X142810483Y-112231804D01*
X143007940Y-112150015D01*
X143185647Y-112031275D01*
X143336775Y-111880147D01*
X143455515Y-111702440D01*
X143537304Y-111504983D01*
X143579000Y-111295363D01*
X143579000Y-111081637D01*
X145600000Y-111081637D01*
X145600000Y-111295363D01*
X145641696Y-111504983D01*
X145723485Y-111702440D01*
X145842225Y-111880147D01*
X145993353Y-112031275D01*
X146015016Y-112045750D01*
X145993353Y-112060225D01*
X145842225Y-112211353D01*
X145723485Y-112389060D01*
X145641696Y-112586517D01*
X145600000Y-112796137D01*
X145600000Y-113009863D01*
X145641696Y-113219483D01*
X145723485Y-113416940D01*
X145842225Y-113594647D01*
X145993353Y-113745775D01*
X146171060Y-113864515D01*
X146368517Y-113946304D01*
X146578137Y-113988000D01*
X146791863Y-113988000D01*
X147001483Y-113946304D01*
X147198940Y-113864515D01*
X147376647Y-113745775D01*
X147409422Y-113713000D01*
X153397988Y-113713000D01*
X153959605Y-114274618D01*
X153984972Y-114305528D01*
X154053783Y-114361999D01*
X154108311Y-114406749D01*
X154249026Y-114481963D01*
X154277169Y-114490500D01*
X154401712Y-114528280D01*
X154520709Y-114540000D01*
X154520712Y-114540000D01*
X154560500Y-114543919D01*
X154600288Y-114540000D01*
X154749131Y-114540000D01*
X154759294Y-114559014D01*
X154944866Y-114785134D01*
X155170986Y-114970706D01*
X155235523Y-115005201D01*
X155118645Y-115074822D01*
X154902412Y-115269731D01*
X154728359Y-115503080D01*
X154603175Y-115765901D01*
X154558524Y-115913110D01*
X154679845Y-116143000D01*
X155873000Y-116143000D01*
X155873000Y-116123000D01*
X156127000Y-116123000D01*
X156127000Y-116143000D01*
X157320155Y-116143000D01*
X157441476Y-115913110D01*
X157396825Y-115765901D01*
X157271641Y-115503080D01*
X157097588Y-115269731D01*
X156881355Y-115074822D01*
X156764477Y-115005201D01*
X156829014Y-114970706D01*
X157055134Y-114785134D01*
X157131553Y-114692017D01*
X157373000Y-114692017D01*
X157373000Y-115307983D01*
X157493169Y-115912112D01*
X157728889Y-116481190D01*
X158071101Y-116993346D01*
X158506654Y-117428899D01*
X159018810Y-117771111D01*
X159587888Y-118006831D01*
X160192017Y-118127000D01*
X160807983Y-118127000D01*
X161412112Y-118006831D01*
X161981190Y-117771111D01*
X162493346Y-117428899D01*
X162928899Y-116993346D01*
X163271111Y-116481190D01*
X163506831Y-115912112D01*
X163627000Y-115307983D01*
X163627000Y-114692017D01*
X163506831Y-114087888D01*
X163271111Y-113518810D01*
X162928899Y-113006654D01*
X162493346Y-112571101D01*
X161981190Y-112228889D01*
X161412112Y-111993169D01*
X160807983Y-111873000D01*
X160192017Y-111873000D01*
X159587888Y-111993169D01*
X159018810Y-112228889D01*
X158506654Y-112571101D01*
X158071101Y-113006654D01*
X157728889Y-113518810D01*
X157493169Y-114087888D01*
X157373000Y-114692017D01*
X157131553Y-114692017D01*
X157240706Y-114559014D01*
X157378599Y-114301034D01*
X157463513Y-114021111D01*
X157492185Y-113730000D01*
X157463513Y-113438889D01*
X157378599Y-113158966D01*
X157240706Y-112900986D01*
X157055134Y-112674866D01*
X157025313Y-112650393D01*
X157094180Y-112629502D01*
X157204494Y-112570537D01*
X157301185Y-112491185D01*
X157380537Y-112394494D01*
X157439502Y-112284180D01*
X157475812Y-112164482D01*
X157488072Y-112040000D01*
X157488072Y-110340000D01*
X157475812Y-110215518D01*
X157439502Y-110095820D01*
X157380537Y-109985506D01*
X157301185Y-109888815D01*
X157204494Y-109809463D01*
X157094180Y-109750498D01*
X156974482Y-109714188D01*
X156850000Y-109701928D01*
X155150000Y-109701928D01*
X155025518Y-109714188D01*
X154905820Y-109750498D01*
X154795506Y-109809463D01*
X154698815Y-109888815D01*
X154619463Y-109985506D01*
X154560498Y-110095820D01*
X154524188Y-110215518D01*
X154511928Y-110340000D01*
X154511928Y-110428500D01*
X153935527Y-110428500D01*
X153926472Y-110398649D01*
X153844405Y-110245113D01*
X153733962Y-110110538D01*
X153599387Y-110000095D01*
X153445851Y-109918028D01*
X153279255Y-109867492D01*
X153106001Y-109850428D01*
X152455999Y-109850428D01*
X152282745Y-109867492D01*
X152116149Y-109918028D01*
X151962613Y-110000095D01*
X151828038Y-110110538D01*
X151756000Y-110198316D01*
X151683962Y-110110538D01*
X151549387Y-110000095D01*
X151395851Y-109918028D01*
X151229255Y-109867492D01*
X151056001Y-109850428D01*
X150405999Y-109850428D01*
X150232745Y-109867492D01*
X150066149Y-109918028D01*
X149912613Y-110000095D01*
X149778038Y-110110538D01*
X149667595Y-110245113D01*
X149596298Y-110378500D01*
X147409422Y-110378500D01*
X147376647Y-110345725D01*
X147198940Y-110226985D01*
X147001483Y-110145196D01*
X146791863Y-110103500D01*
X146578137Y-110103500D01*
X146368517Y-110145196D01*
X146171060Y-110226985D01*
X145993353Y-110345725D01*
X145842225Y-110496853D01*
X145723485Y-110674560D01*
X145641696Y-110872017D01*
X145600000Y-111081637D01*
X143579000Y-111081637D01*
X143537304Y-110872017D01*
X143455515Y-110674560D01*
X143336775Y-110496853D01*
X143270000Y-110430078D01*
X143270000Y-108330869D01*
X143289014Y-108320706D01*
X143515134Y-108135134D01*
X143700706Y-107909014D01*
X143730000Y-107854209D01*
X143759294Y-107909014D01*
X143944866Y-108135134D01*
X144170986Y-108320706D01*
X144428966Y-108458599D01*
X144708889Y-108543513D01*
X144927050Y-108565000D01*
X145072950Y-108565000D01*
X145291111Y-108543513D01*
X145571034Y-108458599D01*
X145829014Y-108320706D01*
X146055134Y-108135134D01*
X146240706Y-107909014D01*
X146270000Y-107854209D01*
X146299294Y-107909014D01*
X146484866Y-108135134D01*
X146710986Y-108320706D01*
X146968966Y-108458599D01*
X147248889Y-108543513D01*
X147467050Y-108565000D01*
X147612950Y-108565000D01*
X147831111Y-108543513D01*
X148111034Y-108458599D01*
X148369014Y-108320706D01*
X148595134Y-108135134D01*
X148780706Y-107909014D01*
X148815201Y-107844477D01*
X148884822Y-107961355D01*
X149079731Y-108177588D01*
X149313080Y-108351641D01*
X149575901Y-108476825D01*
X149723110Y-108521476D01*
X149953000Y-108400155D01*
X149953000Y-107207000D01*
X150207000Y-107207000D01*
X150207000Y-108400155D01*
X150436890Y-108521476D01*
X150584099Y-108476825D01*
X150846920Y-108351641D01*
X151080269Y-108177588D01*
X151275178Y-107961355D01*
X151424157Y-107711252D01*
X151521481Y-107436891D01*
X151400814Y-107207000D01*
X150207000Y-107207000D01*
X149953000Y-107207000D01*
X149933000Y-107207000D01*
X149933000Y-106953000D01*
X149953000Y-106953000D01*
X149953000Y-106933000D01*
X150207000Y-106933000D01*
X150207000Y-106953000D01*
X151400814Y-106953000D01*
X151521481Y-106723109D01*
X151424157Y-106448748D01*
X151275178Y-106198645D01*
X151080269Y-105982412D01*
X150851244Y-105811584D01*
X150909014Y-105780706D01*
X151135134Y-105595134D01*
X151320706Y-105369014D01*
X151458599Y-105111034D01*
X151543513Y-104831111D01*
X151572185Y-104540000D01*
X151543513Y-104248889D01*
X151458599Y-103968966D01*
X151452183Y-103956963D01*
X151593137Y-103985000D01*
X151806863Y-103985000D01*
X152016483Y-103943304D01*
X152213940Y-103861515D01*
X152391647Y-103742775D01*
X152542775Y-103591647D01*
X152661515Y-103413940D01*
X152743304Y-103216483D01*
X152785000Y-103006863D01*
X152785000Y-102793137D01*
X152743304Y-102583517D01*
X152661515Y-102386060D01*
X152542775Y-102208353D01*
X152391647Y-102057225D01*
X152213940Y-101938485D01*
X152016483Y-101856696D01*
X151806863Y-101815000D01*
X151593137Y-101815000D01*
X151383517Y-101856696D01*
X151186060Y-101938485D01*
X151008353Y-102057225D01*
X150975578Y-102090000D01*
X149219787Y-102090000D01*
X149179999Y-102086081D01*
X149140211Y-102090000D01*
X149140209Y-102090000D01*
X149021212Y-102101720D01*
X148868527Y-102148037D01*
X148827102Y-102170179D01*
X148727810Y-102223251D01*
X148676464Y-102265390D01*
X148604472Y-102324472D01*
X148579105Y-102355382D01*
X147851742Y-103082745D01*
X147831111Y-103076487D01*
X147612950Y-103055000D01*
X147467050Y-103055000D01*
X147248889Y-103076487D01*
X146968966Y-103161401D01*
X146710986Y-103299294D01*
X146484866Y-103484866D01*
X146299294Y-103710986D01*
X146270000Y-103765791D01*
X146240706Y-103710986D01*
X146055134Y-103484866D01*
X145829014Y-103299294D01*
X145571034Y-103161401D01*
X145291111Y-103076487D01*
X145072950Y-103055000D01*
X144927050Y-103055000D01*
X144708889Y-103076487D01*
X144634005Y-103099203D01*
X142219801Y-100685000D01*
X160255423Y-100685000D01*
X160042494Y-100773198D01*
X159538527Y-101109938D01*
X159109938Y-101538527D01*
X158773198Y-102042494D01*
X158541248Y-102602472D01*
X158423000Y-103196942D01*
X158423000Y-103803058D01*
X158541248Y-104397528D01*
X158773198Y-104957506D01*
X159109938Y-105461473D01*
X159538527Y-105890062D01*
X160042494Y-106226802D01*
X160189794Y-106287815D01*
X159920997Y-106341282D01*
X159559750Y-106490915D01*
X159234636Y-106708149D01*
X158958149Y-106984636D01*
X158740915Y-107309750D01*
X158591282Y-107670997D01*
X158515000Y-108054495D01*
X158515000Y-108445505D01*
X158591282Y-108829003D01*
X158740915Y-109190250D01*
X158958149Y-109515364D01*
X159234636Y-109791851D01*
X159559750Y-110009085D01*
X159920997Y-110158718D01*
X160304495Y-110235000D01*
X160695505Y-110235000D01*
X161079003Y-110158718D01*
X161440250Y-110009085D01*
X161765364Y-109791851D01*
X162041851Y-109515364D01*
X162259085Y-109190250D01*
X162408718Y-108829003D01*
X162485000Y-108445505D01*
X162485000Y-108054495D01*
X162408718Y-107670997D01*
X162259085Y-107309750D01*
X162041851Y-106984636D01*
X161765364Y-106708149D01*
X161569085Y-106577000D01*
X161803058Y-106577000D01*
X162397528Y-106458752D01*
X162957506Y-106226802D01*
X163461473Y-105890062D01*
X163890062Y-105461473D01*
X164226802Y-104957506D01*
X164315001Y-104744574D01*
X164315000Y-125255423D01*
X164226802Y-125042494D01*
X163890062Y-124538527D01*
X163461473Y-124109938D01*
X162957506Y-123773198D01*
X162397528Y-123541248D01*
X161803058Y-123423000D01*
X161569085Y-123423000D01*
X161765364Y-123291851D01*
X162041851Y-123015364D01*
X162259085Y-122690250D01*
X162408718Y-122329003D01*
X162485000Y-121945505D01*
X162485000Y-121554495D01*
X162408718Y-121170997D01*
X162259085Y-120809750D01*
X162041851Y-120484636D01*
X161765364Y-120208149D01*
X161440250Y-119990915D01*
X161079003Y-119841282D01*
X160695505Y-119765000D01*
X160304495Y-119765000D01*
X159920997Y-119841282D01*
X159559750Y-119990915D01*
X159234636Y-120208149D01*
X158958149Y-120484636D01*
X158740915Y-120809750D01*
X158591282Y-121170997D01*
X158515000Y-121554495D01*
X158515000Y-121945505D01*
X158591282Y-122329003D01*
X158740915Y-122690250D01*
X158958149Y-123015364D01*
X159234636Y-123291851D01*
X159559750Y-123509085D01*
X159920997Y-123658718D01*
X160189794Y-123712185D01*
X160042494Y-123773198D01*
X159538527Y-124109938D01*
X159109938Y-124538527D01*
X158773198Y-125042494D01*
X158541248Y-125602472D01*
X158423000Y-126196942D01*
X158423000Y-126803058D01*
X158541248Y-127397528D01*
X158773198Y-127957506D01*
X159109938Y-128461473D01*
X159538527Y-128890062D01*
X160042494Y-129226802D01*
X160255423Y-129315000D01*
X104744577Y-129315000D01*
X104957506Y-129226802D01*
X105461473Y-128890062D01*
X105890062Y-128461473D01*
X106226802Y-127957506D01*
X106458752Y-127397528D01*
X106577000Y-126803058D01*
X106577000Y-126512137D01*
X122232000Y-126512137D01*
X122232000Y-126725863D01*
X122273696Y-126935483D01*
X122355485Y-127132940D01*
X122474225Y-127310647D01*
X122625353Y-127461775D01*
X122803060Y-127580515D01*
X123000517Y-127662304D01*
X123210137Y-127704000D01*
X123383487Y-127704000D01*
X123732105Y-128052618D01*
X123757472Y-128083528D01*
X123796165Y-128115282D01*
X123880810Y-128184749D01*
X123935538Y-128214001D01*
X124021527Y-128259963D01*
X124174212Y-128306280D01*
X124293209Y-128318000D01*
X124293212Y-128318000D01*
X124333000Y-128321919D01*
X124372788Y-128318000D01*
X125164171Y-128318000D01*
X125170992Y-128387255D01*
X125221528Y-128553851D01*
X125303595Y-128707387D01*
X125414038Y-128841962D01*
X125548613Y-128952405D01*
X125702149Y-129034472D01*
X125868745Y-129085008D01*
X126041999Y-129102072D01*
X126942001Y-129102072D01*
X127115255Y-129085008D01*
X127281851Y-129034472D01*
X127435387Y-128952405D01*
X127569962Y-128841962D01*
X127680405Y-128707387D01*
X127684888Y-128699000D01*
X128992212Y-128699000D01*
X129032000Y-128702919D01*
X129071788Y-128699000D01*
X129071791Y-128699000D01*
X129190788Y-128687280D01*
X129343473Y-128640963D01*
X129484189Y-128565749D01*
X129607528Y-128464528D01*
X129632899Y-128433613D01*
X129727512Y-128339000D01*
X129773863Y-128339000D01*
X129983483Y-128297304D01*
X130180940Y-128215515D01*
X130358647Y-128096775D01*
X130509775Y-127945647D01*
X130628515Y-127767940D01*
X130710304Y-127570483D01*
X130752000Y-127360863D01*
X130752000Y-127147137D01*
X130710304Y-126937517D01*
X130628515Y-126740060D01*
X130509775Y-126562353D01*
X130358647Y-126411225D01*
X130180940Y-126292485D01*
X129983483Y-126210696D01*
X129773863Y-126169000D01*
X129560137Y-126169000D01*
X129350517Y-126210696D01*
X129153060Y-126292485D01*
X128975353Y-126411225D01*
X128824225Y-126562353D01*
X128705485Y-126740060D01*
X128623696Y-126937517D01*
X128595553Y-127079000D01*
X127684888Y-127079000D01*
X127680405Y-127070613D01*
X127569962Y-126936038D01*
X127563406Y-126930658D01*
X127643185Y-126865185D01*
X127722537Y-126768494D01*
X127781502Y-126658180D01*
X127817812Y-126538482D01*
X127830072Y-126414000D01*
X127827000Y-126124750D01*
X127668250Y-125966000D01*
X126619000Y-125966000D01*
X126619000Y-125986000D01*
X126365000Y-125986000D01*
X126365000Y-125966000D01*
X125315750Y-125966000D01*
X125157000Y-126124750D01*
X125153928Y-126414000D01*
X125166188Y-126538482D01*
X125202498Y-126658180D01*
X125223783Y-126698000D01*
X124668513Y-126698000D01*
X124381975Y-126411462D01*
X124360304Y-126302517D01*
X124278515Y-126105060D01*
X124159775Y-125927353D01*
X124008647Y-125776225D01*
X123830940Y-125657485D01*
X123633483Y-125575696D01*
X123423863Y-125534000D01*
X123210137Y-125534000D01*
X123000517Y-125575696D01*
X122803060Y-125657485D01*
X122625353Y-125776225D01*
X122474225Y-125927353D01*
X122355485Y-126105060D01*
X122273696Y-126302517D01*
X122232000Y-126512137D01*
X106577000Y-126512137D01*
X106577000Y-126196942D01*
X106458752Y-125602472D01*
X106318553Y-125264000D01*
X125153928Y-125264000D01*
X125157000Y-125553250D01*
X125315750Y-125712000D01*
X126365000Y-125712000D01*
X126365000Y-124787750D01*
X126619000Y-124787750D01*
X126619000Y-125712000D01*
X127668250Y-125712000D01*
X127827000Y-125553250D01*
X127830072Y-125264000D01*
X127817812Y-125139518D01*
X127781502Y-125019820D01*
X127722537Y-124909506D01*
X127643185Y-124812815D01*
X127546494Y-124733463D01*
X127436180Y-124674498D01*
X127316482Y-124638188D01*
X127192000Y-124625928D01*
X126777750Y-124629000D01*
X126619000Y-124787750D01*
X126365000Y-124787750D01*
X126206250Y-124629000D01*
X125792000Y-124625928D01*
X125667518Y-124638188D01*
X125547820Y-124674498D01*
X125437506Y-124733463D01*
X125340815Y-124812815D01*
X125261463Y-124909506D01*
X125202498Y-125019820D01*
X125166188Y-125139518D01*
X125153928Y-125264000D01*
X106318553Y-125264000D01*
X106226802Y-125042494D01*
X105890062Y-124538527D01*
X105461473Y-124109938D01*
X104957506Y-123773198D01*
X104810206Y-123712185D01*
X105079003Y-123658718D01*
X105440250Y-123509085D01*
X105765364Y-123291851D01*
X106041851Y-123015364D01*
X106259085Y-122690250D01*
X106408718Y-122329003D01*
X106485000Y-121945505D01*
X106485000Y-121554495D01*
X106408718Y-121170997D01*
X106259085Y-120809750D01*
X106041851Y-120484636D01*
X105765364Y-120208149D01*
X105440250Y-119990915D01*
X105079003Y-119841282D01*
X104695505Y-119765000D01*
X104304495Y-119765000D01*
X103920997Y-119841282D01*
X103559750Y-119990915D01*
X103234636Y-120208149D01*
X102958149Y-120484636D01*
X102740915Y-120809750D01*
X102591282Y-121170997D01*
X102515000Y-121554495D01*
X102515000Y-121945505D01*
X102591282Y-122329003D01*
X102740915Y-122690250D01*
X102958149Y-123015364D01*
X103234636Y-123291851D01*
X103430915Y-123423000D01*
X103196942Y-123423000D01*
X102602472Y-123541248D01*
X102042494Y-123773198D01*
X101538527Y-124109938D01*
X101109938Y-124538527D01*
X100773198Y-125042494D01*
X100685000Y-125255423D01*
X100685000Y-114692017D01*
X101373000Y-114692017D01*
X101373000Y-115307983D01*
X101493169Y-115912112D01*
X101728889Y-116481190D01*
X102071101Y-116993346D01*
X102506654Y-117428899D01*
X103018810Y-117771111D01*
X103587888Y-118006831D01*
X104192017Y-118127000D01*
X104807983Y-118127000D01*
X105412112Y-118006831D01*
X105981190Y-117771111D01*
X106493346Y-117428899D01*
X106928899Y-116993346D01*
X107271111Y-116481190D01*
X107506831Y-115912112D01*
X107627000Y-115307983D01*
X107627000Y-114692017D01*
X107506831Y-114087888D01*
X107358589Y-113730000D01*
X107507815Y-113730000D01*
X107536487Y-114021111D01*
X107621401Y-114301034D01*
X107759294Y-114559014D01*
X107944866Y-114785134D01*
X108170986Y-114970706D01*
X108225791Y-115000000D01*
X108170986Y-115029294D01*
X107944866Y-115214866D01*
X107759294Y-115440986D01*
X107621401Y-115698966D01*
X107536487Y-115978889D01*
X107507815Y-116270000D01*
X107536487Y-116561111D01*
X107621401Y-116841034D01*
X107759294Y-117099014D01*
X107944866Y-117325134D01*
X108170986Y-117510706D01*
X108225791Y-117540000D01*
X108170986Y-117569294D01*
X107944866Y-117754866D01*
X107759294Y-117980986D01*
X107621401Y-118238966D01*
X107536487Y-118518889D01*
X107507815Y-118810000D01*
X107536487Y-119101111D01*
X107621401Y-119381034D01*
X107759294Y-119639014D01*
X107944866Y-119865134D01*
X108170986Y-120050706D01*
X108428966Y-120188599D01*
X108708889Y-120273513D01*
X108927050Y-120295000D01*
X109072950Y-120295000D01*
X109227232Y-120279805D01*
X110386428Y-121685069D01*
X110386428Y-121748500D01*
X110398688Y-121872982D01*
X110434998Y-121992680D01*
X110493963Y-122102994D01*
X110573315Y-122199685D01*
X110670006Y-122279037D01*
X110780320Y-122338002D01*
X110900018Y-122374312D01*
X111024500Y-122386572D01*
X112924500Y-122386572D01*
X113048982Y-122374312D01*
X113168680Y-122338002D01*
X113278994Y-122279037D01*
X113375685Y-122199685D01*
X113386428Y-122186595D01*
X113386428Y-122698500D01*
X113398688Y-122822982D01*
X113434998Y-122942680D01*
X113493963Y-123052994D01*
X113573315Y-123149685D01*
X113670006Y-123229037D01*
X113780320Y-123288002D01*
X113900018Y-123324312D01*
X114024500Y-123336572D01*
X115924500Y-123336572D01*
X116048982Y-123324312D01*
X116168680Y-123288002D01*
X116278994Y-123229037D01*
X116375685Y-123149685D01*
X116450518Y-123058500D01*
X116573578Y-123058500D01*
X116656353Y-123141275D01*
X116834060Y-123260015D01*
X117031517Y-123341804D01*
X117241137Y-123383500D01*
X117454863Y-123383500D01*
X117664483Y-123341804D01*
X117861940Y-123260015D01*
X118039647Y-123141275D01*
X118122422Y-123058500D01*
X118544580Y-123058500D01*
X118556038Y-123072462D01*
X118690613Y-123182905D01*
X118844149Y-123264972D01*
X119010745Y-123315508D01*
X119183999Y-123332572D01*
X120084001Y-123332572D01*
X120257255Y-123315508D01*
X120258930Y-123315000D01*
X122417130Y-123315000D01*
X122391188Y-123400518D01*
X122378928Y-123525000D01*
X122378928Y-124125000D01*
X122391188Y-124249482D01*
X122427498Y-124369180D01*
X122486463Y-124479494D01*
X122565815Y-124576185D01*
X122662506Y-124655537D01*
X122772820Y-124714502D01*
X122892518Y-124750812D01*
X123017000Y-124763072D01*
X124567000Y-124763072D01*
X124691482Y-124750812D01*
X124811180Y-124714502D01*
X124921494Y-124655537D01*
X125018185Y-124576185D01*
X125097537Y-124479494D01*
X125156502Y-124369180D01*
X125192812Y-124249482D01*
X125205072Y-124125000D01*
X125205072Y-123525000D01*
X125192812Y-123400518D01*
X125156502Y-123280820D01*
X125107957Y-123190000D01*
X125156502Y-123099180D01*
X125192812Y-122979482D01*
X125205072Y-122855000D01*
X125205072Y-122255000D01*
X125192812Y-122130518D01*
X125156502Y-122010820D01*
X125107957Y-121920000D01*
X125156502Y-121829180D01*
X125192812Y-121709482D01*
X125205072Y-121585000D01*
X125205072Y-120985000D01*
X125192812Y-120860518D01*
X125156502Y-120740820D01*
X125118721Y-120670137D01*
X126042000Y-120670137D01*
X126042000Y-120883863D01*
X126083696Y-121093483D01*
X126165485Y-121290940D01*
X126284225Y-121468647D01*
X126435353Y-121619775D01*
X126613060Y-121738515D01*
X126810517Y-121820304D01*
X127020137Y-121862000D01*
X127140082Y-121862000D01*
X127210724Y-121919974D01*
X127342753Y-121990546D01*
X127486014Y-122034003D01*
X127597667Y-122045000D01*
X127597676Y-122045000D01*
X127634999Y-122048676D01*
X127672322Y-122045000D01*
X127817130Y-122045000D01*
X127791188Y-122130518D01*
X127778928Y-122255000D01*
X127778928Y-122855000D01*
X127791188Y-122979482D01*
X127827498Y-123099180D01*
X127876043Y-123190000D01*
X127827498Y-123280820D01*
X127791188Y-123400518D01*
X127778928Y-123525000D01*
X127778928Y-124125000D01*
X127791188Y-124249482D01*
X127827498Y-124369180D01*
X127886463Y-124479494D01*
X127965815Y-124576185D01*
X128062506Y-124655537D01*
X128172820Y-124714502D01*
X128292518Y-124750812D01*
X128417000Y-124763072D01*
X129967000Y-124763072D01*
X130091482Y-124750812D01*
X130211180Y-124714502D01*
X130321494Y-124655537D01*
X130418185Y-124576185D01*
X130497537Y-124479494D01*
X130556502Y-124369180D01*
X130592812Y-124249482D01*
X130605072Y-124125000D01*
X130605072Y-123976414D01*
X130677060Y-124024515D01*
X130874517Y-124106304D01*
X131084137Y-124148000D01*
X131297863Y-124148000D01*
X131507483Y-124106304D01*
X131704940Y-124024515D01*
X131882647Y-123905775D01*
X132033775Y-123754647D01*
X132152515Y-123576940D01*
X132234304Y-123379483D01*
X132276000Y-123169863D01*
X132276000Y-122956137D01*
X132234304Y-122746517D01*
X132152515Y-122549060D01*
X132102333Y-122473957D01*
X132155245Y-122490008D01*
X132328499Y-122507072D01*
X133228501Y-122507072D01*
X133401755Y-122490008D01*
X133568351Y-122439472D01*
X133721887Y-122357405D01*
X133856462Y-122246962D01*
X133966905Y-122112387D01*
X133998114Y-122054000D01*
X135114886Y-122054000D01*
X135146095Y-122112387D01*
X135256538Y-122246962D01*
X135391113Y-122357405D01*
X135544649Y-122439472D01*
X135711245Y-122490008D01*
X135884499Y-122507072D01*
X136784501Y-122507072D01*
X136957755Y-122490008D01*
X137124351Y-122439472D01*
X137277887Y-122357405D01*
X137412462Y-122246962D01*
X137522905Y-122112387D01*
X137554114Y-122054000D01*
X138734386Y-122054000D01*
X138765595Y-122112387D01*
X138876038Y-122246962D01*
X139010613Y-122357405D01*
X139164149Y-122439472D01*
X139330745Y-122490008D01*
X139503999Y-122507072D01*
X140404001Y-122507072D01*
X140577255Y-122490008D01*
X140743851Y-122439472D01*
X140897387Y-122357405D01*
X141031962Y-122246962D01*
X141142405Y-122112387D01*
X141224472Y-121958851D01*
X141275008Y-121792255D01*
X141292072Y-121619001D01*
X141292072Y-120968999D01*
X141275008Y-120795745D01*
X141224472Y-120629149D01*
X141142405Y-120475613D01*
X141031962Y-120341038D01*
X140944184Y-120269000D01*
X141031962Y-120196962D01*
X141142405Y-120062387D01*
X141224472Y-119908851D01*
X141275008Y-119742255D01*
X141292072Y-119569001D01*
X141292072Y-118918999D01*
X141275008Y-118745745D01*
X141224472Y-118579149D01*
X141142405Y-118425613D01*
X141087326Y-118358499D01*
X149526928Y-118358499D01*
X149526928Y-119258501D01*
X149543992Y-119431755D01*
X149594528Y-119598351D01*
X149676595Y-119751887D01*
X149787038Y-119886462D01*
X149921613Y-119996905D01*
X150075149Y-120078972D01*
X150241745Y-120129508D01*
X150414999Y-120146572D01*
X151065001Y-120146572D01*
X151238255Y-120129508D01*
X151404851Y-120078972D01*
X151558387Y-119996905D01*
X151692962Y-119886462D01*
X151765000Y-119798684D01*
X151837038Y-119886462D01*
X151971613Y-119996905D01*
X152125149Y-120078972D01*
X152291745Y-120129508D01*
X152464999Y-120146572D01*
X153115001Y-120146572D01*
X153288255Y-120129508D01*
X153454851Y-120078972D01*
X153608387Y-119996905D01*
X153742962Y-119886462D01*
X153853405Y-119751887D01*
X153935472Y-119598351D01*
X153944527Y-119568500D01*
X154721604Y-119568500D01*
X154759294Y-119639014D01*
X154944866Y-119865134D01*
X155170986Y-120050706D01*
X155428966Y-120188599D01*
X155708889Y-120273513D01*
X155927050Y-120295000D01*
X156072950Y-120295000D01*
X156291111Y-120273513D01*
X156571034Y-120188599D01*
X156829014Y-120050706D01*
X157055134Y-119865134D01*
X157240706Y-119639014D01*
X157378599Y-119381034D01*
X157463513Y-119101111D01*
X157492185Y-118810000D01*
X157463513Y-118518889D01*
X157378599Y-118238966D01*
X157240706Y-117980986D01*
X157055134Y-117754866D01*
X156829014Y-117569294D01*
X156764477Y-117534799D01*
X156881355Y-117465178D01*
X157097588Y-117270269D01*
X157271641Y-117036920D01*
X157396825Y-116774099D01*
X157441476Y-116626890D01*
X157320155Y-116397000D01*
X156127000Y-116397000D01*
X156127000Y-116417000D01*
X155873000Y-116417000D01*
X155873000Y-116397000D01*
X154679845Y-116397000D01*
X154558524Y-116626890D01*
X154603175Y-116774099D01*
X154728359Y-117036920D01*
X154902412Y-117270269D01*
X155118645Y-117465178D01*
X155235523Y-117534799D01*
X155170986Y-117569294D01*
X154944866Y-117754866D01*
X154759294Y-117980986D01*
X154723207Y-118048500D01*
X153944527Y-118048500D01*
X153935472Y-118018649D01*
X153853405Y-117865113D01*
X153742962Y-117730538D01*
X153608387Y-117620095D01*
X153454851Y-117538028D01*
X153288255Y-117487492D01*
X153115001Y-117470428D01*
X152464999Y-117470428D01*
X152291745Y-117487492D01*
X152125149Y-117538028D01*
X151971613Y-117620095D01*
X151837038Y-117730538D01*
X151765000Y-117818316D01*
X151692962Y-117730538D01*
X151559000Y-117620598D01*
X151559000Y-117564422D01*
X151591775Y-117531647D01*
X151710515Y-117353940D01*
X151792304Y-117156483D01*
X151834000Y-116946863D01*
X151834000Y-116733137D01*
X151792304Y-116523517D01*
X151710515Y-116326060D01*
X151591775Y-116148353D01*
X151440647Y-115997225D01*
X151262940Y-115878485D01*
X151065483Y-115796696D01*
X150855863Y-115755000D01*
X150642137Y-115755000D01*
X150432517Y-115796696D01*
X150235060Y-115878485D01*
X150057353Y-115997225D01*
X149906225Y-116148353D01*
X149787485Y-116326060D01*
X149705696Y-116523517D01*
X149664000Y-116733137D01*
X149664000Y-116946863D01*
X149705696Y-117156483D01*
X149787485Y-117353940D01*
X149906225Y-117531647D01*
X149939001Y-117564423D01*
X149939001Y-117610801D01*
X149921613Y-117620095D01*
X149787038Y-117730538D01*
X149676595Y-117865113D01*
X149594528Y-118018649D01*
X149543992Y-118185245D01*
X149526928Y-118358499D01*
X141087326Y-118358499D01*
X141031962Y-118291038D01*
X140897387Y-118180595D01*
X140743851Y-118098528D01*
X140577255Y-118047992D01*
X140404001Y-118030928D01*
X139503999Y-118030928D01*
X139330745Y-118047992D01*
X139164149Y-118098528D01*
X139010613Y-118180595D01*
X138876038Y-118291038D01*
X138843550Y-118330624D01*
X138689940Y-118227985D01*
X138492483Y-118146196D01*
X138282863Y-118104500D01*
X138069137Y-118104500D01*
X137859517Y-118146196D01*
X137662060Y-118227985D01*
X137553539Y-118300496D01*
X137485685Y-118217815D01*
X137388994Y-118138463D01*
X137278680Y-118079498D01*
X137158982Y-118043188D01*
X137034500Y-118030928D01*
X136620250Y-118034000D01*
X136461500Y-118192750D01*
X136461500Y-119117000D01*
X136481500Y-119117000D01*
X136481500Y-119371000D01*
X136461500Y-119371000D01*
X136461500Y-119391000D01*
X136207500Y-119391000D01*
X136207500Y-119371000D01*
X135158250Y-119371000D01*
X134999500Y-119529750D01*
X134996428Y-119819000D01*
X135008688Y-119943482D01*
X135044998Y-120063180D01*
X135103963Y-120173494D01*
X135183315Y-120270185D01*
X135263094Y-120335658D01*
X135256538Y-120341038D01*
X135146095Y-120475613D01*
X135114886Y-120534000D01*
X133998114Y-120534000D01*
X133966905Y-120475613D01*
X133856462Y-120341038D01*
X133849906Y-120335658D01*
X133929685Y-120270185D01*
X134009037Y-120173494D01*
X134068002Y-120063180D01*
X134104312Y-119943482D01*
X134116572Y-119819000D01*
X134113500Y-119529750D01*
X133954750Y-119371000D01*
X132905500Y-119371000D01*
X132905500Y-119391000D01*
X132651500Y-119391000D01*
X132651500Y-119371000D01*
X131602250Y-119371000D01*
X131443500Y-119529750D01*
X131440428Y-119819000D01*
X131452688Y-119943482D01*
X131488998Y-120063180D01*
X131547963Y-120173494D01*
X131627315Y-120270185D01*
X131707094Y-120335658D01*
X131700538Y-120341038D01*
X131666423Y-120382607D01*
X131577940Y-120323485D01*
X131380483Y-120241696D01*
X131170863Y-120200000D01*
X130957137Y-120200000D01*
X130747517Y-120241696D01*
X130605072Y-120300698D01*
X130605072Y-119715000D01*
X130592812Y-119590518D01*
X130556502Y-119470820D01*
X130497537Y-119360506D01*
X130418185Y-119263815D01*
X130321494Y-119184463D01*
X130211180Y-119125498D01*
X130091482Y-119089188D01*
X129967000Y-119076928D01*
X128417000Y-119076928D01*
X128292518Y-119089188D01*
X128172820Y-119125498D01*
X128062506Y-119184463D01*
X127965815Y-119263815D01*
X127886463Y-119360506D01*
X127827498Y-119470820D01*
X127791188Y-119590518D01*
X127778928Y-119715000D01*
X127778928Y-119907686D01*
X127640940Y-119815485D01*
X127443483Y-119733696D01*
X127233863Y-119692000D01*
X127020137Y-119692000D01*
X126810517Y-119733696D01*
X126613060Y-119815485D01*
X126435353Y-119934225D01*
X126284225Y-120085353D01*
X126165485Y-120263060D01*
X126083696Y-120460517D01*
X126042000Y-120670137D01*
X125118721Y-120670137D01*
X125107957Y-120650000D01*
X125156502Y-120559180D01*
X125192812Y-120439482D01*
X125205072Y-120315000D01*
X125202000Y-120300750D01*
X125043250Y-120142000D01*
X123919000Y-120142000D01*
X123919000Y-120162000D01*
X123665000Y-120162000D01*
X123665000Y-120142000D01*
X122540750Y-120142000D01*
X122382000Y-120300750D01*
X122378928Y-120315000D01*
X122391188Y-120439482D01*
X122417130Y-120525000D01*
X122211322Y-120525000D01*
X122173999Y-120521324D01*
X122136676Y-120525000D01*
X122136667Y-120525000D01*
X122025014Y-120535997D01*
X121881753Y-120579454D01*
X121878861Y-120581000D01*
X121686137Y-120581000D01*
X121476517Y-120622696D01*
X121279060Y-120704485D01*
X121101353Y-120823225D01*
X120950225Y-120974353D01*
X120831485Y-121152060D01*
X120787409Y-121258470D01*
X120711962Y-121166538D01*
X120705406Y-121161158D01*
X120785185Y-121095685D01*
X120864537Y-120998994D01*
X120923502Y-120888680D01*
X120959812Y-120768982D01*
X120972072Y-120644500D01*
X120969000Y-120355250D01*
X120810250Y-120196500D01*
X119761000Y-120196500D01*
X119761000Y-120216500D01*
X119507000Y-120216500D01*
X119507000Y-120196500D01*
X118457750Y-120196500D01*
X118299000Y-120355250D01*
X118295928Y-120644500D01*
X118308188Y-120768982D01*
X118344498Y-120888680D01*
X118403463Y-120998994D01*
X118482815Y-121095685D01*
X118562594Y-121161158D01*
X118556038Y-121166538D01*
X118445595Y-121301113D01*
X118363528Y-121454649D01*
X118338092Y-121538500D01*
X118122422Y-121538500D01*
X118108000Y-121524078D01*
X118108000Y-119494500D01*
X118295928Y-119494500D01*
X118299000Y-119783750D01*
X118457750Y-119942500D01*
X119507000Y-119942500D01*
X119507000Y-119018250D01*
X119761000Y-119018250D01*
X119761000Y-119942500D01*
X120810250Y-119942500D01*
X120969000Y-119783750D01*
X120969730Y-119715000D01*
X122378928Y-119715000D01*
X122382000Y-119729250D01*
X122540750Y-119888000D01*
X123665000Y-119888000D01*
X123665000Y-119238750D01*
X123919000Y-119238750D01*
X123919000Y-119888000D01*
X125043250Y-119888000D01*
X125202000Y-119729250D01*
X125205072Y-119715000D01*
X125192812Y-119590518D01*
X125156502Y-119470820D01*
X125097537Y-119360506D01*
X125018185Y-119263815D01*
X124921494Y-119184463D01*
X124811180Y-119125498D01*
X124691482Y-119089188D01*
X124567000Y-119076928D01*
X124077750Y-119080000D01*
X123919000Y-119238750D01*
X123665000Y-119238750D01*
X123506250Y-119080000D01*
X123017000Y-119076928D01*
X122892518Y-119089188D01*
X122772820Y-119125498D01*
X122662506Y-119184463D01*
X122565815Y-119263815D01*
X122486463Y-119360506D01*
X122427498Y-119470820D01*
X122391188Y-119590518D01*
X122378928Y-119715000D01*
X120969730Y-119715000D01*
X120972072Y-119494500D01*
X120959812Y-119370018D01*
X120923502Y-119250320D01*
X120864537Y-119140006D01*
X120785185Y-119043315D01*
X120688494Y-118963963D01*
X120578180Y-118904998D01*
X120458482Y-118868688D01*
X120334000Y-118856428D01*
X119919750Y-118859500D01*
X119761000Y-119018250D01*
X119507000Y-119018250D01*
X119348250Y-118859500D01*
X118934000Y-118856428D01*
X118809518Y-118868688D01*
X118689820Y-118904998D01*
X118579506Y-118963963D01*
X118482815Y-119043315D01*
X118403463Y-119140006D01*
X118344498Y-119250320D01*
X118308188Y-119370018D01*
X118295928Y-119494500D01*
X118108000Y-119494500D01*
X118108000Y-118669000D01*
X131440428Y-118669000D01*
X131443500Y-118958250D01*
X131602250Y-119117000D01*
X132651500Y-119117000D01*
X132651500Y-118192750D01*
X132905500Y-118192750D01*
X132905500Y-119117000D01*
X133954750Y-119117000D01*
X134113500Y-118958250D01*
X134116572Y-118669000D01*
X134996428Y-118669000D01*
X134999500Y-118958250D01*
X135158250Y-119117000D01*
X136207500Y-119117000D01*
X136207500Y-118192750D01*
X136048750Y-118034000D01*
X135634500Y-118030928D01*
X135510018Y-118043188D01*
X135390320Y-118079498D01*
X135280006Y-118138463D01*
X135183315Y-118217815D01*
X135103963Y-118314506D01*
X135044998Y-118424820D01*
X135008688Y-118544518D01*
X134996428Y-118669000D01*
X134116572Y-118669000D01*
X134104312Y-118544518D01*
X134068002Y-118424820D01*
X134009037Y-118314506D01*
X133929685Y-118217815D01*
X133832994Y-118138463D01*
X133722680Y-118079498D01*
X133602982Y-118043188D01*
X133478500Y-118030928D01*
X133064250Y-118034000D01*
X132905500Y-118192750D01*
X132651500Y-118192750D01*
X132492750Y-118034000D01*
X132078500Y-118030928D01*
X131954018Y-118043188D01*
X131834320Y-118079498D01*
X131724006Y-118138463D01*
X131627315Y-118217815D01*
X131547963Y-118314506D01*
X131488998Y-118424820D01*
X131452688Y-118544518D01*
X131440428Y-118669000D01*
X118108000Y-118669000D01*
X118108000Y-117255833D01*
X118111677Y-117218500D01*
X118108000Y-117181167D01*
X118108000Y-116662000D01*
X123883928Y-116662000D01*
X123896188Y-116786482D01*
X123932498Y-116906180D01*
X123991463Y-117016494D01*
X124070815Y-117113185D01*
X124167506Y-117192537D01*
X124277820Y-117251502D01*
X124397518Y-117287812D01*
X124522000Y-117300072D01*
X124936250Y-117297000D01*
X125095000Y-117138250D01*
X125095000Y-116214000D01*
X125349000Y-116214000D01*
X125349000Y-117138250D01*
X125507750Y-117297000D01*
X125922000Y-117300072D01*
X126046482Y-117287812D01*
X126166180Y-117251502D01*
X126276494Y-117192537D01*
X126373185Y-117113185D01*
X126452537Y-117016494D01*
X126511502Y-116906180D01*
X126547812Y-116786482D01*
X126560072Y-116662000D01*
X127630428Y-116662000D01*
X127642688Y-116786482D01*
X127678998Y-116906180D01*
X127737963Y-117016494D01*
X127817315Y-117113185D01*
X127914006Y-117192537D01*
X128024320Y-117251502D01*
X128144018Y-117287812D01*
X128268500Y-117300072D01*
X128682750Y-117297000D01*
X128841500Y-117138250D01*
X128841500Y-116214000D01*
X129095500Y-116214000D01*
X129095500Y-117138250D01*
X129254250Y-117297000D01*
X129668500Y-117300072D01*
X129792982Y-117287812D01*
X129912680Y-117251502D01*
X130022994Y-117192537D01*
X130119685Y-117113185D01*
X130199037Y-117016494D01*
X130258002Y-116906180D01*
X130294312Y-116786482D01*
X130306572Y-116662000D01*
X130303500Y-116372750D01*
X130144750Y-116214000D01*
X129095500Y-116214000D01*
X128841500Y-116214000D01*
X127792250Y-116214000D01*
X127633500Y-116372750D01*
X127630428Y-116662000D01*
X126560072Y-116662000D01*
X126557000Y-116372750D01*
X126398250Y-116214000D01*
X125349000Y-116214000D01*
X125095000Y-116214000D01*
X124045750Y-116214000D01*
X123887000Y-116372750D01*
X123883928Y-116662000D01*
X118108000Y-116662000D01*
X118108000Y-114256637D01*
X121660500Y-114256637D01*
X121660500Y-114470363D01*
X121702196Y-114679983D01*
X121783985Y-114877440D01*
X121902725Y-115055147D01*
X122053853Y-115206275D01*
X122231560Y-115325015D01*
X122429017Y-115406804D01*
X122638637Y-115448500D01*
X122852363Y-115448500D01*
X123061983Y-115406804D01*
X123259440Y-115325015D01*
X123437147Y-115206275D01*
X123465867Y-115177555D01*
X123979206Y-115180436D01*
X123932498Y-115267820D01*
X123896188Y-115387518D01*
X123883928Y-115512000D01*
X123887000Y-115801250D01*
X124045750Y-115960000D01*
X125095000Y-115960000D01*
X125095000Y-115940000D01*
X125349000Y-115940000D01*
X125349000Y-115960000D01*
X126398250Y-115960000D01*
X126557000Y-115801250D01*
X126560072Y-115512000D01*
X126547812Y-115387518D01*
X126511502Y-115267820D01*
X126460284Y-115172000D01*
X127730216Y-115172000D01*
X127678998Y-115267820D01*
X127642688Y-115387518D01*
X127630428Y-115512000D01*
X127633500Y-115801250D01*
X127792250Y-115960000D01*
X128841500Y-115960000D01*
X128841500Y-115940000D01*
X129095500Y-115940000D01*
X129095500Y-115960000D01*
X130144750Y-115960000D01*
X130303500Y-115801250D01*
X130306572Y-115512000D01*
X130294312Y-115387518D01*
X130258002Y-115267820D01*
X130199037Y-115157506D01*
X130160050Y-115110000D01*
X131491541Y-115110000D01*
X131508028Y-115164351D01*
X131590095Y-115317887D01*
X131700538Y-115452462D01*
X131835113Y-115562905D01*
X131988649Y-115644972D01*
X132155245Y-115695508D01*
X132328499Y-115712572D01*
X133228501Y-115712572D01*
X133401755Y-115695508D01*
X133568351Y-115644972D01*
X133721887Y-115562905D01*
X133856462Y-115452462D01*
X133966905Y-115317887D01*
X133971388Y-115309500D01*
X136127078Y-115309500D01*
X136150853Y-115333275D01*
X136328560Y-115452015D01*
X136526017Y-115533804D01*
X136735637Y-115575500D01*
X136949363Y-115575500D01*
X137158983Y-115533804D01*
X137356440Y-115452015D01*
X137534147Y-115333275D01*
X137685275Y-115182147D01*
X137804015Y-115004440D01*
X137885804Y-114806983D01*
X137927500Y-114597363D01*
X137927500Y-114383637D01*
X137885804Y-114174017D01*
X137804015Y-113976560D01*
X137685275Y-113798853D01*
X137534147Y-113647725D01*
X137356440Y-113528985D01*
X137158983Y-113447196D01*
X136949363Y-113405500D01*
X136735637Y-113405500D01*
X136526017Y-113447196D01*
X136328560Y-113528985D01*
X136150853Y-113647725D01*
X136109078Y-113689500D01*
X133971388Y-113689500D01*
X133966905Y-113681113D01*
X133856462Y-113546538D01*
X133768684Y-113474500D01*
X133856462Y-113402462D01*
X133966905Y-113267887D01*
X134048972Y-113114351D01*
X134099508Y-112947755D01*
X134116572Y-112774501D01*
X134116572Y-112124499D01*
X134099508Y-111951245D01*
X134048972Y-111784649D01*
X133966905Y-111631113D01*
X133856462Y-111496538D01*
X133721887Y-111386095D01*
X133588500Y-111314798D01*
X133588500Y-111277922D01*
X133621275Y-111245147D01*
X133740015Y-111067440D01*
X133821804Y-110869983D01*
X133863500Y-110660363D01*
X133863500Y-110446637D01*
X133821804Y-110237017D01*
X133803422Y-110192637D01*
X133916000Y-110192637D01*
X133916000Y-110406363D01*
X133957696Y-110615983D01*
X134039485Y-110813440D01*
X134158225Y-110991147D01*
X134309353Y-111142275D01*
X134487060Y-111261015D01*
X134684517Y-111342804D01*
X134894137Y-111384500D01*
X135011198Y-111384500D01*
X135029888Y-111403190D01*
X134983725Y-111449353D01*
X134864985Y-111627060D01*
X134783196Y-111824517D01*
X134741500Y-112034137D01*
X134741500Y-112247863D01*
X134783196Y-112457483D01*
X134864985Y-112654940D01*
X134983725Y-112832647D01*
X135134853Y-112983775D01*
X135312560Y-113102515D01*
X135510017Y-113184304D01*
X135719637Y-113226000D01*
X135933363Y-113226000D01*
X136142983Y-113184304D01*
X136340440Y-113102515D01*
X136518147Y-112983775D01*
X136669275Y-112832647D01*
X136788015Y-112654940D01*
X136869804Y-112457483D01*
X136911500Y-112247863D01*
X136911500Y-112034137D01*
X136869804Y-111824517D01*
X136788015Y-111627060D01*
X136669275Y-111449353D01*
X136586500Y-111366578D01*
X136586500Y-111162322D01*
X136590176Y-111124999D01*
X136586500Y-111087676D01*
X136586500Y-111087667D01*
X136575503Y-110976014D01*
X136532046Y-110832753D01*
X136461474Y-110700724D01*
X136366501Y-110584999D01*
X136337504Y-110561202D01*
X136086000Y-110309698D01*
X136086000Y-110192637D01*
X136044304Y-109983017D01*
X135962515Y-109785560D01*
X135843775Y-109607853D01*
X135692647Y-109456725D01*
X135514940Y-109337985D01*
X135317483Y-109256196D01*
X135107863Y-109214500D01*
X134894137Y-109214500D01*
X134684517Y-109256196D01*
X134487060Y-109337985D01*
X134309353Y-109456725D01*
X134158225Y-109607853D01*
X134039485Y-109785560D01*
X133957696Y-109983017D01*
X133916000Y-110192637D01*
X133803422Y-110192637D01*
X133740015Y-110039560D01*
X133621275Y-109861853D01*
X133470147Y-109710725D01*
X133292440Y-109591985D01*
X133094983Y-109510196D01*
X132885363Y-109468500D01*
X132671637Y-109468500D01*
X132462017Y-109510196D01*
X132264560Y-109591985D01*
X132086853Y-109710725D01*
X131935725Y-109861853D01*
X131816985Y-110039560D01*
X131735196Y-110237017D01*
X131693500Y-110446637D01*
X131693500Y-110660363D01*
X131735196Y-110869983D01*
X131816985Y-111067440D01*
X131935725Y-111245147D01*
X131968500Y-111277922D01*
X131968500Y-111314798D01*
X131835113Y-111386095D01*
X131700538Y-111496538D01*
X131590095Y-111631113D01*
X131508028Y-111784649D01*
X131457492Y-111951245D01*
X131440428Y-112124499D01*
X131440428Y-112774501D01*
X131457492Y-112947755D01*
X131508028Y-113114351D01*
X131590095Y-113267887D01*
X131700538Y-113402462D01*
X131788316Y-113474500D01*
X131769430Y-113490000D01*
X130274721Y-113490000D01*
X130238972Y-113372149D01*
X130156905Y-113218613D01*
X130046462Y-113084038D01*
X129911887Y-112973595D01*
X129758351Y-112891528D01*
X129591755Y-112840992D01*
X129418501Y-112823928D01*
X128518499Y-112823928D01*
X128345245Y-112840992D01*
X128178649Y-112891528D01*
X128025113Y-112973595D01*
X127890538Y-113084038D01*
X127780095Y-113218613D01*
X127698028Y-113372149D01*
X127647492Y-113538745D01*
X127646186Y-113552000D01*
X126544314Y-113552000D01*
X126543008Y-113538745D01*
X126492472Y-113372149D01*
X126410405Y-113218613D01*
X126299962Y-113084038D01*
X126165387Y-112973595D01*
X126011851Y-112891528D01*
X125845255Y-112840992D01*
X125672001Y-112823928D01*
X124771999Y-112823928D01*
X124598745Y-112840992D01*
X124432149Y-112891528D01*
X124278613Y-112973595D01*
X124144038Y-113084038D01*
X124033595Y-113218613D01*
X123951528Y-113372149D01*
X123900992Y-113538745D01*
X123898902Y-113559962D01*
X123473999Y-113557577D01*
X123437147Y-113520725D01*
X123259440Y-113401985D01*
X123061983Y-113320196D01*
X122852363Y-113278500D01*
X122638637Y-113278500D01*
X122429017Y-113320196D01*
X122231560Y-113401985D01*
X122053853Y-113520725D01*
X121902725Y-113671853D01*
X121783985Y-113849560D01*
X121702196Y-114047017D01*
X121660500Y-114256637D01*
X118108000Y-114256637D01*
X118108000Y-113532690D01*
X118110535Y-113516234D01*
X118108000Y-113457993D01*
X118108000Y-113437167D01*
X118106376Y-113420675D01*
X118104025Y-113366669D01*
X118099055Y-113346345D01*
X118097003Y-113325514D01*
X118081304Y-113273761D01*
X118068462Y-113221248D01*
X118059622Y-113202284D01*
X118053546Y-113182253D01*
X118028056Y-113134566D01*
X118005212Y-113085558D01*
X117992837Y-113068675D01*
X117982974Y-113050224D01*
X117948680Y-113008437D01*
X117916705Y-112964816D01*
X117901274Y-112950673D01*
X117888001Y-112934499D01*
X117846209Y-112900201D01*
X117833997Y-112889008D01*
X117817345Y-112876513D01*
X117772276Y-112839526D01*
X117757590Y-112831676D01*
X116562572Y-111934993D01*
X116562572Y-111738500D01*
X116550312Y-111614018D01*
X116514002Y-111494320D01*
X116455037Y-111384006D01*
X116375685Y-111287315D01*
X116278994Y-111207963D01*
X116242582Y-111188500D01*
X116278994Y-111169037D01*
X116375685Y-111089685D01*
X116455037Y-110992994D01*
X116514002Y-110882680D01*
X116550312Y-110762982D01*
X116562572Y-110638500D01*
X116562572Y-109838500D01*
X116550312Y-109714018D01*
X116514002Y-109594320D01*
X116455037Y-109484006D01*
X116375685Y-109387315D01*
X116278994Y-109307963D01*
X116168680Y-109248998D01*
X116048982Y-109212688D01*
X115924500Y-109200428D01*
X114342201Y-109200428D01*
X114332001Y-109187999D01*
X114216276Y-109093026D01*
X114084247Y-109022454D01*
X113940986Y-108978997D01*
X113829333Y-108968000D01*
X113829322Y-108968000D01*
X113792000Y-108964324D01*
X113754678Y-108968000D01*
X112788422Y-108968000D01*
X112705647Y-108885225D01*
X112527940Y-108766485D01*
X112330483Y-108684696D01*
X112120863Y-108643000D01*
X111907137Y-108643000D01*
X111697517Y-108684696D01*
X111500060Y-108766485D01*
X111322353Y-108885225D01*
X111171225Y-109036353D01*
X111052485Y-109214060D01*
X110970696Y-109411517D01*
X110929000Y-109621137D01*
X110929000Y-109834863D01*
X110970696Y-110044483D01*
X111014968Y-110151367D01*
X110900018Y-110162688D01*
X110780320Y-110198998D01*
X110670006Y-110257963D01*
X110573315Y-110337315D01*
X110498482Y-110428500D01*
X110488072Y-110428500D01*
X110488072Y-110340000D01*
X110475812Y-110215518D01*
X110439502Y-110095820D01*
X110380537Y-109985506D01*
X110301185Y-109888815D01*
X110204494Y-109809463D01*
X110094180Y-109750498D01*
X109974482Y-109714188D01*
X109850000Y-109701928D01*
X108150000Y-109701928D01*
X108025518Y-109714188D01*
X107905820Y-109750498D01*
X107795506Y-109809463D01*
X107698815Y-109888815D01*
X107619463Y-109985506D01*
X107560498Y-110095820D01*
X107524188Y-110215518D01*
X107511928Y-110340000D01*
X107511928Y-112040000D01*
X107524188Y-112164482D01*
X107560498Y-112284180D01*
X107619463Y-112394494D01*
X107698815Y-112491185D01*
X107795506Y-112570537D01*
X107905820Y-112629502D01*
X107974687Y-112650393D01*
X107944866Y-112674866D01*
X107759294Y-112900986D01*
X107621401Y-113158966D01*
X107536487Y-113438889D01*
X107507815Y-113730000D01*
X107358589Y-113730000D01*
X107271111Y-113518810D01*
X106928899Y-113006654D01*
X106493346Y-112571101D01*
X105981190Y-112228889D01*
X105412112Y-111993169D01*
X104807983Y-111873000D01*
X104192017Y-111873000D01*
X103587888Y-111993169D01*
X103018810Y-112228889D01*
X102506654Y-112571101D01*
X102071101Y-113006654D01*
X101728889Y-113518810D01*
X101493169Y-114087888D01*
X101373000Y-114692017D01*
X100685000Y-114692017D01*
X100685000Y-104744577D01*
X100773198Y-104957506D01*
X101109938Y-105461473D01*
X101538527Y-105890062D01*
X102042494Y-106226802D01*
X102602472Y-106458752D01*
X103196942Y-106577000D01*
X103430915Y-106577000D01*
X103234636Y-106708149D01*
X102958149Y-106984636D01*
X102740915Y-107309750D01*
X102591282Y-107670997D01*
X102515000Y-108054495D01*
X102515000Y-108445505D01*
X102591282Y-108829003D01*
X102740915Y-109190250D01*
X102958149Y-109515364D01*
X103234636Y-109791851D01*
X103559750Y-110009085D01*
X103920997Y-110158718D01*
X104304495Y-110235000D01*
X104695505Y-110235000D01*
X105079003Y-110158718D01*
X105440250Y-110009085D01*
X105765364Y-109791851D01*
X106041851Y-109515364D01*
X106259085Y-109190250D01*
X106408718Y-108829003D01*
X106485000Y-108445505D01*
X106485000Y-108054495D01*
X106408718Y-107670997D01*
X106259085Y-107309750D01*
X106041851Y-106984636D01*
X105765364Y-106708149D01*
X105440250Y-106490915D01*
X105079003Y-106341282D01*
X104810206Y-106287815D01*
X104957506Y-106226802D01*
X105461473Y-105890062D01*
X105890062Y-105461473D01*
X106226802Y-104957506D01*
X106458752Y-104397528D01*
X106577000Y-103803058D01*
X106577000Y-103196942D01*
X106458752Y-102602472D01*
X106226802Y-102042494D01*
X105890062Y-101538527D01*
X105461473Y-101109938D01*
X104957506Y-100773198D01*
X104744577Y-100685000D01*
X107679980Y-100685000D01*
X107540986Y-100759294D01*
M02*
