%TF.GenerationSoftware,KiCad,Pcbnew,5.1.0*%
%TF.CreationDate,2019-04-08T01:08:36+02:00*%
%TF.ProjectId,BeerEyePi,42656572-4579-4655-9069-2e6b69636164,rev?*%
%TF.SameCoordinates,Original*%
%TF.FileFunction,Legend,Top*%
%TF.FilePolarity,Positive*%
%FSLAX46Y46*%
G04 Gerber Fmt 4.6, Leading zero omitted, Abs format (unit mm)*
G04 Created by KiCad (PCBNEW 5.1.0) date 2019-04-08 01:08:36*
%MOMM*%
%LPD*%
G04 APERTURE LIST*
%ADD10C,0.160000*%
%ADD11C,0.120000*%
%ADD12C,0.150000*%
%ADD13C,0.001000*%
%ADD14C,2.702000*%
%ADD15C,2.700200*%
%ADD16R,2.100000X2.100000*%
%ADD17O,2.100000X2.100000*%
%ADD18C,2.700020*%
%ADD19R,0.650000X2.900000*%
%ADD20R,3.750000X0.650000*%
%ADD21C,0.100000*%
%ADD22C,1.100000*%
%ADD23C,1.550000*%
%ADD24R,1.960000X1.050000*%
G04 APERTURE END LIST*
D10*
X147619047Y-127797619D02*
X147619047Y-128583333D01*
X147566666Y-128740476D01*
X147461904Y-128845238D01*
X147304761Y-128897619D01*
X147200000Y-128897619D01*
X148666666Y-128897619D02*
X148142857Y-128897619D01*
X148142857Y-127797619D01*
X149661904Y-128792857D02*
X149609523Y-128845238D01*
X149452380Y-128897619D01*
X149347619Y-128897619D01*
X149190476Y-128845238D01*
X149085714Y-128740476D01*
X149033333Y-128635714D01*
X148980952Y-128426190D01*
X148980952Y-128269047D01*
X149033333Y-128059523D01*
X149085714Y-127954761D01*
X149190476Y-127850000D01*
X149347619Y-127797619D01*
X149452380Y-127797619D01*
X149609523Y-127850000D01*
X149661904Y-127902380D01*
X150447619Y-127797619D02*
X150447619Y-128583333D01*
X150395238Y-128740476D01*
X150290476Y-128845238D01*
X150133333Y-128897619D01*
X150028571Y-128897619D01*
X151495238Y-128897619D02*
X150971428Y-128897619D01*
X150971428Y-127797619D01*
X152490476Y-128792857D02*
X152438095Y-128845238D01*
X152280952Y-128897619D01*
X152176190Y-128897619D01*
X152019047Y-128845238D01*
X151914285Y-128740476D01*
X151861904Y-128635714D01*
X151809523Y-128426190D01*
X151809523Y-128269047D01*
X151861904Y-128059523D01*
X151914285Y-127954761D01*
X152019047Y-127850000D01*
X152176190Y-127797619D01*
X152280952Y-127797619D01*
X152438095Y-127850000D01*
X152490476Y-127902380D01*
X153276190Y-127797619D02*
X153276190Y-128583333D01*
X153223809Y-128740476D01*
X153119047Y-128845238D01*
X152961904Y-128897619D01*
X152857142Y-128897619D01*
X154323809Y-128897619D02*
X153800000Y-128897619D01*
X153800000Y-127797619D01*
X155319047Y-128792857D02*
X155266666Y-128845238D01*
X155109523Y-128897619D01*
X155004761Y-128897619D01*
X154847619Y-128845238D01*
X154742857Y-128740476D01*
X154690476Y-128635714D01*
X154638095Y-128426190D01*
X154638095Y-128269047D01*
X154690476Y-128059523D01*
X154742857Y-127954761D01*
X154847619Y-127850000D01*
X155004761Y-127797619D01*
X155109523Y-127797619D01*
X155266666Y-127850000D01*
X155319047Y-127902380D01*
X156104761Y-127797619D02*
X156104761Y-128583333D01*
X156052380Y-128740476D01*
X155947619Y-128845238D01*
X155790476Y-128897619D01*
X155685714Y-128897619D01*
X157152380Y-128897619D02*
X156628571Y-128897619D01*
X156628571Y-127797619D01*
X158147619Y-128792857D02*
X158095238Y-128845238D01*
X157938095Y-128897619D01*
X157833333Y-128897619D01*
X157676190Y-128845238D01*
X157571428Y-128740476D01*
X157519047Y-128635714D01*
X157466666Y-128426190D01*
X157466666Y-128269047D01*
X157519047Y-128059523D01*
X157571428Y-127954761D01*
X157676190Y-127850000D01*
X157833333Y-127797619D01*
X157938095Y-127797619D01*
X158095238Y-127850000D01*
X158147619Y-127902380D01*
D11*
X107670000Y-112460000D02*
X110330000Y-112460000D01*
X107670000Y-112460000D02*
X107670000Y-120140000D01*
X107670000Y-120140000D02*
X110330000Y-120140000D01*
X110330000Y-112460000D02*
X110330000Y-120140000D01*
X110330000Y-109860000D02*
X110330000Y-111190000D01*
X109000000Y-109860000D02*
X110330000Y-109860000D01*
X154670000Y-112460000D02*
X157330000Y-112460000D01*
X154670000Y-112460000D02*
X154670000Y-120140000D01*
X154670000Y-120140000D02*
X157330000Y-120140000D01*
X157330000Y-112460000D02*
X157330000Y-120140000D01*
X157330000Y-109860000D02*
X157330000Y-111190000D01*
X156000000Y-109860000D02*
X157330000Y-109860000D01*
X115011252Y-110540000D02*
X114488748Y-110540000D01*
X115011252Y-111960000D02*
X114488748Y-111960000D01*
X115011252Y-115710000D02*
X114488748Y-115710000D01*
X115011252Y-114290000D02*
X114488748Y-114290000D01*
X115011252Y-119460000D02*
X114488748Y-119460000D01*
X115011252Y-118040000D02*
X114488748Y-118040000D01*
X127392000Y-123993000D02*
X125592000Y-123993000D01*
X125592000Y-127213000D02*
X128042000Y-127213000D01*
D12*
X130652380Y-115761904D02*
X131461904Y-115761904D01*
X131557142Y-115714285D01*
X131604761Y-115666666D01*
X131652380Y-115571428D01*
X131652380Y-115380952D01*
X131604761Y-115285714D01*
X131557142Y-115238095D01*
X131461904Y-115190476D01*
X130652380Y-115190476D01*
X131652380Y-114190476D02*
X131652380Y-114761904D01*
X131652380Y-114476190D02*
X130652380Y-114476190D01*
X130795238Y-114571428D01*
X130890476Y-114666666D01*
X130938095Y-114761904D01*
X108632666Y-108291380D02*
X108632666Y-109005666D01*
X108585047Y-109148523D01*
X108489809Y-109243761D01*
X108346952Y-109291380D01*
X108251714Y-109291380D01*
X109013619Y-108291380D02*
X109632666Y-108291380D01*
X109299333Y-108672333D01*
X109442190Y-108672333D01*
X109537428Y-108719952D01*
X109585047Y-108767571D01*
X109632666Y-108862809D01*
X109632666Y-109100904D01*
X109585047Y-109196142D01*
X109537428Y-109243761D01*
X109442190Y-109291380D01*
X109156476Y-109291380D01*
X109061238Y-109243761D01*
X109013619Y-109196142D01*
X155686166Y-108291380D02*
X155686166Y-109005666D01*
X155638547Y-109148523D01*
X155543309Y-109243761D01*
X155400452Y-109291380D01*
X155305214Y-109291380D01*
X156590928Y-108624714D02*
X156590928Y-109291380D01*
X156352833Y-108243761D02*
X156114738Y-108958047D01*
X156733785Y-108958047D01*
X114583333Y-113352380D02*
X114250000Y-112876190D01*
X114011904Y-113352380D02*
X114011904Y-112352380D01*
X114392857Y-112352380D01*
X114488095Y-112400000D01*
X114535714Y-112447619D01*
X114583333Y-112542857D01*
X114583333Y-112685714D01*
X114535714Y-112780952D01*
X114488095Y-112828571D01*
X114392857Y-112876190D01*
X114011904Y-112876190D01*
X114916666Y-112352380D02*
X115583333Y-112352380D01*
X115154761Y-113352380D01*
X114583333Y-117102380D02*
X114250000Y-116626190D01*
X114011904Y-117102380D02*
X114011904Y-116102380D01*
X114392857Y-116102380D01*
X114488095Y-116150000D01*
X114535714Y-116197619D01*
X114583333Y-116292857D01*
X114583333Y-116435714D01*
X114535714Y-116530952D01*
X114488095Y-116578571D01*
X114392857Y-116626190D01*
X114011904Y-116626190D01*
X115154761Y-116530952D02*
X115059523Y-116483333D01*
X115011904Y-116435714D01*
X114964285Y-116340476D01*
X114964285Y-116292857D01*
X115011904Y-116197619D01*
X115059523Y-116150000D01*
X115154761Y-116102380D01*
X115345238Y-116102380D01*
X115440476Y-116150000D01*
X115488095Y-116197619D01*
X115535714Y-116292857D01*
X115535714Y-116340476D01*
X115488095Y-116435714D01*
X115440476Y-116483333D01*
X115345238Y-116530952D01*
X115154761Y-116530952D01*
X115059523Y-116578571D01*
X115011904Y-116626190D01*
X114964285Y-116721428D01*
X114964285Y-116911904D01*
X115011904Y-117007142D01*
X115059523Y-117054761D01*
X115154761Y-117102380D01*
X115345238Y-117102380D01*
X115440476Y-117054761D01*
X115488095Y-117007142D01*
X115535714Y-116911904D01*
X115535714Y-116721428D01*
X115488095Y-116626190D01*
X115440476Y-116578571D01*
X115345238Y-116530952D01*
X114583333Y-120852380D02*
X114250000Y-120376190D01*
X114011904Y-120852380D02*
X114011904Y-119852380D01*
X114392857Y-119852380D01*
X114488095Y-119900000D01*
X114535714Y-119947619D01*
X114583333Y-120042857D01*
X114583333Y-120185714D01*
X114535714Y-120280952D01*
X114488095Y-120328571D01*
X114392857Y-120376190D01*
X114011904Y-120376190D01*
X115059523Y-120852380D02*
X115250000Y-120852380D01*
X115345238Y-120804761D01*
X115392857Y-120757142D01*
X115488095Y-120614285D01*
X115535714Y-120423809D01*
X115535714Y-120042857D01*
X115488095Y-119947619D01*
X115440476Y-119900000D01*
X115345238Y-119852380D01*
X115154761Y-119852380D01*
X115059523Y-119900000D01*
X115011904Y-119947619D01*
X114964285Y-120042857D01*
X114964285Y-120280952D01*
X115011904Y-120376190D01*
X115059523Y-120423809D01*
X115154761Y-120471428D01*
X115345238Y-120471428D01*
X115440476Y-120423809D01*
X115488095Y-120376190D01*
X115535714Y-120280952D01*
X125730095Y-127955380D02*
X125730095Y-128764904D01*
X125777714Y-128860142D01*
X125825333Y-128907761D01*
X125920571Y-128955380D01*
X126111047Y-128955380D01*
X126206285Y-128907761D01*
X126253904Y-128860142D01*
X126301523Y-128764904D01*
X126301523Y-127955380D01*
X126730095Y-128050619D02*
X126777714Y-128003000D01*
X126872952Y-127955380D01*
X127111047Y-127955380D01*
X127206285Y-128003000D01*
X127253904Y-128050619D01*
X127301523Y-128145857D01*
X127301523Y-128241095D01*
X127253904Y-128383952D01*
X126682476Y-128955380D01*
X127301523Y-128955380D01*
%LPC*%
D13*
G36*
X128300000Y-111250000D02*
G01*
X128300000Y-118750000D01*
X129850000Y-118750000D01*
X129850000Y-111250000D01*
X128300000Y-111250000D01*
G37*
X128300000Y-111250000D02*
X128300000Y-118750000D01*
X129850000Y-118750000D01*
X129850000Y-111250000D01*
X128300000Y-111250000D01*
D14*
X104500000Y-121750000D03*
X104500000Y-108250000D03*
X160500000Y-108250000D03*
X160500000Y-121750000D03*
D15*
X160500000Y-115000000D03*
X104500000Y-115000000D03*
D16*
X139920000Y-107080000D03*
D17*
X139920000Y-104540000D03*
X142460000Y-107080000D03*
X142460000Y-104540000D03*
X145000000Y-107080000D03*
X145000000Y-104540000D03*
X147540000Y-107080000D03*
X147540000Y-104540000D03*
X150080000Y-107080000D03*
X150080000Y-104540000D03*
D18*
X103500000Y-103500000D03*
X161500000Y-103500000D03*
X161500000Y-126500000D03*
X103500000Y-126500000D03*
D16*
X108370000Y-104540000D03*
D17*
X108370000Y-102000000D03*
X110910000Y-104540000D03*
X110910000Y-102000000D03*
X113450000Y-104540000D03*
X113450000Y-102000000D03*
X115990000Y-104540000D03*
X115990000Y-102000000D03*
X118530000Y-104540000D03*
X118530000Y-102000000D03*
X121070000Y-104540000D03*
X121070000Y-102000000D03*
X123610000Y-104540000D03*
X123610000Y-102000000D03*
X126150000Y-104540000D03*
X126150000Y-102000000D03*
D19*
X129725000Y-112500000D03*
X129725000Y-117500000D03*
D20*
X128175000Y-111375000D03*
X128175000Y-118625000D03*
D21*
G36*
X127851955Y-112546324D02*
G01*
X127878650Y-112550284D01*
X127904828Y-112556841D01*
X127930238Y-112565933D01*
X127954634Y-112577472D01*
X127977782Y-112591346D01*
X127999458Y-112607422D01*
X128019454Y-112625546D01*
X128037578Y-112645542D01*
X128053654Y-112667218D01*
X128067528Y-112690366D01*
X128079067Y-112714762D01*
X128088159Y-112740172D01*
X128094716Y-112766350D01*
X128098676Y-112793045D01*
X128100000Y-112820000D01*
X128100000Y-113370000D01*
X128098676Y-113396955D01*
X128094716Y-113423650D01*
X128088159Y-113449828D01*
X128079067Y-113475238D01*
X128067528Y-113499634D01*
X128053654Y-113522782D01*
X128037578Y-113544458D01*
X128019454Y-113564454D01*
X127999458Y-113582578D01*
X127977782Y-113598654D01*
X127954634Y-113612528D01*
X127930238Y-113624067D01*
X127904828Y-113633159D01*
X127878650Y-113639716D01*
X127851955Y-113643676D01*
X127825000Y-113645000D01*
X124475000Y-113645000D01*
X124448045Y-113643676D01*
X124421350Y-113639716D01*
X124395172Y-113633159D01*
X124369762Y-113624067D01*
X124345366Y-113612528D01*
X124322218Y-113598654D01*
X124300542Y-113582578D01*
X124280546Y-113564454D01*
X124262422Y-113544458D01*
X124246346Y-113522782D01*
X124232472Y-113499634D01*
X124220933Y-113475238D01*
X124211841Y-113449828D01*
X124205284Y-113423650D01*
X124201324Y-113396955D01*
X124200000Y-113370000D01*
X124200000Y-112820000D01*
X124201324Y-112793045D01*
X124205284Y-112766350D01*
X124211841Y-112740172D01*
X124220933Y-112714762D01*
X124232472Y-112690366D01*
X124246346Y-112667218D01*
X124262422Y-112645542D01*
X124280546Y-112625546D01*
X124300542Y-112607422D01*
X124322218Y-112591346D01*
X124345366Y-112577472D01*
X124369762Y-112565933D01*
X124395172Y-112556841D01*
X124421350Y-112550284D01*
X124448045Y-112546324D01*
X124475000Y-112545000D01*
X127825000Y-112545000D01*
X127851955Y-112546324D01*
X127851955Y-112546324D01*
G37*
D22*
X126150000Y-113095000D03*
D21*
G36*
X127851955Y-113816324D02*
G01*
X127878650Y-113820284D01*
X127904828Y-113826841D01*
X127930238Y-113835933D01*
X127954634Y-113847472D01*
X127977782Y-113861346D01*
X127999458Y-113877422D01*
X128019454Y-113895546D01*
X128037578Y-113915542D01*
X128053654Y-113937218D01*
X128067528Y-113960366D01*
X128079067Y-113984762D01*
X128088159Y-114010172D01*
X128094716Y-114036350D01*
X128098676Y-114063045D01*
X128100000Y-114090000D01*
X128100000Y-114640000D01*
X128098676Y-114666955D01*
X128094716Y-114693650D01*
X128088159Y-114719828D01*
X128079067Y-114745238D01*
X128067528Y-114769634D01*
X128053654Y-114792782D01*
X128037578Y-114814458D01*
X128019454Y-114834454D01*
X127999458Y-114852578D01*
X127977782Y-114868654D01*
X127954634Y-114882528D01*
X127930238Y-114894067D01*
X127904828Y-114903159D01*
X127878650Y-114909716D01*
X127851955Y-114913676D01*
X127825000Y-114915000D01*
X124475000Y-114915000D01*
X124448045Y-114913676D01*
X124421350Y-114909716D01*
X124395172Y-114903159D01*
X124369762Y-114894067D01*
X124345366Y-114882528D01*
X124322218Y-114868654D01*
X124300542Y-114852578D01*
X124280546Y-114834454D01*
X124262422Y-114814458D01*
X124246346Y-114792782D01*
X124232472Y-114769634D01*
X124220933Y-114745238D01*
X124211841Y-114719828D01*
X124205284Y-114693650D01*
X124201324Y-114666955D01*
X124200000Y-114640000D01*
X124200000Y-114090000D01*
X124201324Y-114063045D01*
X124205284Y-114036350D01*
X124211841Y-114010172D01*
X124220933Y-113984762D01*
X124232472Y-113960366D01*
X124246346Y-113937218D01*
X124262422Y-113915542D01*
X124280546Y-113895546D01*
X124300542Y-113877422D01*
X124322218Y-113861346D01*
X124345366Y-113847472D01*
X124369762Y-113835933D01*
X124395172Y-113826841D01*
X124421350Y-113820284D01*
X124448045Y-113816324D01*
X124475000Y-113815000D01*
X127825000Y-113815000D01*
X127851955Y-113816324D01*
X127851955Y-113816324D01*
G37*
D22*
X126150000Y-114365000D03*
D21*
G36*
X127851955Y-116356324D02*
G01*
X127878650Y-116360284D01*
X127904828Y-116366841D01*
X127930238Y-116375933D01*
X127954634Y-116387472D01*
X127977782Y-116401346D01*
X127999458Y-116417422D01*
X128019454Y-116435546D01*
X128037578Y-116455542D01*
X128053654Y-116477218D01*
X128067528Y-116500366D01*
X128079067Y-116524762D01*
X128088159Y-116550172D01*
X128094716Y-116576350D01*
X128098676Y-116603045D01*
X128100000Y-116630000D01*
X128100000Y-117180000D01*
X128098676Y-117206955D01*
X128094716Y-117233650D01*
X128088159Y-117259828D01*
X128079067Y-117285238D01*
X128067528Y-117309634D01*
X128053654Y-117332782D01*
X128037578Y-117354458D01*
X128019454Y-117374454D01*
X127999458Y-117392578D01*
X127977782Y-117408654D01*
X127954634Y-117422528D01*
X127930238Y-117434067D01*
X127904828Y-117443159D01*
X127878650Y-117449716D01*
X127851955Y-117453676D01*
X127825000Y-117455000D01*
X124475000Y-117455000D01*
X124448045Y-117453676D01*
X124421350Y-117449716D01*
X124395172Y-117443159D01*
X124369762Y-117434067D01*
X124345366Y-117422528D01*
X124322218Y-117408654D01*
X124300542Y-117392578D01*
X124280546Y-117374454D01*
X124262422Y-117354458D01*
X124246346Y-117332782D01*
X124232472Y-117309634D01*
X124220933Y-117285238D01*
X124211841Y-117259828D01*
X124205284Y-117233650D01*
X124201324Y-117206955D01*
X124200000Y-117180000D01*
X124200000Y-116630000D01*
X124201324Y-116603045D01*
X124205284Y-116576350D01*
X124211841Y-116550172D01*
X124220933Y-116524762D01*
X124232472Y-116500366D01*
X124246346Y-116477218D01*
X124262422Y-116455542D01*
X124280546Y-116435546D01*
X124300542Y-116417422D01*
X124322218Y-116401346D01*
X124345366Y-116387472D01*
X124369762Y-116375933D01*
X124395172Y-116366841D01*
X124421350Y-116360284D01*
X124448045Y-116356324D01*
X124475000Y-116355000D01*
X127825000Y-116355000D01*
X127851955Y-116356324D01*
X127851955Y-116356324D01*
G37*
D22*
X126150000Y-116905000D03*
D21*
G36*
X127851955Y-115086324D02*
G01*
X127878650Y-115090284D01*
X127904828Y-115096841D01*
X127930238Y-115105933D01*
X127954634Y-115117472D01*
X127977782Y-115131346D01*
X127999458Y-115147422D01*
X128019454Y-115165546D01*
X128037578Y-115185542D01*
X128053654Y-115207218D01*
X128067528Y-115230366D01*
X128079067Y-115254762D01*
X128088159Y-115280172D01*
X128094716Y-115306350D01*
X128098676Y-115333045D01*
X128100000Y-115360000D01*
X128100000Y-115910000D01*
X128098676Y-115936955D01*
X128094716Y-115963650D01*
X128088159Y-115989828D01*
X128079067Y-116015238D01*
X128067528Y-116039634D01*
X128053654Y-116062782D01*
X128037578Y-116084458D01*
X128019454Y-116104454D01*
X127999458Y-116122578D01*
X127977782Y-116138654D01*
X127954634Y-116152528D01*
X127930238Y-116164067D01*
X127904828Y-116173159D01*
X127878650Y-116179716D01*
X127851955Y-116183676D01*
X127825000Y-116185000D01*
X124475000Y-116185000D01*
X124448045Y-116183676D01*
X124421350Y-116179716D01*
X124395172Y-116173159D01*
X124369762Y-116164067D01*
X124345366Y-116152528D01*
X124322218Y-116138654D01*
X124300542Y-116122578D01*
X124280546Y-116104454D01*
X124262422Y-116084458D01*
X124246346Y-116062782D01*
X124232472Y-116039634D01*
X124220933Y-116015238D01*
X124211841Y-115989828D01*
X124205284Y-115963650D01*
X124201324Y-115936955D01*
X124200000Y-115910000D01*
X124200000Y-115360000D01*
X124201324Y-115333045D01*
X124205284Y-115306350D01*
X124211841Y-115280172D01*
X124220933Y-115254762D01*
X124232472Y-115230366D01*
X124246346Y-115207218D01*
X124262422Y-115185542D01*
X124280546Y-115165546D01*
X124300542Y-115147422D01*
X124322218Y-115131346D01*
X124345366Y-115117472D01*
X124369762Y-115105933D01*
X124395172Y-115096841D01*
X124421350Y-115090284D01*
X124448045Y-115086324D01*
X124475000Y-115085000D01*
X127825000Y-115085000D01*
X127851955Y-115086324D01*
X127851955Y-115086324D01*
G37*
D22*
X126150000Y-115635000D03*
D16*
X109000000Y-111190000D03*
D17*
X109000000Y-113730000D03*
X109000000Y-116270000D03*
X109000000Y-118810000D03*
D16*
X156000000Y-111190000D03*
D17*
X156000000Y-113730000D03*
X156000000Y-116270000D03*
X156000000Y-118810000D03*
D21*
G36*
X114196071Y-110351623D02*
G01*
X114228781Y-110356475D01*
X114260857Y-110364509D01*
X114291991Y-110375649D01*
X114321884Y-110389787D01*
X114350247Y-110406787D01*
X114376807Y-110426485D01*
X114401308Y-110448692D01*
X114423515Y-110473193D01*
X114443213Y-110499753D01*
X114460213Y-110528116D01*
X114474351Y-110558009D01*
X114485491Y-110589143D01*
X114493525Y-110621219D01*
X114498377Y-110653929D01*
X114500000Y-110686956D01*
X114500000Y-111813044D01*
X114498377Y-111846071D01*
X114493525Y-111878781D01*
X114485491Y-111910857D01*
X114474351Y-111941991D01*
X114460213Y-111971884D01*
X114443213Y-112000247D01*
X114423515Y-112026807D01*
X114401308Y-112051308D01*
X114376807Y-112073515D01*
X114350247Y-112093213D01*
X114321884Y-112110213D01*
X114291991Y-112124351D01*
X114260857Y-112135491D01*
X114228781Y-112143525D01*
X114196071Y-112148377D01*
X114163044Y-112150000D01*
X113286956Y-112150000D01*
X113253929Y-112148377D01*
X113221219Y-112143525D01*
X113189143Y-112135491D01*
X113158009Y-112124351D01*
X113128116Y-112110213D01*
X113099753Y-112093213D01*
X113073193Y-112073515D01*
X113048692Y-112051308D01*
X113026485Y-112026807D01*
X113006787Y-112000247D01*
X112989787Y-111971884D01*
X112975649Y-111941991D01*
X112964509Y-111910857D01*
X112956475Y-111878781D01*
X112951623Y-111846071D01*
X112950000Y-111813044D01*
X112950000Y-110686956D01*
X112951623Y-110653929D01*
X112956475Y-110621219D01*
X112964509Y-110589143D01*
X112975649Y-110558009D01*
X112989787Y-110528116D01*
X113006787Y-110499753D01*
X113026485Y-110473193D01*
X113048692Y-110448692D01*
X113073193Y-110426485D01*
X113099753Y-110406787D01*
X113128116Y-110389787D01*
X113158009Y-110375649D01*
X113189143Y-110364509D01*
X113221219Y-110356475D01*
X113253929Y-110351623D01*
X113286956Y-110350000D01*
X114163044Y-110350000D01*
X114196071Y-110351623D01*
X114196071Y-110351623D01*
G37*
D23*
X113725000Y-111250000D03*
D21*
G36*
X116246071Y-110351623D02*
G01*
X116278781Y-110356475D01*
X116310857Y-110364509D01*
X116341991Y-110375649D01*
X116371884Y-110389787D01*
X116400247Y-110406787D01*
X116426807Y-110426485D01*
X116451308Y-110448692D01*
X116473515Y-110473193D01*
X116493213Y-110499753D01*
X116510213Y-110528116D01*
X116524351Y-110558009D01*
X116535491Y-110589143D01*
X116543525Y-110621219D01*
X116548377Y-110653929D01*
X116550000Y-110686956D01*
X116550000Y-111813044D01*
X116548377Y-111846071D01*
X116543525Y-111878781D01*
X116535491Y-111910857D01*
X116524351Y-111941991D01*
X116510213Y-111971884D01*
X116493213Y-112000247D01*
X116473515Y-112026807D01*
X116451308Y-112051308D01*
X116426807Y-112073515D01*
X116400247Y-112093213D01*
X116371884Y-112110213D01*
X116341991Y-112124351D01*
X116310857Y-112135491D01*
X116278781Y-112143525D01*
X116246071Y-112148377D01*
X116213044Y-112150000D01*
X115336956Y-112150000D01*
X115303929Y-112148377D01*
X115271219Y-112143525D01*
X115239143Y-112135491D01*
X115208009Y-112124351D01*
X115178116Y-112110213D01*
X115149753Y-112093213D01*
X115123193Y-112073515D01*
X115098692Y-112051308D01*
X115076485Y-112026807D01*
X115056787Y-112000247D01*
X115039787Y-111971884D01*
X115025649Y-111941991D01*
X115014509Y-111910857D01*
X115006475Y-111878781D01*
X115001623Y-111846071D01*
X115000000Y-111813044D01*
X115000000Y-110686956D01*
X115001623Y-110653929D01*
X115006475Y-110621219D01*
X115014509Y-110589143D01*
X115025649Y-110558009D01*
X115039787Y-110528116D01*
X115056787Y-110499753D01*
X115076485Y-110473193D01*
X115098692Y-110448692D01*
X115123193Y-110426485D01*
X115149753Y-110406787D01*
X115178116Y-110389787D01*
X115208009Y-110375649D01*
X115239143Y-110364509D01*
X115271219Y-110356475D01*
X115303929Y-110351623D01*
X115336956Y-110350000D01*
X116213044Y-110350000D01*
X116246071Y-110351623D01*
X116246071Y-110351623D01*
G37*
D23*
X115775000Y-111250000D03*
D21*
G36*
X116246071Y-114101623D02*
G01*
X116278781Y-114106475D01*
X116310857Y-114114509D01*
X116341991Y-114125649D01*
X116371884Y-114139787D01*
X116400247Y-114156787D01*
X116426807Y-114176485D01*
X116451308Y-114198692D01*
X116473515Y-114223193D01*
X116493213Y-114249753D01*
X116510213Y-114278116D01*
X116524351Y-114308009D01*
X116535491Y-114339143D01*
X116543525Y-114371219D01*
X116548377Y-114403929D01*
X116550000Y-114436956D01*
X116550000Y-115563044D01*
X116548377Y-115596071D01*
X116543525Y-115628781D01*
X116535491Y-115660857D01*
X116524351Y-115691991D01*
X116510213Y-115721884D01*
X116493213Y-115750247D01*
X116473515Y-115776807D01*
X116451308Y-115801308D01*
X116426807Y-115823515D01*
X116400247Y-115843213D01*
X116371884Y-115860213D01*
X116341991Y-115874351D01*
X116310857Y-115885491D01*
X116278781Y-115893525D01*
X116246071Y-115898377D01*
X116213044Y-115900000D01*
X115336956Y-115900000D01*
X115303929Y-115898377D01*
X115271219Y-115893525D01*
X115239143Y-115885491D01*
X115208009Y-115874351D01*
X115178116Y-115860213D01*
X115149753Y-115843213D01*
X115123193Y-115823515D01*
X115098692Y-115801308D01*
X115076485Y-115776807D01*
X115056787Y-115750247D01*
X115039787Y-115721884D01*
X115025649Y-115691991D01*
X115014509Y-115660857D01*
X115006475Y-115628781D01*
X115001623Y-115596071D01*
X115000000Y-115563044D01*
X115000000Y-114436956D01*
X115001623Y-114403929D01*
X115006475Y-114371219D01*
X115014509Y-114339143D01*
X115025649Y-114308009D01*
X115039787Y-114278116D01*
X115056787Y-114249753D01*
X115076485Y-114223193D01*
X115098692Y-114198692D01*
X115123193Y-114176485D01*
X115149753Y-114156787D01*
X115178116Y-114139787D01*
X115208009Y-114125649D01*
X115239143Y-114114509D01*
X115271219Y-114106475D01*
X115303929Y-114101623D01*
X115336956Y-114100000D01*
X116213044Y-114100000D01*
X116246071Y-114101623D01*
X116246071Y-114101623D01*
G37*
D23*
X115775000Y-115000000D03*
D21*
G36*
X114196071Y-114101623D02*
G01*
X114228781Y-114106475D01*
X114260857Y-114114509D01*
X114291991Y-114125649D01*
X114321884Y-114139787D01*
X114350247Y-114156787D01*
X114376807Y-114176485D01*
X114401308Y-114198692D01*
X114423515Y-114223193D01*
X114443213Y-114249753D01*
X114460213Y-114278116D01*
X114474351Y-114308009D01*
X114485491Y-114339143D01*
X114493525Y-114371219D01*
X114498377Y-114403929D01*
X114500000Y-114436956D01*
X114500000Y-115563044D01*
X114498377Y-115596071D01*
X114493525Y-115628781D01*
X114485491Y-115660857D01*
X114474351Y-115691991D01*
X114460213Y-115721884D01*
X114443213Y-115750247D01*
X114423515Y-115776807D01*
X114401308Y-115801308D01*
X114376807Y-115823515D01*
X114350247Y-115843213D01*
X114321884Y-115860213D01*
X114291991Y-115874351D01*
X114260857Y-115885491D01*
X114228781Y-115893525D01*
X114196071Y-115898377D01*
X114163044Y-115900000D01*
X113286956Y-115900000D01*
X113253929Y-115898377D01*
X113221219Y-115893525D01*
X113189143Y-115885491D01*
X113158009Y-115874351D01*
X113128116Y-115860213D01*
X113099753Y-115843213D01*
X113073193Y-115823515D01*
X113048692Y-115801308D01*
X113026485Y-115776807D01*
X113006787Y-115750247D01*
X112989787Y-115721884D01*
X112975649Y-115691991D01*
X112964509Y-115660857D01*
X112956475Y-115628781D01*
X112951623Y-115596071D01*
X112950000Y-115563044D01*
X112950000Y-114436956D01*
X112951623Y-114403929D01*
X112956475Y-114371219D01*
X112964509Y-114339143D01*
X112975649Y-114308009D01*
X112989787Y-114278116D01*
X113006787Y-114249753D01*
X113026485Y-114223193D01*
X113048692Y-114198692D01*
X113073193Y-114176485D01*
X113099753Y-114156787D01*
X113128116Y-114139787D01*
X113158009Y-114125649D01*
X113189143Y-114114509D01*
X113221219Y-114106475D01*
X113253929Y-114101623D01*
X113286956Y-114100000D01*
X114163044Y-114100000D01*
X114196071Y-114101623D01*
X114196071Y-114101623D01*
G37*
D23*
X113725000Y-115000000D03*
D21*
G36*
X116246071Y-117851623D02*
G01*
X116278781Y-117856475D01*
X116310857Y-117864509D01*
X116341991Y-117875649D01*
X116371884Y-117889787D01*
X116400247Y-117906787D01*
X116426807Y-117926485D01*
X116451308Y-117948692D01*
X116473515Y-117973193D01*
X116493213Y-117999753D01*
X116510213Y-118028116D01*
X116524351Y-118058009D01*
X116535491Y-118089143D01*
X116543525Y-118121219D01*
X116548377Y-118153929D01*
X116550000Y-118186956D01*
X116550000Y-119313044D01*
X116548377Y-119346071D01*
X116543525Y-119378781D01*
X116535491Y-119410857D01*
X116524351Y-119441991D01*
X116510213Y-119471884D01*
X116493213Y-119500247D01*
X116473515Y-119526807D01*
X116451308Y-119551308D01*
X116426807Y-119573515D01*
X116400247Y-119593213D01*
X116371884Y-119610213D01*
X116341991Y-119624351D01*
X116310857Y-119635491D01*
X116278781Y-119643525D01*
X116246071Y-119648377D01*
X116213044Y-119650000D01*
X115336956Y-119650000D01*
X115303929Y-119648377D01*
X115271219Y-119643525D01*
X115239143Y-119635491D01*
X115208009Y-119624351D01*
X115178116Y-119610213D01*
X115149753Y-119593213D01*
X115123193Y-119573515D01*
X115098692Y-119551308D01*
X115076485Y-119526807D01*
X115056787Y-119500247D01*
X115039787Y-119471884D01*
X115025649Y-119441991D01*
X115014509Y-119410857D01*
X115006475Y-119378781D01*
X115001623Y-119346071D01*
X115000000Y-119313044D01*
X115000000Y-118186956D01*
X115001623Y-118153929D01*
X115006475Y-118121219D01*
X115014509Y-118089143D01*
X115025649Y-118058009D01*
X115039787Y-118028116D01*
X115056787Y-117999753D01*
X115076485Y-117973193D01*
X115098692Y-117948692D01*
X115123193Y-117926485D01*
X115149753Y-117906787D01*
X115178116Y-117889787D01*
X115208009Y-117875649D01*
X115239143Y-117864509D01*
X115271219Y-117856475D01*
X115303929Y-117851623D01*
X115336956Y-117850000D01*
X116213044Y-117850000D01*
X116246071Y-117851623D01*
X116246071Y-117851623D01*
G37*
D23*
X115775000Y-118750000D03*
D21*
G36*
X114196071Y-117851623D02*
G01*
X114228781Y-117856475D01*
X114260857Y-117864509D01*
X114291991Y-117875649D01*
X114321884Y-117889787D01*
X114350247Y-117906787D01*
X114376807Y-117926485D01*
X114401308Y-117948692D01*
X114423515Y-117973193D01*
X114443213Y-117999753D01*
X114460213Y-118028116D01*
X114474351Y-118058009D01*
X114485491Y-118089143D01*
X114493525Y-118121219D01*
X114498377Y-118153929D01*
X114500000Y-118186956D01*
X114500000Y-119313044D01*
X114498377Y-119346071D01*
X114493525Y-119378781D01*
X114485491Y-119410857D01*
X114474351Y-119441991D01*
X114460213Y-119471884D01*
X114443213Y-119500247D01*
X114423515Y-119526807D01*
X114401308Y-119551308D01*
X114376807Y-119573515D01*
X114350247Y-119593213D01*
X114321884Y-119610213D01*
X114291991Y-119624351D01*
X114260857Y-119635491D01*
X114228781Y-119643525D01*
X114196071Y-119648377D01*
X114163044Y-119650000D01*
X113286956Y-119650000D01*
X113253929Y-119648377D01*
X113221219Y-119643525D01*
X113189143Y-119635491D01*
X113158009Y-119624351D01*
X113128116Y-119610213D01*
X113099753Y-119593213D01*
X113073193Y-119573515D01*
X113048692Y-119551308D01*
X113026485Y-119526807D01*
X113006787Y-119500247D01*
X112989787Y-119471884D01*
X112975649Y-119441991D01*
X112964509Y-119410857D01*
X112956475Y-119378781D01*
X112951623Y-119346071D01*
X112950000Y-119313044D01*
X112950000Y-118186956D01*
X112951623Y-118153929D01*
X112956475Y-118121219D01*
X112964509Y-118089143D01*
X112975649Y-118058009D01*
X112989787Y-118028116D01*
X113006787Y-117999753D01*
X113026485Y-117973193D01*
X113048692Y-117948692D01*
X113073193Y-117926485D01*
X113099753Y-117906787D01*
X113128116Y-117889787D01*
X113158009Y-117875649D01*
X113189143Y-117864509D01*
X113221219Y-117856475D01*
X113253929Y-117851623D01*
X113286956Y-117850000D01*
X114163044Y-117850000D01*
X114196071Y-117851623D01*
X114196071Y-117851623D01*
G37*
D23*
X113725000Y-118750000D03*
D24*
X127842000Y-126553000D03*
X127842000Y-125603000D03*
X127842000Y-124653000D03*
X125142000Y-124653000D03*
X125142000Y-126553000D03*
M02*
