M48
; DRILL file {KiCad 5.1.0} date Mon 08 Apr 2019 01:08:38 AM CEST
; FORMAT={-:-/ absolute / metric / decimal}
; #@! TF.CreationDate,2019-04-08T01:08:38+02:00
; #@! TF.GenerationSoftware,Kicad,Pcbnew,5.1.0
FMAT,2
METRIC
T1C0.300
T2C1.000
T3C2.700
%
G90
G05
T1
X112.014Y-109.728
X112.014Y-114.808
X112.014Y-119.888
X117.348Y-122.298
X118.872Y-110.553
X119.825Y-112.522
X120.459Y-108.966
X120.65Y-111.442
X121.793Y-121.666
X122.745Y-114.363
X122.745Y-115.633
X123.317Y-126.619
X125.666Y-107.759
X127.127Y-120.777
X129.667Y-125.603
X129.667Y-127.254
X131.064Y-121.285
X131.191Y-123.063
X132.779Y-110.553
X135.001Y-110.299
X135.826Y-112.141
X136.843Y-114.49
X138.176Y-119.189
X142.494Y-111.188
X146.685Y-111.188
X146.685Y-112.903
X150.749Y-116.84
X151.7Y-102.9
T2
X109.0Y-111.19
X109.0Y-113.73
X109.0Y-116.27
X109.0Y-118.81
X108.37Y-102.0
X108.37Y-104.54
X110.91Y-102.0
X110.91Y-104.54
X113.45Y-102.0
X113.45Y-104.54
X115.99Y-102.0
X115.99Y-104.54
X118.53Y-102.0
X118.53Y-104.54
X121.07Y-102.0
X121.07Y-104.54
X123.61Y-102.0
X123.61Y-104.54
X126.15Y-102.0
X126.15Y-104.54
X139.92Y-104.54
X139.92Y-107.08
X142.46Y-104.54
X142.46Y-107.08
X145.0Y-104.54
X145.0Y-107.08
X147.54Y-104.54
X147.54Y-107.08
X150.08Y-104.54
X150.08Y-107.08
X156.0Y-111.19
X156.0Y-113.73
X156.0Y-116.27
X156.0Y-118.81
T3
X161.5Y-103.5
X103.5Y-103.5
X161.5Y-126.5
X104.5Y-108.25
X104.5Y-115.0
X104.5Y-121.75
X160.5Y-108.25
X160.5Y-115.0
X160.5Y-121.75
X103.5Y-126.5
T0
M30
