%TF.GenerationSoftware,KiCad,Pcbnew,5.1.0*%
%TF.CreationDate,2019-04-08T01:08:53+02:00*%
%TF.ProjectId,Illumination-PLCC4,496c6c75-6d69-46e6-9174-696f6e2d504c,rev?*%
%TF.SameCoordinates,Original*%
%TF.FileFunction,Legend,Bot*%
%TF.FilePolarity,Positive*%
%FSLAX46Y46*%
G04 Gerber Fmt 4.6, Leading zero omitted, Abs format (unit mm)*
G04 Created by KiCad (PCBNEW 5.1.0) date 2019-04-08 01:08:53*
%MOMM*%
%LPD*%
G04 APERTURE LIST*
%ADD10C,0.150000*%
%ADD11C,0.120000*%
%ADD12R,0.650000X1.400000*%
%ADD13R,3.400000X1.500000*%
%ADD14O,2.100000X2.100000*%
%ADD15R,2.100000X2.100000*%
%ADD16C,1.000200*%
G04 APERTURE END LIST*
D10*
G36*
X150500000Y-147500000D02*
G01*
X150500000Y-147000000D01*
X150000000Y-147000000D01*
X150500000Y-147500000D01*
G37*
X150500000Y-147500000D02*
X150500000Y-147000000D01*
X150000000Y-147000000D01*
X150500000Y-147500000D01*
D11*
X152580000Y-143770000D02*
X152580000Y-142500000D01*
X151310000Y-143770000D02*
X152580000Y-143770000D01*
X143310000Y-141457071D02*
X143310000Y-141060000D01*
X144070000Y-141457071D02*
X144070000Y-141060000D01*
X143310000Y-132400000D02*
X143310000Y-138400000D01*
X144070000Y-132400000D02*
X143310000Y-132400000D01*
X144070000Y-138400000D02*
X144070000Y-132400000D01*
X144960000Y-141060000D02*
X144960000Y-138400000D01*
X145850000Y-141457071D02*
X145850000Y-141060000D01*
X146610000Y-141457071D02*
X146610000Y-141060000D01*
X145850000Y-132400000D02*
X145850000Y-138400000D01*
X146610000Y-132400000D02*
X145850000Y-132400000D01*
X146610000Y-138400000D02*
X146610000Y-132400000D01*
X147500000Y-141060000D02*
X147500000Y-138400000D01*
X148390000Y-141457071D02*
X148390000Y-141060000D01*
X149150000Y-141457071D02*
X149150000Y-141060000D01*
X148390000Y-132400000D02*
X148390000Y-138400000D01*
X149150000Y-132400000D02*
X148390000Y-132400000D01*
X149150000Y-138400000D02*
X149150000Y-132400000D01*
X150040000Y-141060000D02*
X150040000Y-138400000D01*
X150930000Y-141390000D02*
X150930000Y-141060000D01*
X151690000Y-141390000D02*
X151690000Y-141060000D01*
X151030000Y-138400000D02*
X151030000Y-132400000D01*
X151150000Y-138400000D02*
X151150000Y-132400000D01*
X151270000Y-138400000D02*
X151270000Y-132400000D01*
X151390000Y-138400000D02*
X151390000Y-132400000D01*
X151510000Y-138400000D02*
X151510000Y-132400000D01*
X151630000Y-138400000D02*
X151630000Y-132400000D01*
X150930000Y-132400000D02*
X150930000Y-138400000D01*
X151690000Y-132400000D02*
X150930000Y-132400000D01*
X151690000Y-138400000D02*
X151690000Y-132400000D01*
X152640000Y-138400000D02*
X152640000Y-141060000D01*
X142360000Y-138400000D02*
X152640000Y-138400000D01*
X142360000Y-141060000D02*
X142360000Y-138400000D01*
X152640000Y-141060000D02*
X142360000Y-141060000D01*
D10*
X148238095Y-154302380D02*
X148238095Y-153302380D01*
X148000000Y-153302380D01*
X147857142Y-153350000D01*
X147761904Y-153445238D01*
X147714285Y-153540476D01*
X147666666Y-153730952D01*
X147666666Y-153873809D01*
X147714285Y-154064285D01*
X147761904Y-154159523D01*
X147857142Y-154254761D01*
X148000000Y-154302380D01*
X148238095Y-154302380D01*
X147285714Y-153397619D02*
X147238095Y-153350000D01*
X147142857Y-153302380D01*
X146904761Y-153302380D01*
X146809523Y-153350000D01*
X146761904Y-153397619D01*
X146714285Y-153492857D01*
X146714285Y-153588095D01*
X146761904Y-153730952D01*
X147333333Y-154302380D01*
X146714285Y-154302380D01*
X150966666Y-140297619D02*
X150966666Y-139583333D01*
X150919047Y-139440476D01*
X150823809Y-139345238D01*
X150680952Y-139297619D01*
X150585714Y-139297619D01*
X151871428Y-140297619D02*
X151680952Y-140297619D01*
X151585714Y-140250000D01*
X151538095Y-140202380D01*
X151442857Y-140059523D01*
X151395238Y-139869047D01*
X151395238Y-139488095D01*
X151442857Y-139392857D01*
X151490476Y-139345238D01*
X151585714Y-139297619D01*
X151776190Y-139297619D01*
X151871428Y-139345238D01*
X151919047Y-139392857D01*
X151966666Y-139488095D01*
X151966666Y-139726190D01*
X151919047Y-139821428D01*
X151871428Y-139869047D01*
X151776190Y-139916666D01*
X151585714Y-139916666D01*
X151490476Y-139869047D01*
X151442857Y-139821428D01*
X151395238Y-139726190D01*
%LPC*%
D12*
X146025000Y-147600000D03*
D13*
X145250000Y-149150000D03*
X145250000Y-150850000D03*
X149750000Y-150850000D03*
X149750000Y-149150000D03*
D12*
X146025000Y-152400000D03*
X148975000Y-147600000D03*
X148975000Y-152400000D03*
D14*
X143690000Y-142500000D03*
X146230000Y-142500000D03*
X148770000Y-142500000D03*
D15*
X151310000Y-142500000D03*
D16*
X143000000Y-153750000D03*
X152000000Y-153750000D03*
M02*
