%TF.GenerationSoftware,KiCad,Pcbnew,5.1.0*%
%TF.CreationDate,2019-04-08T01:08:53+02:00*%
%TF.ProjectId,Illumination-PLCC4,496c6c75-6d69-46e6-9174-696f6e2d504c,rev?*%
%TF.SameCoordinates,Original*%
%TF.FileFunction,Soldermask,Bot*%
%TF.FilePolarity,Negative*%
%FSLAX46Y46*%
G04 Gerber Fmt 4.6, Leading zero omitted, Abs format (unit mm)*
G04 Created by KiCad (PCBNEW 5.1.0) date 2019-04-08 01:08:53*
%MOMM*%
%LPD*%
G04 APERTURE LIST*
%ADD10C,0.100000*%
G04 APERTURE END LIST*
D10*
G36*
X143145874Y-153269118D02*
G01*
X143145877Y-153269119D01*
X143145876Y-153269119D01*
X143236888Y-153306818D01*
X143318794Y-153361545D01*
X143388455Y-153431206D01*
X143443182Y-153513112D01*
X143443183Y-153513114D01*
X143480882Y-153604126D01*
X143500100Y-153700744D01*
X143500100Y-153799256D01*
X143480882Y-153895874D01*
X143480881Y-153895876D01*
X143443182Y-153986888D01*
X143388455Y-154068794D01*
X143318794Y-154138455D01*
X143236888Y-154193182D01*
X143236887Y-154193183D01*
X143236886Y-154193183D01*
X143145874Y-154230882D01*
X143049256Y-154250100D01*
X142950744Y-154250100D01*
X142854126Y-154230882D01*
X142763114Y-154193183D01*
X142763113Y-154193183D01*
X142763112Y-154193182D01*
X142681206Y-154138455D01*
X142611545Y-154068794D01*
X142556818Y-153986888D01*
X142519119Y-153895876D01*
X142519118Y-153895874D01*
X142499900Y-153799256D01*
X142499900Y-153700744D01*
X142519118Y-153604126D01*
X142556817Y-153513114D01*
X142556818Y-153513112D01*
X142611545Y-153431206D01*
X142681206Y-153361545D01*
X142763112Y-153306818D01*
X142854124Y-153269119D01*
X142854123Y-153269119D01*
X142854126Y-153269118D01*
X142950744Y-153249900D01*
X143049256Y-153249900D01*
X143145874Y-153269118D01*
X143145874Y-153269118D01*
G37*
G36*
X152145874Y-153269118D02*
G01*
X152145877Y-153269119D01*
X152145876Y-153269119D01*
X152236888Y-153306818D01*
X152318794Y-153361545D01*
X152388455Y-153431206D01*
X152443182Y-153513112D01*
X152443183Y-153513114D01*
X152480882Y-153604126D01*
X152500100Y-153700744D01*
X152500100Y-153799256D01*
X152480882Y-153895874D01*
X152480881Y-153895876D01*
X152443182Y-153986888D01*
X152388455Y-154068794D01*
X152318794Y-154138455D01*
X152236888Y-154193182D01*
X152236887Y-154193183D01*
X152236886Y-154193183D01*
X152145874Y-154230882D01*
X152049256Y-154250100D01*
X151950744Y-154250100D01*
X151854126Y-154230882D01*
X151763114Y-154193183D01*
X151763113Y-154193183D01*
X151763112Y-154193182D01*
X151681206Y-154138455D01*
X151611545Y-154068794D01*
X151556818Y-153986888D01*
X151519119Y-153895876D01*
X151519118Y-153895874D01*
X151499900Y-153799256D01*
X151499900Y-153700744D01*
X151519118Y-153604126D01*
X151556817Y-153513114D01*
X151556818Y-153513112D01*
X151611545Y-153431206D01*
X151681206Y-153361545D01*
X151763112Y-153306818D01*
X151854124Y-153269119D01*
X151854123Y-153269119D01*
X151854126Y-153269118D01*
X151950744Y-153249900D01*
X152049256Y-153249900D01*
X152145874Y-153269118D01*
X152145874Y-153269118D01*
G37*
G36*
X151450000Y-151600000D02*
G01*
X149399999Y-151600000D01*
X149380490Y-151601921D01*
X149361731Y-151607612D01*
X149344443Y-151616853D01*
X149329289Y-151629289D01*
X149316853Y-151644443D01*
X149307612Y-151661731D01*
X149301921Y-151680490D01*
X149300000Y-151699999D01*
X149300000Y-153100000D01*
X148650000Y-153100000D01*
X148650000Y-151699999D01*
X148648079Y-151680490D01*
X148642388Y-151661731D01*
X148633147Y-151644443D01*
X148620711Y-151629289D01*
X148605557Y-151616853D01*
X148588269Y-151607612D01*
X148569510Y-151601921D01*
X148550001Y-151600000D01*
X148050000Y-151600000D01*
X148050000Y-150100000D01*
X151450000Y-150100000D01*
X151450000Y-151600000D01*
X151450000Y-151600000D01*
G37*
G36*
X146950000Y-151600000D02*
G01*
X146449999Y-151600000D01*
X146430490Y-151601921D01*
X146411731Y-151607612D01*
X146394443Y-151616853D01*
X146379289Y-151629289D01*
X146366853Y-151644443D01*
X146357612Y-151661731D01*
X146351921Y-151680490D01*
X146350000Y-151699999D01*
X146350000Y-153100000D01*
X145700000Y-153100000D01*
X145700000Y-151699999D01*
X145698079Y-151680490D01*
X145692388Y-151661731D01*
X145683147Y-151644443D01*
X145670711Y-151629289D01*
X145655557Y-151616853D01*
X145638269Y-151607612D01*
X145619510Y-151601921D01*
X145600001Y-151600000D01*
X143550000Y-151600000D01*
X143550000Y-150100000D01*
X146950000Y-150100000D01*
X146950000Y-151600000D01*
X146950000Y-151600000D01*
G37*
G36*
X146350000Y-148300001D02*
G01*
X146351921Y-148319510D01*
X146357612Y-148338269D01*
X146366853Y-148355557D01*
X146379289Y-148370711D01*
X146394443Y-148383147D01*
X146411731Y-148392388D01*
X146430490Y-148398079D01*
X146449999Y-148400000D01*
X146950000Y-148400000D01*
X146950000Y-149900000D01*
X143550000Y-149900000D01*
X143550000Y-148400000D01*
X145600001Y-148400000D01*
X145619510Y-148398079D01*
X145638269Y-148392388D01*
X145655557Y-148383147D01*
X145670711Y-148370711D01*
X145683147Y-148355557D01*
X145692388Y-148338269D01*
X145698079Y-148319510D01*
X145700000Y-148300001D01*
X145700000Y-146900000D01*
X146350000Y-146900000D01*
X146350000Y-148300001D01*
X146350000Y-148300001D01*
G37*
G36*
X149300000Y-148300001D02*
G01*
X149301921Y-148319510D01*
X149307612Y-148338269D01*
X149316853Y-148355557D01*
X149329289Y-148370711D01*
X149344443Y-148383147D01*
X149361731Y-148392388D01*
X149380490Y-148398079D01*
X149399999Y-148400000D01*
X151450000Y-148400000D01*
X151450000Y-149900000D01*
X148050000Y-149900000D01*
X148050000Y-148400000D01*
X148550001Y-148400000D01*
X148569510Y-148398079D01*
X148588269Y-148392388D01*
X148605557Y-148383147D01*
X148620711Y-148370711D01*
X148633147Y-148355557D01*
X148642388Y-148338269D01*
X148648079Y-148319510D01*
X148650000Y-148300001D01*
X148650000Y-146900000D01*
X149300000Y-146900000D01*
X149300000Y-148300001D01*
X149300000Y-148300001D01*
G37*
G36*
X143857272Y-141461395D02*
G01*
X143895836Y-141465193D01*
X144027787Y-141505220D01*
X144093763Y-141525233D01*
X144276169Y-141622731D01*
X144436054Y-141753946D01*
X144567269Y-141913831D01*
X144664767Y-142096237D01*
X144664767Y-142096238D01*
X144724807Y-142294164D01*
X144724807Y-142294166D01*
X144745081Y-142500000D01*
X144728143Y-142671961D01*
X144724807Y-142705836D01*
X144684780Y-142837787D01*
X144664767Y-142903763D01*
X144567269Y-143086169D01*
X144436054Y-143246054D01*
X144276169Y-143377269D01*
X144093763Y-143474767D01*
X144027787Y-143494780D01*
X143895836Y-143534807D01*
X143857272Y-143538605D01*
X143741584Y-143550000D01*
X143638416Y-143550000D01*
X143522728Y-143538605D01*
X143484164Y-143534807D01*
X143352213Y-143494780D01*
X143286237Y-143474767D01*
X143103831Y-143377269D01*
X142943946Y-143246054D01*
X142812731Y-143086169D01*
X142715233Y-142903763D01*
X142695220Y-142837787D01*
X142655193Y-142705836D01*
X142651857Y-142671961D01*
X142634919Y-142500000D01*
X142655193Y-142294166D01*
X142655193Y-142294164D01*
X142715233Y-142096238D01*
X142715233Y-142096237D01*
X142812731Y-141913831D01*
X142943946Y-141753946D01*
X143103831Y-141622731D01*
X143286237Y-141525233D01*
X143352213Y-141505220D01*
X143484164Y-141465193D01*
X143522728Y-141461395D01*
X143638416Y-141450000D01*
X143741584Y-141450000D01*
X143857272Y-141461395D01*
X143857272Y-141461395D01*
G37*
G36*
X146397272Y-141461395D02*
G01*
X146435836Y-141465193D01*
X146567787Y-141505220D01*
X146633763Y-141525233D01*
X146816169Y-141622731D01*
X146976054Y-141753946D01*
X147107269Y-141913831D01*
X147204767Y-142096237D01*
X147204767Y-142096238D01*
X147264807Y-142294164D01*
X147264807Y-142294166D01*
X147285081Y-142500000D01*
X147268143Y-142671961D01*
X147264807Y-142705836D01*
X147224780Y-142837787D01*
X147204767Y-142903763D01*
X147107269Y-143086169D01*
X146976054Y-143246054D01*
X146816169Y-143377269D01*
X146633763Y-143474767D01*
X146567787Y-143494780D01*
X146435836Y-143534807D01*
X146397272Y-143538605D01*
X146281584Y-143550000D01*
X146178416Y-143550000D01*
X146062728Y-143538605D01*
X146024164Y-143534807D01*
X145892213Y-143494780D01*
X145826237Y-143474767D01*
X145643831Y-143377269D01*
X145483946Y-143246054D01*
X145352731Y-143086169D01*
X145255233Y-142903763D01*
X145235220Y-142837787D01*
X145195193Y-142705836D01*
X145191857Y-142671961D01*
X145174919Y-142500000D01*
X145195193Y-142294166D01*
X145195193Y-142294164D01*
X145255233Y-142096238D01*
X145255233Y-142096237D01*
X145352731Y-141913831D01*
X145483946Y-141753946D01*
X145643831Y-141622731D01*
X145826237Y-141525233D01*
X145892213Y-141505220D01*
X146024164Y-141465193D01*
X146062728Y-141461395D01*
X146178416Y-141450000D01*
X146281584Y-141450000D01*
X146397272Y-141461395D01*
X146397272Y-141461395D01*
G37*
G36*
X148937272Y-141461395D02*
G01*
X148975836Y-141465193D01*
X149107787Y-141505220D01*
X149173763Y-141525233D01*
X149356169Y-141622731D01*
X149516054Y-141753946D01*
X149647269Y-141913831D01*
X149744767Y-142096237D01*
X149744767Y-142096238D01*
X149804807Y-142294164D01*
X149804807Y-142294166D01*
X149825081Y-142500000D01*
X149808143Y-142671961D01*
X149804807Y-142705836D01*
X149764780Y-142837787D01*
X149744767Y-142903763D01*
X149647269Y-143086169D01*
X149516054Y-143246054D01*
X149356169Y-143377269D01*
X149173763Y-143474767D01*
X149107787Y-143494780D01*
X148975836Y-143534807D01*
X148937272Y-143538605D01*
X148821584Y-143550000D01*
X148718416Y-143550000D01*
X148602728Y-143538605D01*
X148564164Y-143534807D01*
X148432213Y-143494780D01*
X148366237Y-143474767D01*
X148183831Y-143377269D01*
X148023946Y-143246054D01*
X147892731Y-143086169D01*
X147795233Y-142903763D01*
X147775220Y-142837787D01*
X147735193Y-142705836D01*
X147731857Y-142671961D01*
X147714919Y-142500000D01*
X147735193Y-142294166D01*
X147735193Y-142294164D01*
X147795233Y-142096238D01*
X147795233Y-142096237D01*
X147892731Y-141913831D01*
X148023946Y-141753946D01*
X148183831Y-141622731D01*
X148366237Y-141525233D01*
X148432213Y-141505220D01*
X148564164Y-141465193D01*
X148602728Y-141461395D01*
X148718416Y-141450000D01*
X148821584Y-141450000D01*
X148937272Y-141461395D01*
X148937272Y-141461395D01*
G37*
G36*
X152360000Y-143550000D02*
G01*
X150260000Y-143550000D01*
X150260000Y-141450000D01*
X152360000Y-141450000D01*
X152360000Y-143550000D01*
X152360000Y-143550000D01*
G37*
M02*
