%TF.GenerationSoftware,KiCad,Pcbnew,5.1.0*%
%TF.CreationDate,2019-04-08T01:08:53+02:00*%
%TF.ProjectId,Illumination-PLCC4,496c6c75-6d69-46e6-9174-696f6e2d504c,rev?*%
%TF.SameCoordinates,Original*%
%TF.FileFunction,Legend,Top*%
%TF.FilePolarity,Positive*%
%FSLAX46Y46*%
G04 Gerber Fmt 4.6, Leading zero omitted, Abs format (unit mm)*
G04 Created by KiCad (PCBNEW 5.1.0) date 2019-04-08 01:08:53*
%MOMM*%
%LPD*%
G04 APERTURE LIST*
%ADD10C,0.160000*%
%ADD11C,0.150000*%
%ADD12C,0.120000*%
%ADD13R,1.500000X1.500000*%
%ADD14C,0.300000*%
%ADD15C,0.100000*%
%ADD16O,2.100000X2.100000*%
%ADD17R,2.100000X2.100000*%
%ADD18C,1.000200*%
G04 APERTURE END LIST*
D10*
X152580952Y-138102380D02*
X152580952Y-137316666D01*
X152633333Y-137159523D01*
X152738095Y-137054761D01*
X152895238Y-137002380D01*
X153000000Y-137002380D01*
X151533333Y-137002380D02*
X152057142Y-137002380D01*
X152057142Y-138102380D01*
X150538095Y-137107142D02*
X150590476Y-137054761D01*
X150747619Y-137002380D01*
X150852380Y-137002380D01*
X151009523Y-137054761D01*
X151114285Y-137159523D01*
X151166666Y-137264285D01*
X151219047Y-137473809D01*
X151219047Y-137630952D01*
X151166666Y-137840476D01*
X151114285Y-137945238D01*
X151009523Y-138050000D01*
X150852380Y-138102380D01*
X150747619Y-138102380D01*
X150590476Y-138050000D01*
X150538095Y-137997619D01*
X149752380Y-138102380D02*
X149752380Y-137316666D01*
X149804761Y-137159523D01*
X149909523Y-137054761D01*
X150066666Y-137002380D01*
X150171428Y-137002380D01*
X148704761Y-137002380D02*
X149228571Y-137002380D01*
X149228571Y-138102380D01*
X147709523Y-137107142D02*
X147761904Y-137054761D01*
X147919047Y-137002380D01*
X148023809Y-137002380D01*
X148180952Y-137054761D01*
X148285714Y-137159523D01*
X148338095Y-137264285D01*
X148390476Y-137473809D01*
X148390476Y-137630952D01*
X148338095Y-137840476D01*
X148285714Y-137945238D01*
X148180952Y-138050000D01*
X148023809Y-138102380D01*
X147919047Y-138102380D01*
X147761904Y-138050000D01*
X147709523Y-137997619D01*
X146923809Y-138102380D02*
X146923809Y-137316666D01*
X146976190Y-137159523D01*
X147080952Y-137054761D01*
X147238095Y-137002380D01*
X147342857Y-137002380D01*
X145876190Y-137002380D02*
X146400000Y-137002380D01*
X146400000Y-138102380D01*
X144880952Y-137107142D02*
X144933333Y-137054761D01*
X145090476Y-137002380D01*
X145195238Y-137002380D01*
X145352380Y-137054761D01*
X145457142Y-137159523D01*
X145509523Y-137264285D01*
X145561904Y-137473809D01*
X145561904Y-137630952D01*
X145509523Y-137840476D01*
X145457142Y-137945238D01*
X145352380Y-138050000D01*
X145195238Y-138102380D01*
X145090476Y-138102380D01*
X144933333Y-138050000D01*
X144880952Y-137997619D01*
X144095238Y-138102380D02*
X144095238Y-137316666D01*
X144147619Y-137159523D01*
X144252380Y-137054761D01*
X144409523Y-137002380D01*
X144514285Y-137002380D01*
X143047619Y-137002380D02*
X143571428Y-137002380D01*
X143571428Y-138102380D01*
X142052380Y-137107142D02*
X142104761Y-137054761D01*
X142261904Y-137002380D01*
X142366666Y-137002380D01*
X142523809Y-137054761D01*
X142628571Y-137159523D01*
X142680952Y-137264285D01*
X142733333Y-137473809D01*
X142733333Y-137630952D01*
X142680952Y-137840476D01*
X142628571Y-137945238D01*
X142523809Y-138050000D01*
X142366666Y-138102380D01*
X142261904Y-138102380D01*
X142104761Y-138050000D01*
X142052380Y-137997619D01*
X152214285Y-139302380D02*
X152738095Y-139302380D01*
X152738095Y-140402380D01*
X151847619Y-139302380D02*
X151847619Y-140035714D01*
X151847619Y-140402380D02*
X151900000Y-140350000D01*
X151847619Y-140297619D01*
X151795238Y-140350000D01*
X151847619Y-140402380D01*
X151847619Y-140297619D01*
X150852380Y-140035714D02*
X150852380Y-139145238D01*
X150904761Y-139040476D01*
X150957142Y-138988095D01*
X151061904Y-138935714D01*
X151219047Y-138935714D01*
X151323809Y-138988095D01*
X150852380Y-139354761D02*
X150957142Y-139302380D01*
X151166666Y-139302380D01*
X151271428Y-139354761D01*
X151323809Y-139407142D01*
X151376190Y-139511904D01*
X151376190Y-139826190D01*
X151323809Y-139930952D01*
X151271428Y-139983333D01*
X151166666Y-140035714D01*
X150957142Y-140035714D01*
X150852380Y-139983333D01*
X150328571Y-139302380D02*
X150328571Y-140402380D01*
X149857142Y-139302380D02*
X149857142Y-139878571D01*
X149909523Y-139983333D01*
X150014285Y-140035714D01*
X150171428Y-140035714D01*
X150276190Y-139983333D01*
X150328571Y-139930952D01*
X149490476Y-140035714D02*
X149071428Y-140035714D01*
X149333333Y-140402380D02*
X149333333Y-139459523D01*
X149280952Y-139354761D01*
X149176190Y-139302380D01*
X149071428Y-139302380D01*
X148704761Y-139721428D02*
X147866666Y-139721428D01*
X147395238Y-139354761D02*
X147238095Y-139302380D01*
X146976190Y-139302380D01*
X146871428Y-139354761D01*
X146819047Y-139407142D01*
X146766666Y-139511904D01*
X146766666Y-139616666D01*
X146819047Y-139721428D01*
X146871428Y-139773809D01*
X146976190Y-139826190D01*
X147185714Y-139878571D01*
X147290476Y-139930952D01*
X147342857Y-139983333D01*
X147395238Y-140088095D01*
X147395238Y-140192857D01*
X147342857Y-140297619D01*
X147290476Y-140350000D01*
X147185714Y-140402380D01*
X146923809Y-140402380D01*
X146766666Y-140350000D01*
X146138095Y-139302380D02*
X146242857Y-139354761D01*
X146295238Y-139407142D01*
X146347619Y-139511904D01*
X146347619Y-139826190D01*
X146295238Y-139930952D01*
X146242857Y-139983333D01*
X146138095Y-140035714D01*
X145980952Y-140035714D01*
X145876190Y-139983333D01*
X145823809Y-139930952D01*
X145771428Y-139826190D01*
X145771428Y-139511904D01*
X145823809Y-139407142D01*
X145876190Y-139354761D01*
X145980952Y-139302380D01*
X146138095Y-139302380D01*
X144828571Y-140035714D02*
X144828571Y-139302380D01*
X145300000Y-140035714D02*
X145300000Y-139459523D01*
X145247619Y-139354761D01*
X145142857Y-139302380D01*
X144985714Y-139302380D01*
X144880952Y-139354761D01*
X144828571Y-139407142D01*
X144304761Y-139302380D02*
X144304761Y-140035714D01*
X144304761Y-139826190D02*
X144252380Y-139930952D01*
X144200000Y-139983333D01*
X144095238Y-140035714D01*
X143990476Y-140035714D01*
X143152380Y-139354761D02*
X143257142Y-139302380D01*
X143466666Y-139302380D01*
X143571428Y-139354761D01*
X143623809Y-139407142D01*
X143676190Y-139511904D01*
X143676190Y-139826190D01*
X143623809Y-139930952D01*
X143571428Y-139983333D01*
X143466666Y-140035714D01*
X143257142Y-140035714D01*
X143152380Y-139983333D01*
X142261904Y-139354761D02*
X142366666Y-139302380D01*
X142576190Y-139302380D01*
X142680952Y-139354761D01*
X142733333Y-139459523D01*
X142733333Y-139878571D01*
X142680952Y-139983333D01*
X142576190Y-140035714D01*
X142366666Y-140035714D01*
X142261904Y-139983333D01*
X142209523Y-139878571D01*
X142209523Y-139773809D01*
X142733333Y-139669047D01*
D11*
X144214285Y-151583333D02*
X143738095Y-151583333D01*
X144309523Y-151297619D02*
X143976190Y-152297619D01*
X143642857Y-151297619D01*
X142785714Y-151297619D02*
X143357142Y-151297619D01*
X143071428Y-151297619D02*
X143071428Y-152297619D01*
X143166666Y-152154761D01*
X143261904Y-152059523D01*
X143357142Y-152011904D01*
X152214285Y-151583333D02*
X151738095Y-151583333D01*
X152309523Y-151297619D02*
X151976190Y-152297619D01*
X151642857Y-151297619D01*
X151357142Y-152202380D02*
X151309523Y-152250000D01*
X151214285Y-152297619D01*
X150976190Y-152297619D01*
X150880952Y-152250000D01*
X150833333Y-152202380D01*
X150785714Y-152107142D01*
X150785714Y-152011904D01*
X150833333Y-151869047D01*
X151404761Y-151297619D01*
X150785714Y-151297619D01*
X152214285Y-148183333D02*
X151738095Y-148183333D01*
X152309523Y-147897619D02*
X151976190Y-148897619D01*
X151642857Y-147897619D01*
X150785714Y-147897619D02*
X151357142Y-147897619D01*
X151071428Y-147897619D02*
X151071428Y-148897619D01*
X151166666Y-148754761D01*
X151261904Y-148659523D01*
X151357142Y-148611904D01*
X144214285Y-148183333D02*
X143738095Y-148183333D01*
X144309523Y-147897619D02*
X143976190Y-148897619D01*
X143642857Y-147897619D01*
X143357142Y-148802380D02*
X143309523Y-148850000D01*
X143214285Y-148897619D01*
X142976190Y-148897619D01*
X142880952Y-148850000D01*
X142833333Y-148802380D01*
X142785714Y-148707142D01*
X142785714Y-148611904D01*
X142833333Y-148469047D01*
X143404761Y-147897619D01*
X142785714Y-147897619D01*
D12*
X148600000Y-146850000D02*
X148900000Y-147150000D01*
X149200000Y-146850000D02*
X148600000Y-146850000D01*
X148900000Y-147150000D02*
X149200000Y-146850000D01*
X150250000Y-147400000D02*
X150250000Y-149350000D01*
X144750000Y-147400000D02*
X150250000Y-147400000D01*
X144750000Y-149350000D02*
X144750000Y-147400000D01*
X150250000Y-149350000D02*
X144750000Y-149350000D01*
X144750000Y-150750000D02*
X150250000Y-150750000D01*
X150250000Y-150750000D02*
X150250000Y-152700000D01*
X150250000Y-152700000D02*
X144750000Y-152700000D01*
X144750000Y-152700000D02*
X144750000Y-150750000D01*
X146100000Y-152950000D02*
X145800000Y-153250000D01*
X145800000Y-153250000D02*
X146400000Y-153250000D01*
X146400000Y-153250000D02*
X146100000Y-152950000D01*
%LPC*%
D13*
X146300000Y-148350000D03*
X148700000Y-148350000D03*
D14*
X149500000Y-148350000D03*
D15*
G36*
X148960982Y-149296157D02*
G01*
X148923463Y-149284776D01*
X148888886Y-149266294D01*
X148858579Y-149241421D01*
X148833590Y-149210940D01*
X148333590Y-148460940D01*
X148315144Y-148426343D01*
X148303802Y-148388813D01*
X148300000Y-148349791D01*
X148303884Y-148310777D01*
X148315304Y-148273270D01*
X148333590Y-148239060D01*
X148833590Y-147489060D01*
X148858431Y-147458727D01*
X148888712Y-147433822D01*
X148923270Y-147415304D01*
X148960777Y-147403884D01*
X149000000Y-147400000D01*
X150000000Y-147400000D01*
X150039018Y-147403843D01*
X150076537Y-147415224D01*
X150111114Y-147433706D01*
X150141421Y-147458579D01*
X150166294Y-147488886D01*
X150184776Y-147523463D01*
X150196157Y-147560982D01*
X150200000Y-147600000D01*
X150200000Y-149100000D01*
X150196157Y-149139018D01*
X150184776Y-149176537D01*
X150166294Y-149211114D01*
X150141421Y-149241421D01*
X150111114Y-149266294D01*
X150076537Y-149284776D01*
X150039018Y-149296157D01*
X150000000Y-149300000D01*
X149000000Y-149300000D01*
X148960982Y-149296157D01*
X148960982Y-149296157D01*
G37*
D14*
X145500000Y-148350000D03*
D15*
G36*
X146039018Y-147403843D02*
G01*
X146076537Y-147415224D01*
X146111114Y-147433706D01*
X146141421Y-147458579D01*
X146166410Y-147489060D01*
X146666410Y-148239060D01*
X146684856Y-148273657D01*
X146696198Y-148311187D01*
X146700000Y-148350209D01*
X146696116Y-148389223D01*
X146684696Y-148426730D01*
X146666410Y-148460940D01*
X146166410Y-149210940D01*
X146141569Y-149241273D01*
X146111288Y-149266178D01*
X146076730Y-149284696D01*
X146039223Y-149296116D01*
X146000000Y-149300000D01*
X145000000Y-149300000D01*
X144960982Y-149296157D01*
X144923463Y-149284776D01*
X144888886Y-149266294D01*
X144858579Y-149241421D01*
X144833706Y-149211114D01*
X144815224Y-149176537D01*
X144803843Y-149139018D01*
X144800000Y-149100000D01*
X144800000Y-147600000D01*
X144803843Y-147560982D01*
X144815224Y-147523463D01*
X144833706Y-147488886D01*
X144858579Y-147458579D01*
X144888886Y-147433706D01*
X144923463Y-147415224D01*
X144960982Y-147403843D01*
X145000000Y-147400000D01*
X146000000Y-147400000D01*
X146039018Y-147403843D01*
X146039018Y-147403843D01*
G37*
D14*
X149500000Y-151750000D03*
D15*
G36*
X148960982Y-152696157D02*
G01*
X148923463Y-152684776D01*
X148888886Y-152666294D01*
X148858579Y-152641421D01*
X148833590Y-152610940D01*
X148333590Y-151860940D01*
X148315144Y-151826343D01*
X148303802Y-151788813D01*
X148300000Y-151749791D01*
X148303884Y-151710777D01*
X148315304Y-151673270D01*
X148333590Y-151639060D01*
X148833590Y-150889060D01*
X148858431Y-150858727D01*
X148888712Y-150833822D01*
X148923270Y-150815304D01*
X148960777Y-150803884D01*
X149000000Y-150800000D01*
X150000000Y-150800000D01*
X150039018Y-150803843D01*
X150076537Y-150815224D01*
X150111114Y-150833706D01*
X150141421Y-150858579D01*
X150166294Y-150888886D01*
X150184776Y-150923463D01*
X150196157Y-150960982D01*
X150200000Y-151000000D01*
X150200000Y-152500000D01*
X150196157Y-152539018D01*
X150184776Y-152576537D01*
X150166294Y-152611114D01*
X150141421Y-152641421D01*
X150111114Y-152666294D01*
X150076537Y-152684776D01*
X150039018Y-152696157D01*
X150000000Y-152700000D01*
X149000000Y-152700000D01*
X148960982Y-152696157D01*
X148960982Y-152696157D01*
G37*
D14*
X145500000Y-151750000D03*
D15*
G36*
X146039018Y-150803843D02*
G01*
X146076537Y-150815224D01*
X146111114Y-150833706D01*
X146141421Y-150858579D01*
X146166410Y-150889060D01*
X146666410Y-151639060D01*
X146684856Y-151673657D01*
X146696198Y-151711187D01*
X146700000Y-151750209D01*
X146696116Y-151789223D01*
X146684696Y-151826730D01*
X146666410Y-151860940D01*
X146166410Y-152610940D01*
X146141569Y-152641273D01*
X146111288Y-152666178D01*
X146076730Y-152684696D01*
X146039223Y-152696116D01*
X146000000Y-152700000D01*
X145000000Y-152700000D01*
X144960982Y-152696157D01*
X144923463Y-152684776D01*
X144888886Y-152666294D01*
X144858579Y-152641421D01*
X144833706Y-152611114D01*
X144815224Y-152576537D01*
X144803843Y-152539018D01*
X144800000Y-152500000D01*
X144800000Y-151000000D01*
X144803843Y-150960982D01*
X144815224Y-150923463D01*
X144833706Y-150888886D01*
X144858579Y-150858579D01*
X144888886Y-150833706D01*
X144923463Y-150815224D01*
X144960982Y-150803843D01*
X145000000Y-150800000D01*
X146000000Y-150800000D01*
X146039018Y-150803843D01*
X146039018Y-150803843D01*
G37*
D13*
X146300000Y-151750000D03*
X148700000Y-151750000D03*
D16*
X143690000Y-142500000D03*
X146230000Y-142500000D03*
X148770000Y-142500000D03*
D17*
X151310000Y-142500000D03*
D18*
X143000000Y-153750000D03*
X152000000Y-153750000D03*
M02*
