%TF.GenerationSoftware,KiCad,Pcbnew,5.1.0*%
%TF.CreationDate,2019-04-08T01:08:53+02:00*%
%TF.ProjectId,Illumination-PLCC4,496c6c75-6d69-46e6-9174-696f6e2d504c,rev?*%
%TF.SameCoordinates,Original*%
%TF.FileFunction,Copper,L1,Top*%
%TF.FilePolarity,Positive*%
%FSLAX46Y46*%
G04 Gerber Fmt 4.6, Leading zero omitted, Abs format (unit mm)*
G04 Created by KiCad (PCBNEW 5.1.0) date 2019-04-08 01:08:53*
%MOMM*%
%LPD*%
G04 APERTURE LIST*
%ADD10C,0.300000*%
%ADD11C,0.100000*%
%ADD12O,1.700000X1.700000*%
%ADD13R,1.700000X1.700000*%
%ADD14C,0.900000*%
%ADD15C,0.250000*%
%ADD16C,0.254000*%
G04 APERTURE END LIST*
D10*
X149500000Y-148350000D03*
D11*
G36*
X148500000Y-148350000D02*
G01*
X149000000Y-147600000D01*
X150000000Y-147600000D01*
X150000000Y-149100000D01*
X149000000Y-149100000D01*
X148500000Y-148350000D01*
X148500000Y-148350000D01*
G37*
D10*
X147500000Y-148350000D03*
D11*
G36*
X146800000Y-148350000D02*
G01*
X146300000Y-147600000D01*
X148700000Y-147600000D01*
X148200000Y-148350000D01*
X148700000Y-149100000D01*
X146300000Y-149100000D01*
X146800000Y-148350000D01*
X146800000Y-148350000D01*
G37*
D10*
X145500000Y-148350000D03*
D11*
G36*
X146500000Y-148350000D02*
G01*
X146000000Y-149100000D01*
X145000000Y-149100000D01*
X145000000Y-147600000D01*
X146000000Y-147600000D01*
X146500000Y-148350000D01*
X146500000Y-148350000D01*
G37*
D10*
X149500000Y-151750000D03*
D11*
G36*
X148500000Y-151750000D02*
G01*
X149000000Y-151000000D01*
X150000000Y-151000000D01*
X150000000Y-152500000D01*
X149000000Y-152500000D01*
X148500000Y-151750000D01*
X148500000Y-151750000D01*
G37*
D10*
X147500000Y-151750000D03*
D11*
G36*
X148200000Y-151750000D02*
G01*
X148700000Y-152500000D01*
X146300000Y-152500000D01*
X146800000Y-151750000D01*
X146300000Y-151000000D01*
X148700000Y-151000000D01*
X148200000Y-151750000D01*
X148200000Y-151750000D01*
G37*
D10*
X145500000Y-151750000D03*
D11*
G36*
X146500000Y-151750000D02*
G01*
X146000000Y-152500000D01*
X145000000Y-152500000D01*
X145000000Y-151000000D01*
X146000000Y-151000000D01*
X146500000Y-151750000D01*
X146500000Y-151750000D01*
G37*
D12*
X143690000Y-142500000D03*
X146230000Y-142500000D03*
X148770000Y-142500000D03*
D13*
X151310000Y-142500000D03*
D14*
X143950000Y-146800000D03*
X142650000Y-150750000D03*
X152350000Y-150750000D03*
X151050000Y-146800000D03*
X147500000Y-150000000D03*
D15*
X145500000Y-148350000D02*
X145500000Y-151750000D01*
X145500000Y-148350000D02*
X143950000Y-146800000D01*
X142650000Y-150750000D02*
X142650000Y-150750000D01*
X142650000Y-150750000D02*
X142650000Y-144540000D01*
X142650000Y-143540000D02*
X143690000Y-142500000D01*
X142650000Y-144540000D02*
X142650000Y-143540000D01*
X151310000Y-142500000D02*
X151310000Y-142510000D01*
X152350000Y-143550000D02*
X152350000Y-144700000D01*
X151310000Y-142510000D02*
X152350000Y-143550000D01*
X152350000Y-150750000D02*
X152350000Y-144700000D01*
X149500000Y-151750000D02*
X149500000Y-148350000D01*
X149500000Y-148350000D02*
X151050000Y-146800000D01*
X147500000Y-151750000D02*
X147500000Y-150000000D01*
X147500000Y-148350000D02*
X147500000Y-144770000D01*
X147500000Y-143770000D02*
X148770000Y-142500000D01*
X147500000Y-144770000D02*
X147500000Y-143770000D01*
D16*
G36*
X153315000Y-155315000D02*
G01*
X153127000Y-155315000D01*
X153127000Y-153902007D01*
X153135000Y-153861788D01*
X153135000Y-153638212D01*
X153127000Y-153597993D01*
X153127000Y-151507422D01*
X153192775Y-151441647D01*
X153311515Y-151263940D01*
X153315000Y-151255526D01*
X153315000Y-155315000D01*
X153315000Y-155315000D01*
G37*
X153315000Y-155315000D02*
X153127000Y-155315000D01*
X153127000Y-153902007D01*
X153135000Y-153861788D01*
X153135000Y-153638212D01*
X153127000Y-153597993D01*
X153127000Y-151507422D01*
X153192775Y-151441647D01*
X153311515Y-151263940D01*
X153315000Y-151255526D01*
X153315000Y-155315000D01*
G36*
X153315000Y-150244474D02*
G01*
X153311515Y-150236060D01*
X153192775Y-150058353D01*
X153127000Y-149992578D01*
X153127000Y-132685000D01*
X153315001Y-132685000D01*
X153315000Y-150244474D01*
X153315000Y-150244474D01*
G37*
X153315000Y-150244474D02*
X153311515Y-150236060D01*
X153192775Y-150058353D01*
X153127000Y-149992578D01*
X153127000Y-132685000D01*
X153315001Y-132685000D01*
X153315000Y-150244474D01*
G36*
X141688485Y-151263940D02*
G01*
X141807225Y-151441647D01*
X141873000Y-151507422D01*
X141873000Y-153597993D01*
X141865000Y-153638212D01*
X141865000Y-153861788D01*
X141873000Y-153902007D01*
X141873000Y-155315000D01*
X141685000Y-155315000D01*
X141685000Y-151255526D01*
X141688485Y-151263940D01*
X141688485Y-151263940D01*
G37*
X141688485Y-151263940D02*
X141807225Y-151441647D01*
X141873000Y-151507422D01*
X141873000Y-153597993D01*
X141865000Y-153638212D01*
X141865000Y-153861788D01*
X141873000Y-153902007D01*
X141873000Y-155315000D01*
X141685000Y-155315000D01*
X141685000Y-151255526D01*
X141688485Y-151263940D01*
G36*
X141873000Y-149992578D02*
G01*
X141807225Y-150058353D01*
X141688485Y-150236060D01*
X141685000Y-150244474D01*
X141685000Y-132685000D01*
X141873000Y-132685000D01*
X141873000Y-149992578D01*
X141873000Y-149992578D01*
G37*
X141873000Y-149992578D02*
X141807225Y-150058353D01*
X141688485Y-150236060D01*
X141685000Y-150244474D01*
X141685000Y-132685000D01*
X141873000Y-132685000D01*
X141873000Y-149992578D01*
M02*
