%TF.GenerationSoftware,KiCad,Pcbnew,5.1.0*%
%TF.CreationDate,2019-04-08T01:08:53+02:00*%
%TF.ProjectId,Illumination-PLCC4,496c6c75-6d69-46e6-9174-696f6e2d504c,rev?*%
%TF.SameCoordinates,Original*%
%TF.FileFunction,Soldermask,Top*%
%TF.FilePolarity,Negative*%
%FSLAX46Y46*%
G04 Gerber Fmt 4.6, Leading zero omitted, Abs format (unit mm)*
G04 Created by KiCad (PCBNEW 5.1.0) date 2019-04-08 01:08:53*
%MOMM*%
%LPD*%
G04 APERTURE LIST*
%ADD10C,0.100000*%
G04 APERTURE END LIST*
D10*
G36*
X143145874Y-153269118D02*
G01*
X143145877Y-153269119D01*
X143145876Y-153269119D01*
X143236888Y-153306818D01*
X143318794Y-153361545D01*
X143388455Y-153431206D01*
X143443182Y-153513112D01*
X143443183Y-153513114D01*
X143480882Y-153604126D01*
X143500100Y-153700744D01*
X143500100Y-153799256D01*
X143480882Y-153895874D01*
X143480881Y-153895876D01*
X143443182Y-153986888D01*
X143388455Y-154068794D01*
X143318794Y-154138455D01*
X143236888Y-154193182D01*
X143236887Y-154193183D01*
X143236886Y-154193183D01*
X143145874Y-154230882D01*
X143049256Y-154250100D01*
X142950744Y-154250100D01*
X142854126Y-154230882D01*
X142763114Y-154193183D01*
X142763113Y-154193183D01*
X142763112Y-154193182D01*
X142681206Y-154138455D01*
X142611545Y-154068794D01*
X142556818Y-153986888D01*
X142519119Y-153895876D01*
X142519118Y-153895874D01*
X142499900Y-153799256D01*
X142499900Y-153700744D01*
X142519118Y-153604126D01*
X142556817Y-153513114D01*
X142556818Y-153513112D01*
X142611545Y-153431206D01*
X142681206Y-153361545D01*
X142763112Y-153306818D01*
X142854124Y-153269119D01*
X142854123Y-153269119D01*
X142854126Y-153269118D01*
X142950744Y-153249900D01*
X143049256Y-153249900D01*
X143145874Y-153269118D01*
X143145874Y-153269118D01*
G37*
G36*
X152145874Y-153269118D02*
G01*
X152145877Y-153269119D01*
X152145876Y-153269119D01*
X152236888Y-153306818D01*
X152318794Y-153361545D01*
X152388455Y-153431206D01*
X152443182Y-153513112D01*
X152443183Y-153513114D01*
X152480882Y-153604126D01*
X152500100Y-153700744D01*
X152500100Y-153799256D01*
X152480882Y-153895874D01*
X152480881Y-153895876D01*
X152443182Y-153986888D01*
X152388455Y-154068794D01*
X152318794Y-154138455D01*
X152236888Y-154193182D01*
X152236887Y-154193183D01*
X152236886Y-154193183D01*
X152145874Y-154230882D01*
X152049256Y-154250100D01*
X151950744Y-154250100D01*
X151854126Y-154230882D01*
X151763114Y-154193183D01*
X151763113Y-154193183D01*
X151763112Y-154193182D01*
X151681206Y-154138455D01*
X151611545Y-154068794D01*
X151556818Y-153986888D01*
X151519119Y-153895876D01*
X151519118Y-153895874D01*
X151499900Y-153799256D01*
X151499900Y-153700744D01*
X151519118Y-153604126D01*
X151556817Y-153513114D01*
X151556818Y-153513112D01*
X151611545Y-153431206D01*
X151681206Y-153361545D01*
X151763112Y-153306818D01*
X151854124Y-153269119D01*
X151854123Y-153269119D01*
X151854126Y-153269118D01*
X151950744Y-153249900D01*
X152049256Y-153249900D01*
X152145874Y-153269118D01*
X152145874Y-153269118D01*
G37*
G36*
X145999997Y-150799032D02*
G01*
X146000000Y-150799032D01*
X146029259Y-150801914D01*
X146039208Y-150802894D01*
X146055624Y-150807874D01*
X146076907Y-150814330D01*
X146111652Y-150832901D01*
X146142106Y-150857894D01*
X146167215Y-150888523D01*
X146167244Y-150888566D01*
X146170358Y-150892365D01*
X146212429Y-150955471D01*
X146224849Y-150970637D01*
X146239990Y-150983089D01*
X146257269Y-150992348D01*
X146276022Y-150998058D01*
X146295633Y-151000000D01*
X147050000Y-151000000D01*
X147050000Y-152500000D01*
X146295633Y-152500000D01*
X146276124Y-152501921D01*
X146257365Y-152507612D01*
X146240077Y-152516853D01*
X146224923Y-152529289D01*
X146212429Y-152544529D01*
X146170341Y-152607661D01*
X146142255Y-152641958D01*
X146111827Y-152666982D01*
X146077102Y-152685590D01*
X146039437Y-152697058D01*
X146039436Y-152697058D01*
X146039413Y-152697065D01*
X146000000Y-152700968D01*
X145999952Y-152700968D01*
X145995064Y-152701452D01*
X145004917Y-152701452D01*
X145000003Y-152700968D01*
X145000000Y-152700968D01*
X144970741Y-152698086D01*
X144960792Y-152697106D01*
X144944376Y-152692126D01*
X144923093Y-152685670D01*
X144888348Y-152667099D01*
X144857894Y-152642106D01*
X144832901Y-152611652D01*
X144814330Y-152576907D01*
X144802894Y-152539207D01*
X144799032Y-152500000D01*
X144799032Y-152499997D01*
X144798548Y-152495083D01*
X144798548Y-151004917D01*
X144799224Y-150998058D01*
X144802894Y-150960793D01*
X144814330Y-150923093D01*
X144832901Y-150888348D01*
X144857894Y-150857894D01*
X144888348Y-150832901D01*
X144923093Y-150814330D01*
X144944376Y-150807874D01*
X144960792Y-150802894D01*
X144970741Y-150801914D01*
X145000000Y-150799032D01*
X145000003Y-150799032D01*
X145004917Y-150798548D01*
X145995083Y-150798548D01*
X145999997Y-150799032D01*
X145999997Y-150799032D01*
G37*
G36*
X149999997Y-150799032D02*
G01*
X150000000Y-150799032D01*
X150029259Y-150801914D01*
X150039208Y-150802894D01*
X150055624Y-150807874D01*
X150076907Y-150814330D01*
X150111652Y-150832901D01*
X150142106Y-150857894D01*
X150167099Y-150888348D01*
X150185670Y-150923093D01*
X150197106Y-150960793D01*
X150200777Y-150998058D01*
X150201452Y-151004917D01*
X150201452Y-152495083D01*
X150200968Y-152499997D01*
X150200968Y-152500000D01*
X150197106Y-152539207D01*
X150185670Y-152576907D01*
X150167099Y-152611652D01*
X150142106Y-152642106D01*
X150111652Y-152667099D01*
X150076907Y-152685670D01*
X150055624Y-152692126D01*
X150039208Y-152697106D01*
X150029259Y-152698086D01*
X150000000Y-152700968D01*
X149999997Y-152700968D01*
X149995083Y-152701452D01*
X149004917Y-152701452D01*
X149000003Y-152700968D01*
X149000000Y-152700968D01*
X148970741Y-152698086D01*
X148960792Y-152697106D01*
X148944376Y-152692126D01*
X148923093Y-152685670D01*
X148888348Y-152667099D01*
X148857894Y-152642106D01*
X148832785Y-152611477D01*
X148832756Y-152611434D01*
X148829642Y-152607635D01*
X148787571Y-152544529D01*
X148775151Y-152529363D01*
X148760010Y-152516911D01*
X148742731Y-152507652D01*
X148723978Y-152501942D01*
X148704367Y-152500000D01*
X147950000Y-152500000D01*
X147950000Y-151000000D01*
X148704367Y-151000000D01*
X148723876Y-150998079D01*
X148742635Y-150992388D01*
X148759923Y-150983147D01*
X148775077Y-150970711D01*
X148787571Y-150955471D01*
X148829659Y-150892339D01*
X148857745Y-150858042D01*
X148888173Y-150833018D01*
X148922898Y-150814410D01*
X148960563Y-150802942D01*
X148960564Y-150802942D01*
X148960587Y-150802935D01*
X149000000Y-150799032D01*
X149000048Y-150799032D01*
X149004936Y-150798548D01*
X149995083Y-150798548D01*
X149999997Y-150799032D01*
X149999997Y-150799032D01*
G37*
G36*
X149999997Y-147399032D02*
G01*
X150000000Y-147399032D01*
X150029259Y-147401914D01*
X150039208Y-147402894D01*
X150055624Y-147407874D01*
X150076907Y-147414330D01*
X150111652Y-147432901D01*
X150142106Y-147457894D01*
X150167099Y-147488348D01*
X150185670Y-147523093D01*
X150197106Y-147560793D01*
X150200777Y-147598058D01*
X150201452Y-147604917D01*
X150201452Y-149095083D01*
X150200968Y-149099997D01*
X150200968Y-149100000D01*
X150197106Y-149139207D01*
X150185670Y-149176907D01*
X150167099Y-149211652D01*
X150142106Y-149242106D01*
X150111652Y-149267099D01*
X150076907Y-149285670D01*
X150055624Y-149292126D01*
X150039208Y-149297106D01*
X150029259Y-149298086D01*
X150000000Y-149300968D01*
X149999997Y-149300968D01*
X149995083Y-149301452D01*
X149004917Y-149301452D01*
X149000003Y-149300968D01*
X149000000Y-149300968D01*
X148970741Y-149298086D01*
X148960792Y-149297106D01*
X148944376Y-149292126D01*
X148923093Y-149285670D01*
X148888348Y-149267099D01*
X148857894Y-149242106D01*
X148832785Y-149211477D01*
X148832756Y-149211434D01*
X148829642Y-149207635D01*
X148787571Y-149144529D01*
X148775151Y-149129363D01*
X148760010Y-149116911D01*
X148742731Y-149107652D01*
X148723978Y-149101942D01*
X148704367Y-149100000D01*
X147950000Y-149100000D01*
X147950000Y-147600000D01*
X148704367Y-147600000D01*
X148723876Y-147598079D01*
X148742635Y-147592388D01*
X148759923Y-147583147D01*
X148775077Y-147570711D01*
X148787571Y-147555471D01*
X148829659Y-147492339D01*
X148857745Y-147458042D01*
X148888173Y-147433018D01*
X148922898Y-147414410D01*
X148960563Y-147402942D01*
X148960564Y-147402942D01*
X148960587Y-147402935D01*
X149000000Y-147399032D01*
X149000048Y-147399032D01*
X149004936Y-147398548D01*
X149995083Y-147398548D01*
X149999997Y-147399032D01*
X149999997Y-147399032D01*
G37*
G36*
X145999997Y-147399032D02*
G01*
X146000000Y-147399032D01*
X146029259Y-147401914D01*
X146039208Y-147402894D01*
X146055624Y-147407874D01*
X146076907Y-147414330D01*
X146111652Y-147432901D01*
X146142106Y-147457894D01*
X146167215Y-147488523D01*
X146167244Y-147488566D01*
X146170358Y-147492365D01*
X146212429Y-147555471D01*
X146224849Y-147570637D01*
X146239990Y-147583089D01*
X146257269Y-147592348D01*
X146276022Y-147598058D01*
X146295633Y-147600000D01*
X147050000Y-147600000D01*
X147050000Y-149100000D01*
X146295633Y-149100000D01*
X146276124Y-149101921D01*
X146257365Y-149107612D01*
X146240077Y-149116853D01*
X146224923Y-149129289D01*
X146212429Y-149144529D01*
X146170341Y-149207661D01*
X146142255Y-149241958D01*
X146111827Y-149266982D01*
X146077102Y-149285590D01*
X146039437Y-149297058D01*
X146039436Y-149297058D01*
X146039413Y-149297065D01*
X146000000Y-149300968D01*
X145999952Y-149300968D01*
X145995064Y-149301452D01*
X145004917Y-149301452D01*
X145000003Y-149300968D01*
X145000000Y-149300968D01*
X144970741Y-149298086D01*
X144960792Y-149297106D01*
X144944376Y-149292126D01*
X144923093Y-149285670D01*
X144888348Y-149267099D01*
X144857894Y-149242106D01*
X144832901Y-149211652D01*
X144814330Y-149176907D01*
X144802894Y-149139207D01*
X144799032Y-149100000D01*
X144799032Y-149099997D01*
X144798548Y-149095083D01*
X144798548Y-147604917D01*
X144799224Y-147598058D01*
X144802894Y-147560793D01*
X144814330Y-147523093D01*
X144832901Y-147488348D01*
X144857894Y-147457894D01*
X144888348Y-147432901D01*
X144923093Y-147414330D01*
X144944376Y-147407874D01*
X144960792Y-147402894D01*
X144970741Y-147401914D01*
X145000000Y-147399032D01*
X145000003Y-147399032D01*
X145004917Y-147398548D01*
X145995083Y-147398548D01*
X145999997Y-147399032D01*
X145999997Y-147399032D01*
G37*
G36*
X143857272Y-141461395D02*
G01*
X143895836Y-141465193D01*
X144027787Y-141505220D01*
X144093763Y-141525233D01*
X144276169Y-141622731D01*
X144436054Y-141753946D01*
X144567269Y-141913831D01*
X144664767Y-142096237D01*
X144664767Y-142096238D01*
X144724807Y-142294164D01*
X144724807Y-142294166D01*
X144745081Y-142500000D01*
X144728143Y-142671961D01*
X144724807Y-142705836D01*
X144684780Y-142837787D01*
X144664767Y-142903763D01*
X144567269Y-143086169D01*
X144436054Y-143246054D01*
X144276169Y-143377269D01*
X144093763Y-143474767D01*
X144027787Y-143494780D01*
X143895836Y-143534807D01*
X143857272Y-143538605D01*
X143741584Y-143550000D01*
X143638416Y-143550000D01*
X143522728Y-143538605D01*
X143484164Y-143534807D01*
X143352213Y-143494780D01*
X143286237Y-143474767D01*
X143103831Y-143377269D01*
X142943946Y-143246054D01*
X142812731Y-143086169D01*
X142715233Y-142903763D01*
X142695220Y-142837787D01*
X142655193Y-142705836D01*
X142651857Y-142671961D01*
X142634919Y-142500000D01*
X142655193Y-142294166D01*
X142655193Y-142294164D01*
X142715233Y-142096238D01*
X142715233Y-142096237D01*
X142812731Y-141913831D01*
X142943946Y-141753946D01*
X143103831Y-141622731D01*
X143286237Y-141525233D01*
X143352213Y-141505220D01*
X143484164Y-141465193D01*
X143522728Y-141461395D01*
X143638416Y-141450000D01*
X143741584Y-141450000D01*
X143857272Y-141461395D01*
X143857272Y-141461395D01*
G37*
G36*
X146397272Y-141461395D02*
G01*
X146435836Y-141465193D01*
X146567787Y-141505220D01*
X146633763Y-141525233D01*
X146816169Y-141622731D01*
X146976054Y-141753946D01*
X147107269Y-141913831D01*
X147204767Y-142096237D01*
X147204767Y-142096238D01*
X147264807Y-142294164D01*
X147264807Y-142294166D01*
X147285081Y-142500000D01*
X147268143Y-142671961D01*
X147264807Y-142705836D01*
X147224780Y-142837787D01*
X147204767Y-142903763D01*
X147107269Y-143086169D01*
X146976054Y-143246054D01*
X146816169Y-143377269D01*
X146633763Y-143474767D01*
X146567787Y-143494780D01*
X146435836Y-143534807D01*
X146397272Y-143538605D01*
X146281584Y-143550000D01*
X146178416Y-143550000D01*
X146062728Y-143538605D01*
X146024164Y-143534807D01*
X145892213Y-143494780D01*
X145826237Y-143474767D01*
X145643831Y-143377269D01*
X145483946Y-143246054D01*
X145352731Y-143086169D01*
X145255233Y-142903763D01*
X145235220Y-142837787D01*
X145195193Y-142705836D01*
X145191857Y-142671961D01*
X145174919Y-142500000D01*
X145195193Y-142294166D01*
X145195193Y-142294164D01*
X145255233Y-142096238D01*
X145255233Y-142096237D01*
X145352731Y-141913831D01*
X145483946Y-141753946D01*
X145643831Y-141622731D01*
X145826237Y-141525233D01*
X145892213Y-141505220D01*
X146024164Y-141465193D01*
X146062728Y-141461395D01*
X146178416Y-141450000D01*
X146281584Y-141450000D01*
X146397272Y-141461395D01*
X146397272Y-141461395D01*
G37*
G36*
X148937272Y-141461395D02*
G01*
X148975836Y-141465193D01*
X149107787Y-141505220D01*
X149173763Y-141525233D01*
X149356169Y-141622731D01*
X149516054Y-141753946D01*
X149647269Y-141913831D01*
X149744767Y-142096237D01*
X149744767Y-142096238D01*
X149804807Y-142294164D01*
X149804807Y-142294166D01*
X149825081Y-142500000D01*
X149808143Y-142671961D01*
X149804807Y-142705836D01*
X149764780Y-142837787D01*
X149744767Y-142903763D01*
X149647269Y-143086169D01*
X149516054Y-143246054D01*
X149356169Y-143377269D01*
X149173763Y-143474767D01*
X149107787Y-143494780D01*
X148975836Y-143534807D01*
X148937272Y-143538605D01*
X148821584Y-143550000D01*
X148718416Y-143550000D01*
X148602728Y-143538605D01*
X148564164Y-143534807D01*
X148432213Y-143494780D01*
X148366237Y-143474767D01*
X148183831Y-143377269D01*
X148023946Y-143246054D01*
X147892731Y-143086169D01*
X147795233Y-142903763D01*
X147775220Y-142837787D01*
X147735193Y-142705836D01*
X147731857Y-142671961D01*
X147714919Y-142500000D01*
X147735193Y-142294166D01*
X147735193Y-142294164D01*
X147795233Y-142096238D01*
X147795233Y-142096237D01*
X147892731Y-141913831D01*
X148023946Y-141753946D01*
X148183831Y-141622731D01*
X148366237Y-141525233D01*
X148432213Y-141505220D01*
X148564164Y-141465193D01*
X148602728Y-141461395D01*
X148718416Y-141450000D01*
X148821584Y-141450000D01*
X148937272Y-141461395D01*
X148937272Y-141461395D01*
G37*
G36*
X152360000Y-143550000D02*
G01*
X150260000Y-143550000D01*
X150260000Y-141450000D01*
X152360000Y-141450000D01*
X152360000Y-143550000D01*
X152360000Y-143550000D01*
G37*
M02*
