%TF.GenerationSoftware,KiCad,Pcbnew,5.1.0*%
%TF.CreationDate,2019-04-08T01:09:11+02:00*%
%TF.ProjectId,Illumination-PLCC6,496c6c75-6d69-46e6-9174-696f6e2d504c,rev?*%
%TF.SameCoordinates,Original*%
%TF.FileFunction,Legend,Top*%
%TF.FilePolarity,Positive*%
%FSLAX46Y46*%
G04 Gerber Fmt 4.6, Leading zero omitted, Abs format (unit mm)*
G04 Created by KiCad (PCBNEW 5.1.0) date 2019-04-08 01:09:11*
%MOMM*%
%LPD*%
G04 APERTURE LIST*
%ADD10C,0.160000*%
%ADD11R,2.100000X2.100000*%
%ADD12O,2.100000X2.100000*%
%ADD13C,1.000200*%
G04 APERTURE END LIST*
D10*
X122580952Y-138102380D02*
X122580952Y-137316666D01*
X122633333Y-137159523D01*
X122738095Y-137054761D01*
X122895238Y-137002380D01*
X123000000Y-137002380D01*
X121533333Y-137002380D02*
X122057142Y-137002380D01*
X122057142Y-138102380D01*
X120538095Y-137107142D02*
X120590476Y-137054761D01*
X120747619Y-137002380D01*
X120852380Y-137002380D01*
X121009523Y-137054761D01*
X121114285Y-137159523D01*
X121166666Y-137264285D01*
X121219047Y-137473809D01*
X121219047Y-137630952D01*
X121166666Y-137840476D01*
X121114285Y-137945238D01*
X121009523Y-138050000D01*
X120852380Y-138102380D01*
X120747619Y-138102380D01*
X120590476Y-138050000D01*
X120538095Y-137997619D01*
X119752380Y-138102380D02*
X119752380Y-137316666D01*
X119804761Y-137159523D01*
X119909523Y-137054761D01*
X120066666Y-137002380D01*
X120171428Y-137002380D01*
X118704761Y-137002380D02*
X119228571Y-137002380D01*
X119228571Y-138102380D01*
X117709523Y-137107142D02*
X117761904Y-137054761D01*
X117919047Y-137002380D01*
X118023809Y-137002380D01*
X118180952Y-137054761D01*
X118285714Y-137159523D01*
X118338095Y-137264285D01*
X118390476Y-137473809D01*
X118390476Y-137630952D01*
X118338095Y-137840476D01*
X118285714Y-137945238D01*
X118180952Y-138050000D01*
X118023809Y-138102380D01*
X117919047Y-138102380D01*
X117761904Y-138050000D01*
X117709523Y-137997619D01*
X116923809Y-138102380D02*
X116923809Y-137316666D01*
X116976190Y-137159523D01*
X117080952Y-137054761D01*
X117238095Y-137002380D01*
X117342857Y-137002380D01*
X115876190Y-137002380D02*
X116400000Y-137002380D01*
X116400000Y-138102380D01*
X114880952Y-137107142D02*
X114933333Y-137054761D01*
X115090476Y-137002380D01*
X115195238Y-137002380D01*
X115352380Y-137054761D01*
X115457142Y-137159523D01*
X115509523Y-137264285D01*
X115561904Y-137473809D01*
X115561904Y-137630952D01*
X115509523Y-137840476D01*
X115457142Y-137945238D01*
X115352380Y-138050000D01*
X115195238Y-138102380D01*
X115090476Y-138102380D01*
X114933333Y-138050000D01*
X114880952Y-137997619D01*
X114095238Y-138102380D02*
X114095238Y-137316666D01*
X114147619Y-137159523D01*
X114252380Y-137054761D01*
X114409523Y-137002380D01*
X114514285Y-137002380D01*
X113047619Y-137002380D02*
X113571428Y-137002380D01*
X113571428Y-138102380D01*
X112052380Y-137107142D02*
X112104761Y-137054761D01*
X112261904Y-137002380D01*
X112366666Y-137002380D01*
X112523809Y-137054761D01*
X112628571Y-137159523D01*
X112680952Y-137264285D01*
X112733333Y-137473809D01*
X112733333Y-137630952D01*
X112680952Y-137840476D01*
X112628571Y-137945238D01*
X112523809Y-138050000D01*
X112366666Y-138102380D01*
X112261904Y-138102380D01*
X112104761Y-138050000D01*
X112052380Y-137997619D01*
X122214285Y-139502380D02*
X122738095Y-139502380D01*
X122738095Y-140602380D01*
X121847619Y-139502380D02*
X121847619Y-140235714D01*
X121847619Y-140602380D02*
X121900000Y-140550000D01*
X121847619Y-140497619D01*
X121795238Y-140550000D01*
X121847619Y-140602380D01*
X121847619Y-140497619D01*
X120852380Y-140235714D02*
X120852380Y-139345238D01*
X120904761Y-139240476D01*
X120957142Y-139188095D01*
X121061904Y-139135714D01*
X121219047Y-139135714D01*
X121323809Y-139188095D01*
X120852380Y-139554761D02*
X120957142Y-139502380D01*
X121166666Y-139502380D01*
X121271428Y-139554761D01*
X121323809Y-139607142D01*
X121376190Y-139711904D01*
X121376190Y-140026190D01*
X121323809Y-140130952D01*
X121271428Y-140183333D01*
X121166666Y-140235714D01*
X120957142Y-140235714D01*
X120852380Y-140183333D01*
X120328571Y-139502380D02*
X120328571Y-140602380D01*
X119857142Y-139502380D02*
X119857142Y-140078571D01*
X119909523Y-140183333D01*
X120014285Y-140235714D01*
X120171428Y-140235714D01*
X120276190Y-140183333D01*
X120328571Y-140130952D01*
X119490476Y-140235714D02*
X119071428Y-140235714D01*
X119333333Y-140602380D02*
X119333333Y-139659523D01*
X119280952Y-139554761D01*
X119176190Y-139502380D01*
X119071428Y-139502380D01*
X118704761Y-139921428D02*
X117866666Y-139921428D01*
X117395238Y-139554761D02*
X117238095Y-139502380D01*
X116976190Y-139502380D01*
X116871428Y-139554761D01*
X116819047Y-139607142D01*
X116766666Y-139711904D01*
X116766666Y-139816666D01*
X116819047Y-139921428D01*
X116871428Y-139973809D01*
X116976190Y-140026190D01*
X117185714Y-140078571D01*
X117290476Y-140130952D01*
X117342857Y-140183333D01*
X117395238Y-140288095D01*
X117395238Y-140392857D01*
X117342857Y-140497619D01*
X117290476Y-140550000D01*
X117185714Y-140602380D01*
X116923809Y-140602380D01*
X116766666Y-140550000D01*
X116138095Y-139502380D02*
X116242857Y-139554761D01*
X116295238Y-139607142D01*
X116347619Y-139711904D01*
X116347619Y-140026190D01*
X116295238Y-140130952D01*
X116242857Y-140183333D01*
X116138095Y-140235714D01*
X115980952Y-140235714D01*
X115876190Y-140183333D01*
X115823809Y-140130952D01*
X115771428Y-140026190D01*
X115771428Y-139711904D01*
X115823809Y-139607142D01*
X115876190Y-139554761D01*
X115980952Y-139502380D01*
X116138095Y-139502380D01*
X114828571Y-140235714D02*
X114828571Y-139502380D01*
X115300000Y-140235714D02*
X115300000Y-139659523D01*
X115247619Y-139554761D01*
X115142857Y-139502380D01*
X114985714Y-139502380D01*
X114880952Y-139554761D01*
X114828571Y-139607142D01*
X114304761Y-139502380D02*
X114304761Y-140235714D01*
X114304761Y-140026190D02*
X114252380Y-140130952D01*
X114200000Y-140183333D01*
X114095238Y-140235714D01*
X113990476Y-140235714D01*
X113152380Y-139554761D02*
X113257142Y-139502380D01*
X113466666Y-139502380D01*
X113571428Y-139554761D01*
X113623809Y-139607142D01*
X113676190Y-139711904D01*
X113676190Y-140026190D01*
X113623809Y-140130952D01*
X113571428Y-140183333D01*
X113466666Y-140235714D01*
X113257142Y-140235714D01*
X113152380Y-140183333D01*
X112261904Y-139554761D02*
X112366666Y-139502380D01*
X112576190Y-139502380D01*
X112680952Y-139554761D01*
X112733333Y-139659523D01*
X112733333Y-140078571D01*
X112680952Y-140183333D01*
X112576190Y-140235714D01*
X112366666Y-140235714D01*
X112261904Y-140183333D01*
X112209523Y-140078571D01*
X112209523Y-139973809D01*
X112733333Y-139869047D01*
%LPC*%
D11*
X121310000Y-142500000D03*
D12*
X118770000Y-142500000D03*
X116230000Y-142500000D03*
X113690000Y-142500000D03*
D13*
X113000000Y-153750000D03*
X122000000Y-153750000D03*
M02*
