%TF.GenerationSoftware,KiCad,Pcbnew,5.1.0*%
%TF.CreationDate,2019-04-08T01:09:11+02:00*%
%TF.ProjectId,Illumination-PLCC6,496c6c75-6d69-46e6-9174-696f6e2d504c,rev?*%
%TF.SameCoordinates,Original*%
%TF.FileFunction,Soldermask,Bot*%
%TF.FilePolarity,Negative*%
%FSLAX46Y46*%
G04 Gerber Fmt 4.6, Leading zero omitted, Abs format (unit mm)*
G04 Created by KiCad (PCBNEW 5.1.0) date 2019-04-08 01:09:11*
%MOMM*%
%LPD*%
G04 APERTURE LIST*
%ADD10C,0.100000*%
G04 APERTURE END LIST*
D10*
G36*
X113145874Y-153269118D02*
G01*
X113145877Y-153269119D01*
X113145876Y-153269119D01*
X113236888Y-153306818D01*
X113318794Y-153361545D01*
X113388455Y-153431206D01*
X113443182Y-153513112D01*
X113443183Y-153513114D01*
X113480882Y-153604126D01*
X113500100Y-153700744D01*
X113500100Y-153799256D01*
X113480882Y-153895874D01*
X113480881Y-153895876D01*
X113443182Y-153986888D01*
X113388455Y-154068794D01*
X113318794Y-154138455D01*
X113236888Y-154193182D01*
X113236887Y-154193183D01*
X113236886Y-154193183D01*
X113145874Y-154230882D01*
X113049256Y-154250100D01*
X112950744Y-154250100D01*
X112854126Y-154230882D01*
X112763114Y-154193183D01*
X112763113Y-154193183D01*
X112763112Y-154193182D01*
X112681206Y-154138455D01*
X112611545Y-154068794D01*
X112556818Y-153986888D01*
X112519119Y-153895876D01*
X112519118Y-153895874D01*
X112499900Y-153799256D01*
X112499900Y-153700744D01*
X112519118Y-153604126D01*
X112556817Y-153513114D01*
X112556818Y-153513112D01*
X112611545Y-153431206D01*
X112681206Y-153361545D01*
X112763112Y-153306818D01*
X112854124Y-153269119D01*
X112854123Y-153269119D01*
X112854126Y-153269118D01*
X112950744Y-153249900D01*
X113049256Y-153249900D01*
X113145874Y-153269118D01*
X113145874Y-153269118D01*
G37*
G36*
X122145874Y-153269118D02*
G01*
X122145877Y-153269119D01*
X122145876Y-153269119D01*
X122236888Y-153306818D01*
X122318794Y-153361545D01*
X122388455Y-153431206D01*
X122443182Y-153513112D01*
X122443183Y-153513114D01*
X122480882Y-153604126D01*
X122500100Y-153700744D01*
X122500100Y-153799256D01*
X122480882Y-153895874D01*
X122480881Y-153895876D01*
X122443182Y-153986888D01*
X122388455Y-154068794D01*
X122318794Y-154138455D01*
X122236888Y-154193182D01*
X122236887Y-154193183D01*
X122236886Y-154193183D01*
X122145874Y-154230882D01*
X122049256Y-154250100D01*
X121950744Y-154250100D01*
X121854126Y-154230882D01*
X121763114Y-154193183D01*
X121763113Y-154193183D01*
X121763112Y-154193182D01*
X121681206Y-154138455D01*
X121611545Y-154068794D01*
X121556818Y-153986888D01*
X121519119Y-153895876D01*
X121519118Y-153895874D01*
X121499900Y-153799256D01*
X121499900Y-153700744D01*
X121519118Y-153604126D01*
X121556817Y-153513114D01*
X121556818Y-153513112D01*
X121611545Y-153431206D01*
X121681206Y-153361545D01*
X121763112Y-153306818D01*
X121854124Y-153269119D01*
X121854123Y-153269119D01*
X121854126Y-153269118D01*
X121950744Y-153249900D01*
X122049256Y-153249900D01*
X122145874Y-153269118D01*
X122145874Y-153269118D01*
G37*
G36*
X119300000Y-148300001D02*
G01*
X119301921Y-148319510D01*
X119307612Y-148338269D01*
X119316853Y-148355557D01*
X119329289Y-148370711D01*
X119344443Y-148383147D01*
X119361731Y-148392388D01*
X119380490Y-148398079D01*
X119399999Y-148400000D01*
X121450000Y-148400000D01*
X121450000Y-151600000D01*
X119399999Y-151600000D01*
X119380490Y-151601921D01*
X119361731Y-151607612D01*
X119344443Y-151616853D01*
X119329289Y-151629289D01*
X119316853Y-151644443D01*
X119307612Y-151661731D01*
X119301921Y-151680490D01*
X119300000Y-151699999D01*
X119300000Y-153100000D01*
X118650000Y-153100000D01*
X118650000Y-151699999D01*
X118648079Y-151680490D01*
X118642388Y-151661731D01*
X118633147Y-151644443D01*
X118620711Y-151629289D01*
X118605557Y-151616853D01*
X118588269Y-151607612D01*
X118569510Y-151601921D01*
X118550001Y-151600000D01*
X118150000Y-151600000D01*
X118150000Y-148400000D01*
X118550001Y-148400000D01*
X118569510Y-148398079D01*
X118588269Y-148392388D01*
X118605557Y-148383147D01*
X118620711Y-148370711D01*
X118633147Y-148355557D01*
X118642388Y-148338269D01*
X118648079Y-148319510D01*
X118650000Y-148300001D01*
X118650000Y-146900000D01*
X119300000Y-146900000D01*
X119300000Y-148300001D01*
X119300000Y-148300001D01*
G37*
G36*
X116350000Y-148300001D02*
G01*
X116351921Y-148319510D01*
X116357612Y-148338269D01*
X116366853Y-148355557D01*
X116379289Y-148370711D01*
X116394443Y-148383147D01*
X116411731Y-148392388D01*
X116430490Y-148398079D01*
X116449999Y-148400000D01*
X116850000Y-148400000D01*
X116850000Y-151600000D01*
X116449999Y-151600000D01*
X116430490Y-151601921D01*
X116411731Y-151607612D01*
X116394443Y-151616853D01*
X116379289Y-151629289D01*
X116366853Y-151644443D01*
X116357612Y-151661731D01*
X116351921Y-151680490D01*
X116350000Y-151699999D01*
X116350000Y-153100000D01*
X115700000Y-153100000D01*
X115700000Y-151699999D01*
X115698079Y-151680490D01*
X115692388Y-151661731D01*
X115683147Y-151644443D01*
X115670711Y-151629289D01*
X115655557Y-151616853D01*
X115638269Y-151607612D01*
X115619510Y-151601921D01*
X115600001Y-151600000D01*
X113550000Y-151600000D01*
X113550000Y-148400000D01*
X115600001Y-148400000D01*
X115619510Y-148398079D01*
X115638269Y-148392388D01*
X115655557Y-148383147D01*
X115670711Y-148370711D01*
X115683147Y-148355557D01*
X115692388Y-148338269D01*
X115698079Y-148319510D01*
X115700000Y-148300001D01*
X115700000Y-146900000D01*
X116350000Y-146900000D01*
X116350000Y-148300001D01*
X116350000Y-148300001D01*
G37*
G36*
X113857272Y-141461395D02*
G01*
X113895836Y-141465193D01*
X114027787Y-141505220D01*
X114093763Y-141525233D01*
X114276169Y-141622731D01*
X114436054Y-141753946D01*
X114567269Y-141913831D01*
X114664767Y-142096237D01*
X114664767Y-142096238D01*
X114724807Y-142294164D01*
X114724807Y-142294166D01*
X114745081Y-142500000D01*
X114728143Y-142671961D01*
X114724807Y-142705836D01*
X114684780Y-142837787D01*
X114664767Y-142903763D01*
X114567269Y-143086169D01*
X114436054Y-143246054D01*
X114276169Y-143377269D01*
X114093763Y-143474767D01*
X114027787Y-143494780D01*
X113895836Y-143534807D01*
X113857272Y-143538605D01*
X113741584Y-143550000D01*
X113638416Y-143550000D01*
X113522728Y-143538605D01*
X113484164Y-143534807D01*
X113352213Y-143494780D01*
X113286237Y-143474767D01*
X113103831Y-143377269D01*
X112943946Y-143246054D01*
X112812731Y-143086169D01*
X112715233Y-142903763D01*
X112695220Y-142837787D01*
X112655193Y-142705836D01*
X112651857Y-142671961D01*
X112634919Y-142500000D01*
X112655193Y-142294166D01*
X112655193Y-142294164D01*
X112715233Y-142096238D01*
X112715233Y-142096237D01*
X112812731Y-141913831D01*
X112943946Y-141753946D01*
X113103831Y-141622731D01*
X113286237Y-141525233D01*
X113352213Y-141505220D01*
X113484164Y-141465193D01*
X113522728Y-141461395D01*
X113638416Y-141450000D01*
X113741584Y-141450000D01*
X113857272Y-141461395D01*
X113857272Y-141461395D01*
G37*
G36*
X116397272Y-141461395D02*
G01*
X116435836Y-141465193D01*
X116567787Y-141505220D01*
X116633763Y-141525233D01*
X116816169Y-141622731D01*
X116976054Y-141753946D01*
X117107269Y-141913831D01*
X117204767Y-142096237D01*
X117204767Y-142096238D01*
X117264807Y-142294164D01*
X117264807Y-142294166D01*
X117285081Y-142500000D01*
X117268143Y-142671961D01*
X117264807Y-142705836D01*
X117224780Y-142837787D01*
X117204767Y-142903763D01*
X117107269Y-143086169D01*
X116976054Y-143246054D01*
X116816169Y-143377269D01*
X116633763Y-143474767D01*
X116567787Y-143494780D01*
X116435836Y-143534807D01*
X116397272Y-143538605D01*
X116281584Y-143550000D01*
X116178416Y-143550000D01*
X116062728Y-143538605D01*
X116024164Y-143534807D01*
X115892213Y-143494780D01*
X115826237Y-143474767D01*
X115643831Y-143377269D01*
X115483946Y-143246054D01*
X115352731Y-143086169D01*
X115255233Y-142903763D01*
X115235220Y-142837787D01*
X115195193Y-142705836D01*
X115191857Y-142671961D01*
X115174919Y-142500000D01*
X115195193Y-142294166D01*
X115195193Y-142294164D01*
X115255233Y-142096238D01*
X115255233Y-142096237D01*
X115352731Y-141913831D01*
X115483946Y-141753946D01*
X115643831Y-141622731D01*
X115826237Y-141525233D01*
X115892213Y-141505220D01*
X116024164Y-141465193D01*
X116062728Y-141461395D01*
X116178416Y-141450000D01*
X116281584Y-141450000D01*
X116397272Y-141461395D01*
X116397272Y-141461395D01*
G37*
G36*
X122360000Y-143550000D02*
G01*
X120260000Y-143550000D01*
X120260000Y-141450000D01*
X122360000Y-141450000D01*
X122360000Y-143550000D01*
X122360000Y-143550000D01*
G37*
G36*
X118937272Y-141461395D02*
G01*
X118975836Y-141465193D01*
X119107787Y-141505220D01*
X119173763Y-141525233D01*
X119356169Y-141622731D01*
X119516054Y-141753946D01*
X119647269Y-141913831D01*
X119744767Y-142096237D01*
X119744767Y-142096238D01*
X119804807Y-142294164D01*
X119804807Y-142294166D01*
X119825081Y-142500000D01*
X119808143Y-142671961D01*
X119804807Y-142705836D01*
X119764780Y-142837787D01*
X119744767Y-142903763D01*
X119647269Y-143086169D01*
X119516054Y-143246054D01*
X119356169Y-143377269D01*
X119173763Y-143474767D01*
X119107787Y-143494780D01*
X118975836Y-143534807D01*
X118937272Y-143538605D01*
X118821584Y-143550000D01*
X118718416Y-143550000D01*
X118602728Y-143538605D01*
X118564164Y-143534807D01*
X118432213Y-143494780D01*
X118366237Y-143474767D01*
X118183831Y-143377269D01*
X118023946Y-143246054D01*
X117892731Y-143086169D01*
X117795233Y-142903763D01*
X117775220Y-142837787D01*
X117735193Y-142705836D01*
X117731857Y-142671961D01*
X117714919Y-142500000D01*
X117735193Y-142294166D01*
X117735193Y-142294164D01*
X117795233Y-142096238D01*
X117795233Y-142096237D01*
X117892731Y-141913831D01*
X118023946Y-141753946D01*
X118183831Y-141622731D01*
X118366237Y-141525233D01*
X118432213Y-141505220D01*
X118564164Y-141465193D01*
X118602728Y-141461395D01*
X118718416Y-141450000D01*
X118821584Y-141450000D01*
X118937272Y-141461395D01*
X118937272Y-141461395D01*
G37*
M02*
