M48
; DRILL file {KiCad 5.1.0} date Fri 05 Apr 2019 03:55:22 AM CEST
; FORMAT={-:-/ absolute / metric / decimal}
; #@! TF.CreationDate,2019-04-05T03:55:22+02:00
; #@! TF.GenerationSoftware,Kicad,Pcbnew,5.1.0
FMAT,2
METRIC
T1C0.300
T2C1.000
T3C0.500
T4C1.000
T5C2.700
%
G90
G05
T1
X112.014Y-109.728
X112.014Y-114.808
X112.014Y-119.888
X112.8Y-148.6
X112.8Y-150.0
X112.8Y-151.4
X117.348Y-122.298
X118.872Y-110.553
X119.825Y-112.522
X120.459Y-108.966
X120.65Y-111.442
X121.793Y-121.666
X122.745Y-114.363
X122.745Y-115.633
X123.317Y-126.619
X125.666Y-107.759
X127.127Y-120.777
X129.667Y-125.603
X129.667Y-127.254
X131.064Y-121.285
X131.191Y-123.063
X132.779Y-110.553
X135.001Y-110.299
X135.826Y-112.141
X136.843Y-114.49
X138.176Y-119.189
X142.494Y-111.188
X142.65Y-150.75
X143.95Y-146.8
X146.685Y-111.188
X146.685Y-112.903
X147.5Y-150.0
X150.749Y-116.84
X151.05Y-146.8
X151.7Y-102.9
X152.35Y-150.75
T2
X128.69Y-142.5
X131.23Y-142.5
X133.77Y-142.5
X136.31Y-142.5
X156.0Y-111.19
X156.0Y-113.73
X156.0Y-116.27
X156.0Y-118.81
X139.92Y-104.54
X139.92Y-107.08
X142.46Y-104.54
X142.46Y-107.08
X145.0Y-104.54
X145.0Y-107.08
X147.54Y-104.54
X147.54Y-107.08
X150.08Y-104.54
X150.08Y-107.08
X108.37Y-102.0
X108.37Y-104.54
X110.91Y-102.0
X110.91Y-104.54
X113.45Y-102.0
X113.45Y-104.54
X115.99Y-102.0
X115.99Y-104.54
X118.53Y-102.0
X118.53Y-104.54
X121.07Y-102.0
X121.07Y-104.54
X123.61Y-102.0
X123.61Y-104.54
X126.15Y-102.0
X126.15Y-104.54
X113.69Y-142.5
X116.23Y-142.5
X118.77Y-142.5
X121.31Y-142.5
X109.0Y-111.19
X109.0Y-113.73
X109.0Y-116.27
X109.0Y-118.81
X143.69Y-142.5
X146.23Y-142.5
X148.77Y-142.5
X151.31Y-142.5
T3
X116.5Y-155.65
X118.5Y-155.65
X158.5Y-129.75
X160.5Y-129.75
X108.5Y-129.75
X131.5Y-155.65
X147.5Y-155.65
X134.5Y-155.65
X119.5Y-155.65
X107.5Y-129.75
X149.5Y-155.65
X115.5Y-155.65
X159.5Y-129.75
X133.5Y-155.65
X148.5Y-155.65
X106.5Y-129.75
X117.5Y-155.65
X132.5Y-155.65
X130.5Y-155.65
X146.5Y-155.65
X105.5Y-129.75
X104.5Y-129.75
X157.5Y-129.75
X145.5Y-155.65
X156.5Y-129.75
T4
X122.0Y-153.75
X137.0Y-153.75
X128.0Y-153.75
X113.0Y-153.75
X143.0Y-153.75
X152.0Y-153.75
T5
X103.5Y-126.5
X161.5Y-103.5
X103.5Y-103.5
X161.5Y-126.5
X104.5Y-108.25
X104.5Y-115.0
X104.5Y-121.75
X160.5Y-108.25
X160.5Y-115.0
X160.5Y-121.75
T0
M30
