%TF.GenerationSoftware,KiCad,Pcbnew,5.1.0*%
%TF.CreationDate,2019-04-05T03:55:09+02:00*%
%TF.ProjectId,BeerEyePi,42656572-4579-4655-9069-2e6b69636164,rev?*%
%TF.SameCoordinates,Original*%
%TF.FileFunction,Soldermask,Top*%
%TF.FilePolarity,Negative*%
%FSLAX46Y46*%
G04 Gerber Fmt 4.6, Leading zero omitted, Abs format (unit mm)*
G04 Created by KiCad (PCBNEW 5.1.0) date 2019-04-05 03:55:09*
%MOMM*%
%LPD*%
G04 APERTURE LIST*
%ADD10C,0.001000*%
%ADD11C,0.100000*%
G04 APERTURE END LIST*
D10*
G36*
X128300000Y-111250000D02*
G01*
X128300000Y-118750000D01*
X129850000Y-118750000D01*
X129850000Y-111250000D01*
X128300000Y-111250000D01*
G37*
X128300000Y-111250000D02*
X128300000Y-118750000D01*
X129850000Y-118750000D01*
X129850000Y-111250000D01*
X128300000Y-111250000D01*
D11*
G36*
X149572951Y-155409511D02*
G01*
X149572953Y-155409512D01*
X149572954Y-155409512D01*
X149618469Y-155428365D01*
X149659428Y-155455733D01*
X149694267Y-155490572D01*
X149721635Y-155531531D01*
X149740488Y-155577046D01*
X149750100Y-155625369D01*
X149750100Y-155674631D01*
X149740488Y-155722954D01*
X149721635Y-155768469D01*
X149694267Y-155809428D01*
X149659428Y-155844267D01*
X149618469Y-155871635D01*
X149572954Y-155890488D01*
X149572953Y-155890488D01*
X149572951Y-155890489D01*
X149524633Y-155900100D01*
X149475367Y-155900100D01*
X149427049Y-155890489D01*
X149427047Y-155890488D01*
X149427046Y-155890488D01*
X149381531Y-155871635D01*
X149340572Y-155844267D01*
X149305733Y-155809428D01*
X149278365Y-155768469D01*
X149259512Y-155722954D01*
X149249900Y-155674631D01*
X149249900Y-155625369D01*
X149259512Y-155577046D01*
X149278365Y-155531531D01*
X149305733Y-155490572D01*
X149340572Y-155455733D01*
X149381531Y-155428365D01*
X149427046Y-155409512D01*
X149427047Y-155409512D01*
X149427049Y-155409511D01*
X149475367Y-155399900D01*
X149524633Y-155399900D01*
X149572951Y-155409511D01*
X149572951Y-155409511D01*
G37*
G36*
X116572951Y-155409511D02*
G01*
X116572953Y-155409512D01*
X116572954Y-155409512D01*
X116618469Y-155428365D01*
X116659428Y-155455733D01*
X116694267Y-155490572D01*
X116721635Y-155531531D01*
X116740488Y-155577046D01*
X116750100Y-155625369D01*
X116750100Y-155674631D01*
X116740488Y-155722954D01*
X116721635Y-155768469D01*
X116694267Y-155809428D01*
X116659428Y-155844267D01*
X116618469Y-155871635D01*
X116572954Y-155890488D01*
X116572953Y-155890488D01*
X116572951Y-155890489D01*
X116524633Y-155900100D01*
X116475367Y-155900100D01*
X116427049Y-155890489D01*
X116427047Y-155890488D01*
X116427046Y-155890488D01*
X116381531Y-155871635D01*
X116340572Y-155844267D01*
X116305733Y-155809428D01*
X116278365Y-155768469D01*
X116259512Y-155722954D01*
X116249900Y-155674631D01*
X116249900Y-155625369D01*
X116259512Y-155577046D01*
X116278365Y-155531531D01*
X116305733Y-155490572D01*
X116340572Y-155455733D01*
X116381531Y-155428365D01*
X116427046Y-155409512D01*
X116427047Y-155409512D01*
X116427049Y-155409511D01*
X116475367Y-155399900D01*
X116524633Y-155399900D01*
X116572951Y-155409511D01*
X116572951Y-155409511D01*
G37*
G36*
X147572951Y-155409511D02*
G01*
X147572953Y-155409512D01*
X147572954Y-155409512D01*
X147618469Y-155428365D01*
X147659428Y-155455733D01*
X147694267Y-155490572D01*
X147721635Y-155531531D01*
X147740488Y-155577046D01*
X147750100Y-155625369D01*
X147750100Y-155674631D01*
X147740488Y-155722954D01*
X147721635Y-155768469D01*
X147694267Y-155809428D01*
X147659428Y-155844267D01*
X147618469Y-155871635D01*
X147572954Y-155890488D01*
X147572953Y-155890488D01*
X147572951Y-155890489D01*
X147524633Y-155900100D01*
X147475367Y-155900100D01*
X147427049Y-155890489D01*
X147427047Y-155890488D01*
X147427046Y-155890488D01*
X147381531Y-155871635D01*
X147340572Y-155844267D01*
X147305733Y-155809428D01*
X147278365Y-155768469D01*
X147259512Y-155722954D01*
X147249900Y-155674631D01*
X147249900Y-155625369D01*
X147259512Y-155577046D01*
X147278365Y-155531531D01*
X147305733Y-155490572D01*
X147340572Y-155455733D01*
X147381531Y-155428365D01*
X147427046Y-155409512D01*
X147427047Y-155409512D01*
X147427049Y-155409511D01*
X147475367Y-155399900D01*
X147524633Y-155399900D01*
X147572951Y-155409511D01*
X147572951Y-155409511D01*
G37*
G36*
X146572951Y-155409511D02*
G01*
X146572953Y-155409512D01*
X146572954Y-155409512D01*
X146618469Y-155428365D01*
X146659428Y-155455733D01*
X146694267Y-155490572D01*
X146721635Y-155531531D01*
X146740488Y-155577046D01*
X146750100Y-155625369D01*
X146750100Y-155674631D01*
X146740488Y-155722954D01*
X146721635Y-155768469D01*
X146694267Y-155809428D01*
X146659428Y-155844267D01*
X146618469Y-155871635D01*
X146572954Y-155890488D01*
X146572953Y-155890488D01*
X146572951Y-155890489D01*
X146524633Y-155900100D01*
X146475367Y-155900100D01*
X146427049Y-155890489D01*
X146427047Y-155890488D01*
X146427046Y-155890488D01*
X146381531Y-155871635D01*
X146340572Y-155844267D01*
X146305733Y-155809428D01*
X146278365Y-155768469D01*
X146259512Y-155722954D01*
X146249900Y-155674631D01*
X146249900Y-155625369D01*
X146259512Y-155577046D01*
X146278365Y-155531531D01*
X146305733Y-155490572D01*
X146340572Y-155455733D01*
X146381531Y-155428365D01*
X146427046Y-155409512D01*
X146427047Y-155409512D01*
X146427049Y-155409511D01*
X146475367Y-155399900D01*
X146524633Y-155399900D01*
X146572951Y-155409511D01*
X146572951Y-155409511D01*
G37*
G36*
X119572951Y-155409511D02*
G01*
X119572953Y-155409512D01*
X119572954Y-155409512D01*
X119618469Y-155428365D01*
X119659428Y-155455733D01*
X119694267Y-155490572D01*
X119721635Y-155531531D01*
X119740488Y-155577046D01*
X119750100Y-155625369D01*
X119750100Y-155674631D01*
X119740488Y-155722954D01*
X119721635Y-155768469D01*
X119694267Y-155809428D01*
X119659428Y-155844267D01*
X119618469Y-155871635D01*
X119572954Y-155890488D01*
X119572953Y-155890488D01*
X119572951Y-155890489D01*
X119524633Y-155900100D01*
X119475367Y-155900100D01*
X119427049Y-155890489D01*
X119427047Y-155890488D01*
X119427046Y-155890488D01*
X119381531Y-155871635D01*
X119340572Y-155844267D01*
X119305733Y-155809428D01*
X119278365Y-155768469D01*
X119259512Y-155722954D01*
X119249900Y-155674631D01*
X119249900Y-155625369D01*
X119259512Y-155577046D01*
X119278365Y-155531531D01*
X119305733Y-155490572D01*
X119340572Y-155455733D01*
X119381531Y-155428365D01*
X119427046Y-155409512D01*
X119427047Y-155409512D01*
X119427049Y-155409511D01*
X119475367Y-155399900D01*
X119524633Y-155399900D01*
X119572951Y-155409511D01*
X119572951Y-155409511D01*
G37*
G36*
X118572951Y-155409511D02*
G01*
X118572953Y-155409512D01*
X118572954Y-155409512D01*
X118618469Y-155428365D01*
X118659428Y-155455733D01*
X118694267Y-155490572D01*
X118721635Y-155531531D01*
X118740488Y-155577046D01*
X118750100Y-155625369D01*
X118750100Y-155674631D01*
X118740488Y-155722954D01*
X118721635Y-155768469D01*
X118694267Y-155809428D01*
X118659428Y-155844267D01*
X118618469Y-155871635D01*
X118572954Y-155890488D01*
X118572953Y-155890488D01*
X118572951Y-155890489D01*
X118524633Y-155900100D01*
X118475367Y-155900100D01*
X118427049Y-155890489D01*
X118427047Y-155890488D01*
X118427046Y-155890488D01*
X118381531Y-155871635D01*
X118340572Y-155844267D01*
X118305733Y-155809428D01*
X118278365Y-155768469D01*
X118259512Y-155722954D01*
X118249900Y-155674631D01*
X118249900Y-155625369D01*
X118259512Y-155577046D01*
X118278365Y-155531531D01*
X118305733Y-155490572D01*
X118340572Y-155455733D01*
X118381531Y-155428365D01*
X118427046Y-155409512D01*
X118427047Y-155409512D01*
X118427049Y-155409511D01*
X118475367Y-155399900D01*
X118524633Y-155399900D01*
X118572951Y-155409511D01*
X118572951Y-155409511D01*
G37*
G36*
X117572951Y-155409511D02*
G01*
X117572953Y-155409512D01*
X117572954Y-155409512D01*
X117618469Y-155428365D01*
X117659428Y-155455733D01*
X117694267Y-155490572D01*
X117721635Y-155531531D01*
X117740488Y-155577046D01*
X117750100Y-155625369D01*
X117750100Y-155674631D01*
X117740488Y-155722954D01*
X117721635Y-155768469D01*
X117694267Y-155809428D01*
X117659428Y-155844267D01*
X117618469Y-155871635D01*
X117572954Y-155890488D01*
X117572953Y-155890488D01*
X117572951Y-155890489D01*
X117524633Y-155900100D01*
X117475367Y-155900100D01*
X117427049Y-155890489D01*
X117427047Y-155890488D01*
X117427046Y-155890488D01*
X117381531Y-155871635D01*
X117340572Y-155844267D01*
X117305733Y-155809428D01*
X117278365Y-155768469D01*
X117259512Y-155722954D01*
X117249900Y-155674631D01*
X117249900Y-155625369D01*
X117259512Y-155577046D01*
X117278365Y-155531531D01*
X117305733Y-155490572D01*
X117340572Y-155455733D01*
X117381531Y-155428365D01*
X117427046Y-155409512D01*
X117427047Y-155409512D01*
X117427049Y-155409511D01*
X117475367Y-155399900D01*
X117524633Y-155399900D01*
X117572951Y-155409511D01*
X117572951Y-155409511D01*
G37*
G36*
X148572951Y-155409511D02*
G01*
X148572953Y-155409512D01*
X148572954Y-155409512D01*
X148618469Y-155428365D01*
X148659428Y-155455733D01*
X148694267Y-155490572D01*
X148721635Y-155531531D01*
X148740488Y-155577046D01*
X148750100Y-155625369D01*
X148750100Y-155674631D01*
X148740488Y-155722954D01*
X148721635Y-155768469D01*
X148694267Y-155809428D01*
X148659428Y-155844267D01*
X148618469Y-155871635D01*
X148572954Y-155890488D01*
X148572953Y-155890488D01*
X148572951Y-155890489D01*
X148524633Y-155900100D01*
X148475367Y-155900100D01*
X148427049Y-155890489D01*
X148427047Y-155890488D01*
X148427046Y-155890488D01*
X148381531Y-155871635D01*
X148340572Y-155844267D01*
X148305733Y-155809428D01*
X148278365Y-155768469D01*
X148259512Y-155722954D01*
X148249900Y-155674631D01*
X148249900Y-155625369D01*
X148259512Y-155577046D01*
X148278365Y-155531531D01*
X148305733Y-155490572D01*
X148340572Y-155455733D01*
X148381531Y-155428365D01*
X148427046Y-155409512D01*
X148427047Y-155409512D01*
X148427049Y-155409511D01*
X148475367Y-155399900D01*
X148524633Y-155399900D01*
X148572951Y-155409511D01*
X148572951Y-155409511D01*
G37*
G36*
X133572951Y-155409511D02*
G01*
X133572953Y-155409512D01*
X133572954Y-155409512D01*
X133618469Y-155428365D01*
X133659428Y-155455733D01*
X133694267Y-155490572D01*
X133721635Y-155531531D01*
X133740488Y-155577046D01*
X133750100Y-155625369D01*
X133750100Y-155674631D01*
X133740488Y-155722954D01*
X133721635Y-155768469D01*
X133694267Y-155809428D01*
X133659428Y-155844267D01*
X133618469Y-155871635D01*
X133572954Y-155890488D01*
X133572953Y-155890488D01*
X133572951Y-155890489D01*
X133524633Y-155900100D01*
X133475367Y-155900100D01*
X133427049Y-155890489D01*
X133427047Y-155890488D01*
X133427046Y-155890488D01*
X133381531Y-155871635D01*
X133340572Y-155844267D01*
X133305733Y-155809428D01*
X133278365Y-155768469D01*
X133259512Y-155722954D01*
X133249900Y-155674631D01*
X133249900Y-155625369D01*
X133259512Y-155577046D01*
X133278365Y-155531531D01*
X133305733Y-155490572D01*
X133340572Y-155455733D01*
X133381531Y-155428365D01*
X133427046Y-155409512D01*
X133427047Y-155409512D01*
X133427049Y-155409511D01*
X133475367Y-155399900D01*
X133524633Y-155399900D01*
X133572951Y-155409511D01*
X133572951Y-155409511D01*
G37*
G36*
X134572951Y-155409511D02*
G01*
X134572953Y-155409512D01*
X134572954Y-155409512D01*
X134618469Y-155428365D01*
X134659428Y-155455733D01*
X134694267Y-155490572D01*
X134721635Y-155531531D01*
X134740488Y-155577046D01*
X134750100Y-155625369D01*
X134750100Y-155674631D01*
X134740488Y-155722954D01*
X134721635Y-155768469D01*
X134694267Y-155809428D01*
X134659428Y-155844267D01*
X134618469Y-155871635D01*
X134572954Y-155890488D01*
X134572953Y-155890488D01*
X134572951Y-155890489D01*
X134524633Y-155900100D01*
X134475367Y-155900100D01*
X134427049Y-155890489D01*
X134427047Y-155890488D01*
X134427046Y-155890488D01*
X134381531Y-155871635D01*
X134340572Y-155844267D01*
X134305733Y-155809428D01*
X134278365Y-155768469D01*
X134259512Y-155722954D01*
X134249900Y-155674631D01*
X134249900Y-155625369D01*
X134259512Y-155577046D01*
X134278365Y-155531531D01*
X134305733Y-155490572D01*
X134340572Y-155455733D01*
X134381531Y-155428365D01*
X134427046Y-155409512D01*
X134427047Y-155409512D01*
X134427049Y-155409511D01*
X134475367Y-155399900D01*
X134524633Y-155399900D01*
X134572951Y-155409511D01*
X134572951Y-155409511D01*
G37*
G36*
X115572951Y-155409511D02*
G01*
X115572953Y-155409512D01*
X115572954Y-155409512D01*
X115618469Y-155428365D01*
X115659428Y-155455733D01*
X115694267Y-155490572D01*
X115721635Y-155531531D01*
X115740488Y-155577046D01*
X115750100Y-155625369D01*
X115750100Y-155674631D01*
X115740488Y-155722954D01*
X115721635Y-155768469D01*
X115694267Y-155809428D01*
X115659428Y-155844267D01*
X115618469Y-155871635D01*
X115572954Y-155890488D01*
X115572953Y-155890488D01*
X115572951Y-155890489D01*
X115524633Y-155900100D01*
X115475367Y-155900100D01*
X115427049Y-155890489D01*
X115427047Y-155890488D01*
X115427046Y-155890488D01*
X115381531Y-155871635D01*
X115340572Y-155844267D01*
X115305733Y-155809428D01*
X115278365Y-155768469D01*
X115259512Y-155722954D01*
X115249900Y-155674631D01*
X115249900Y-155625369D01*
X115259512Y-155577046D01*
X115278365Y-155531531D01*
X115305733Y-155490572D01*
X115340572Y-155455733D01*
X115381531Y-155428365D01*
X115427046Y-155409512D01*
X115427047Y-155409512D01*
X115427049Y-155409511D01*
X115475367Y-155399900D01*
X115524633Y-155399900D01*
X115572951Y-155409511D01*
X115572951Y-155409511D01*
G37*
G36*
X130572951Y-155409511D02*
G01*
X130572953Y-155409512D01*
X130572954Y-155409512D01*
X130618469Y-155428365D01*
X130659428Y-155455733D01*
X130694267Y-155490572D01*
X130721635Y-155531531D01*
X130740488Y-155577046D01*
X130750100Y-155625369D01*
X130750100Y-155674631D01*
X130740488Y-155722954D01*
X130721635Y-155768469D01*
X130694267Y-155809428D01*
X130659428Y-155844267D01*
X130618469Y-155871635D01*
X130572954Y-155890488D01*
X130572953Y-155890488D01*
X130572951Y-155890489D01*
X130524633Y-155900100D01*
X130475367Y-155900100D01*
X130427049Y-155890489D01*
X130427047Y-155890488D01*
X130427046Y-155890488D01*
X130381531Y-155871635D01*
X130340572Y-155844267D01*
X130305733Y-155809428D01*
X130278365Y-155768469D01*
X130259512Y-155722954D01*
X130249900Y-155674631D01*
X130249900Y-155625369D01*
X130259512Y-155577046D01*
X130278365Y-155531531D01*
X130305733Y-155490572D01*
X130340572Y-155455733D01*
X130381531Y-155428365D01*
X130427046Y-155409512D01*
X130427047Y-155409512D01*
X130427049Y-155409511D01*
X130475367Y-155399900D01*
X130524633Y-155399900D01*
X130572951Y-155409511D01*
X130572951Y-155409511D01*
G37*
G36*
X131572951Y-155409511D02*
G01*
X131572953Y-155409512D01*
X131572954Y-155409512D01*
X131618469Y-155428365D01*
X131659428Y-155455733D01*
X131694267Y-155490572D01*
X131721635Y-155531531D01*
X131740488Y-155577046D01*
X131750100Y-155625369D01*
X131750100Y-155674631D01*
X131740488Y-155722954D01*
X131721635Y-155768469D01*
X131694267Y-155809428D01*
X131659428Y-155844267D01*
X131618469Y-155871635D01*
X131572954Y-155890488D01*
X131572953Y-155890488D01*
X131572951Y-155890489D01*
X131524633Y-155900100D01*
X131475367Y-155900100D01*
X131427049Y-155890489D01*
X131427047Y-155890488D01*
X131427046Y-155890488D01*
X131381531Y-155871635D01*
X131340572Y-155844267D01*
X131305733Y-155809428D01*
X131278365Y-155768469D01*
X131259512Y-155722954D01*
X131249900Y-155674631D01*
X131249900Y-155625369D01*
X131259512Y-155577046D01*
X131278365Y-155531531D01*
X131305733Y-155490572D01*
X131340572Y-155455733D01*
X131381531Y-155428365D01*
X131427046Y-155409512D01*
X131427047Y-155409512D01*
X131427049Y-155409511D01*
X131475367Y-155399900D01*
X131524633Y-155399900D01*
X131572951Y-155409511D01*
X131572951Y-155409511D01*
G37*
G36*
X132572951Y-155409511D02*
G01*
X132572953Y-155409512D01*
X132572954Y-155409512D01*
X132618469Y-155428365D01*
X132659428Y-155455733D01*
X132694267Y-155490572D01*
X132721635Y-155531531D01*
X132740488Y-155577046D01*
X132750100Y-155625369D01*
X132750100Y-155674631D01*
X132740488Y-155722954D01*
X132721635Y-155768469D01*
X132694267Y-155809428D01*
X132659428Y-155844267D01*
X132618469Y-155871635D01*
X132572954Y-155890488D01*
X132572953Y-155890488D01*
X132572951Y-155890489D01*
X132524633Y-155900100D01*
X132475367Y-155900100D01*
X132427049Y-155890489D01*
X132427047Y-155890488D01*
X132427046Y-155890488D01*
X132381531Y-155871635D01*
X132340572Y-155844267D01*
X132305733Y-155809428D01*
X132278365Y-155768469D01*
X132259512Y-155722954D01*
X132249900Y-155674631D01*
X132249900Y-155625369D01*
X132259512Y-155577046D01*
X132278365Y-155531531D01*
X132305733Y-155490572D01*
X132340572Y-155455733D01*
X132381531Y-155428365D01*
X132427046Y-155409512D01*
X132427047Y-155409512D01*
X132427049Y-155409511D01*
X132475367Y-155399900D01*
X132524633Y-155399900D01*
X132572951Y-155409511D01*
X132572951Y-155409511D01*
G37*
G36*
X145572951Y-155409511D02*
G01*
X145572953Y-155409512D01*
X145572954Y-155409512D01*
X145618469Y-155428365D01*
X145659428Y-155455733D01*
X145694267Y-155490572D01*
X145721635Y-155531531D01*
X145740488Y-155577046D01*
X145750100Y-155625369D01*
X145750100Y-155674631D01*
X145740488Y-155722954D01*
X145721635Y-155768469D01*
X145694267Y-155809428D01*
X145659428Y-155844267D01*
X145618469Y-155871635D01*
X145572954Y-155890488D01*
X145572953Y-155890488D01*
X145572951Y-155890489D01*
X145524633Y-155900100D01*
X145475367Y-155900100D01*
X145427049Y-155890489D01*
X145427047Y-155890488D01*
X145427046Y-155890488D01*
X145381531Y-155871635D01*
X145340572Y-155844267D01*
X145305733Y-155809428D01*
X145278365Y-155768469D01*
X145259512Y-155722954D01*
X145249900Y-155674631D01*
X145249900Y-155625369D01*
X145259512Y-155577046D01*
X145278365Y-155531531D01*
X145305733Y-155490572D01*
X145340572Y-155455733D01*
X145381531Y-155428365D01*
X145427046Y-155409512D01*
X145427047Y-155409512D01*
X145427049Y-155409511D01*
X145475367Y-155399900D01*
X145524633Y-155399900D01*
X145572951Y-155409511D01*
X145572951Y-155409511D01*
G37*
G36*
X143145874Y-153269118D02*
G01*
X143145877Y-153269119D01*
X143145876Y-153269119D01*
X143236888Y-153306818D01*
X143318794Y-153361545D01*
X143388455Y-153431206D01*
X143443182Y-153513112D01*
X143443183Y-153513114D01*
X143480882Y-153604126D01*
X143500100Y-153700744D01*
X143500100Y-153799256D01*
X143480882Y-153895874D01*
X143480881Y-153895876D01*
X143443182Y-153986888D01*
X143388455Y-154068794D01*
X143318794Y-154138455D01*
X143236888Y-154193182D01*
X143236887Y-154193183D01*
X143236886Y-154193183D01*
X143145874Y-154230882D01*
X143049256Y-154250100D01*
X142950744Y-154250100D01*
X142854126Y-154230882D01*
X142763114Y-154193183D01*
X142763113Y-154193183D01*
X142763112Y-154193182D01*
X142681206Y-154138455D01*
X142611545Y-154068794D01*
X142556818Y-153986888D01*
X142519119Y-153895876D01*
X142519118Y-153895874D01*
X142499900Y-153799256D01*
X142499900Y-153700744D01*
X142519118Y-153604126D01*
X142556817Y-153513114D01*
X142556818Y-153513112D01*
X142611545Y-153431206D01*
X142681206Y-153361545D01*
X142763112Y-153306818D01*
X142854124Y-153269119D01*
X142854123Y-153269119D01*
X142854126Y-153269118D01*
X142950744Y-153249900D01*
X143049256Y-153249900D01*
X143145874Y-153269118D01*
X143145874Y-153269118D01*
G37*
G36*
X128145874Y-153269118D02*
G01*
X128145877Y-153269119D01*
X128145876Y-153269119D01*
X128236888Y-153306818D01*
X128318794Y-153361545D01*
X128388455Y-153431206D01*
X128443182Y-153513112D01*
X128443183Y-153513114D01*
X128480882Y-153604126D01*
X128500100Y-153700744D01*
X128500100Y-153799256D01*
X128480882Y-153895874D01*
X128480881Y-153895876D01*
X128443182Y-153986888D01*
X128388455Y-154068794D01*
X128318794Y-154138455D01*
X128236888Y-154193182D01*
X128236887Y-154193183D01*
X128236886Y-154193183D01*
X128145874Y-154230882D01*
X128049256Y-154250100D01*
X127950744Y-154250100D01*
X127854126Y-154230882D01*
X127763114Y-154193183D01*
X127763113Y-154193183D01*
X127763112Y-154193182D01*
X127681206Y-154138455D01*
X127611545Y-154068794D01*
X127556818Y-153986888D01*
X127519119Y-153895876D01*
X127519118Y-153895874D01*
X127499900Y-153799256D01*
X127499900Y-153700744D01*
X127519118Y-153604126D01*
X127556817Y-153513114D01*
X127556818Y-153513112D01*
X127611545Y-153431206D01*
X127681206Y-153361545D01*
X127763112Y-153306818D01*
X127854124Y-153269119D01*
X127854123Y-153269119D01*
X127854126Y-153269118D01*
X127950744Y-153249900D01*
X128049256Y-153249900D01*
X128145874Y-153269118D01*
X128145874Y-153269118D01*
G37*
G36*
X152145874Y-153269118D02*
G01*
X152145877Y-153269119D01*
X152145876Y-153269119D01*
X152236888Y-153306818D01*
X152318794Y-153361545D01*
X152388455Y-153431206D01*
X152443182Y-153513112D01*
X152443183Y-153513114D01*
X152480882Y-153604126D01*
X152500100Y-153700744D01*
X152500100Y-153799256D01*
X152480882Y-153895874D01*
X152480881Y-153895876D01*
X152443182Y-153986888D01*
X152388455Y-154068794D01*
X152318794Y-154138455D01*
X152236888Y-154193182D01*
X152236887Y-154193183D01*
X152236886Y-154193183D01*
X152145874Y-154230882D01*
X152049256Y-154250100D01*
X151950744Y-154250100D01*
X151854126Y-154230882D01*
X151763114Y-154193183D01*
X151763113Y-154193183D01*
X151763112Y-154193182D01*
X151681206Y-154138455D01*
X151611545Y-154068794D01*
X151556818Y-153986888D01*
X151519119Y-153895876D01*
X151519118Y-153895874D01*
X151499900Y-153799256D01*
X151499900Y-153700744D01*
X151519118Y-153604126D01*
X151556817Y-153513114D01*
X151556818Y-153513112D01*
X151611545Y-153431206D01*
X151681206Y-153361545D01*
X151763112Y-153306818D01*
X151854124Y-153269119D01*
X151854123Y-153269119D01*
X151854126Y-153269118D01*
X151950744Y-153249900D01*
X152049256Y-153249900D01*
X152145874Y-153269118D01*
X152145874Y-153269118D01*
G37*
G36*
X122145874Y-153269118D02*
G01*
X122145877Y-153269119D01*
X122145876Y-153269119D01*
X122236888Y-153306818D01*
X122318794Y-153361545D01*
X122388455Y-153431206D01*
X122443182Y-153513112D01*
X122443183Y-153513114D01*
X122480882Y-153604126D01*
X122500100Y-153700744D01*
X122500100Y-153799256D01*
X122480882Y-153895874D01*
X122480881Y-153895876D01*
X122443182Y-153986888D01*
X122388455Y-154068794D01*
X122318794Y-154138455D01*
X122236888Y-154193182D01*
X122236887Y-154193183D01*
X122236886Y-154193183D01*
X122145874Y-154230882D01*
X122049256Y-154250100D01*
X121950744Y-154250100D01*
X121854126Y-154230882D01*
X121763114Y-154193183D01*
X121763113Y-154193183D01*
X121763112Y-154193182D01*
X121681206Y-154138455D01*
X121611545Y-154068794D01*
X121556818Y-153986888D01*
X121519119Y-153895876D01*
X121519118Y-153895874D01*
X121499900Y-153799256D01*
X121499900Y-153700744D01*
X121519118Y-153604126D01*
X121556817Y-153513114D01*
X121556818Y-153513112D01*
X121611545Y-153431206D01*
X121681206Y-153361545D01*
X121763112Y-153306818D01*
X121854124Y-153269119D01*
X121854123Y-153269119D01*
X121854126Y-153269118D01*
X121950744Y-153249900D01*
X122049256Y-153249900D01*
X122145874Y-153269118D01*
X122145874Y-153269118D01*
G37*
G36*
X113145874Y-153269118D02*
G01*
X113145877Y-153269119D01*
X113145876Y-153269119D01*
X113236888Y-153306818D01*
X113318794Y-153361545D01*
X113388455Y-153431206D01*
X113443182Y-153513112D01*
X113443183Y-153513114D01*
X113480882Y-153604126D01*
X113500100Y-153700744D01*
X113500100Y-153799256D01*
X113480882Y-153895874D01*
X113480881Y-153895876D01*
X113443182Y-153986888D01*
X113388455Y-154068794D01*
X113318794Y-154138455D01*
X113236888Y-154193182D01*
X113236887Y-154193183D01*
X113236886Y-154193183D01*
X113145874Y-154230882D01*
X113049256Y-154250100D01*
X112950744Y-154250100D01*
X112854126Y-154230882D01*
X112763114Y-154193183D01*
X112763113Y-154193183D01*
X112763112Y-154193182D01*
X112681206Y-154138455D01*
X112611545Y-154068794D01*
X112556818Y-153986888D01*
X112519119Y-153895876D01*
X112519118Y-153895874D01*
X112499900Y-153799256D01*
X112499900Y-153700744D01*
X112519118Y-153604126D01*
X112556817Y-153513114D01*
X112556818Y-153513112D01*
X112611545Y-153431206D01*
X112681206Y-153361545D01*
X112763112Y-153306818D01*
X112854124Y-153269119D01*
X112854123Y-153269119D01*
X112854126Y-153269118D01*
X112950744Y-153249900D01*
X113049256Y-153249900D01*
X113145874Y-153269118D01*
X113145874Y-153269118D01*
G37*
G36*
X137145874Y-153269118D02*
G01*
X137145877Y-153269119D01*
X137145876Y-153269119D01*
X137236888Y-153306818D01*
X137318794Y-153361545D01*
X137388455Y-153431206D01*
X137443182Y-153513112D01*
X137443183Y-153513114D01*
X137480882Y-153604126D01*
X137500100Y-153700744D01*
X137500100Y-153799256D01*
X137480882Y-153895874D01*
X137480881Y-153895876D01*
X137443182Y-153986888D01*
X137388455Y-154068794D01*
X137318794Y-154138455D01*
X137236888Y-154193182D01*
X137236887Y-154193183D01*
X137236886Y-154193183D01*
X137145874Y-154230882D01*
X137049256Y-154250100D01*
X136950744Y-154250100D01*
X136854126Y-154230882D01*
X136763114Y-154193183D01*
X136763113Y-154193183D01*
X136763112Y-154193182D01*
X136681206Y-154138455D01*
X136611545Y-154068794D01*
X136556818Y-153986888D01*
X136519119Y-153895876D01*
X136519118Y-153895874D01*
X136499900Y-153799256D01*
X136499900Y-153700744D01*
X136519118Y-153604126D01*
X136556817Y-153513114D01*
X136556818Y-153513112D01*
X136611545Y-153431206D01*
X136681206Y-153361545D01*
X136763112Y-153306818D01*
X136854124Y-153269119D01*
X136854123Y-153269119D01*
X136854126Y-153269118D01*
X136950744Y-153249900D01*
X137049256Y-153249900D01*
X137145874Y-153269118D01*
X137145874Y-153269118D01*
G37*
G36*
X149999997Y-150799032D02*
G01*
X150000000Y-150799032D01*
X150029259Y-150801914D01*
X150039208Y-150802894D01*
X150055624Y-150807874D01*
X150076907Y-150814330D01*
X150111652Y-150832901D01*
X150142106Y-150857894D01*
X150167099Y-150888348D01*
X150185670Y-150923093D01*
X150197106Y-150960793D01*
X150200777Y-150998058D01*
X150201452Y-151004917D01*
X150201452Y-152495083D01*
X150200968Y-152499997D01*
X150200968Y-152500000D01*
X150197106Y-152539207D01*
X150185670Y-152576907D01*
X150167099Y-152611652D01*
X150142106Y-152642106D01*
X150111652Y-152667099D01*
X150076907Y-152685670D01*
X150055624Y-152692126D01*
X150039208Y-152697106D01*
X150029259Y-152698086D01*
X150000000Y-152700968D01*
X149999997Y-152700968D01*
X149995083Y-152701452D01*
X149004917Y-152701452D01*
X149000003Y-152700968D01*
X149000000Y-152700968D01*
X148970741Y-152698086D01*
X148960792Y-152697106D01*
X148944376Y-152692126D01*
X148923093Y-152685670D01*
X148888348Y-152667099D01*
X148857894Y-152642106D01*
X148832785Y-152611477D01*
X148832756Y-152611434D01*
X148829642Y-152607635D01*
X148787571Y-152544529D01*
X148775151Y-152529363D01*
X148760010Y-152516911D01*
X148742731Y-152507652D01*
X148723978Y-152501942D01*
X148704367Y-152500000D01*
X147950000Y-152500000D01*
X147950000Y-151000000D01*
X148704367Y-151000000D01*
X148723876Y-150998079D01*
X148742635Y-150992388D01*
X148759923Y-150983147D01*
X148775077Y-150970711D01*
X148787571Y-150955471D01*
X148829659Y-150892339D01*
X148857745Y-150858042D01*
X148888173Y-150833018D01*
X148922898Y-150814410D01*
X148960563Y-150802942D01*
X148960564Y-150802942D01*
X148960587Y-150802935D01*
X149000000Y-150799032D01*
X149000048Y-150799032D01*
X149004936Y-150798548D01*
X149995083Y-150798548D01*
X149999997Y-150799032D01*
X149999997Y-150799032D01*
G37*
G36*
X145999997Y-150799032D02*
G01*
X146000000Y-150799032D01*
X146029259Y-150801914D01*
X146039208Y-150802894D01*
X146055624Y-150807874D01*
X146076907Y-150814330D01*
X146111652Y-150832901D01*
X146142106Y-150857894D01*
X146167215Y-150888523D01*
X146167244Y-150888566D01*
X146170358Y-150892365D01*
X146212429Y-150955471D01*
X146224849Y-150970637D01*
X146239990Y-150983089D01*
X146257269Y-150992348D01*
X146276022Y-150998058D01*
X146295633Y-151000000D01*
X147050000Y-151000000D01*
X147050000Y-152500000D01*
X146295633Y-152500000D01*
X146276124Y-152501921D01*
X146257365Y-152507612D01*
X146240077Y-152516853D01*
X146224923Y-152529289D01*
X146212429Y-152544529D01*
X146170341Y-152607661D01*
X146142255Y-152641958D01*
X146111827Y-152666982D01*
X146077102Y-152685590D01*
X146039437Y-152697058D01*
X146039436Y-152697058D01*
X146039413Y-152697065D01*
X146000000Y-152700968D01*
X145999952Y-152700968D01*
X145995064Y-152701452D01*
X145004917Y-152701452D01*
X145000003Y-152700968D01*
X145000000Y-152700968D01*
X144970741Y-152698086D01*
X144960792Y-152697106D01*
X144944376Y-152692126D01*
X144923093Y-152685670D01*
X144888348Y-152667099D01*
X144857894Y-152642106D01*
X144832901Y-152611652D01*
X144814330Y-152576907D01*
X144802894Y-152539207D01*
X144799032Y-152500000D01*
X144799032Y-152499997D01*
X144798548Y-152495083D01*
X144798548Y-151004917D01*
X144799224Y-150998058D01*
X144802894Y-150960793D01*
X144814330Y-150923093D01*
X144832901Y-150888348D01*
X144857894Y-150857894D01*
X144888348Y-150832901D01*
X144923093Y-150814330D01*
X144944376Y-150807874D01*
X144960792Y-150802894D01*
X144970741Y-150801914D01*
X145000000Y-150799032D01*
X145000003Y-150799032D01*
X145004917Y-150798548D01*
X145995083Y-150798548D01*
X145999997Y-150799032D01*
X145999997Y-150799032D01*
G37*
G36*
X149999997Y-147399032D02*
G01*
X150000000Y-147399032D01*
X150029259Y-147401914D01*
X150039208Y-147402894D01*
X150055624Y-147407874D01*
X150076907Y-147414330D01*
X150111652Y-147432901D01*
X150142106Y-147457894D01*
X150167099Y-147488348D01*
X150185670Y-147523093D01*
X150197106Y-147560793D01*
X150200777Y-147598058D01*
X150201452Y-147604917D01*
X150201452Y-149095083D01*
X150200968Y-149099997D01*
X150200968Y-149100000D01*
X150197106Y-149139207D01*
X150185670Y-149176907D01*
X150167099Y-149211652D01*
X150142106Y-149242106D01*
X150111652Y-149267099D01*
X150076907Y-149285670D01*
X150055624Y-149292126D01*
X150039208Y-149297106D01*
X150029259Y-149298086D01*
X150000000Y-149300968D01*
X149999997Y-149300968D01*
X149995083Y-149301452D01*
X149004917Y-149301452D01*
X149000003Y-149300968D01*
X149000000Y-149300968D01*
X148970741Y-149298086D01*
X148960792Y-149297106D01*
X148944376Y-149292126D01*
X148923093Y-149285670D01*
X148888348Y-149267099D01*
X148857894Y-149242106D01*
X148832785Y-149211477D01*
X148832756Y-149211434D01*
X148829642Y-149207635D01*
X148787571Y-149144529D01*
X148775151Y-149129363D01*
X148760010Y-149116911D01*
X148742731Y-149107652D01*
X148723978Y-149101942D01*
X148704367Y-149100000D01*
X147950000Y-149100000D01*
X147950000Y-147600000D01*
X148704367Y-147600000D01*
X148723876Y-147598079D01*
X148742635Y-147592388D01*
X148759923Y-147583147D01*
X148775077Y-147570711D01*
X148787571Y-147555471D01*
X148829659Y-147492339D01*
X148857745Y-147458042D01*
X148888173Y-147433018D01*
X148922898Y-147414410D01*
X148960563Y-147402942D01*
X148960564Y-147402942D01*
X148960587Y-147402935D01*
X149000000Y-147399032D01*
X149000048Y-147399032D01*
X149004936Y-147398548D01*
X149995083Y-147398548D01*
X149999997Y-147399032D01*
X149999997Y-147399032D01*
G37*
G36*
X145999997Y-147399032D02*
G01*
X146000000Y-147399032D01*
X146029259Y-147401914D01*
X146039208Y-147402894D01*
X146055624Y-147407874D01*
X146076907Y-147414330D01*
X146111652Y-147432901D01*
X146142106Y-147457894D01*
X146167215Y-147488523D01*
X146167244Y-147488566D01*
X146170358Y-147492365D01*
X146212429Y-147555471D01*
X146224849Y-147570637D01*
X146239990Y-147583089D01*
X146257269Y-147592348D01*
X146276022Y-147598058D01*
X146295633Y-147600000D01*
X147050000Y-147600000D01*
X147050000Y-149100000D01*
X146295633Y-149100000D01*
X146276124Y-149101921D01*
X146257365Y-149107612D01*
X146240077Y-149116853D01*
X146224923Y-149129289D01*
X146212429Y-149144529D01*
X146170341Y-149207661D01*
X146142255Y-149241958D01*
X146111827Y-149266982D01*
X146077102Y-149285590D01*
X146039437Y-149297058D01*
X146039436Y-149297058D01*
X146039413Y-149297065D01*
X146000000Y-149300968D01*
X145999952Y-149300968D01*
X145995064Y-149301452D01*
X145004917Y-149301452D01*
X145000003Y-149300968D01*
X145000000Y-149300968D01*
X144970741Y-149298086D01*
X144960792Y-149297106D01*
X144944376Y-149292126D01*
X144923093Y-149285670D01*
X144888348Y-149267099D01*
X144857894Y-149242106D01*
X144832901Y-149211652D01*
X144814330Y-149176907D01*
X144802894Y-149139207D01*
X144799032Y-149100000D01*
X144799032Y-149099997D01*
X144798548Y-149095083D01*
X144798548Y-147604917D01*
X144799224Y-147598058D01*
X144802894Y-147560793D01*
X144814330Y-147523093D01*
X144832901Y-147488348D01*
X144857894Y-147457894D01*
X144888348Y-147432901D01*
X144923093Y-147414330D01*
X144944376Y-147407874D01*
X144960792Y-147402894D01*
X144970741Y-147401914D01*
X145000000Y-147399032D01*
X145000003Y-147399032D01*
X145004917Y-147398548D01*
X145995083Y-147398548D01*
X145999997Y-147399032D01*
X145999997Y-147399032D01*
G37*
G36*
X113857272Y-141461395D02*
G01*
X113895836Y-141465193D01*
X114027787Y-141505220D01*
X114093763Y-141525233D01*
X114276169Y-141622731D01*
X114436054Y-141753946D01*
X114567269Y-141913831D01*
X114664767Y-142096237D01*
X114664767Y-142096238D01*
X114724807Y-142294164D01*
X114724807Y-142294166D01*
X114745081Y-142500000D01*
X114728143Y-142671961D01*
X114724807Y-142705836D01*
X114684780Y-142837787D01*
X114664767Y-142903763D01*
X114567269Y-143086169D01*
X114436054Y-143246054D01*
X114276169Y-143377269D01*
X114093763Y-143474767D01*
X114027787Y-143494780D01*
X113895836Y-143534807D01*
X113857272Y-143538605D01*
X113741584Y-143550000D01*
X113638416Y-143550000D01*
X113522728Y-143538605D01*
X113484164Y-143534807D01*
X113352213Y-143494780D01*
X113286237Y-143474767D01*
X113103831Y-143377269D01*
X112943946Y-143246054D01*
X112812731Y-143086169D01*
X112715233Y-142903763D01*
X112695220Y-142837787D01*
X112655193Y-142705836D01*
X112651857Y-142671961D01*
X112634919Y-142500000D01*
X112655193Y-142294166D01*
X112655193Y-142294164D01*
X112715233Y-142096238D01*
X112715233Y-142096237D01*
X112812731Y-141913831D01*
X112943946Y-141753946D01*
X113103831Y-141622731D01*
X113286237Y-141525233D01*
X113352213Y-141505220D01*
X113484164Y-141465193D01*
X113522728Y-141461395D01*
X113638416Y-141450000D01*
X113741584Y-141450000D01*
X113857272Y-141461395D01*
X113857272Y-141461395D01*
G37*
G36*
X116397272Y-141461395D02*
G01*
X116435836Y-141465193D01*
X116567787Y-141505220D01*
X116633763Y-141525233D01*
X116816169Y-141622731D01*
X116976054Y-141753946D01*
X117107269Y-141913831D01*
X117204767Y-142096237D01*
X117204767Y-142096238D01*
X117264807Y-142294164D01*
X117264807Y-142294166D01*
X117285081Y-142500000D01*
X117268143Y-142671961D01*
X117264807Y-142705836D01*
X117224780Y-142837787D01*
X117204767Y-142903763D01*
X117107269Y-143086169D01*
X116976054Y-143246054D01*
X116816169Y-143377269D01*
X116633763Y-143474767D01*
X116567787Y-143494780D01*
X116435836Y-143534807D01*
X116397272Y-143538605D01*
X116281584Y-143550000D01*
X116178416Y-143550000D01*
X116062728Y-143538605D01*
X116024164Y-143534807D01*
X115892213Y-143494780D01*
X115826237Y-143474767D01*
X115643831Y-143377269D01*
X115483946Y-143246054D01*
X115352731Y-143086169D01*
X115255233Y-142903763D01*
X115235220Y-142837787D01*
X115195193Y-142705836D01*
X115191857Y-142671961D01*
X115174919Y-142500000D01*
X115195193Y-142294166D01*
X115195193Y-142294164D01*
X115255233Y-142096238D01*
X115255233Y-142096237D01*
X115352731Y-141913831D01*
X115483946Y-141753946D01*
X115643831Y-141622731D01*
X115826237Y-141525233D01*
X115892213Y-141505220D01*
X116024164Y-141465193D01*
X116062728Y-141461395D01*
X116178416Y-141450000D01*
X116281584Y-141450000D01*
X116397272Y-141461395D01*
X116397272Y-141461395D01*
G37*
G36*
X122360000Y-143550000D02*
G01*
X120260000Y-143550000D01*
X120260000Y-141450000D01*
X122360000Y-141450000D01*
X122360000Y-143550000D01*
X122360000Y-143550000D01*
G37*
G36*
X118937272Y-141461395D02*
G01*
X118975836Y-141465193D01*
X119107787Y-141505220D01*
X119173763Y-141525233D01*
X119356169Y-141622731D01*
X119516054Y-141753946D01*
X119647269Y-141913831D01*
X119744767Y-142096237D01*
X119744767Y-142096238D01*
X119804807Y-142294164D01*
X119804807Y-142294166D01*
X119825081Y-142500000D01*
X119808143Y-142671961D01*
X119804807Y-142705836D01*
X119764780Y-142837787D01*
X119744767Y-142903763D01*
X119647269Y-143086169D01*
X119516054Y-143246054D01*
X119356169Y-143377269D01*
X119173763Y-143474767D01*
X119107787Y-143494780D01*
X118975836Y-143534807D01*
X118937272Y-143538605D01*
X118821584Y-143550000D01*
X118718416Y-143550000D01*
X118602728Y-143538605D01*
X118564164Y-143534807D01*
X118432213Y-143494780D01*
X118366237Y-143474767D01*
X118183831Y-143377269D01*
X118023946Y-143246054D01*
X117892731Y-143086169D01*
X117795233Y-142903763D01*
X117775220Y-142837787D01*
X117735193Y-142705836D01*
X117731857Y-142671961D01*
X117714919Y-142500000D01*
X117735193Y-142294166D01*
X117735193Y-142294164D01*
X117795233Y-142096238D01*
X117795233Y-142096237D01*
X117892731Y-141913831D01*
X118023946Y-141753946D01*
X118183831Y-141622731D01*
X118366237Y-141525233D01*
X118432213Y-141505220D01*
X118564164Y-141465193D01*
X118602728Y-141461395D01*
X118718416Y-141450000D01*
X118821584Y-141450000D01*
X118937272Y-141461395D01*
X118937272Y-141461395D01*
G37*
G36*
X152360000Y-143550000D02*
G01*
X150260000Y-143550000D01*
X150260000Y-141450000D01*
X152360000Y-141450000D01*
X152360000Y-143550000D01*
X152360000Y-143550000D01*
G37*
G36*
X128857272Y-141461395D02*
G01*
X128895836Y-141465193D01*
X129027787Y-141505220D01*
X129093763Y-141525233D01*
X129276169Y-141622731D01*
X129436054Y-141753946D01*
X129567269Y-141913831D01*
X129664767Y-142096237D01*
X129664767Y-142096238D01*
X129724807Y-142294164D01*
X129724807Y-142294166D01*
X129745081Y-142500000D01*
X129728143Y-142671961D01*
X129724807Y-142705836D01*
X129684780Y-142837787D01*
X129664767Y-142903763D01*
X129567269Y-143086169D01*
X129436054Y-143246054D01*
X129276169Y-143377269D01*
X129093763Y-143474767D01*
X129027787Y-143494780D01*
X128895836Y-143534807D01*
X128857272Y-143538605D01*
X128741584Y-143550000D01*
X128638416Y-143550000D01*
X128522728Y-143538605D01*
X128484164Y-143534807D01*
X128352213Y-143494780D01*
X128286237Y-143474767D01*
X128103831Y-143377269D01*
X127943946Y-143246054D01*
X127812731Y-143086169D01*
X127715233Y-142903763D01*
X127695220Y-142837787D01*
X127655193Y-142705836D01*
X127651857Y-142671961D01*
X127634919Y-142500000D01*
X127655193Y-142294166D01*
X127655193Y-142294164D01*
X127715233Y-142096238D01*
X127715233Y-142096237D01*
X127812731Y-141913831D01*
X127943946Y-141753946D01*
X128103831Y-141622731D01*
X128286237Y-141525233D01*
X128352213Y-141505220D01*
X128484164Y-141465193D01*
X128522728Y-141461395D01*
X128638416Y-141450000D01*
X128741584Y-141450000D01*
X128857272Y-141461395D01*
X128857272Y-141461395D01*
G37*
G36*
X131397272Y-141461395D02*
G01*
X131435836Y-141465193D01*
X131567787Y-141505220D01*
X131633763Y-141525233D01*
X131816169Y-141622731D01*
X131976054Y-141753946D01*
X132107269Y-141913831D01*
X132204767Y-142096237D01*
X132204767Y-142096238D01*
X132264807Y-142294164D01*
X132264807Y-142294166D01*
X132285081Y-142500000D01*
X132268143Y-142671961D01*
X132264807Y-142705836D01*
X132224780Y-142837787D01*
X132204767Y-142903763D01*
X132107269Y-143086169D01*
X131976054Y-143246054D01*
X131816169Y-143377269D01*
X131633763Y-143474767D01*
X131567787Y-143494780D01*
X131435836Y-143534807D01*
X131397272Y-143538605D01*
X131281584Y-143550000D01*
X131178416Y-143550000D01*
X131062728Y-143538605D01*
X131024164Y-143534807D01*
X130892213Y-143494780D01*
X130826237Y-143474767D01*
X130643831Y-143377269D01*
X130483946Y-143246054D01*
X130352731Y-143086169D01*
X130255233Y-142903763D01*
X130235220Y-142837787D01*
X130195193Y-142705836D01*
X130191857Y-142671961D01*
X130174919Y-142500000D01*
X130195193Y-142294166D01*
X130195193Y-142294164D01*
X130255233Y-142096238D01*
X130255233Y-142096237D01*
X130352731Y-141913831D01*
X130483946Y-141753946D01*
X130643831Y-141622731D01*
X130826237Y-141525233D01*
X130892213Y-141505220D01*
X131024164Y-141465193D01*
X131062728Y-141461395D01*
X131178416Y-141450000D01*
X131281584Y-141450000D01*
X131397272Y-141461395D01*
X131397272Y-141461395D01*
G37*
G36*
X133937272Y-141461395D02*
G01*
X133975836Y-141465193D01*
X134107787Y-141505220D01*
X134173763Y-141525233D01*
X134356169Y-141622731D01*
X134516054Y-141753946D01*
X134647269Y-141913831D01*
X134744767Y-142096237D01*
X134744767Y-142096238D01*
X134804807Y-142294164D01*
X134804807Y-142294166D01*
X134825081Y-142500000D01*
X134808143Y-142671961D01*
X134804807Y-142705836D01*
X134764780Y-142837787D01*
X134744767Y-142903763D01*
X134647269Y-143086169D01*
X134516054Y-143246054D01*
X134356169Y-143377269D01*
X134173763Y-143474767D01*
X134107787Y-143494780D01*
X133975836Y-143534807D01*
X133937272Y-143538605D01*
X133821584Y-143550000D01*
X133718416Y-143550000D01*
X133602728Y-143538605D01*
X133564164Y-143534807D01*
X133432213Y-143494780D01*
X133366237Y-143474767D01*
X133183831Y-143377269D01*
X133023946Y-143246054D01*
X132892731Y-143086169D01*
X132795233Y-142903763D01*
X132775220Y-142837787D01*
X132735193Y-142705836D01*
X132731857Y-142671961D01*
X132714919Y-142500000D01*
X132735193Y-142294166D01*
X132735193Y-142294164D01*
X132795233Y-142096238D01*
X132795233Y-142096237D01*
X132892731Y-141913831D01*
X133023946Y-141753946D01*
X133183831Y-141622731D01*
X133366237Y-141525233D01*
X133432213Y-141505220D01*
X133564164Y-141465193D01*
X133602728Y-141461395D01*
X133718416Y-141450000D01*
X133821584Y-141450000D01*
X133937272Y-141461395D01*
X133937272Y-141461395D01*
G37*
G36*
X137360000Y-143550000D02*
G01*
X135260000Y-143550000D01*
X135260000Y-141450000D01*
X137360000Y-141450000D01*
X137360000Y-143550000D01*
X137360000Y-143550000D01*
G37*
G36*
X143857272Y-141461395D02*
G01*
X143895836Y-141465193D01*
X144027787Y-141505220D01*
X144093763Y-141525233D01*
X144276169Y-141622731D01*
X144436054Y-141753946D01*
X144567269Y-141913831D01*
X144664767Y-142096237D01*
X144664767Y-142096238D01*
X144724807Y-142294164D01*
X144724807Y-142294166D01*
X144745081Y-142500000D01*
X144728143Y-142671961D01*
X144724807Y-142705836D01*
X144684780Y-142837787D01*
X144664767Y-142903763D01*
X144567269Y-143086169D01*
X144436054Y-143246054D01*
X144276169Y-143377269D01*
X144093763Y-143474767D01*
X144027787Y-143494780D01*
X143895836Y-143534807D01*
X143857272Y-143538605D01*
X143741584Y-143550000D01*
X143638416Y-143550000D01*
X143522728Y-143538605D01*
X143484164Y-143534807D01*
X143352213Y-143494780D01*
X143286237Y-143474767D01*
X143103831Y-143377269D01*
X142943946Y-143246054D01*
X142812731Y-143086169D01*
X142715233Y-142903763D01*
X142695220Y-142837787D01*
X142655193Y-142705836D01*
X142651857Y-142671961D01*
X142634919Y-142500000D01*
X142655193Y-142294166D01*
X142655193Y-142294164D01*
X142715233Y-142096238D01*
X142715233Y-142096237D01*
X142812731Y-141913831D01*
X142943946Y-141753946D01*
X143103831Y-141622731D01*
X143286237Y-141525233D01*
X143352213Y-141505220D01*
X143484164Y-141465193D01*
X143522728Y-141461395D01*
X143638416Y-141450000D01*
X143741584Y-141450000D01*
X143857272Y-141461395D01*
X143857272Y-141461395D01*
G37*
G36*
X146397272Y-141461395D02*
G01*
X146435836Y-141465193D01*
X146567787Y-141505220D01*
X146633763Y-141525233D01*
X146816169Y-141622731D01*
X146976054Y-141753946D01*
X147107269Y-141913831D01*
X147204767Y-142096237D01*
X147204767Y-142096238D01*
X147264807Y-142294164D01*
X147264807Y-142294166D01*
X147285081Y-142500000D01*
X147268143Y-142671961D01*
X147264807Y-142705836D01*
X147224780Y-142837787D01*
X147204767Y-142903763D01*
X147107269Y-143086169D01*
X146976054Y-143246054D01*
X146816169Y-143377269D01*
X146633763Y-143474767D01*
X146567787Y-143494780D01*
X146435836Y-143534807D01*
X146397272Y-143538605D01*
X146281584Y-143550000D01*
X146178416Y-143550000D01*
X146062728Y-143538605D01*
X146024164Y-143534807D01*
X145892213Y-143494780D01*
X145826237Y-143474767D01*
X145643831Y-143377269D01*
X145483946Y-143246054D01*
X145352731Y-143086169D01*
X145255233Y-142903763D01*
X145235220Y-142837787D01*
X145195193Y-142705836D01*
X145191857Y-142671961D01*
X145174919Y-142500000D01*
X145195193Y-142294166D01*
X145195193Y-142294164D01*
X145255233Y-142096238D01*
X145255233Y-142096237D01*
X145352731Y-141913831D01*
X145483946Y-141753946D01*
X145643831Y-141622731D01*
X145826237Y-141525233D01*
X145892213Y-141505220D01*
X146024164Y-141465193D01*
X146062728Y-141461395D01*
X146178416Y-141450000D01*
X146281584Y-141450000D01*
X146397272Y-141461395D01*
X146397272Y-141461395D01*
G37*
G36*
X148937272Y-141461395D02*
G01*
X148975836Y-141465193D01*
X149107787Y-141505220D01*
X149173763Y-141525233D01*
X149356169Y-141622731D01*
X149516054Y-141753946D01*
X149647269Y-141913831D01*
X149744767Y-142096237D01*
X149744767Y-142096238D01*
X149804807Y-142294164D01*
X149804807Y-142294166D01*
X149825081Y-142500000D01*
X149808143Y-142671961D01*
X149804807Y-142705836D01*
X149764780Y-142837787D01*
X149744767Y-142903763D01*
X149647269Y-143086169D01*
X149516054Y-143246054D01*
X149356169Y-143377269D01*
X149173763Y-143474767D01*
X149107787Y-143494780D01*
X148975836Y-143534807D01*
X148937272Y-143538605D01*
X148821584Y-143550000D01*
X148718416Y-143550000D01*
X148602728Y-143538605D01*
X148564164Y-143534807D01*
X148432213Y-143494780D01*
X148366237Y-143474767D01*
X148183831Y-143377269D01*
X148023946Y-143246054D01*
X147892731Y-143086169D01*
X147795233Y-142903763D01*
X147775220Y-142837787D01*
X147735193Y-142705836D01*
X147731857Y-142671961D01*
X147714919Y-142500000D01*
X147735193Y-142294166D01*
X147735193Y-142294164D01*
X147795233Y-142096238D01*
X147795233Y-142096237D01*
X147892731Y-141913831D01*
X148023946Y-141753946D01*
X148183831Y-141622731D01*
X148366237Y-141525233D01*
X148432213Y-141505220D01*
X148564164Y-141465193D01*
X148602728Y-141461395D01*
X148718416Y-141450000D01*
X148821584Y-141450000D01*
X148937272Y-141461395D01*
X148937272Y-141461395D01*
G37*
G36*
X132048679Y-138869362D02*
G01*
X132101200Y-138885295D01*
X132149596Y-138911163D01*
X132192021Y-138945979D01*
X132226837Y-138988404D01*
X132252705Y-139036800D01*
X132268638Y-139089321D01*
X132274500Y-139148842D01*
X132274500Y-140378158D01*
X132268638Y-140437679D01*
X132252705Y-140490200D01*
X132226837Y-140538596D01*
X132192021Y-140581021D01*
X132149596Y-140615837D01*
X132101200Y-140641705D01*
X132048679Y-140657638D01*
X131989158Y-140663500D01*
X131009842Y-140663500D01*
X130950321Y-140657638D01*
X130897800Y-140641705D01*
X130849404Y-140615837D01*
X130806979Y-140581021D01*
X130772163Y-140538596D01*
X130746295Y-140490200D01*
X130730362Y-140437679D01*
X130724500Y-140378158D01*
X130724500Y-139148842D01*
X130730362Y-139089321D01*
X130746295Y-139036800D01*
X130772163Y-138988404D01*
X130806979Y-138945979D01*
X130849404Y-138911163D01*
X130897800Y-138885295D01*
X130950321Y-138869362D01*
X131009842Y-138863500D01*
X131989158Y-138863500D01*
X132048679Y-138869362D01*
X132048679Y-138869362D01*
G37*
G36*
X134098679Y-138869362D02*
G01*
X134151200Y-138885295D01*
X134199596Y-138911163D01*
X134242021Y-138945979D01*
X134276837Y-138988404D01*
X134302705Y-139036800D01*
X134318638Y-139089321D01*
X134324500Y-139148842D01*
X134324500Y-140378158D01*
X134318638Y-140437679D01*
X134302705Y-140490200D01*
X134276837Y-140538596D01*
X134242021Y-140581021D01*
X134199596Y-140615837D01*
X134151200Y-140641705D01*
X134098679Y-140657638D01*
X134039158Y-140663500D01*
X133059842Y-140663500D01*
X133000321Y-140657638D01*
X132947800Y-140641705D01*
X132899404Y-140615837D01*
X132856979Y-140581021D01*
X132822163Y-140538596D01*
X132796295Y-140490200D01*
X132780362Y-140437679D01*
X132774500Y-140378158D01*
X132774500Y-139148842D01*
X132780362Y-139089321D01*
X132796295Y-139036800D01*
X132822163Y-138988404D01*
X132856979Y-138945979D01*
X132899404Y-138911163D01*
X132947800Y-138885295D01*
X133000321Y-138869362D01*
X133059842Y-138863500D01*
X134039158Y-138863500D01*
X134098679Y-138869362D01*
X134098679Y-138869362D01*
G37*
G36*
X106572951Y-129509511D02*
G01*
X106572953Y-129509512D01*
X106572954Y-129509512D01*
X106618469Y-129528365D01*
X106659428Y-129555733D01*
X106694267Y-129590572D01*
X106721635Y-129631531D01*
X106740488Y-129677046D01*
X106750100Y-129725369D01*
X106750100Y-129774631D01*
X106740488Y-129822954D01*
X106721635Y-129868469D01*
X106694267Y-129909428D01*
X106659428Y-129944267D01*
X106618469Y-129971635D01*
X106572954Y-129990488D01*
X106572953Y-129990488D01*
X106572951Y-129990489D01*
X106524633Y-130000100D01*
X106475367Y-130000100D01*
X106427049Y-129990489D01*
X106427047Y-129990488D01*
X106427046Y-129990488D01*
X106381531Y-129971635D01*
X106340572Y-129944267D01*
X106305733Y-129909428D01*
X106278365Y-129868469D01*
X106259512Y-129822954D01*
X106249900Y-129774631D01*
X106249900Y-129725369D01*
X106259512Y-129677046D01*
X106278365Y-129631531D01*
X106305733Y-129590572D01*
X106340572Y-129555733D01*
X106381531Y-129528365D01*
X106427046Y-129509512D01*
X106427047Y-129509512D01*
X106427049Y-129509511D01*
X106475367Y-129499900D01*
X106524633Y-129499900D01*
X106572951Y-129509511D01*
X106572951Y-129509511D01*
G37*
G36*
X104572951Y-129509511D02*
G01*
X104572953Y-129509512D01*
X104572954Y-129509512D01*
X104618469Y-129528365D01*
X104659428Y-129555733D01*
X104694267Y-129590572D01*
X104721635Y-129631531D01*
X104740488Y-129677046D01*
X104750100Y-129725369D01*
X104750100Y-129774631D01*
X104740488Y-129822954D01*
X104721635Y-129868469D01*
X104694267Y-129909428D01*
X104659428Y-129944267D01*
X104618469Y-129971635D01*
X104572954Y-129990488D01*
X104572953Y-129990488D01*
X104572951Y-129990489D01*
X104524633Y-130000100D01*
X104475367Y-130000100D01*
X104427049Y-129990489D01*
X104427047Y-129990488D01*
X104427046Y-129990488D01*
X104381531Y-129971635D01*
X104340572Y-129944267D01*
X104305733Y-129909428D01*
X104278365Y-129868469D01*
X104259512Y-129822954D01*
X104249900Y-129774631D01*
X104249900Y-129725369D01*
X104259512Y-129677046D01*
X104278365Y-129631531D01*
X104305733Y-129590572D01*
X104340572Y-129555733D01*
X104381531Y-129528365D01*
X104427046Y-129509512D01*
X104427047Y-129509512D01*
X104427049Y-129509511D01*
X104475367Y-129499900D01*
X104524633Y-129499900D01*
X104572951Y-129509511D01*
X104572951Y-129509511D01*
G37*
G36*
X159572951Y-129509511D02*
G01*
X159572953Y-129509512D01*
X159572954Y-129509512D01*
X159618469Y-129528365D01*
X159659428Y-129555733D01*
X159694267Y-129590572D01*
X159721635Y-129631531D01*
X159740488Y-129677046D01*
X159750100Y-129725369D01*
X159750100Y-129774631D01*
X159740488Y-129822954D01*
X159721635Y-129868469D01*
X159694267Y-129909428D01*
X159659428Y-129944267D01*
X159618469Y-129971635D01*
X159572954Y-129990488D01*
X159572953Y-129990488D01*
X159572951Y-129990489D01*
X159524633Y-130000100D01*
X159475367Y-130000100D01*
X159427049Y-129990489D01*
X159427047Y-129990488D01*
X159427046Y-129990488D01*
X159381531Y-129971635D01*
X159340572Y-129944267D01*
X159305733Y-129909428D01*
X159278365Y-129868469D01*
X159259512Y-129822954D01*
X159249900Y-129774631D01*
X159249900Y-129725369D01*
X159259512Y-129677046D01*
X159278365Y-129631531D01*
X159305733Y-129590572D01*
X159340572Y-129555733D01*
X159381531Y-129528365D01*
X159427046Y-129509512D01*
X159427047Y-129509512D01*
X159427049Y-129509511D01*
X159475367Y-129499900D01*
X159524633Y-129499900D01*
X159572951Y-129509511D01*
X159572951Y-129509511D01*
G37*
G36*
X158572951Y-129509511D02*
G01*
X158572953Y-129509512D01*
X158572954Y-129509512D01*
X158618469Y-129528365D01*
X158659428Y-129555733D01*
X158694267Y-129590572D01*
X158721635Y-129631531D01*
X158740488Y-129677046D01*
X158750100Y-129725369D01*
X158750100Y-129774631D01*
X158740488Y-129822954D01*
X158721635Y-129868469D01*
X158694267Y-129909428D01*
X158659428Y-129944267D01*
X158618469Y-129971635D01*
X158572954Y-129990488D01*
X158572953Y-129990488D01*
X158572951Y-129990489D01*
X158524633Y-130000100D01*
X158475367Y-130000100D01*
X158427049Y-129990489D01*
X158427047Y-129990488D01*
X158427046Y-129990488D01*
X158381531Y-129971635D01*
X158340572Y-129944267D01*
X158305733Y-129909428D01*
X158278365Y-129868469D01*
X158259512Y-129822954D01*
X158249900Y-129774631D01*
X158249900Y-129725369D01*
X158259512Y-129677046D01*
X158278365Y-129631531D01*
X158305733Y-129590572D01*
X158340572Y-129555733D01*
X158381531Y-129528365D01*
X158427046Y-129509512D01*
X158427047Y-129509512D01*
X158427049Y-129509511D01*
X158475367Y-129499900D01*
X158524633Y-129499900D01*
X158572951Y-129509511D01*
X158572951Y-129509511D01*
G37*
G36*
X157572951Y-129509511D02*
G01*
X157572953Y-129509512D01*
X157572954Y-129509512D01*
X157618469Y-129528365D01*
X157659428Y-129555733D01*
X157694267Y-129590572D01*
X157721635Y-129631531D01*
X157740488Y-129677046D01*
X157750100Y-129725369D01*
X157750100Y-129774631D01*
X157740488Y-129822954D01*
X157721635Y-129868469D01*
X157694267Y-129909428D01*
X157659428Y-129944267D01*
X157618469Y-129971635D01*
X157572954Y-129990488D01*
X157572953Y-129990488D01*
X157572951Y-129990489D01*
X157524633Y-130000100D01*
X157475367Y-130000100D01*
X157427049Y-129990489D01*
X157427047Y-129990488D01*
X157427046Y-129990488D01*
X157381531Y-129971635D01*
X157340572Y-129944267D01*
X157305733Y-129909428D01*
X157278365Y-129868469D01*
X157259512Y-129822954D01*
X157249900Y-129774631D01*
X157249900Y-129725369D01*
X157259512Y-129677046D01*
X157278365Y-129631531D01*
X157305733Y-129590572D01*
X157340572Y-129555733D01*
X157381531Y-129528365D01*
X157427046Y-129509512D01*
X157427047Y-129509512D01*
X157427049Y-129509511D01*
X157475367Y-129499900D01*
X157524633Y-129499900D01*
X157572951Y-129509511D01*
X157572951Y-129509511D01*
G37*
G36*
X156572951Y-129509511D02*
G01*
X156572953Y-129509512D01*
X156572954Y-129509512D01*
X156618469Y-129528365D01*
X156659428Y-129555733D01*
X156694267Y-129590572D01*
X156721635Y-129631531D01*
X156740488Y-129677046D01*
X156750100Y-129725369D01*
X156750100Y-129774631D01*
X156740488Y-129822954D01*
X156721635Y-129868469D01*
X156694267Y-129909428D01*
X156659428Y-129944267D01*
X156618469Y-129971635D01*
X156572954Y-129990488D01*
X156572953Y-129990488D01*
X156572951Y-129990489D01*
X156524633Y-130000100D01*
X156475367Y-130000100D01*
X156427049Y-129990489D01*
X156427047Y-129990488D01*
X156427046Y-129990488D01*
X156381531Y-129971635D01*
X156340572Y-129944267D01*
X156305733Y-129909428D01*
X156278365Y-129868469D01*
X156259512Y-129822954D01*
X156249900Y-129774631D01*
X156249900Y-129725369D01*
X156259512Y-129677046D01*
X156278365Y-129631531D01*
X156305733Y-129590572D01*
X156340572Y-129555733D01*
X156381531Y-129528365D01*
X156427046Y-129509512D01*
X156427047Y-129509512D01*
X156427049Y-129509511D01*
X156475367Y-129499900D01*
X156524633Y-129499900D01*
X156572951Y-129509511D01*
X156572951Y-129509511D01*
G37*
G36*
X105572951Y-129509511D02*
G01*
X105572953Y-129509512D01*
X105572954Y-129509512D01*
X105618469Y-129528365D01*
X105659428Y-129555733D01*
X105694267Y-129590572D01*
X105721635Y-129631531D01*
X105740488Y-129677046D01*
X105750100Y-129725369D01*
X105750100Y-129774631D01*
X105740488Y-129822954D01*
X105721635Y-129868469D01*
X105694267Y-129909428D01*
X105659428Y-129944267D01*
X105618469Y-129971635D01*
X105572954Y-129990488D01*
X105572953Y-129990488D01*
X105572951Y-129990489D01*
X105524633Y-130000100D01*
X105475367Y-130000100D01*
X105427049Y-129990489D01*
X105427047Y-129990488D01*
X105427046Y-129990488D01*
X105381531Y-129971635D01*
X105340572Y-129944267D01*
X105305733Y-129909428D01*
X105278365Y-129868469D01*
X105259512Y-129822954D01*
X105249900Y-129774631D01*
X105249900Y-129725369D01*
X105259512Y-129677046D01*
X105278365Y-129631531D01*
X105305733Y-129590572D01*
X105340572Y-129555733D01*
X105381531Y-129528365D01*
X105427046Y-129509512D01*
X105427047Y-129509512D01*
X105427049Y-129509511D01*
X105475367Y-129499900D01*
X105524633Y-129499900D01*
X105572951Y-129509511D01*
X105572951Y-129509511D01*
G37*
G36*
X108572951Y-129509511D02*
G01*
X108572953Y-129509512D01*
X108572954Y-129509512D01*
X108618469Y-129528365D01*
X108659428Y-129555733D01*
X108694267Y-129590572D01*
X108721635Y-129631531D01*
X108740488Y-129677046D01*
X108750100Y-129725369D01*
X108750100Y-129774631D01*
X108740488Y-129822954D01*
X108721635Y-129868469D01*
X108694267Y-129909428D01*
X108659428Y-129944267D01*
X108618469Y-129971635D01*
X108572954Y-129990488D01*
X108572953Y-129990488D01*
X108572951Y-129990489D01*
X108524633Y-130000100D01*
X108475367Y-130000100D01*
X108427049Y-129990489D01*
X108427047Y-129990488D01*
X108427046Y-129990488D01*
X108381531Y-129971635D01*
X108340572Y-129944267D01*
X108305733Y-129909428D01*
X108278365Y-129868469D01*
X108259512Y-129822954D01*
X108249900Y-129774631D01*
X108249900Y-129725369D01*
X108259512Y-129677046D01*
X108278365Y-129631531D01*
X108305733Y-129590572D01*
X108340572Y-129555733D01*
X108381531Y-129528365D01*
X108427046Y-129509512D01*
X108427047Y-129509512D01*
X108427049Y-129509511D01*
X108475367Y-129499900D01*
X108524633Y-129499900D01*
X108572951Y-129509511D01*
X108572951Y-129509511D01*
G37*
G36*
X160572951Y-129509511D02*
G01*
X160572953Y-129509512D01*
X160572954Y-129509512D01*
X160618469Y-129528365D01*
X160659428Y-129555733D01*
X160694267Y-129590572D01*
X160721635Y-129631531D01*
X160740488Y-129677046D01*
X160750100Y-129725369D01*
X160750100Y-129774631D01*
X160740488Y-129822954D01*
X160721635Y-129868469D01*
X160694267Y-129909428D01*
X160659428Y-129944267D01*
X160618469Y-129971635D01*
X160572954Y-129990488D01*
X160572953Y-129990488D01*
X160572951Y-129990489D01*
X160524633Y-130000100D01*
X160475367Y-130000100D01*
X160427049Y-129990489D01*
X160427047Y-129990488D01*
X160427046Y-129990488D01*
X160381531Y-129971635D01*
X160340572Y-129944267D01*
X160305733Y-129909428D01*
X160278365Y-129868469D01*
X160259512Y-129822954D01*
X160249900Y-129774631D01*
X160249900Y-129725369D01*
X160259512Y-129677046D01*
X160278365Y-129631531D01*
X160305733Y-129590572D01*
X160340572Y-129555733D01*
X160381531Y-129528365D01*
X160427046Y-129509512D01*
X160427047Y-129509512D01*
X160427049Y-129509511D01*
X160475367Y-129499900D01*
X160524633Y-129499900D01*
X160572951Y-129509511D01*
X160572951Y-129509511D01*
G37*
G36*
X107572951Y-129509511D02*
G01*
X107572953Y-129509512D01*
X107572954Y-129509512D01*
X107618469Y-129528365D01*
X107659428Y-129555733D01*
X107694267Y-129590572D01*
X107721635Y-129631531D01*
X107740488Y-129677046D01*
X107750100Y-129725369D01*
X107750100Y-129774631D01*
X107740488Y-129822954D01*
X107721635Y-129868469D01*
X107694267Y-129909428D01*
X107659428Y-129944267D01*
X107618469Y-129971635D01*
X107572954Y-129990488D01*
X107572953Y-129990488D01*
X107572951Y-129990489D01*
X107524633Y-130000100D01*
X107475367Y-130000100D01*
X107427049Y-129990489D01*
X107427047Y-129990488D01*
X107427046Y-129990488D01*
X107381531Y-129971635D01*
X107340572Y-129944267D01*
X107305733Y-129909428D01*
X107278365Y-129868469D01*
X107259512Y-129822954D01*
X107249900Y-129774631D01*
X107249900Y-129725369D01*
X107259512Y-129677046D01*
X107278365Y-129631531D01*
X107305733Y-129590572D01*
X107340572Y-129555733D01*
X107381531Y-129528365D01*
X107427046Y-129509512D01*
X107427047Y-129509512D01*
X107427049Y-129509511D01*
X107475367Y-129499900D01*
X107524633Y-129499900D01*
X107572951Y-129509511D01*
X107572951Y-129509511D01*
G37*
G36*
X161893783Y-125201870D02*
G01*
X161893785Y-125201871D01*
X161893786Y-125201871D01*
X162139471Y-125303638D01*
X162360580Y-125451377D01*
X162548623Y-125639420D01*
X162696362Y-125860529D01*
X162696363Y-125860531D01*
X162798130Y-126106217D01*
X162850010Y-126367036D01*
X162850010Y-126632962D01*
X162798129Y-126893786D01*
X162696362Y-127139471D01*
X162548623Y-127360580D01*
X162360580Y-127548623D01*
X162139471Y-127696362D01*
X161893786Y-127798129D01*
X161893785Y-127798129D01*
X161893783Y-127798130D01*
X161632964Y-127850010D01*
X161367036Y-127850010D01*
X161106217Y-127798130D01*
X161106215Y-127798129D01*
X161106214Y-127798129D01*
X160860529Y-127696362D01*
X160639420Y-127548623D01*
X160451377Y-127360580D01*
X160303638Y-127139471D01*
X160201871Y-126893786D01*
X160149990Y-126632962D01*
X160149990Y-126367036D01*
X160201870Y-126106217D01*
X160303637Y-125860531D01*
X160303638Y-125860529D01*
X160451377Y-125639420D01*
X160639420Y-125451377D01*
X160860529Y-125303638D01*
X161106214Y-125201871D01*
X161106215Y-125201871D01*
X161106217Y-125201870D01*
X161367036Y-125149990D01*
X161632964Y-125149990D01*
X161893783Y-125201870D01*
X161893783Y-125201870D01*
G37*
G36*
X103893783Y-125201870D02*
G01*
X103893785Y-125201871D01*
X103893786Y-125201871D01*
X104139471Y-125303638D01*
X104360580Y-125451377D01*
X104548623Y-125639420D01*
X104696362Y-125860529D01*
X104696363Y-125860531D01*
X104798130Y-126106217D01*
X104850010Y-126367036D01*
X104850010Y-126632962D01*
X104798129Y-126893786D01*
X104696362Y-127139471D01*
X104548623Y-127360580D01*
X104360580Y-127548623D01*
X104139471Y-127696362D01*
X103893786Y-127798129D01*
X103893785Y-127798129D01*
X103893783Y-127798130D01*
X103632964Y-127850010D01*
X103367036Y-127850010D01*
X103106217Y-127798130D01*
X103106215Y-127798129D01*
X103106214Y-127798129D01*
X102860529Y-127696362D01*
X102639420Y-127548623D01*
X102451377Y-127360580D01*
X102303638Y-127139471D01*
X102201871Y-126893786D01*
X102149990Y-126632962D01*
X102149990Y-126367036D01*
X102201870Y-126106217D01*
X102303637Y-125860531D01*
X102303638Y-125860529D01*
X102451377Y-125639420D01*
X102639420Y-125451377D01*
X102860529Y-125303638D01*
X103106214Y-125201871D01*
X103106215Y-125201871D01*
X103106217Y-125201870D01*
X103367036Y-125149990D01*
X103632964Y-125149990D01*
X103893783Y-125201870D01*
X103893783Y-125201870D01*
G37*
G36*
X126122000Y-127078000D02*
G01*
X124162000Y-127078000D01*
X124162000Y-126028000D01*
X126122000Y-126028000D01*
X126122000Y-127078000D01*
X126122000Y-127078000D01*
G37*
G36*
X128822000Y-127078000D02*
G01*
X126862000Y-127078000D01*
X126862000Y-124128000D01*
X128822000Y-124128000D01*
X128822000Y-127078000D01*
X128822000Y-127078000D01*
G37*
G36*
X126122000Y-125178000D02*
G01*
X124162000Y-125178000D01*
X124162000Y-124128000D01*
X126122000Y-124128000D01*
X126122000Y-125178000D01*
X126122000Y-125178000D01*
G37*
G36*
X160894072Y-120450918D02*
G01*
X160894074Y-120450919D01*
X160894075Y-120450919D01*
X160966086Y-120480747D01*
X161139939Y-120552759D01*
X161139940Y-120552760D01*
X161361211Y-120700608D01*
X161549392Y-120888789D01*
X161667751Y-121065927D01*
X161697241Y-121110061D01*
X161799082Y-121355928D01*
X161851000Y-121616938D01*
X161851000Y-121883062D01*
X161799082Y-122144072D01*
X161697241Y-122389939D01*
X161697240Y-122389940D01*
X161549392Y-122611211D01*
X161361211Y-122799392D01*
X161184073Y-122917751D01*
X161139939Y-122947241D01*
X160966086Y-123019253D01*
X160894075Y-123049081D01*
X160894074Y-123049081D01*
X160894072Y-123049082D01*
X160633062Y-123101000D01*
X160366938Y-123101000D01*
X160105928Y-123049082D01*
X160105926Y-123049081D01*
X160105925Y-123049081D01*
X160033914Y-123019253D01*
X159860061Y-122947241D01*
X159815927Y-122917751D01*
X159638789Y-122799392D01*
X159450608Y-122611211D01*
X159302760Y-122389940D01*
X159302759Y-122389939D01*
X159200918Y-122144072D01*
X159149000Y-121883062D01*
X159149000Y-121616938D01*
X159200918Y-121355928D01*
X159302759Y-121110061D01*
X159332249Y-121065927D01*
X159450608Y-120888789D01*
X159638789Y-120700608D01*
X159860060Y-120552760D01*
X159860061Y-120552759D01*
X160033914Y-120480747D01*
X160105925Y-120450919D01*
X160105926Y-120450919D01*
X160105928Y-120450918D01*
X160366938Y-120399000D01*
X160633062Y-120399000D01*
X160894072Y-120450918D01*
X160894072Y-120450918D01*
G37*
G36*
X104894072Y-120450918D02*
G01*
X104894074Y-120450919D01*
X104894075Y-120450919D01*
X104966086Y-120480747D01*
X105139939Y-120552759D01*
X105139940Y-120552760D01*
X105361211Y-120700608D01*
X105549392Y-120888789D01*
X105667751Y-121065927D01*
X105697241Y-121110061D01*
X105799082Y-121355928D01*
X105851000Y-121616938D01*
X105851000Y-121883062D01*
X105799082Y-122144072D01*
X105697241Y-122389939D01*
X105697240Y-122389940D01*
X105549392Y-122611211D01*
X105361211Y-122799392D01*
X105184073Y-122917751D01*
X105139939Y-122947241D01*
X104966086Y-123019253D01*
X104894075Y-123049081D01*
X104894074Y-123049081D01*
X104894072Y-123049082D01*
X104633062Y-123101000D01*
X104366938Y-123101000D01*
X104105928Y-123049082D01*
X104105926Y-123049081D01*
X104105925Y-123049081D01*
X104033914Y-123019253D01*
X103860061Y-122947241D01*
X103815927Y-122917751D01*
X103638789Y-122799392D01*
X103450608Y-122611211D01*
X103302760Y-122389940D01*
X103302759Y-122389939D01*
X103200918Y-122144072D01*
X103149000Y-121883062D01*
X103149000Y-121616938D01*
X103200918Y-121355928D01*
X103302759Y-121110061D01*
X103332249Y-121065927D01*
X103450608Y-120888789D01*
X103638789Y-120700608D01*
X103860060Y-120552760D01*
X103860061Y-120552759D01*
X104033914Y-120480747D01*
X104105925Y-120450919D01*
X104105926Y-120450919D01*
X104105928Y-120450918D01*
X104366938Y-120399000D01*
X104633062Y-120399000D01*
X104894072Y-120450918D01*
X104894072Y-120450918D01*
G37*
G36*
X156167272Y-117771395D02*
G01*
X156205836Y-117775193D01*
X156337787Y-117815220D01*
X156403763Y-117835233D01*
X156586169Y-117932731D01*
X156746054Y-118063946D01*
X156877269Y-118223831D01*
X156974767Y-118406237D01*
X156974767Y-118406238D01*
X157034807Y-118604164D01*
X157034807Y-118604166D01*
X157055081Y-118810000D01*
X157041291Y-118950000D01*
X157034807Y-119015836D01*
X156994780Y-119147787D01*
X156974767Y-119213763D01*
X156877269Y-119396169D01*
X156746054Y-119556054D01*
X156586169Y-119687269D01*
X156403763Y-119784767D01*
X156337787Y-119804780D01*
X156205836Y-119844807D01*
X156167271Y-119848605D01*
X156051584Y-119860000D01*
X155948416Y-119860000D01*
X155832729Y-119848605D01*
X155794164Y-119844807D01*
X155662213Y-119804780D01*
X155596237Y-119784767D01*
X155413831Y-119687269D01*
X155253946Y-119556054D01*
X155122731Y-119396169D01*
X155025233Y-119213763D01*
X155005220Y-119147787D01*
X154965193Y-119015836D01*
X154958709Y-118950000D01*
X154944919Y-118810000D01*
X154965193Y-118604166D01*
X154965193Y-118604164D01*
X155025233Y-118406238D01*
X155025233Y-118406237D01*
X155122731Y-118223831D01*
X155253946Y-118063946D01*
X155413831Y-117932731D01*
X155596237Y-117835233D01*
X155662213Y-117815220D01*
X155794164Y-117775193D01*
X155832728Y-117771395D01*
X155948416Y-117760000D01*
X156051584Y-117760000D01*
X156167272Y-117771395D01*
X156167272Y-117771395D01*
G37*
G36*
X109167272Y-117771395D02*
G01*
X109205836Y-117775193D01*
X109337787Y-117815220D01*
X109403763Y-117835233D01*
X109586169Y-117932731D01*
X109746054Y-118063946D01*
X109877269Y-118223831D01*
X109974767Y-118406237D01*
X109974767Y-118406238D01*
X110034807Y-118604164D01*
X110034807Y-118604166D01*
X110055081Y-118810000D01*
X110041291Y-118950000D01*
X110034807Y-119015836D01*
X109994780Y-119147787D01*
X109974767Y-119213763D01*
X109877269Y-119396169D01*
X109746054Y-119556054D01*
X109586169Y-119687269D01*
X109403763Y-119784767D01*
X109337787Y-119804780D01*
X109205836Y-119844807D01*
X109167271Y-119848605D01*
X109051584Y-119860000D01*
X108948416Y-119860000D01*
X108832729Y-119848605D01*
X108794164Y-119844807D01*
X108662213Y-119804780D01*
X108596237Y-119784767D01*
X108413831Y-119687269D01*
X108253946Y-119556054D01*
X108122731Y-119396169D01*
X108025233Y-119213763D01*
X108005220Y-119147787D01*
X107965193Y-119015836D01*
X107958709Y-118950000D01*
X107944919Y-118810000D01*
X107965193Y-118604166D01*
X107965193Y-118604164D01*
X108025233Y-118406238D01*
X108025233Y-118406237D01*
X108122731Y-118223831D01*
X108253946Y-118063946D01*
X108413831Y-117932731D01*
X108596237Y-117835233D01*
X108662213Y-117815220D01*
X108794164Y-117775193D01*
X108832728Y-117771395D01*
X108948416Y-117760000D01*
X109051584Y-117760000D01*
X109167272Y-117771395D01*
X109167272Y-117771395D01*
G37*
G36*
X114274179Y-117855862D02*
G01*
X114326700Y-117871795D01*
X114375096Y-117897663D01*
X114417521Y-117932479D01*
X114452337Y-117974904D01*
X114478205Y-118023300D01*
X114494138Y-118075821D01*
X114500000Y-118135342D01*
X114500000Y-119364658D01*
X114494138Y-119424179D01*
X114478205Y-119476700D01*
X114452337Y-119525096D01*
X114417521Y-119567521D01*
X114375096Y-119602337D01*
X114326700Y-119628205D01*
X114274179Y-119644138D01*
X114214658Y-119650000D01*
X113235342Y-119650000D01*
X113175821Y-119644138D01*
X113123300Y-119628205D01*
X113074904Y-119602337D01*
X113032479Y-119567521D01*
X112997663Y-119525096D01*
X112971795Y-119476700D01*
X112955862Y-119424179D01*
X112950000Y-119364658D01*
X112950000Y-118135342D01*
X112955862Y-118075821D01*
X112971795Y-118023300D01*
X112997663Y-117974904D01*
X113032479Y-117932479D01*
X113074904Y-117897663D01*
X113123300Y-117871795D01*
X113175821Y-117855862D01*
X113235342Y-117850000D01*
X114214658Y-117850000D01*
X114274179Y-117855862D01*
X114274179Y-117855862D01*
G37*
G36*
X116324179Y-117855862D02*
G01*
X116376700Y-117871795D01*
X116425096Y-117897663D01*
X116467521Y-117932479D01*
X116502337Y-117974904D01*
X116528205Y-118023300D01*
X116544138Y-118075821D01*
X116550000Y-118135342D01*
X116550000Y-119364658D01*
X116544138Y-119424179D01*
X116528205Y-119476700D01*
X116502337Y-119525096D01*
X116467521Y-119567521D01*
X116425096Y-119602337D01*
X116376700Y-119628205D01*
X116324179Y-119644138D01*
X116264658Y-119650000D01*
X115285342Y-119650000D01*
X115225821Y-119644138D01*
X115173300Y-119628205D01*
X115124904Y-119602337D01*
X115082479Y-119567521D01*
X115047663Y-119525096D01*
X115021795Y-119476700D01*
X115005862Y-119424179D01*
X115000000Y-119364658D01*
X115000000Y-118135342D01*
X115005862Y-118075821D01*
X115021795Y-118023300D01*
X115047663Y-117974904D01*
X115082479Y-117932479D01*
X115124904Y-117897663D01*
X115173300Y-117871795D01*
X115225821Y-117855862D01*
X115285342Y-117850000D01*
X116264658Y-117850000D01*
X116324179Y-117855862D01*
X116324179Y-117855862D01*
G37*
G36*
X130050000Y-118950000D02*
G01*
X126300000Y-118950000D01*
X126300000Y-118300000D01*
X129300001Y-118300000D01*
X129319510Y-118298079D01*
X129338269Y-118292388D01*
X129355557Y-118283147D01*
X129370711Y-118270711D01*
X129383147Y-118255557D01*
X129392388Y-118238269D01*
X129398079Y-118219510D01*
X129400000Y-118200001D01*
X129400000Y-116050000D01*
X130050000Y-116050000D01*
X130050000Y-118950000D01*
X130050000Y-118950000D01*
G37*
G36*
X127918799Y-112549797D02*
G01*
X127960920Y-112562574D01*
X127999733Y-112583320D01*
X128033757Y-112611243D01*
X128061680Y-112645267D01*
X128082426Y-112684080D01*
X128095203Y-112726201D01*
X128100000Y-112774908D01*
X128100000Y-113415092D01*
X128095203Y-113463799D01*
X128082426Y-113505920D01*
X128061680Y-113544733D01*
X128033757Y-113578757D01*
X127999733Y-113606680D01*
X127960920Y-113627426D01*
X127938235Y-113634307D01*
X127920124Y-113641809D01*
X127903825Y-113652699D01*
X127889963Y-113666561D01*
X127879072Y-113682860D01*
X127871570Y-113700971D01*
X127867746Y-113720198D01*
X127867745Y-113739801D01*
X127871570Y-113759028D01*
X127879072Y-113777139D01*
X127889962Y-113793438D01*
X127903824Y-113807300D01*
X127920123Y-113818191D01*
X127938235Y-113825693D01*
X127960920Y-113832574D01*
X127999733Y-113853320D01*
X128033757Y-113881243D01*
X128061680Y-113915267D01*
X128082426Y-113954080D01*
X128095203Y-113996201D01*
X128100000Y-114044908D01*
X128100000Y-114685092D01*
X128095203Y-114733799D01*
X128082426Y-114775920D01*
X128061680Y-114814733D01*
X128033757Y-114848757D01*
X127999733Y-114876680D01*
X127960920Y-114897426D01*
X127938235Y-114904307D01*
X127920124Y-114911809D01*
X127903825Y-114922699D01*
X127889963Y-114936561D01*
X127879072Y-114952860D01*
X127871570Y-114970971D01*
X127867746Y-114990198D01*
X127867745Y-115009801D01*
X127871570Y-115029028D01*
X127879072Y-115047139D01*
X127889962Y-115063438D01*
X127903824Y-115077300D01*
X127920123Y-115088191D01*
X127938235Y-115095693D01*
X127960920Y-115102574D01*
X127999733Y-115123320D01*
X128033757Y-115151243D01*
X128061680Y-115185267D01*
X128082426Y-115224080D01*
X128095203Y-115266201D01*
X128100000Y-115314908D01*
X128100000Y-115955092D01*
X128095203Y-116003799D01*
X128082426Y-116045920D01*
X128061680Y-116084733D01*
X128033757Y-116118757D01*
X127999733Y-116146680D01*
X127960920Y-116167426D01*
X127938235Y-116174307D01*
X127920124Y-116181809D01*
X127903825Y-116192699D01*
X127889963Y-116206561D01*
X127879072Y-116222860D01*
X127871570Y-116240971D01*
X127867746Y-116260198D01*
X127867745Y-116279801D01*
X127871570Y-116299028D01*
X127879072Y-116317139D01*
X127889962Y-116333438D01*
X127903824Y-116347300D01*
X127920123Y-116358191D01*
X127938235Y-116365693D01*
X127960920Y-116372574D01*
X127999733Y-116393320D01*
X128033757Y-116421243D01*
X128061680Y-116455267D01*
X128082426Y-116494080D01*
X128095203Y-116536201D01*
X128100000Y-116584908D01*
X128100000Y-117225092D01*
X128095203Y-117273799D01*
X128082426Y-117315920D01*
X128061680Y-117354733D01*
X128033757Y-117388757D01*
X127999733Y-117416680D01*
X127960920Y-117437426D01*
X127918799Y-117450203D01*
X127870092Y-117455000D01*
X124429908Y-117455000D01*
X124381201Y-117450203D01*
X124339080Y-117437426D01*
X124300267Y-117416680D01*
X124266243Y-117388757D01*
X124238320Y-117354733D01*
X124217574Y-117315920D01*
X124204797Y-117273799D01*
X124200000Y-117225092D01*
X124200000Y-116584908D01*
X124204797Y-116536201D01*
X124217574Y-116494080D01*
X124238320Y-116455267D01*
X124266243Y-116421243D01*
X124300267Y-116393320D01*
X124339080Y-116372574D01*
X124361765Y-116365693D01*
X124379876Y-116358191D01*
X124396175Y-116347301D01*
X124410037Y-116333439D01*
X124420928Y-116317140D01*
X124428430Y-116299029D01*
X124432254Y-116279802D01*
X124432255Y-116260199D01*
X124428430Y-116240972D01*
X124420928Y-116222861D01*
X124410038Y-116206562D01*
X124396176Y-116192700D01*
X124379877Y-116181809D01*
X124361765Y-116174307D01*
X124339080Y-116167426D01*
X124300267Y-116146680D01*
X124266243Y-116118757D01*
X124238320Y-116084733D01*
X124217574Y-116045920D01*
X124204797Y-116003799D01*
X124200000Y-115955092D01*
X124200000Y-115314908D01*
X124204797Y-115266201D01*
X124217574Y-115224080D01*
X124238320Y-115185267D01*
X124266243Y-115151243D01*
X124300267Y-115123320D01*
X124339080Y-115102574D01*
X124361765Y-115095693D01*
X124379876Y-115088191D01*
X124396175Y-115077301D01*
X124410037Y-115063439D01*
X124420928Y-115047140D01*
X124428430Y-115029029D01*
X124432254Y-115009802D01*
X124432255Y-114990199D01*
X124428430Y-114970972D01*
X124420928Y-114952861D01*
X124410038Y-114936562D01*
X124396176Y-114922700D01*
X124379877Y-114911809D01*
X124361765Y-114904307D01*
X124339080Y-114897426D01*
X124300267Y-114876680D01*
X124266243Y-114848757D01*
X124238320Y-114814733D01*
X124217574Y-114775920D01*
X124204797Y-114733799D01*
X124200000Y-114685092D01*
X124200000Y-114044908D01*
X124204797Y-113996201D01*
X124217574Y-113954080D01*
X124238320Y-113915267D01*
X124266243Y-113881243D01*
X124300267Y-113853320D01*
X124339080Y-113832574D01*
X124361765Y-113825693D01*
X124379876Y-113818191D01*
X124396175Y-113807301D01*
X124410037Y-113793439D01*
X124420928Y-113777140D01*
X124428430Y-113759029D01*
X124432254Y-113739802D01*
X124432255Y-113720199D01*
X124428430Y-113700972D01*
X124420928Y-113682861D01*
X124410038Y-113666562D01*
X124396176Y-113652700D01*
X124379877Y-113641809D01*
X124361765Y-113634307D01*
X124339080Y-113627426D01*
X124300267Y-113606680D01*
X124266243Y-113578757D01*
X124238320Y-113544733D01*
X124217574Y-113505920D01*
X124204797Y-113463799D01*
X124200000Y-113415092D01*
X124200000Y-112774908D01*
X124204797Y-112726201D01*
X124217574Y-112684080D01*
X124238320Y-112645267D01*
X124266243Y-112611243D01*
X124300267Y-112583320D01*
X124339080Y-112562574D01*
X124381201Y-112549797D01*
X124429908Y-112545000D01*
X127870092Y-112545000D01*
X127918799Y-112549797D01*
X127918799Y-112549797D01*
G37*
G36*
X109167271Y-115231395D02*
G01*
X109205836Y-115235193D01*
X109308056Y-115266201D01*
X109403763Y-115295233D01*
X109586169Y-115392731D01*
X109746054Y-115523946D01*
X109877269Y-115683831D01*
X109974767Y-115866237D01*
X109985009Y-115900000D01*
X110034807Y-116064164D01*
X110034807Y-116064166D01*
X110055081Y-116270000D01*
X110044647Y-116375933D01*
X110034807Y-116475836D01*
X110001720Y-116584908D01*
X109974767Y-116673763D01*
X109877269Y-116856169D01*
X109746054Y-117016054D01*
X109586169Y-117147269D01*
X109403763Y-117244767D01*
X109337787Y-117264780D01*
X109205836Y-117304807D01*
X109167271Y-117308605D01*
X109051584Y-117320000D01*
X108948416Y-117320000D01*
X108832729Y-117308605D01*
X108794164Y-117304807D01*
X108662213Y-117264780D01*
X108596237Y-117244767D01*
X108413831Y-117147269D01*
X108253946Y-117016054D01*
X108122731Y-116856169D01*
X108025233Y-116673763D01*
X107998280Y-116584908D01*
X107965193Y-116475836D01*
X107955353Y-116375933D01*
X107944919Y-116270000D01*
X107965193Y-116064166D01*
X107965193Y-116064164D01*
X108014991Y-115900000D01*
X108025233Y-115866237D01*
X108122731Y-115683831D01*
X108253946Y-115523946D01*
X108413831Y-115392731D01*
X108596237Y-115295233D01*
X108691944Y-115266201D01*
X108794164Y-115235193D01*
X108832729Y-115231395D01*
X108948416Y-115220000D01*
X109051584Y-115220000D01*
X109167271Y-115231395D01*
X109167271Y-115231395D01*
G37*
G36*
X156167271Y-115231395D02*
G01*
X156205836Y-115235193D01*
X156308056Y-115266201D01*
X156403763Y-115295233D01*
X156586169Y-115392731D01*
X156746054Y-115523946D01*
X156877269Y-115683831D01*
X156974767Y-115866237D01*
X156985009Y-115900000D01*
X157034807Y-116064164D01*
X157034807Y-116064166D01*
X157055081Y-116270000D01*
X157044647Y-116375933D01*
X157034807Y-116475836D01*
X157001720Y-116584908D01*
X156974767Y-116673763D01*
X156877269Y-116856169D01*
X156746054Y-117016054D01*
X156586169Y-117147269D01*
X156403763Y-117244767D01*
X156337787Y-117264780D01*
X156205836Y-117304807D01*
X156167271Y-117308605D01*
X156051584Y-117320000D01*
X155948416Y-117320000D01*
X155832729Y-117308605D01*
X155794164Y-117304807D01*
X155662213Y-117264780D01*
X155596237Y-117244767D01*
X155413831Y-117147269D01*
X155253946Y-117016054D01*
X155122731Y-116856169D01*
X155025233Y-116673763D01*
X154998280Y-116584908D01*
X154965193Y-116475836D01*
X154955353Y-116375933D01*
X154944919Y-116270000D01*
X154965193Y-116064166D01*
X154965193Y-116064164D01*
X155014991Y-115900000D01*
X155025233Y-115866237D01*
X155122731Y-115683831D01*
X155253946Y-115523946D01*
X155413831Y-115392731D01*
X155596237Y-115295233D01*
X155691944Y-115266201D01*
X155794164Y-115235193D01*
X155832729Y-115231395D01*
X155948416Y-115220000D01*
X156051584Y-115220000D01*
X156167271Y-115231395D01*
X156167271Y-115231395D01*
G37*
G36*
X160893810Y-113701783D02*
G01*
X161139512Y-113803557D01*
X161360639Y-113951309D01*
X161548691Y-114139361D01*
X161696443Y-114360488D01*
X161798217Y-114606190D01*
X161850100Y-114867027D01*
X161850100Y-115132973D01*
X161798217Y-115393810D01*
X161696443Y-115639512D01*
X161548691Y-115860639D01*
X161360639Y-116048691D01*
X161139512Y-116196443D01*
X160893810Y-116298217D01*
X160632973Y-116350100D01*
X160367027Y-116350100D01*
X160106190Y-116298217D01*
X159860488Y-116196443D01*
X159639361Y-116048691D01*
X159451309Y-115860639D01*
X159303557Y-115639512D01*
X159201783Y-115393810D01*
X159149900Y-115132973D01*
X159149900Y-114867027D01*
X159201783Y-114606190D01*
X159303557Y-114360488D01*
X159451309Y-114139361D01*
X159639361Y-113951309D01*
X159860488Y-113803557D01*
X160106190Y-113701783D01*
X160367027Y-113649900D01*
X160632973Y-113649900D01*
X160893810Y-113701783D01*
X160893810Y-113701783D01*
G37*
G36*
X104893810Y-113701783D02*
G01*
X105139512Y-113803557D01*
X105360639Y-113951309D01*
X105548691Y-114139361D01*
X105696443Y-114360488D01*
X105798217Y-114606190D01*
X105850100Y-114867027D01*
X105850100Y-115132973D01*
X105798217Y-115393810D01*
X105696443Y-115639512D01*
X105548691Y-115860639D01*
X105360639Y-116048691D01*
X105139512Y-116196443D01*
X104893810Y-116298217D01*
X104632973Y-116350100D01*
X104367027Y-116350100D01*
X104106190Y-116298217D01*
X103860488Y-116196443D01*
X103639361Y-116048691D01*
X103451309Y-115860639D01*
X103303557Y-115639512D01*
X103201783Y-115393810D01*
X103149900Y-115132973D01*
X103149900Y-114867027D01*
X103201783Y-114606190D01*
X103303557Y-114360488D01*
X103451309Y-114139361D01*
X103639361Y-113951309D01*
X103860488Y-113803557D01*
X104106190Y-113701783D01*
X104367027Y-113649900D01*
X104632973Y-113649900D01*
X104893810Y-113701783D01*
X104893810Y-113701783D01*
G37*
G36*
X114274179Y-114105862D02*
G01*
X114326700Y-114121795D01*
X114375096Y-114147663D01*
X114417521Y-114182479D01*
X114452337Y-114224904D01*
X114478205Y-114273300D01*
X114494138Y-114325821D01*
X114500000Y-114385342D01*
X114500000Y-115614658D01*
X114494138Y-115674179D01*
X114478205Y-115726700D01*
X114452337Y-115775096D01*
X114417521Y-115817521D01*
X114375096Y-115852337D01*
X114326700Y-115878205D01*
X114274179Y-115894138D01*
X114214658Y-115900000D01*
X113235342Y-115900000D01*
X113175821Y-115894138D01*
X113123300Y-115878205D01*
X113074904Y-115852337D01*
X113032479Y-115817521D01*
X112997663Y-115775096D01*
X112971795Y-115726700D01*
X112955862Y-115674179D01*
X112950000Y-115614658D01*
X112950000Y-114385342D01*
X112955862Y-114325821D01*
X112971795Y-114273300D01*
X112997663Y-114224904D01*
X113032479Y-114182479D01*
X113074904Y-114147663D01*
X113123300Y-114121795D01*
X113175821Y-114105862D01*
X113235342Y-114100000D01*
X114214658Y-114100000D01*
X114274179Y-114105862D01*
X114274179Y-114105862D01*
G37*
G36*
X116324179Y-114105862D02*
G01*
X116376700Y-114121795D01*
X116425096Y-114147663D01*
X116467521Y-114182479D01*
X116502337Y-114224904D01*
X116528205Y-114273300D01*
X116544138Y-114325821D01*
X116550000Y-114385342D01*
X116550000Y-115614658D01*
X116544138Y-115674179D01*
X116528205Y-115726700D01*
X116502337Y-115775096D01*
X116467521Y-115817521D01*
X116425096Y-115852337D01*
X116376700Y-115878205D01*
X116324179Y-115894138D01*
X116264658Y-115900000D01*
X115285342Y-115900000D01*
X115225821Y-115894138D01*
X115173300Y-115878205D01*
X115124904Y-115852337D01*
X115082479Y-115817521D01*
X115047663Y-115775096D01*
X115021795Y-115726700D01*
X115005862Y-115674179D01*
X115000000Y-115614658D01*
X115000000Y-114385342D01*
X115005862Y-114325821D01*
X115021795Y-114273300D01*
X115047663Y-114224904D01*
X115082479Y-114182479D01*
X115124904Y-114147663D01*
X115173300Y-114121795D01*
X115225821Y-114105862D01*
X115285342Y-114100000D01*
X116264658Y-114100000D01*
X116324179Y-114105862D01*
X116324179Y-114105862D01*
G37*
G36*
X109167272Y-112691395D02*
G01*
X109205836Y-112695193D01*
X109308056Y-112726201D01*
X109403763Y-112755233D01*
X109586169Y-112852731D01*
X109746054Y-112983946D01*
X109877269Y-113143831D01*
X109974767Y-113326237D01*
X109974767Y-113326238D01*
X110034807Y-113524164D01*
X110034807Y-113524166D01*
X110055081Y-113730000D01*
X110044647Y-113835933D01*
X110034807Y-113935836D01*
X110001720Y-114044908D01*
X109974767Y-114133763D01*
X109877269Y-114316169D01*
X109746054Y-114476054D01*
X109586169Y-114607269D01*
X109403763Y-114704767D01*
X109337787Y-114724780D01*
X109205836Y-114764807D01*
X109167272Y-114768605D01*
X109051584Y-114780000D01*
X108948416Y-114780000D01*
X108832728Y-114768605D01*
X108794164Y-114764807D01*
X108662213Y-114724780D01*
X108596237Y-114704767D01*
X108413831Y-114607269D01*
X108253946Y-114476054D01*
X108122731Y-114316169D01*
X108025233Y-114133763D01*
X107998280Y-114044908D01*
X107965193Y-113935836D01*
X107955353Y-113835933D01*
X107944919Y-113730000D01*
X107965193Y-113524166D01*
X107965193Y-113524164D01*
X108025233Y-113326238D01*
X108025233Y-113326237D01*
X108122731Y-113143831D01*
X108253946Y-112983946D01*
X108413831Y-112852731D01*
X108596237Y-112755233D01*
X108691944Y-112726201D01*
X108794164Y-112695193D01*
X108832728Y-112691395D01*
X108948416Y-112680000D01*
X109051584Y-112680000D01*
X109167272Y-112691395D01*
X109167272Y-112691395D01*
G37*
G36*
X156167272Y-112691395D02*
G01*
X156205836Y-112695193D01*
X156308056Y-112726201D01*
X156403763Y-112755233D01*
X156586169Y-112852731D01*
X156746054Y-112983946D01*
X156877269Y-113143831D01*
X156974767Y-113326237D01*
X156974767Y-113326238D01*
X157034807Y-113524164D01*
X157034807Y-113524166D01*
X157055081Y-113730000D01*
X157044647Y-113835933D01*
X157034807Y-113935836D01*
X157001720Y-114044908D01*
X156974767Y-114133763D01*
X156877269Y-114316169D01*
X156746054Y-114476054D01*
X156586169Y-114607269D01*
X156403763Y-114704767D01*
X156337787Y-114724780D01*
X156205836Y-114764807D01*
X156167272Y-114768605D01*
X156051584Y-114780000D01*
X155948416Y-114780000D01*
X155832728Y-114768605D01*
X155794164Y-114764807D01*
X155662213Y-114724780D01*
X155596237Y-114704767D01*
X155413831Y-114607269D01*
X155253946Y-114476054D01*
X155122731Y-114316169D01*
X155025233Y-114133763D01*
X154998280Y-114044908D01*
X154965193Y-113935836D01*
X154955353Y-113835933D01*
X154944919Y-113730000D01*
X154965193Y-113524166D01*
X154965193Y-113524164D01*
X155025233Y-113326238D01*
X155025233Y-113326237D01*
X155122731Y-113143831D01*
X155253946Y-112983946D01*
X155413831Y-112852731D01*
X155596237Y-112755233D01*
X155691944Y-112726201D01*
X155794164Y-112695193D01*
X155832728Y-112691395D01*
X155948416Y-112680000D01*
X156051584Y-112680000D01*
X156167272Y-112691395D01*
X156167272Y-112691395D01*
G37*
G36*
X130050000Y-113950000D02*
G01*
X129400000Y-113950000D01*
X129400000Y-111799999D01*
X129398079Y-111780490D01*
X129392388Y-111761731D01*
X129383147Y-111744443D01*
X129370711Y-111729289D01*
X129355557Y-111716853D01*
X129338269Y-111707612D01*
X129319510Y-111701921D01*
X129300001Y-111700000D01*
X126300000Y-111700000D01*
X126300000Y-111050000D01*
X130050000Y-111050000D01*
X130050000Y-113950000D01*
X130050000Y-113950000D01*
G37*
G36*
X110050000Y-112240000D02*
G01*
X107950000Y-112240000D01*
X107950000Y-110140000D01*
X110050000Y-110140000D01*
X110050000Y-112240000D01*
X110050000Y-112240000D01*
G37*
G36*
X157050000Y-112240000D02*
G01*
X154950000Y-112240000D01*
X154950000Y-110140000D01*
X157050000Y-110140000D01*
X157050000Y-112240000D01*
X157050000Y-112240000D01*
G37*
G36*
X116324179Y-110355862D02*
G01*
X116376700Y-110371795D01*
X116425096Y-110397663D01*
X116467521Y-110432479D01*
X116502337Y-110474904D01*
X116528205Y-110523300D01*
X116544138Y-110575821D01*
X116550000Y-110635342D01*
X116550000Y-111864658D01*
X116544138Y-111924179D01*
X116528205Y-111976700D01*
X116502337Y-112025096D01*
X116467521Y-112067521D01*
X116425096Y-112102337D01*
X116376700Y-112128205D01*
X116324179Y-112144138D01*
X116264658Y-112150000D01*
X115285342Y-112150000D01*
X115225821Y-112144138D01*
X115173300Y-112128205D01*
X115124904Y-112102337D01*
X115082479Y-112067521D01*
X115047663Y-112025096D01*
X115021795Y-111976700D01*
X115005862Y-111924179D01*
X115000000Y-111864658D01*
X115000000Y-110635342D01*
X115005862Y-110575821D01*
X115021795Y-110523300D01*
X115047663Y-110474904D01*
X115082479Y-110432479D01*
X115124904Y-110397663D01*
X115173300Y-110371795D01*
X115225821Y-110355862D01*
X115285342Y-110350000D01*
X116264658Y-110350000D01*
X116324179Y-110355862D01*
X116324179Y-110355862D01*
G37*
G36*
X114274179Y-110355862D02*
G01*
X114326700Y-110371795D01*
X114375096Y-110397663D01*
X114417521Y-110432479D01*
X114452337Y-110474904D01*
X114478205Y-110523300D01*
X114494138Y-110575821D01*
X114500000Y-110635342D01*
X114500000Y-111864658D01*
X114494138Y-111924179D01*
X114478205Y-111976700D01*
X114452337Y-112025096D01*
X114417521Y-112067521D01*
X114375096Y-112102337D01*
X114326700Y-112128205D01*
X114274179Y-112144138D01*
X114214658Y-112150000D01*
X113235342Y-112150000D01*
X113175821Y-112144138D01*
X113123300Y-112128205D01*
X113074904Y-112102337D01*
X113032479Y-112067521D01*
X112997663Y-112025096D01*
X112971795Y-111976700D01*
X112955862Y-111924179D01*
X112950000Y-111864658D01*
X112950000Y-110635342D01*
X112955862Y-110575821D01*
X112971795Y-110523300D01*
X112997663Y-110474904D01*
X113032479Y-110432479D01*
X113074904Y-110397663D01*
X113123300Y-110371795D01*
X113175821Y-110355862D01*
X113235342Y-110350000D01*
X114214658Y-110350000D01*
X114274179Y-110355862D01*
X114274179Y-110355862D01*
G37*
G36*
X160894072Y-106950918D02*
G01*
X160894074Y-106950919D01*
X160894075Y-106950919D01*
X160966086Y-106980747D01*
X161139939Y-107052759D01*
X161139940Y-107052760D01*
X161361211Y-107200608D01*
X161549392Y-107388789D01*
X161612851Y-107483763D01*
X161697241Y-107610061D01*
X161799082Y-107855928D01*
X161851000Y-108116938D01*
X161851000Y-108383062D01*
X161799082Y-108644072D01*
X161697241Y-108889939D01*
X161697240Y-108889940D01*
X161549392Y-109111211D01*
X161361211Y-109299392D01*
X161184073Y-109417751D01*
X161139939Y-109447241D01*
X160966086Y-109519253D01*
X160894075Y-109549081D01*
X160894074Y-109549081D01*
X160894072Y-109549082D01*
X160633062Y-109601000D01*
X160366938Y-109601000D01*
X160105928Y-109549082D01*
X160105926Y-109549081D01*
X160105925Y-109549081D01*
X160033914Y-109519253D01*
X159860061Y-109447241D01*
X159815927Y-109417751D01*
X159638789Y-109299392D01*
X159450608Y-109111211D01*
X159302760Y-108889940D01*
X159302759Y-108889939D01*
X159200918Y-108644072D01*
X159149000Y-108383062D01*
X159149000Y-108116938D01*
X159200918Y-107855928D01*
X159302759Y-107610061D01*
X159387149Y-107483763D01*
X159450608Y-107388789D01*
X159638789Y-107200608D01*
X159860060Y-107052760D01*
X159860061Y-107052759D01*
X160033914Y-106980747D01*
X160105925Y-106950919D01*
X160105926Y-106950919D01*
X160105928Y-106950918D01*
X160366938Y-106899000D01*
X160633062Y-106899000D01*
X160894072Y-106950918D01*
X160894072Y-106950918D01*
G37*
G36*
X104894072Y-106950918D02*
G01*
X104894074Y-106950919D01*
X104894075Y-106950919D01*
X104966086Y-106980747D01*
X105139939Y-107052759D01*
X105139940Y-107052760D01*
X105361211Y-107200608D01*
X105549392Y-107388789D01*
X105612851Y-107483763D01*
X105697241Y-107610061D01*
X105799082Y-107855928D01*
X105851000Y-108116938D01*
X105851000Y-108383062D01*
X105799082Y-108644072D01*
X105697241Y-108889939D01*
X105697240Y-108889940D01*
X105549392Y-109111211D01*
X105361211Y-109299392D01*
X105184073Y-109417751D01*
X105139939Y-109447241D01*
X104966086Y-109519253D01*
X104894075Y-109549081D01*
X104894074Y-109549081D01*
X104894072Y-109549082D01*
X104633062Y-109601000D01*
X104366938Y-109601000D01*
X104105928Y-109549082D01*
X104105926Y-109549081D01*
X104105925Y-109549081D01*
X104033914Y-109519253D01*
X103860061Y-109447241D01*
X103815927Y-109417751D01*
X103638789Y-109299392D01*
X103450608Y-109111211D01*
X103302760Y-108889940D01*
X103302759Y-108889939D01*
X103200918Y-108644072D01*
X103149000Y-108383062D01*
X103149000Y-108116938D01*
X103200918Y-107855928D01*
X103302759Y-107610061D01*
X103387149Y-107483763D01*
X103450608Y-107388789D01*
X103638789Y-107200608D01*
X103860060Y-107052760D01*
X103860061Y-107052759D01*
X104033914Y-106980747D01*
X104105925Y-106950919D01*
X104105926Y-106950919D01*
X104105928Y-106950918D01*
X104366938Y-106899000D01*
X104633062Y-106899000D01*
X104894072Y-106950918D01*
X104894072Y-106950918D01*
G37*
G36*
X147707272Y-106041395D02*
G01*
X147745836Y-106045193D01*
X147877787Y-106085220D01*
X147943763Y-106105233D01*
X148126169Y-106202731D01*
X148286054Y-106333946D01*
X148417269Y-106493831D01*
X148514767Y-106676237D01*
X148514767Y-106676238D01*
X148574807Y-106874164D01*
X148574807Y-106874166D01*
X148595081Y-107080000D01*
X148583201Y-107200608D01*
X148574807Y-107285836D01*
X148543577Y-107388788D01*
X148514767Y-107483763D01*
X148417269Y-107666169D01*
X148286054Y-107826054D01*
X148126169Y-107957269D01*
X147943763Y-108054767D01*
X147877787Y-108074780D01*
X147745836Y-108114807D01*
X147707272Y-108118605D01*
X147591584Y-108130000D01*
X147488416Y-108130000D01*
X147372728Y-108118605D01*
X147334164Y-108114807D01*
X147202213Y-108074780D01*
X147136237Y-108054767D01*
X146953831Y-107957269D01*
X146793946Y-107826054D01*
X146662731Y-107666169D01*
X146565233Y-107483763D01*
X146536423Y-107388788D01*
X146505193Y-107285836D01*
X146496799Y-107200608D01*
X146484919Y-107080000D01*
X146505193Y-106874166D01*
X146505193Y-106874164D01*
X146565233Y-106676238D01*
X146565233Y-106676237D01*
X146662731Y-106493831D01*
X146793946Y-106333946D01*
X146953831Y-106202731D01*
X147136237Y-106105233D01*
X147202213Y-106085220D01*
X147334164Y-106045193D01*
X147372728Y-106041395D01*
X147488416Y-106030000D01*
X147591584Y-106030000D01*
X147707272Y-106041395D01*
X147707272Y-106041395D01*
G37*
G36*
X150247272Y-106041395D02*
G01*
X150285836Y-106045193D01*
X150417787Y-106085220D01*
X150483763Y-106105233D01*
X150666169Y-106202731D01*
X150826054Y-106333946D01*
X150957269Y-106493831D01*
X151054767Y-106676237D01*
X151054767Y-106676238D01*
X151114807Y-106874164D01*
X151114807Y-106874166D01*
X151135081Y-107080000D01*
X151123201Y-107200608D01*
X151114807Y-107285836D01*
X151083577Y-107388788D01*
X151054767Y-107483763D01*
X150957269Y-107666169D01*
X150826054Y-107826054D01*
X150666169Y-107957269D01*
X150483763Y-108054767D01*
X150417787Y-108074780D01*
X150285836Y-108114807D01*
X150247272Y-108118605D01*
X150131584Y-108130000D01*
X150028416Y-108130000D01*
X149912728Y-108118605D01*
X149874164Y-108114807D01*
X149742213Y-108074780D01*
X149676237Y-108054767D01*
X149493831Y-107957269D01*
X149333946Y-107826054D01*
X149202731Y-107666169D01*
X149105233Y-107483763D01*
X149076423Y-107388788D01*
X149045193Y-107285836D01*
X149036799Y-107200608D01*
X149024919Y-107080000D01*
X149045193Y-106874166D01*
X149045193Y-106874164D01*
X149105233Y-106676238D01*
X149105233Y-106676237D01*
X149202731Y-106493831D01*
X149333946Y-106333946D01*
X149493831Y-106202731D01*
X149676237Y-106105233D01*
X149742213Y-106085220D01*
X149874164Y-106045193D01*
X149912728Y-106041395D01*
X150028416Y-106030000D01*
X150131584Y-106030000D01*
X150247272Y-106041395D01*
X150247272Y-106041395D01*
G37*
G36*
X145167272Y-106041395D02*
G01*
X145205836Y-106045193D01*
X145337787Y-106085220D01*
X145403763Y-106105233D01*
X145586169Y-106202731D01*
X145746054Y-106333946D01*
X145877269Y-106493831D01*
X145974767Y-106676237D01*
X145974767Y-106676238D01*
X146034807Y-106874164D01*
X146034807Y-106874166D01*
X146055081Y-107080000D01*
X146043201Y-107200608D01*
X146034807Y-107285836D01*
X146003577Y-107388788D01*
X145974767Y-107483763D01*
X145877269Y-107666169D01*
X145746054Y-107826054D01*
X145586169Y-107957269D01*
X145403763Y-108054767D01*
X145337787Y-108074780D01*
X145205836Y-108114807D01*
X145167272Y-108118605D01*
X145051584Y-108130000D01*
X144948416Y-108130000D01*
X144832728Y-108118605D01*
X144794164Y-108114807D01*
X144662213Y-108074780D01*
X144596237Y-108054767D01*
X144413831Y-107957269D01*
X144253946Y-107826054D01*
X144122731Y-107666169D01*
X144025233Y-107483763D01*
X143996423Y-107388788D01*
X143965193Y-107285836D01*
X143956799Y-107200608D01*
X143944919Y-107080000D01*
X143965193Y-106874166D01*
X143965193Y-106874164D01*
X144025233Y-106676238D01*
X144025233Y-106676237D01*
X144122731Y-106493831D01*
X144253946Y-106333946D01*
X144413831Y-106202731D01*
X144596237Y-106105233D01*
X144662213Y-106085220D01*
X144794164Y-106045193D01*
X144832728Y-106041395D01*
X144948416Y-106030000D01*
X145051584Y-106030000D01*
X145167272Y-106041395D01*
X145167272Y-106041395D01*
G37*
G36*
X140970000Y-108130000D02*
G01*
X138870000Y-108130000D01*
X138870000Y-106030000D01*
X140970000Y-106030000D01*
X140970000Y-108130000D01*
X140970000Y-108130000D01*
G37*
G36*
X142627272Y-106041395D02*
G01*
X142665836Y-106045193D01*
X142797787Y-106085220D01*
X142863763Y-106105233D01*
X143046169Y-106202731D01*
X143206054Y-106333946D01*
X143337269Y-106493831D01*
X143434767Y-106676237D01*
X143434767Y-106676238D01*
X143494807Y-106874164D01*
X143494807Y-106874166D01*
X143515081Y-107080000D01*
X143503201Y-107200608D01*
X143494807Y-107285836D01*
X143463577Y-107388788D01*
X143434767Y-107483763D01*
X143337269Y-107666169D01*
X143206054Y-107826054D01*
X143046169Y-107957269D01*
X142863763Y-108054767D01*
X142797787Y-108074780D01*
X142665836Y-108114807D01*
X142627272Y-108118605D01*
X142511584Y-108130000D01*
X142408416Y-108130000D01*
X142292728Y-108118605D01*
X142254164Y-108114807D01*
X142122213Y-108074780D01*
X142056237Y-108054767D01*
X141873831Y-107957269D01*
X141713946Y-107826054D01*
X141582731Y-107666169D01*
X141485233Y-107483763D01*
X141456423Y-107388788D01*
X141425193Y-107285836D01*
X141416799Y-107200608D01*
X141404919Y-107080000D01*
X141425193Y-106874166D01*
X141425193Y-106874164D01*
X141485233Y-106676238D01*
X141485233Y-106676237D01*
X141582731Y-106493831D01*
X141713946Y-106333946D01*
X141873831Y-106202731D01*
X142056237Y-106105233D01*
X142122213Y-106085220D01*
X142254164Y-106045193D01*
X142292728Y-106041395D01*
X142408416Y-106030000D01*
X142511584Y-106030000D01*
X142627272Y-106041395D01*
X142627272Y-106041395D01*
G37*
G36*
X116157271Y-103501395D02*
G01*
X116195836Y-103505193D01*
X116327787Y-103545220D01*
X116393763Y-103565233D01*
X116576169Y-103662731D01*
X116736054Y-103793946D01*
X116867269Y-103953831D01*
X116964767Y-104136237D01*
X116964767Y-104136238D01*
X117024807Y-104334164D01*
X117024807Y-104334166D01*
X117045081Y-104540000D01*
X117029680Y-104696362D01*
X117024807Y-104745836D01*
X116993206Y-104850010D01*
X116964767Y-104943763D01*
X116867269Y-105126169D01*
X116736054Y-105286054D01*
X116576169Y-105417269D01*
X116393763Y-105514767D01*
X116327787Y-105534780D01*
X116195836Y-105574807D01*
X116157271Y-105578605D01*
X116041584Y-105590000D01*
X115938416Y-105590000D01*
X115822729Y-105578605D01*
X115784164Y-105574807D01*
X115652213Y-105534780D01*
X115586237Y-105514767D01*
X115403831Y-105417269D01*
X115243946Y-105286054D01*
X115112731Y-105126169D01*
X115015233Y-104943763D01*
X114986794Y-104850010D01*
X114955193Y-104745836D01*
X114950320Y-104696362D01*
X114934919Y-104540000D01*
X114955193Y-104334166D01*
X114955193Y-104334164D01*
X115015233Y-104136238D01*
X115015233Y-104136237D01*
X115112731Y-103953831D01*
X115243946Y-103793946D01*
X115403831Y-103662731D01*
X115586237Y-103565233D01*
X115652213Y-103545220D01*
X115784164Y-103505193D01*
X115822729Y-103501395D01*
X115938416Y-103490000D01*
X116041584Y-103490000D01*
X116157271Y-103501395D01*
X116157271Y-103501395D01*
G37*
G36*
X121237271Y-103501395D02*
G01*
X121275836Y-103505193D01*
X121407787Y-103545220D01*
X121473763Y-103565233D01*
X121656169Y-103662731D01*
X121816054Y-103793946D01*
X121947269Y-103953831D01*
X122044767Y-104136237D01*
X122044767Y-104136238D01*
X122104807Y-104334164D01*
X122104807Y-104334166D01*
X122125081Y-104540000D01*
X122109680Y-104696362D01*
X122104807Y-104745836D01*
X122073206Y-104850010D01*
X122044767Y-104943763D01*
X121947269Y-105126169D01*
X121816054Y-105286054D01*
X121656169Y-105417269D01*
X121473763Y-105514767D01*
X121407787Y-105534780D01*
X121275836Y-105574807D01*
X121237271Y-105578605D01*
X121121584Y-105590000D01*
X121018416Y-105590000D01*
X120902729Y-105578605D01*
X120864164Y-105574807D01*
X120732213Y-105534780D01*
X120666237Y-105514767D01*
X120483831Y-105417269D01*
X120323946Y-105286054D01*
X120192731Y-105126169D01*
X120095233Y-104943763D01*
X120066794Y-104850010D01*
X120035193Y-104745836D01*
X120030320Y-104696362D01*
X120014919Y-104540000D01*
X120035193Y-104334166D01*
X120035193Y-104334164D01*
X120095233Y-104136238D01*
X120095233Y-104136237D01*
X120192731Y-103953831D01*
X120323946Y-103793946D01*
X120483831Y-103662731D01*
X120666237Y-103565233D01*
X120732213Y-103545220D01*
X120864164Y-103505193D01*
X120902729Y-103501395D01*
X121018416Y-103490000D01*
X121121584Y-103490000D01*
X121237271Y-103501395D01*
X121237271Y-103501395D01*
G37*
G36*
X118697271Y-103501395D02*
G01*
X118735836Y-103505193D01*
X118867787Y-103545220D01*
X118933763Y-103565233D01*
X119116169Y-103662731D01*
X119276054Y-103793946D01*
X119407269Y-103953831D01*
X119504767Y-104136237D01*
X119504767Y-104136238D01*
X119564807Y-104334164D01*
X119564807Y-104334166D01*
X119585081Y-104540000D01*
X119569680Y-104696362D01*
X119564807Y-104745836D01*
X119533206Y-104850010D01*
X119504767Y-104943763D01*
X119407269Y-105126169D01*
X119276054Y-105286054D01*
X119116169Y-105417269D01*
X118933763Y-105514767D01*
X118867787Y-105534780D01*
X118735836Y-105574807D01*
X118697271Y-105578605D01*
X118581584Y-105590000D01*
X118478416Y-105590000D01*
X118362729Y-105578605D01*
X118324164Y-105574807D01*
X118192213Y-105534780D01*
X118126237Y-105514767D01*
X117943831Y-105417269D01*
X117783946Y-105286054D01*
X117652731Y-105126169D01*
X117555233Y-104943763D01*
X117526794Y-104850010D01*
X117495193Y-104745836D01*
X117490320Y-104696362D01*
X117474919Y-104540000D01*
X117495193Y-104334166D01*
X117495193Y-104334164D01*
X117555233Y-104136238D01*
X117555233Y-104136237D01*
X117652731Y-103953831D01*
X117783946Y-103793946D01*
X117943831Y-103662731D01*
X118126237Y-103565233D01*
X118192213Y-103545220D01*
X118324164Y-103505193D01*
X118362729Y-103501395D01*
X118478416Y-103490000D01*
X118581584Y-103490000D01*
X118697271Y-103501395D01*
X118697271Y-103501395D01*
G37*
G36*
X123777271Y-103501395D02*
G01*
X123815836Y-103505193D01*
X123947787Y-103545220D01*
X124013763Y-103565233D01*
X124196169Y-103662731D01*
X124356054Y-103793946D01*
X124487269Y-103953831D01*
X124584767Y-104136237D01*
X124584767Y-104136238D01*
X124644807Y-104334164D01*
X124644807Y-104334166D01*
X124665081Y-104540000D01*
X124649680Y-104696362D01*
X124644807Y-104745836D01*
X124613206Y-104850010D01*
X124584767Y-104943763D01*
X124487269Y-105126169D01*
X124356054Y-105286054D01*
X124196169Y-105417269D01*
X124013763Y-105514767D01*
X123947787Y-105534780D01*
X123815836Y-105574807D01*
X123777271Y-105578605D01*
X123661584Y-105590000D01*
X123558416Y-105590000D01*
X123442729Y-105578605D01*
X123404164Y-105574807D01*
X123272213Y-105534780D01*
X123206237Y-105514767D01*
X123023831Y-105417269D01*
X122863946Y-105286054D01*
X122732731Y-105126169D01*
X122635233Y-104943763D01*
X122606794Y-104850010D01*
X122575193Y-104745836D01*
X122570320Y-104696362D01*
X122554919Y-104540000D01*
X122575193Y-104334166D01*
X122575193Y-104334164D01*
X122635233Y-104136238D01*
X122635233Y-104136237D01*
X122732731Y-103953831D01*
X122863946Y-103793946D01*
X123023831Y-103662731D01*
X123206237Y-103565233D01*
X123272213Y-103545220D01*
X123404164Y-103505193D01*
X123442729Y-103501395D01*
X123558416Y-103490000D01*
X123661584Y-103490000D01*
X123777271Y-103501395D01*
X123777271Y-103501395D01*
G37*
G36*
X145167271Y-103501395D02*
G01*
X145205836Y-103505193D01*
X145337787Y-103545220D01*
X145403763Y-103565233D01*
X145586169Y-103662731D01*
X145746054Y-103793946D01*
X145877269Y-103953831D01*
X145974767Y-104136237D01*
X145974767Y-104136238D01*
X146034807Y-104334164D01*
X146034807Y-104334166D01*
X146055081Y-104540000D01*
X146039680Y-104696362D01*
X146034807Y-104745836D01*
X146003206Y-104850010D01*
X145974767Y-104943763D01*
X145877269Y-105126169D01*
X145746054Y-105286054D01*
X145586169Y-105417269D01*
X145403763Y-105514767D01*
X145337787Y-105534780D01*
X145205836Y-105574807D01*
X145167271Y-105578605D01*
X145051584Y-105590000D01*
X144948416Y-105590000D01*
X144832729Y-105578605D01*
X144794164Y-105574807D01*
X144662213Y-105534780D01*
X144596237Y-105514767D01*
X144413831Y-105417269D01*
X144253946Y-105286054D01*
X144122731Y-105126169D01*
X144025233Y-104943763D01*
X143996794Y-104850010D01*
X143965193Y-104745836D01*
X143960320Y-104696362D01*
X143944919Y-104540000D01*
X143965193Y-104334166D01*
X143965193Y-104334164D01*
X144025233Y-104136238D01*
X144025233Y-104136237D01*
X144122731Y-103953831D01*
X144253946Y-103793946D01*
X144413831Y-103662731D01*
X144596237Y-103565233D01*
X144662213Y-103545220D01*
X144794164Y-103505193D01*
X144832729Y-103501395D01*
X144948416Y-103490000D01*
X145051584Y-103490000D01*
X145167271Y-103501395D01*
X145167271Y-103501395D01*
G37*
G36*
X147707271Y-103501395D02*
G01*
X147745836Y-103505193D01*
X147877787Y-103545220D01*
X147943763Y-103565233D01*
X148126169Y-103662731D01*
X148286054Y-103793946D01*
X148417269Y-103953831D01*
X148514767Y-104136237D01*
X148514767Y-104136238D01*
X148574807Y-104334164D01*
X148574807Y-104334166D01*
X148595081Y-104540000D01*
X148579680Y-104696362D01*
X148574807Y-104745836D01*
X148543206Y-104850010D01*
X148514767Y-104943763D01*
X148417269Y-105126169D01*
X148286054Y-105286054D01*
X148126169Y-105417269D01*
X147943763Y-105514767D01*
X147877787Y-105534780D01*
X147745836Y-105574807D01*
X147707271Y-105578605D01*
X147591584Y-105590000D01*
X147488416Y-105590000D01*
X147372729Y-105578605D01*
X147334164Y-105574807D01*
X147202213Y-105534780D01*
X147136237Y-105514767D01*
X146953831Y-105417269D01*
X146793946Y-105286054D01*
X146662731Y-105126169D01*
X146565233Y-104943763D01*
X146536794Y-104850010D01*
X146505193Y-104745836D01*
X146500320Y-104696362D01*
X146484919Y-104540000D01*
X146505193Y-104334166D01*
X146505193Y-104334164D01*
X146565233Y-104136238D01*
X146565233Y-104136237D01*
X146662731Y-103953831D01*
X146793946Y-103793946D01*
X146953831Y-103662731D01*
X147136237Y-103565233D01*
X147202213Y-103545220D01*
X147334164Y-103505193D01*
X147372729Y-103501395D01*
X147488416Y-103490000D01*
X147591584Y-103490000D01*
X147707271Y-103501395D01*
X147707271Y-103501395D01*
G37*
G36*
X142627271Y-103501395D02*
G01*
X142665836Y-103505193D01*
X142797787Y-103545220D01*
X142863763Y-103565233D01*
X143046169Y-103662731D01*
X143206054Y-103793946D01*
X143337269Y-103953831D01*
X143434767Y-104136237D01*
X143434767Y-104136238D01*
X143494807Y-104334164D01*
X143494807Y-104334166D01*
X143515081Y-104540000D01*
X143499680Y-104696362D01*
X143494807Y-104745836D01*
X143463206Y-104850010D01*
X143434767Y-104943763D01*
X143337269Y-105126169D01*
X143206054Y-105286054D01*
X143046169Y-105417269D01*
X142863763Y-105514767D01*
X142797787Y-105534780D01*
X142665836Y-105574807D01*
X142627271Y-105578605D01*
X142511584Y-105590000D01*
X142408416Y-105590000D01*
X142292729Y-105578605D01*
X142254164Y-105574807D01*
X142122213Y-105534780D01*
X142056237Y-105514767D01*
X141873831Y-105417269D01*
X141713946Y-105286054D01*
X141582731Y-105126169D01*
X141485233Y-104943763D01*
X141456794Y-104850010D01*
X141425193Y-104745836D01*
X141420320Y-104696362D01*
X141404919Y-104540000D01*
X141425193Y-104334166D01*
X141425193Y-104334164D01*
X141485233Y-104136238D01*
X141485233Y-104136237D01*
X141582731Y-103953831D01*
X141713946Y-103793946D01*
X141873831Y-103662731D01*
X142056237Y-103565233D01*
X142122213Y-103545220D01*
X142254164Y-103505193D01*
X142292729Y-103501395D01*
X142408416Y-103490000D01*
X142511584Y-103490000D01*
X142627271Y-103501395D01*
X142627271Y-103501395D01*
G37*
G36*
X140087271Y-103501395D02*
G01*
X140125836Y-103505193D01*
X140257787Y-103545220D01*
X140323763Y-103565233D01*
X140506169Y-103662731D01*
X140666054Y-103793946D01*
X140797269Y-103953831D01*
X140894767Y-104136237D01*
X140894767Y-104136238D01*
X140954807Y-104334164D01*
X140954807Y-104334166D01*
X140975081Y-104540000D01*
X140959680Y-104696362D01*
X140954807Y-104745836D01*
X140923206Y-104850010D01*
X140894767Y-104943763D01*
X140797269Y-105126169D01*
X140666054Y-105286054D01*
X140506169Y-105417269D01*
X140323763Y-105514767D01*
X140257787Y-105534780D01*
X140125836Y-105574807D01*
X140087271Y-105578605D01*
X139971584Y-105590000D01*
X139868416Y-105590000D01*
X139752729Y-105578605D01*
X139714164Y-105574807D01*
X139582213Y-105534780D01*
X139516237Y-105514767D01*
X139333831Y-105417269D01*
X139173946Y-105286054D01*
X139042731Y-105126169D01*
X138945233Y-104943763D01*
X138916794Y-104850010D01*
X138885193Y-104745836D01*
X138880320Y-104696362D01*
X138864919Y-104540000D01*
X138885193Y-104334166D01*
X138885193Y-104334164D01*
X138945233Y-104136238D01*
X138945233Y-104136237D01*
X139042731Y-103953831D01*
X139173946Y-103793946D01*
X139333831Y-103662731D01*
X139516237Y-103565233D01*
X139582213Y-103545220D01*
X139714164Y-103505193D01*
X139752729Y-103501395D01*
X139868416Y-103490000D01*
X139971584Y-103490000D01*
X140087271Y-103501395D01*
X140087271Y-103501395D01*
G37*
G36*
X109420000Y-105590000D02*
G01*
X107320000Y-105590000D01*
X107320000Y-103490000D01*
X109420000Y-103490000D01*
X109420000Y-105590000D01*
X109420000Y-105590000D01*
G37*
G36*
X126317271Y-103501395D02*
G01*
X126355836Y-103505193D01*
X126487787Y-103545220D01*
X126553763Y-103565233D01*
X126736169Y-103662731D01*
X126896054Y-103793946D01*
X127027269Y-103953831D01*
X127124767Y-104136237D01*
X127124767Y-104136238D01*
X127184807Y-104334164D01*
X127184807Y-104334166D01*
X127205081Y-104540000D01*
X127189680Y-104696362D01*
X127184807Y-104745836D01*
X127153206Y-104850010D01*
X127124767Y-104943763D01*
X127027269Y-105126169D01*
X126896054Y-105286054D01*
X126736169Y-105417269D01*
X126553763Y-105514767D01*
X126487787Y-105534780D01*
X126355836Y-105574807D01*
X126317271Y-105578605D01*
X126201584Y-105590000D01*
X126098416Y-105590000D01*
X125982729Y-105578605D01*
X125944164Y-105574807D01*
X125812213Y-105534780D01*
X125746237Y-105514767D01*
X125563831Y-105417269D01*
X125403946Y-105286054D01*
X125272731Y-105126169D01*
X125175233Y-104943763D01*
X125146794Y-104850010D01*
X125115193Y-104745836D01*
X125110320Y-104696362D01*
X125094919Y-104540000D01*
X125115193Y-104334166D01*
X125115193Y-104334164D01*
X125175233Y-104136238D01*
X125175233Y-104136237D01*
X125272731Y-103953831D01*
X125403946Y-103793946D01*
X125563831Y-103662731D01*
X125746237Y-103565233D01*
X125812213Y-103545220D01*
X125944164Y-103505193D01*
X125982729Y-103501395D01*
X126098416Y-103490000D01*
X126201584Y-103490000D01*
X126317271Y-103501395D01*
X126317271Y-103501395D01*
G37*
G36*
X113617271Y-103501395D02*
G01*
X113655836Y-103505193D01*
X113787787Y-103545220D01*
X113853763Y-103565233D01*
X114036169Y-103662731D01*
X114196054Y-103793946D01*
X114327269Y-103953831D01*
X114424767Y-104136237D01*
X114424767Y-104136238D01*
X114484807Y-104334164D01*
X114484807Y-104334166D01*
X114505081Y-104540000D01*
X114489680Y-104696362D01*
X114484807Y-104745836D01*
X114453206Y-104850010D01*
X114424767Y-104943763D01*
X114327269Y-105126169D01*
X114196054Y-105286054D01*
X114036169Y-105417269D01*
X113853763Y-105514767D01*
X113787787Y-105534780D01*
X113655836Y-105574807D01*
X113617271Y-105578605D01*
X113501584Y-105590000D01*
X113398416Y-105590000D01*
X113282729Y-105578605D01*
X113244164Y-105574807D01*
X113112213Y-105534780D01*
X113046237Y-105514767D01*
X112863831Y-105417269D01*
X112703946Y-105286054D01*
X112572731Y-105126169D01*
X112475233Y-104943763D01*
X112446794Y-104850010D01*
X112415193Y-104745836D01*
X112410320Y-104696362D01*
X112394919Y-104540000D01*
X112415193Y-104334166D01*
X112415193Y-104334164D01*
X112475233Y-104136238D01*
X112475233Y-104136237D01*
X112572731Y-103953831D01*
X112703946Y-103793946D01*
X112863831Y-103662731D01*
X113046237Y-103565233D01*
X113112213Y-103545220D01*
X113244164Y-103505193D01*
X113282729Y-103501395D01*
X113398416Y-103490000D01*
X113501584Y-103490000D01*
X113617271Y-103501395D01*
X113617271Y-103501395D01*
G37*
G36*
X111077271Y-103501395D02*
G01*
X111115836Y-103505193D01*
X111247787Y-103545220D01*
X111313763Y-103565233D01*
X111496169Y-103662731D01*
X111656054Y-103793946D01*
X111787269Y-103953831D01*
X111884767Y-104136237D01*
X111884767Y-104136238D01*
X111944807Y-104334164D01*
X111944807Y-104334166D01*
X111965081Y-104540000D01*
X111949680Y-104696362D01*
X111944807Y-104745836D01*
X111913206Y-104850010D01*
X111884767Y-104943763D01*
X111787269Y-105126169D01*
X111656054Y-105286054D01*
X111496169Y-105417269D01*
X111313763Y-105514767D01*
X111247787Y-105534780D01*
X111115836Y-105574807D01*
X111077271Y-105578605D01*
X110961584Y-105590000D01*
X110858416Y-105590000D01*
X110742729Y-105578605D01*
X110704164Y-105574807D01*
X110572213Y-105534780D01*
X110506237Y-105514767D01*
X110323831Y-105417269D01*
X110163946Y-105286054D01*
X110032731Y-105126169D01*
X109935233Y-104943763D01*
X109906794Y-104850010D01*
X109875193Y-104745836D01*
X109870320Y-104696362D01*
X109854919Y-104540000D01*
X109875193Y-104334166D01*
X109875193Y-104334164D01*
X109935233Y-104136238D01*
X109935233Y-104136237D01*
X110032731Y-103953831D01*
X110163946Y-103793946D01*
X110323831Y-103662731D01*
X110506237Y-103565233D01*
X110572213Y-103545220D01*
X110704164Y-103505193D01*
X110742729Y-103501395D01*
X110858416Y-103490000D01*
X110961584Y-103490000D01*
X111077271Y-103501395D01*
X111077271Y-103501395D01*
G37*
G36*
X150247271Y-103501395D02*
G01*
X150285836Y-103505193D01*
X150417787Y-103545220D01*
X150483763Y-103565233D01*
X150666169Y-103662731D01*
X150826054Y-103793946D01*
X150957269Y-103953831D01*
X151054767Y-104136237D01*
X151054767Y-104136238D01*
X151114807Y-104334164D01*
X151114807Y-104334166D01*
X151135081Y-104540000D01*
X151119680Y-104696362D01*
X151114807Y-104745836D01*
X151083206Y-104850010D01*
X151054767Y-104943763D01*
X150957269Y-105126169D01*
X150826054Y-105286054D01*
X150666169Y-105417269D01*
X150483763Y-105514767D01*
X150417787Y-105534780D01*
X150285836Y-105574807D01*
X150247271Y-105578605D01*
X150131584Y-105590000D01*
X150028416Y-105590000D01*
X149912729Y-105578605D01*
X149874164Y-105574807D01*
X149742213Y-105534780D01*
X149676237Y-105514767D01*
X149493831Y-105417269D01*
X149333946Y-105286054D01*
X149202731Y-105126169D01*
X149105233Y-104943763D01*
X149076794Y-104850010D01*
X149045193Y-104745836D01*
X149040320Y-104696362D01*
X149024919Y-104540000D01*
X149045193Y-104334166D01*
X149045193Y-104334164D01*
X149105233Y-104136238D01*
X149105233Y-104136237D01*
X149202731Y-103953831D01*
X149333946Y-103793946D01*
X149493831Y-103662731D01*
X149676237Y-103565233D01*
X149742213Y-103545220D01*
X149874164Y-103505193D01*
X149912729Y-103501395D01*
X150028416Y-103490000D01*
X150131584Y-103490000D01*
X150247271Y-103501395D01*
X150247271Y-103501395D01*
G37*
G36*
X161893783Y-102201870D02*
G01*
X161893785Y-102201871D01*
X161893786Y-102201871D01*
X162139471Y-102303638D01*
X162360580Y-102451377D01*
X162548623Y-102639420D01*
X162696362Y-102860529D01*
X162696363Y-102860531D01*
X162798130Y-103106217D01*
X162850010Y-103367036D01*
X162850010Y-103632964D01*
X162817989Y-103793946D01*
X162798129Y-103893786D01*
X162696362Y-104139471D01*
X162548623Y-104360580D01*
X162360580Y-104548623D01*
X162139471Y-104696362D01*
X161893786Y-104798129D01*
X161893785Y-104798129D01*
X161893783Y-104798130D01*
X161632964Y-104850010D01*
X161367036Y-104850010D01*
X161106217Y-104798130D01*
X161106215Y-104798129D01*
X161106214Y-104798129D01*
X160860529Y-104696362D01*
X160639420Y-104548623D01*
X160451377Y-104360580D01*
X160303638Y-104139471D01*
X160201871Y-103893786D01*
X160182012Y-103793946D01*
X160149990Y-103632964D01*
X160149990Y-103367036D01*
X160201870Y-103106217D01*
X160303637Y-102860531D01*
X160303638Y-102860529D01*
X160451377Y-102639420D01*
X160639420Y-102451377D01*
X160860529Y-102303638D01*
X161106214Y-102201871D01*
X161106215Y-102201871D01*
X161106217Y-102201870D01*
X161367036Y-102149990D01*
X161632964Y-102149990D01*
X161893783Y-102201870D01*
X161893783Y-102201870D01*
G37*
G36*
X103893783Y-102201870D02*
G01*
X103893785Y-102201871D01*
X103893786Y-102201871D01*
X104139471Y-102303638D01*
X104360580Y-102451377D01*
X104548623Y-102639420D01*
X104696362Y-102860529D01*
X104696363Y-102860531D01*
X104798130Y-103106217D01*
X104850010Y-103367036D01*
X104850010Y-103632964D01*
X104817989Y-103793946D01*
X104798129Y-103893786D01*
X104696362Y-104139471D01*
X104548623Y-104360580D01*
X104360580Y-104548623D01*
X104139471Y-104696362D01*
X103893786Y-104798129D01*
X103893785Y-104798129D01*
X103893783Y-104798130D01*
X103632964Y-104850010D01*
X103367036Y-104850010D01*
X103106217Y-104798130D01*
X103106215Y-104798129D01*
X103106214Y-104798129D01*
X102860529Y-104696362D01*
X102639420Y-104548623D01*
X102451377Y-104360580D01*
X102303638Y-104139471D01*
X102201871Y-103893786D01*
X102182012Y-103793946D01*
X102149990Y-103632964D01*
X102149990Y-103367036D01*
X102201870Y-103106217D01*
X102303637Y-102860531D01*
X102303638Y-102860529D01*
X102451377Y-102639420D01*
X102639420Y-102451377D01*
X102860529Y-102303638D01*
X103106214Y-102201871D01*
X103106215Y-102201871D01*
X103106217Y-102201870D01*
X103367036Y-102149990D01*
X103632964Y-102149990D01*
X103893783Y-102201870D01*
X103893783Y-102201870D01*
G37*
G36*
X126317271Y-100961395D02*
G01*
X126355836Y-100965193D01*
X126487787Y-101005220D01*
X126553763Y-101025233D01*
X126736169Y-101122731D01*
X126896054Y-101253946D01*
X127027269Y-101413831D01*
X127124767Y-101596237D01*
X127124767Y-101596238D01*
X127184807Y-101794164D01*
X127184807Y-101794166D01*
X127205081Y-102000000D01*
X127190307Y-102149990D01*
X127184807Y-102205836D01*
X127155139Y-102303637D01*
X127124767Y-102403763D01*
X127027269Y-102586169D01*
X126896054Y-102746054D01*
X126736169Y-102877269D01*
X126553763Y-102974767D01*
X126487787Y-102994780D01*
X126355836Y-103034807D01*
X126317272Y-103038605D01*
X126201584Y-103050000D01*
X126098416Y-103050000D01*
X125982729Y-103038605D01*
X125944164Y-103034807D01*
X125812213Y-102994780D01*
X125746237Y-102974767D01*
X125563831Y-102877269D01*
X125403946Y-102746054D01*
X125272731Y-102586169D01*
X125175233Y-102403763D01*
X125144861Y-102303637D01*
X125115193Y-102205836D01*
X125109693Y-102149990D01*
X125094919Y-102000000D01*
X125115193Y-101794166D01*
X125115193Y-101794164D01*
X125175233Y-101596238D01*
X125175233Y-101596237D01*
X125272731Y-101413831D01*
X125403946Y-101253946D01*
X125563831Y-101122731D01*
X125746237Y-101025233D01*
X125812213Y-101005220D01*
X125944164Y-100965193D01*
X125982729Y-100961395D01*
X126098416Y-100950000D01*
X126201584Y-100950000D01*
X126317271Y-100961395D01*
X126317271Y-100961395D01*
G37*
G36*
X111077271Y-100961395D02*
G01*
X111115836Y-100965193D01*
X111247787Y-101005220D01*
X111313763Y-101025233D01*
X111496169Y-101122731D01*
X111656054Y-101253946D01*
X111787269Y-101413831D01*
X111884767Y-101596237D01*
X111884767Y-101596238D01*
X111944807Y-101794164D01*
X111944807Y-101794166D01*
X111965081Y-102000000D01*
X111950307Y-102149990D01*
X111944807Y-102205836D01*
X111915139Y-102303637D01*
X111884767Y-102403763D01*
X111787269Y-102586169D01*
X111656054Y-102746054D01*
X111496169Y-102877269D01*
X111313763Y-102974767D01*
X111247787Y-102994780D01*
X111115836Y-103034807D01*
X111077272Y-103038605D01*
X110961584Y-103050000D01*
X110858416Y-103050000D01*
X110742729Y-103038605D01*
X110704164Y-103034807D01*
X110572213Y-102994780D01*
X110506237Y-102974767D01*
X110323831Y-102877269D01*
X110163946Y-102746054D01*
X110032731Y-102586169D01*
X109935233Y-102403763D01*
X109904861Y-102303637D01*
X109875193Y-102205836D01*
X109869693Y-102149990D01*
X109854919Y-102000000D01*
X109875193Y-101794166D01*
X109875193Y-101794164D01*
X109935233Y-101596238D01*
X109935233Y-101596237D01*
X110032731Y-101413831D01*
X110163946Y-101253946D01*
X110323831Y-101122731D01*
X110506237Y-101025233D01*
X110572213Y-101005220D01*
X110704164Y-100965193D01*
X110742729Y-100961395D01*
X110858416Y-100950000D01*
X110961584Y-100950000D01*
X111077271Y-100961395D01*
X111077271Y-100961395D01*
G37*
G36*
X123777271Y-100961395D02*
G01*
X123815836Y-100965193D01*
X123947787Y-101005220D01*
X124013763Y-101025233D01*
X124196169Y-101122731D01*
X124356054Y-101253946D01*
X124487269Y-101413831D01*
X124584767Y-101596237D01*
X124584767Y-101596238D01*
X124644807Y-101794164D01*
X124644807Y-101794166D01*
X124665081Y-102000000D01*
X124650307Y-102149990D01*
X124644807Y-102205836D01*
X124615139Y-102303637D01*
X124584767Y-102403763D01*
X124487269Y-102586169D01*
X124356054Y-102746054D01*
X124196169Y-102877269D01*
X124013763Y-102974767D01*
X123947787Y-102994780D01*
X123815836Y-103034807D01*
X123777272Y-103038605D01*
X123661584Y-103050000D01*
X123558416Y-103050000D01*
X123442729Y-103038605D01*
X123404164Y-103034807D01*
X123272213Y-102994780D01*
X123206237Y-102974767D01*
X123023831Y-102877269D01*
X122863946Y-102746054D01*
X122732731Y-102586169D01*
X122635233Y-102403763D01*
X122604861Y-102303637D01*
X122575193Y-102205836D01*
X122569693Y-102149990D01*
X122554919Y-102000000D01*
X122575193Y-101794166D01*
X122575193Y-101794164D01*
X122635233Y-101596238D01*
X122635233Y-101596237D01*
X122732731Y-101413831D01*
X122863946Y-101253946D01*
X123023831Y-101122731D01*
X123206237Y-101025233D01*
X123272213Y-101005220D01*
X123404164Y-100965193D01*
X123442729Y-100961395D01*
X123558416Y-100950000D01*
X123661584Y-100950000D01*
X123777271Y-100961395D01*
X123777271Y-100961395D01*
G37*
G36*
X121237271Y-100961395D02*
G01*
X121275836Y-100965193D01*
X121407787Y-101005220D01*
X121473763Y-101025233D01*
X121656169Y-101122731D01*
X121816054Y-101253946D01*
X121947269Y-101413831D01*
X122044767Y-101596237D01*
X122044767Y-101596238D01*
X122104807Y-101794164D01*
X122104807Y-101794166D01*
X122125081Y-102000000D01*
X122110307Y-102149990D01*
X122104807Y-102205836D01*
X122075139Y-102303637D01*
X122044767Y-102403763D01*
X121947269Y-102586169D01*
X121816054Y-102746054D01*
X121656169Y-102877269D01*
X121473763Y-102974767D01*
X121407787Y-102994780D01*
X121275836Y-103034807D01*
X121237272Y-103038605D01*
X121121584Y-103050000D01*
X121018416Y-103050000D01*
X120902729Y-103038605D01*
X120864164Y-103034807D01*
X120732213Y-102994780D01*
X120666237Y-102974767D01*
X120483831Y-102877269D01*
X120323946Y-102746054D01*
X120192731Y-102586169D01*
X120095233Y-102403763D01*
X120064861Y-102303637D01*
X120035193Y-102205836D01*
X120029693Y-102149990D01*
X120014919Y-102000000D01*
X120035193Y-101794166D01*
X120035193Y-101794164D01*
X120095233Y-101596238D01*
X120095233Y-101596237D01*
X120192731Y-101413831D01*
X120323946Y-101253946D01*
X120483831Y-101122731D01*
X120666237Y-101025233D01*
X120732213Y-101005220D01*
X120864164Y-100965193D01*
X120902729Y-100961395D01*
X121018416Y-100950000D01*
X121121584Y-100950000D01*
X121237271Y-100961395D01*
X121237271Y-100961395D01*
G37*
G36*
X118697271Y-100961395D02*
G01*
X118735836Y-100965193D01*
X118867787Y-101005220D01*
X118933763Y-101025233D01*
X119116169Y-101122731D01*
X119276054Y-101253946D01*
X119407269Y-101413831D01*
X119504767Y-101596237D01*
X119504767Y-101596238D01*
X119564807Y-101794164D01*
X119564807Y-101794166D01*
X119585081Y-102000000D01*
X119570307Y-102149990D01*
X119564807Y-102205836D01*
X119535139Y-102303637D01*
X119504767Y-102403763D01*
X119407269Y-102586169D01*
X119276054Y-102746054D01*
X119116169Y-102877269D01*
X118933763Y-102974767D01*
X118867787Y-102994780D01*
X118735836Y-103034807D01*
X118697272Y-103038605D01*
X118581584Y-103050000D01*
X118478416Y-103050000D01*
X118362729Y-103038605D01*
X118324164Y-103034807D01*
X118192213Y-102994780D01*
X118126237Y-102974767D01*
X117943831Y-102877269D01*
X117783946Y-102746054D01*
X117652731Y-102586169D01*
X117555233Y-102403763D01*
X117524861Y-102303637D01*
X117495193Y-102205836D01*
X117489693Y-102149990D01*
X117474919Y-102000000D01*
X117495193Y-101794166D01*
X117495193Y-101794164D01*
X117555233Y-101596238D01*
X117555233Y-101596237D01*
X117652731Y-101413831D01*
X117783946Y-101253946D01*
X117943831Y-101122731D01*
X118126237Y-101025233D01*
X118192213Y-101005220D01*
X118324164Y-100965193D01*
X118362729Y-100961395D01*
X118478416Y-100950000D01*
X118581584Y-100950000D01*
X118697271Y-100961395D01*
X118697271Y-100961395D01*
G37*
G36*
X116157271Y-100961395D02*
G01*
X116195836Y-100965193D01*
X116327787Y-101005220D01*
X116393763Y-101025233D01*
X116576169Y-101122731D01*
X116736054Y-101253946D01*
X116867269Y-101413831D01*
X116964767Y-101596237D01*
X116964767Y-101596238D01*
X117024807Y-101794164D01*
X117024807Y-101794166D01*
X117045081Y-102000000D01*
X117030307Y-102149990D01*
X117024807Y-102205836D01*
X116995139Y-102303637D01*
X116964767Y-102403763D01*
X116867269Y-102586169D01*
X116736054Y-102746054D01*
X116576169Y-102877269D01*
X116393763Y-102974767D01*
X116327787Y-102994780D01*
X116195836Y-103034807D01*
X116157272Y-103038605D01*
X116041584Y-103050000D01*
X115938416Y-103050000D01*
X115822729Y-103038605D01*
X115784164Y-103034807D01*
X115652213Y-102994780D01*
X115586237Y-102974767D01*
X115403831Y-102877269D01*
X115243946Y-102746054D01*
X115112731Y-102586169D01*
X115015233Y-102403763D01*
X114984861Y-102303637D01*
X114955193Y-102205836D01*
X114949693Y-102149990D01*
X114934919Y-102000000D01*
X114955193Y-101794166D01*
X114955193Y-101794164D01*
X115015233Y-101596238D01*
X115015233Y-101596237D01*
X115112731Y-101413831D01*
X115243946Y-101253946D01*
X115403831Y-101122731D01*
X115586237Y-101025233D01*
X115652213Y-101005220D01*
X115784164Y-100965193D01*
X115822729Y-100961395D01*
X115938416Y-100950000D01*
X116041584Y-100950000D01*
X116157271Y-100961395D01*
X116157271Y-100961395D01*
G37*
G36*
X113617271Y-100961395D02*
G01*
X113655836Y-100965193D01*
X113787787Y-101005220D01*
X113853763Y-101025233D01*
X114036169Y-101122731D01*
X114196054Y-101253946D01*
X114327269Y-101413831D01*
X114424767Y-101596237D01*
X114424767Y-101596238D01*
X114484807Y-101794164D01*
X114484807Y-101794166D01*
X114505081Y-102000000D01*
X114490307Y-102149990D01*
X114484807Y-102205836D01*
X114455139Y-102303637D01*
X114424767Y-102403763D01*
X114327269Y-102586169D01*
X114196054Y-102746054D01*
X114036169Y-102877269D01*
X113853763Y-102974767D01*
X113787787Y-102994780D01*
X113655836Y-103034807D01*
X113617272Y-103038605D01*
X113501584Y-103050000D01*
X113398416Y-103050000D01*
X113282729Y-103038605D01*
X113244164Y-103034807D01*
X113112213Y-102994780D01*
X113046237Y-102974767D01*
X112863831Y-102877269D01*
X112703946Y-102746054D01*
X112572731Y-102586169D01*
X112475233Y-102403763D01*
X112444861Y-102303637D01*
X112415193Y-102205836D01*
X112409693Y-102149990D01*
X112394919Y-102000000D01*
X112415193Y-101794166D01*
X112415193Y-101794164D01*
X112475233Y-101596238D01*
X112475233Y-101596237D01*
X112572731Y-101413831D01*
X112703946Y-101253946D01*
X112863831Y-101122731D01*
X113046237Y-101025233D01*
X113112213Y-101005220D01*
X113244164Y-100965193D01*
X113282729Y-100961395D01*
X113398416Y-100950000D01*
X113501584Y-100950000D01*
X113617271Y-100961395D01*
X113617271Y-100961395D01*
G37*
G36*
X108537271Y-100961395D02*
G01*
X108575836Y-100965193D01*
X108707787Y-101005220D01*
X108773763Y-101025233D01*
X108956169Y-101122731D01*
X109116054Y-101253946D01*
X109247269Y-101413831D01*
X109344767Y-101596237D01*
X109344767Y-101596238D01*
X109404807Y-101794164D01*
X109404807Y-101794166D01*
X109425081Y-102000000D01*
X109410307Y-102149990D01*
X109404807Y-102205836D01*
X109375139Y-102303637D01*
X109344767Y-102403763D01*
X109247269Y-102586169D01*
X109116054Y-102746054D01*
X108956169Y-102877269D01*
X108773763Y-102974767D01*
X108707787Y-102994780D01*
X108575836Y-103034807D01*
X108537272Y-103038605D01*
X108421584Y-103050000D01*
X108318416Y-103050000D01*
X108202729Y-103038605D01*
X108164164Y-103034807D01*
X108032213Y-102994780D01*
X107966237Y-102974767D01*
X107783831Y-102877269D01*
X107623946Y-102746054D01*
X107492731Y-102586169D01*
X107395233Y-102403763D01*
X107364861Y-102303637D01*
X107335193Y-102205836D01*
X107329693Y-102149990D01*
X107314919Y-102000000D01*
X107335193Y-101794166D01*
X107335193Y-101794164D01*
X107395233Y-101596238D01*
X107395233Y-101596237D01*
X107492731Y-101413831D01*
X107623946Y-101253946D01*
X107783831Y-101122731D01*
X107966237Y-101025233D01*
X108032213Y-101005220D01*
X108164164Y-100965193D01*
X108202729Y-100961395D01*
X108318416Y-100950000D01*
X108421584Y-100950000D01*
X108537271Y-100961395D01*
X108537271Y-100961395D01*
G37*
M02*
