%TF.GenerationSoftware,KiCad,Pcbnew,5.1.0*%
%TF.CreationDate,2019-04-05T03:55:09+02:00*%
%TF.ProjectId,BeerEyePi,42656572-4579-4655-9069-2e6b69636164,rev?*%
%TF.SameCoordinates,Original*%
%TF.FileFunction,Profile,NP*%
%FSLAX46Y46*%
G04 Gerber Fmt 4.6, Leading zero omitted, Abs format (unit mm)*
G04 Created by KiCad (PCBNEW 5.1.0) date 2019-04-05 03:55:09*
%MOMM*%
%LPD*%
G04 APERTURE LIST*
%ADD10C,0.100000*%
G04 APERTURE END LIST*
D10*
X144000000Y-132000000D02*
X144750000Y-132000000D01*
X150250000Y-132000000D02*
X151000000Y-132000000D01*
X145250000Y-135500000D02*
X149750000Y-135500000D01*
X130250000Y-135500000D02*
X134750000Y-135500000D01*
X129000000Y-132000000D02*
X129750000Y-132000000D01*
X136000000Y-132000000D02*
X135250000Y-132000000D01*
X119750000Y-135500000D02*
X115250000Y-135500000D01*
X120250000Y-132000000D02*
X121000000Y-132000000D01*
X114000000Y-132000000D02*
X114750000Y-132000000D01*
X161000000Y-163000000D02*
X161000000Y-130500000D01*
X104000000Y-130500000D02*
X104000000Y-163000000D01*
X104000000Y-163000000D02*
X161000000Y-163000000D01*
X161500000Y-130000000D02*
G75*
G03X161000000Y-130500000I0J-500000D01*
G01*
X104000000Y-130500000D02*
G75*
G03X103500000Y-130000000I-500000J0D01*
G01*
X100000000Y-103500000D02*
X100000000Y-126500000D01*
X161500000Y-100000000D02*
X103500000Y-100000000D01*
X165000000Y-126500000D02*
X165000000Y-103500000D01*
X100000000Y-103500000D02*
G75*
G02X103500000Y-100000000I3500000J0D01*
G01*
X103500000Y-130000000D02*
G75*
G02X100000000Y-126500000I0J3500000D01*
G01*
X161500000Y-100000000D02*
G75*
G02X165000000Y-103500000I0J-3500000D01*
G01*
X165000000Y-126500000D02*
G75*
G02X161500000Y-130000000I-3500000J0D01*
G01*
X156000000Y-130500000D02*
X156000000Y-157500000D01*
X109500000Y-130000000D02*
X155500000Y-130000000D01*
X155500000Y-158000000D02*
X150775000Y-158000000D01*
X155500000Y-158000000D02*
G75*
G03X156000000Y-157500000I0J500000D01*
G01*
X109000000Y-130500000D02*
X109000000Y-157500000D01*
X109500000Y-158000000D02*
X114225000Y-158000000D01*
X109500000Y-158000000D02*
G75*
G02X109000000Y-157500000I0J500000D01*
G01*
X144725000Y-157500000D02*
X144725000Y-155750000D01*
X150275000Y-157500000D02*
X150275000Y-155750000D01*
X114725000Y-157500000D02*
X114725000Y-155750000D01*
X120275000Y-157500000D02*
X120275000Y-155750000D01*
X129225000Y-158000000D02*
X120775000Y-158000000D01*
X129725000Y-157500000D02*
X129725000Y-155750000D01*
X135275000Y-155750000D02*
X135275000Y-157500000D01*
X144225000Y-158000000D02*
X135775000Y-158000000D01*
X111000000Y-132000000D02*
X111000000Y-156000000D01*
X114750000Y-135000000D02*
X114750000Y-132000000D01*
X120250000Y-132000000D02*
X120250000Y-135000000D01*
X124000000Y-156000000D02*
X124000000Y-132000000D01*
X126000000Y-132000000D02*
X126000000Y-156000000D01*
X129750000Y-135000000D02*
X129750000Y-132000000D01*
X135250000Y-132000000D02*
X135250000Y-135000000D01*
X139000000Y-156000000D02*
X139000000Y-132000000D01*
X141000000Y-132000000D02*
X141000000Y-156000000D01*
X144750000Y-135000000D02*
X144750000Y-132000000D01*
X150250000Y-135000000D02*
X150250000Y-132000000D01*
X154000000Y-156000000D02*
X154000000Y-132000000D01*
X109500000Y-130000000D02*
G75*
G03X109000000Y-130500000I0J-500000D01*
G01*
X155500000Y-130000000D02*
G75*
G02X156000000Y-130500000I0J-500000D01*
G01*
X114725000Y-157500000D02*
G75*
G02X114225000Y-158000000I-500000J0D01*
G01*
X150775000Y-158000000D02*
G75*
G02X150275000Y-157500000I0J500000D01*
G01*
X144725000Y-157500000D02*
G75*
G02X144225000Y-158000000I-500000J0D01*
G01*
X120775000Y-158000000D02*
G75*
G02X120275000Y-157500000I0J500000D01*
G01*
X135775000Y-158000000D02*
G75*
G02X135275000Y-157500000I0J500000D01*
G01*
X129725000Y-157500000D02*
G75*
G02X129225000Y-158000000I-500000J0D01*
G01*
X135250000Y-135000000D02*
G75*
G02X134750000Y-135500000I-500000J0D01*
G01*
X130250000Y-135500000D02*
G75*
G02X129750000Y-135000000I0J500000D01*
G01*
X150250000Y-135000000D02*
G75*
G02X149750000Y-135500000I-500000J0D01*
G01*
X145250000Y-135500000D02*
G75*
G02X144750000Y-135000000I0J500000D01*
G01*
X115250000Y-135500000D02*
G75*
G02X114750000Y-135000000I0J500000D01*
G01*
X120250000Y-135000000D02*
G75*
G02X119750000Y-135500000I-500000J0D01*
G01*
X141000000Y-156000000D02*
X143725000Y-156000000D01*
X151275000Y-156000000D02*
X154000000Y-156000000D01*
X151275000Y-155750000D02*
X151275000Y-156000000D01*
X150275000Y-155750000D02*
G75*
G02X151275000Y-155750000I500000J0D01*
G01*
X143725000Y-155750000D02*
X143725000Y-156000000D01*
X143725000Y-155750000D02*
G75*
G02X144725000Y-155750000I500000J0D01*
G01*
X126000000Y-156000000D02*
X128725000Y-156000000D01*
X136275000Y-156000000D02*
X139000000Y-156000000D01*
X128725000Y-155750000D02*
X128725000Y-156000000D01*
X128725000Y-155750000D02*
G75*
G02X129725000Y-155750000I500000J0D01*
G01*
X136275000Y-155750000D02*
X136275000Y-156000000D01*
X135275000Y-155750000D02*
G75*
G02X136275000Y-155750000I500000J0D01*
G01*
X124000000Y-156000000D02*
X121275000Y-156000000D01*
X111000000Y-156000000D02*
X113725000Y-156000000D01*
X121275000Y-155750000D02*
X121275000Y-156000000D01*
X120275000Y-155750000D02*
G75*
G02X121275000Y-155750000I500000J0D01*
G01*
X113725000Y-155750000D02*
G75*
G02X114725000Y-155750000I500000J0D01*
G01*
X113725000Y-155750000D02*
X113725000Y-156000000D01*
X136000000Y-132000000D02*
X139000000Y-132000000D01*
X126000000Y-132000000D02*
X129000000Y-132000000D01*
X151000000Y-132000000D02*
X154000000Y-132000000D01*
X141000000Y-132000000D02*
X144000000Y-132000000D01*
X114000000Y-132000000D02*
X111000000Y-132000000D01*
X121000000Y-132000000D02*
X124000000Y-132000000D01*
M02*
