%TF.GenerationSoftware,KiCad,Pcbnew,5.1.0*%
%TF.CreationDate,2019-04-05T03:55:09+02:00*%
%TF.ProjectId,BeerEyePi,42656572-4579-4655-9069-2e6b69636164,rev?*%
%TF.SameCoordinates,Original*%
%TF.FileFunction,Copper,L1,Top*%
%TF.FilePolarity,Positive*%
%FSLAX46Y46*%
G04 Gerber Fmt 4.6, Leading zero omitted, Abs format (unit mm)*
G04 Created by KiCad (PCBNEW 5.1.0) date 2019-04-05 03:55:09*
%MOMM*%
%LPD*%
G04 APERTURE LIST*
%ADD10R,1.700000X1.700000*%
%ADD11O,1.700000X1.700000*%
%ADD12C,0.100000*%
%ADD13C,1.150000*%
%ADD14R,0.250000X2.500000*%
%ADD15R,3.350000X0.250000*%
%ADD16C,0.700000*%
%ADD17C,0.300000*%
%ADD18R,1.560000X0.650000*%
%ADD19C,0.900000*%
%ADD20C,0.350000*%
%ADD21C,0.250000*%
%ADD22C,0.254000*%
G04 APERTURE END LIST*
D10*
X139920000Y-107080000D03*
D11*
X139920000Y-104540000D03*
X142460000Y-107080000D03*
X142460000Y-104540000D03*
X145000000Y-107080000D03*
X145000000Y-104540000D03*
X147540000Y-107080000D03*
X147540000Y-104540000D03*
X150080000Y-107080000D03*
X150080000Y-104540000D03*
D12*
G36*
X133899005Y-139064704D02*
G01*
X133923273Y-139068304D01*
X133947072Y-139074265D01*
X133970171Y-139082530D01*
X133992350Y-139093020D01*
X134013393Y-139105632D01*
X134033099Y-139120247D01*
X134051277Y-139136723D01*
X134067753Y-139154901D01*
X134082368Y-139174607D01*
X134094980Y-139195650D01*
X134105470Y-139217829D01*
X134113735Y-139240928D01*
X134119696Y-139264727D01*
X134123296Y-139288995D01*
X134124500Y-139313499D01*
X134124500Y-140213501D01*
X134123296Y-140238005D01*
X134119696Y-140262273D01*
X134113735Y-140286072D01*
X134105470Y-140309171D01*
X134094980Y-140331350D01*
X134082368Y-140352393D01*
X134067753Y-140372099D01*
X134051277Y-140390277D01*
X134033099Y-140406753D01*
X134013393Y-140421368D01*
X133992350Y-140433980D01*
X133970171Y-140444470D01*
X133947072Y-140452735D01*
X133923273Y-140458696D01*
X133899005Y-140462296D01*
X133874501Y-140463500D01*
X133224499Y-140463500D01*
X133199995Y-140462296D01*
X133175727Y-140458696D01*
X133151928Y-140452735D01*
X133128829Y-140444470D01*
X133106650Y-140433980D01*
X133085607Y-140421368D01*
X133065901Y-140406753D01*
X133047723Y-140390277D01*
X133031247Y-140372099D01*
X133016632Y-140352393D01*
X133004020Y-140331350D01*
X132993530Y-140309171D01*
X132985265Y-140286072D01*
X132979304Y-140262273D01*
X132975704Y-140238005D01*
X132974500Y-140213501D01*
X132974500Y-139313499D01*
X132975704Y-139288995D01*
X132979304Y-139264727D01*
X132985265Y-139240928D01*
X132993530Y-139217829D01*
X133004020Y-139195650D01*
X133016632Y-139174607D01*
X133031247Y-139154901D01*
X133047723Y-139136723D01*
X133065901Y-139120247D01*
X133085607Y-139105632D01*
X133106650Y-139093020D01*
X133128829Y-139082530D01*
X133151928Y-139074265D01*
X133175727Y-139068304D01*
X133199995Y-139064704D01*
X133224499Y-139063500D01*
X133874501Y-139063500D01*
X133899005Y-139064704D01*
X133899005Y-139064704D01*
G37*
D13*
X133549500Y-139763500D03*
D12*
G36*
X131849005Y-139064704D02*
G01*
X131873273Y-139068304D01*
X131897072Y-139074265D01*
X131920171Y-139082530D01*
X131942350Y-139093020D01*
X131963393Y-139105632D01*
X131983099Y-139120247D01*
X132001277Y-139136723D01*
X132017753Y-139154901D01*
X132032368Y-139174607D01*
X132044980Y-139195650D01*
X132055470Y-139217829D01*
X132063735Y-139240928D01*
X132069696Y-139264727D01*
X132073296Y-139288995D01*
X132074500Y-139313499D01*
X132074500Y-140213501D01*
X132073296Y-140238005D01*
X132069696Y-140262273D01*
X132063735Y-140286072D01*
X132055470Y-140309171D01*
X132044980Y-140331350D01*
X132032368Y-140352393D01*
X132017753Y-140372099D01*
X132001277Y-140390277D01*
X131983099Y-140406753D01*
X131963393Y-140421368D01*
X131942350Y-140433980D01*
X131920171Y-140444470D01*
X131897072Y-140452735D01*
X131873273Y-140458696D01*
X131849005Y-140462296D01*
X131824501Y-140463500D01*
X131174499Y-140463500D01*
X131149995Y-140462296D01*
X131125727Y-140458696D01*
X131101928Y-140452735D01*
X131078829Y-140444470D01*
X131056650Y-140433980D01*
X131035607Y-140421368D01*
X131015901Y-140406753D01*
X130997723Y-140390277D01*
X130981247Y-140372099D01*
X130966632Y-140352393D01*
X130954020Y-140331350D01*
X130943530Y-140309171D01*
X130935265Y-140286072D01*
X130929304Y-140262273D01*
X130925704Y-140238005D01*
X130924500Y-140213501D01*
X130924500Y-139313499D01*
X130925704Y-139288995D01*
X130929304Y-139264727D01*
X130935265Y-139240928D01*
X130943530Y-139217829D01*
X130954020Y-139195650D01*
X130966632Y-139174607D01*
X130981247Y-139154901D01*
X130997723Y-139136723D01*
X131015901Y-139120247D01*
X131035607Y-139105632D01*
X131056650Y-139093020D01*
X131078829Y-139082530D01*
X131101928Y-139074265D01*
X131125727Y-139068304D01*
X131149995Y-139064704D01*
X131174499Y-139063500D01*
X131824501Y-139063500D01*
X131849005Y-139064704D01*
X131849005Y-139064704D01*
G37*
D13*
X131499500Y-139763500D03*
D10*
X108370000Y-104540000D03*
D11*
X108370000Y-102000000D03*
X110910000Y-104540000D03*
X110910000Y-102000000D03*
X113450000Y-104540000D03*
X113450000Y-102000000D03*
X115990000Y-104540000D03*
X115990000Y-102000000D03*
X118530000Y-104540000D03*
X118530000Y-102000000D03*
X121070000Y-104540000D03*
X121070000Y-102000000D03*
X123610000Y-104540000D03*
X123610000Y-102000000D03*
X126150000Y-104540000D03*
X126150000Y-102000000D03*
D14*
X129725000Y-112500000D03*
X129725000Y-117500000D03*
D15*
X128175000Y-111375000D03*
X128175000Y-118625000D03*
D12*
G36*
X127742153Y-112745843D02*
G01*
X127759141Y-112748363D01*
X127775800Y-112752535D01*
X127791970Y-112758321D01*
X127807494Y-112765664D01*
X127822225Y-112774493D01*
X127836019Y-112784723D01*
X127848744Y-112796256D01*
X127860277Y-112808981D01*
X127870507Y-112822775D01*
X127879336Y-112837506D01*
X127886679Y-112853030D01*
X127892465Y-112869200D01*
X127896637Y-112885859D01*
X127899157Y-112902847D01*
X127900000Y-112920000D01*
X127900000Y-113270000D01*
X127899157Y-113287153D01*
X127896637Y-113304141D01*
X127892465Y-113320800D01*
X127886679Y-113336970D01*
X127879336Y-113352494D01*
X127870507Y-113367225D01*
X127860277Y-113381019D01*
X127848744Y-113393744D01*
X127836019Y-113405277D01*
X127822225Y-113415507D01*
X127807494Y-113424336D01*
X127791970Y-113431679D01*
X127775800Y-113437465D01*
X127759141Y-113441637D01*
X127742153Y-113444157D01*
X127725000Y-113445000D01*
X124575000Y-113445000D01*
X124557847Y-113444157D01*
X124540859Y-113441637D01*
X124524200Y-113437465D01*
X124508030Y-113431679D01*
X124492506Y-113424336D01*
X124477775Y-113415507D01*
X124463981Y-113405277D01*
X124451256Y-113393744D01*
X124439723Y-113381019D01*
X124429493Y-113367225D01*
X124420664Y-113352494D01*
X124413321Y-113336970D01*
X124407535Y-113320800D01*
X124403363Y-113304141D01*
X124400843Y-113287153D01*
X124400000Y-113270000D01*
X124400000Y-112920000D01*
X124400843Y-112902847D01*
X124403363Y-112885859D01*
X124407535Y-112869200D01*
X124413321Y-112853030D01*
X124420664Y-112837506D01*
X124429493Y-112822775D01*
X124439723Y-112808981D01*
X124451256Y-112796256D01*
X124463981Y-112784723D01*
X124477775Y-112774493D01*
X124492506Y-112765664D01*
X124508030Y-112758321D01*
X124524200Y-112752535D01*
X124540859Y-112748363D01*
X124557847Y-112745843D01*
X124575000Y-112745000D01*
X127725000Y-112745000D01*
X127742153Y-112745843D01*
X127742153Y-112745843D01*
G37*
D16*
X126150000Y-113095000D03*
D12*
G36*
X127742153Y-114015843D02*
G01*
X127759141Y-114018363D01*
X127775800Y-114022535D01*
X127791970Y-114028321D01*
X127807494Y-114035664D01*
X127822225Y-114044493D01*
X127836019Y-114054723D01*
X127848744Y-114066256D01*
X127860277Y-114078981D01*
X127870507Y-114092775D01*
X127879336Y-114107506D01*
X127886679Y-114123030D01*
X127892465Y-114139200D01*
X127896637Y-114155859D01*
X127899157Y-114172847D01*
X127900000Y-114190000D01*
X127900000Y-114540000D01*
X127899157Y-114557153D01*
X127896637Y-114574141D01*
X127892465Y-114590800D01*
X127886679Y-114606970D01*
X127879336Y-114622494D01*
X127870507Y-114637225D01*
X127860277Y-114651019D01*
X127848744Y-114663744D01*
X127836019Y-114675277D01*
X127822225Y-114685507D01*
X127807494Y-114694336D01*
X127791970Y-114701679D01*
X127775800Y-114707465D01*
X127759141Y-114711637D01*
X127742153Y-114714157D01*
X127725000Y-114715000D01*
X124575000Y-114715000D01*
X124557847Y-114714157D01*
X124540859Y-114711637D01*
X124524200Y-114707465D01*
X124508030Y-114701679D01*
X124492506Y-114694336D01*
X124477775Y-114685507D01*
X124463981Y-114675277D01*
X124451256Y-114663744D01*
X124439723Y-114651019D01*
X124429493Y-114637225D01*
X124420664Y-114622494D01*
X124413321Y-114606970D01*
X124407535Y-114590800D01*
X124403363Y-114574141D01*
X124400843Y-114557153D01*
X124400000Y-114540000D01*
X124400000Y-114190000D01*
X124400843Y-114172847D01*
X124403363Y-114155859D01*
X124407535Y-114139200D01*
X124413321Y-114123030D01*
X124420664Y-114107506D01*
X124429493Y-114092775D01*
X124439723Y-114078981D01*
X124451256Y-114066256D01*
X124463981Y-114054723D01*
X124477775Y-114044493D01*
X124492506Y-114035664D01*
X124508030Y-114028321D01*
X124524200Y-114022535D01*
X124540859Y-114018363D01*
X124557847Y-114015843D01*
X124575000Y-114015000D01*
X127725000Y-114015000D01*
X127742153Y-114015843D01*
X127742153Y-114015843D01*
G37*
D16*
X126150000Y-114365000D03*
D12*
G36*
X127742153Y-116555843D02*
G01*
X127759141Y-116558363D01*
X127775800Y-116562535D01*
X127791970Y-116568321D01*
X127807494Y-116575664D01*
X127822225Y-116584493D01*
X127836019Y-116594723D01*
X127848744Y-116606256D01*
X127860277Y-116618981D01*
X127870507Y-116632775D01*
X127879336Y-116647506D01*
X127886679Y-116663030D01*
X127892465Y-116679200D01*
X127896637Y-116695859D01*
X127899157Y-116712847D01*
X127900000Y-116730000D01*
X127900000Y-117080000D01*
X127899157Y-117097153D01*
X127896637Y-117114141D01*
X127892465Y-117130800D01*
X127886679Y-117146970D01*
X127879336Y-117162494D01*
X127870507Y-117177225D01*
X127860277Y-117191019D01*
X127848744Y-117203744D01*
X127836019Y-117215277D01*
X127822225Y-117225507D01*
X127807494Y-117234336D01*
X127791970Y-117241679D01*
X127775800Y-117247465D01*
X127759141Y-117251637D01*
X127742153Y-117254157D01*
X127725000Y-117255000D01*
X124575000Y-117255000D01*
X124557847Y-117254157D01*
X124540859Y-117251637D01*
X124524200Y-117247465D01*
X124508030Y-117241679D01*
X124492506Y-117234336D01*
X124477775Y-117225507D01*
X124463981Y-117215277D01*
X124451256Y-117203744D01*
X124439723Y-117191019D01*
X124429493Y-117177225D01*
X124420664Y-117162494D01*
X124413321Y-117146970D01*
X124407535Y-117130800D01*
X124403363Y-117114141D01*
X124400843Y-117097153D01*
X124400000Y-117080000D01*
X124400000Y-116730000D01*
X124400843Y-116712847D01*
X124403363Y-116695859D01*
X124407535Y-116679200D01*
X124413321Y-116663030D01*
X124420664Y-116647506D01*
X124429493Y-116632775D01*
X124439723Y-116618981D01*
X124451256Y-116606256D01*
X124463981Y-116594723D01*
X124477775Y-116584493D01*
X124492506Y-116575664D01*
X124508030Y-116568321D01*
X124524200Y-116562535D01*
X124540859Y-116558363D01*
X124557847Y-116555843D01*
X124575000Y-116555000D01*
X127725000Y-116555000D01*
X127742153Y-116555843D01*
X127742153Y-116555843D01*
G37*
D16*
X126150000Y-116905000D03*
D12*
G36*
X127742153Y-115285843D02*
G01*
X127759141Y-115288363D01*
X127775800Y-115292535D01*
X127791970Y-115298321D01*
X127807494Y-115305664D01*
X127822225Y-115314493D01*
X127836019Y-115324723D01*
X127848744Y-115336256D01*
X127860277Y-115348981D01*
X127870507Y-115362775D01*
X127879336Y-115377506D01*
X127886679Y-115393030D01*
X127892465Y-115409200D01*
X127896637Y-115425859D01*
X127899157Y-115442847D01*
X127900000Y-115460000D01*
X127900000Y-115810000D01*
X127899157Y-115827153D01*
X127896637Y-115844141D01*
X127892465Y-115860800D01*
X127886679Y-115876970D01*
X127879336Y-115892494D01*
X127870507Y-115907225D01*
X127860277Y-115921019D01*
X127848744Y-115933744D01*
X127836019Y-115945277D01*
X127822225Y-115955507D01*
X127807494Y-115964336D01*
X127791970Y-115971679D01*
X127775800Y-115977465D01*
X127759141Y-115981637D01*
X127742153Y-115984157D01*
X127725000Y-115985000D01*
X124575000Y-115985000D01*
X124557847Y-115984157D01*
X124540859Y-115981637D01*
X124524200Y-115977465D01*
X124508030Y-115971679D01*
X124492506Y-115964336D01*
X124477775Y-115955507D01*
X124463981Y-115945277D01*
X124451256Y-115933744D01*
X124439723Y-115921019D01*
X124429493Y-115907225D01*
X124420664Y-115892494D01*
X124413321Y-115876970D01*
X124407535Y-115860800D01*
X124403363Y-115844141D01*
X124400843Y-115827153D01*
X124400000Y-115810000D01*
X124400000Y-115460000D01*
X124400843Y-115442847D01*
X124403363Y-115425859D01*
X124407535Y-115409200D01*
X124413321Y-115393030D01*
X124420664Y-115377506D01*
X124429493Y-115362775D01*
X124439723Y-115348981D01*
X124451256Y-115336256D01*
X124463981Y-115324723D01*
X124477775Y-115314493D01*
X124492506Y-115305664D01*
X124508030Y-115298321D01*
X124524200Y-115292535D01*
X124540859Y-115288363D01*
X124557847Y-115285843D01*
X124575000Y-115285000D01*
X127725000Y-115285000D01*
X127742153Y-115285843D01*
X127742153Y-115285843D01*
G37*
D16*
X126150000Y-115635000D03*
D17*
X149500000Y-148350000D03*
D12*
G36*
X148500000Y-148350000D02*
G01*
X149000000Y-147600000D01*
X150000000Y-147600000D01*
X150000000Y-149100000D01*
X149000000Y-149100000D01*
X148500000Y-148350000D01*
X148500000Y-148350000D01*
G37*
D17*
X147500000Y-148350000D03*
D12*
G36*
X146800000Y-148350000D02*
G01*
X146300000Y-147600000D01*
X148700000Y-147600000D01*
X148200000Y-148350000D01*
X148700000Y-149100000D01*
X146300000Y-149100000D01*
X146800000Y-148350000D01*
X146800000Y-148350000D01*
G37*
D17*
X145500000Y-148350000D03*
D12*
G36*
X146500000Y-148350000D02*
G01*
X146000000Y-149100000D01*
X145000000Y-149100000D01*
X145000000Y-147600000D01*
X146000000Y-147600000D01*
X146500000Y-148350000D01*
X146500000Y-148350000D01*
G37*
D17*
X149500000Y-151750000D03*
D12*
G36*
X148500000Y-151750000D02*
G01*
X149000000Y-151000000D01*
X150000000Y-151000000D01*
X150000000Y-152500000D01*
X149000000Y-152500000D01*
X148500000Y-151750000D01*
X148500000Y-151750000D01*
G37*
D17*
X147500000Y-151750000D03*
D12*
G36*
X148200000Y-151750000D02*
G01*
X148700000Y-152500000D01*
X146300000Y-152500000D01*
X146800000Y-151750000D01*
X146300000Y-151000000D01*
X148700000Y-151000000D01*
X148200000Y-151750000D01*
X148200000Y-151750000D01*
G37*
D17*
X145500000Y-151750000D03*
D12*
G36*
X146500000Y-151750000D02*
G01*
X146000000Y-152500000D01*
X145000000Y-152500000D01*
X145000000Y-151000000D01*
X146000000Y-151000000D01*
X146500000Y-151750000D01*
X146500000Y-151750000D01*
G37*
D10*
X109000000Y-111190000D03*
D11*
X109000000Y-113730000D03*
X109000000Y-116270000D03*
X109000000Y-118810000D03*
X128690000Y-142500000D03*
X131230000Y-142500000D03*
X133770000Y-142500000D03*
D10*
X136310000Y-142500000D03*
X156000000Y-111190000D03*
D11*
X156000000Y-113730000D03*
X156000000Y-116270000D03*
X156000000Y-118810000D03*
X143690000Y-142500000D03*
X146230000Y-142500000D03*
X148770000Y-142500000D03*
D10*
X151310000Y-142500000D03*
X121310000Y-142500000D03*
D11*
X118770000Y-142500000D03*
X116230000Y-142500000D03*
X113690000Y-142500000D03*
D12*
G36*
X114074505Y-110551204D02*
G01*
X114098773Y-110554804D01*
X114122572Y-110560765D01*
X114145671Y-110569030D01*
X114167850Y-110579520D01*
X114188893Y-110592132D01*
X114208599Y-110606747D01*
X114226777Y-110623223D01*
X114243253Y-110641401D01*
X114257868Y-110661107D01*
X114270480Y-110682150D01*
X114280970Y-110704329D01*
X114289235Y-110727428D01*
X114295196Y-110751227D01*
X114298796Y-110775495D01*
X114300000Y-110799999D01*
X114300000Y-111700001D01*
X114298796Y-111724505D01*
X114295196Y-111748773D01*
X114289235Y-111772572D01*
X114280970Y-111795671D01*
X114270480Y-111817850D01*
X114257868Y-111838893D01*
X114243253Y-111858599D01*
X114226777Y-111876777D01*
X114208599Y-111893253D01*
X114188893Y-111907868D01*
X114167850Y-111920480D01*
X114145671Y-111930970D01*
X114122572Y-111939235D01*
X114098773Y-111945196D01*
X114074505Y-111948796D01*
X114050001Y-111950000D01*
X113399999Y-111950000D01*
X113375495Y-111948796D01*
X113351227Y-111945196D01*
X113327428Y-111939235D01*
X113304329Y-111930970D01*
X113282150Y-111920480D01*
X113261107Y-111907868D01*
X113241401Y-111893253D01*
X113223223Y-111876777D01*
X113206747Y-111858599D01*
X113192132Y-111838893D01*
X113179520Y-111817850D01*
X113169030Y-111795671D01*
X113160765Y-111772572D01*
X113154804Y-111748773D01*
X113151204Y-111724505D01*
X113150000Y-111700001D01*
X113150000Y-110799999D01*
X113151204Y-110775495D01*
X113154804Y-110751227D01*
X113160765Y-110727428D01*
X113169030Y-110704329D01*
X113179520Y-110682150D01*
X113192132Y-110661107D01*
X113206747Y-110641401D01*
X113223223Y-110623223D01*
X113241401Y-110606747D01*
X113261107Y-110592132D01*
X113282150Y-110579520D01*
X113304329Y-110569030D01*
X113327428Y-110560765D01*
X113351227Y-110554804D01*
X113375495Y-110551204D01*
X113399999Y-110550000D01*
X114050001Y-110550000D01*
X114074505Y-110551204D01*
X114074505Y-110551204D01*
G37*
D13*
X113725000Y-111250000D03*
D12*
G36*
X116124505Y-110551204D02*
G01*
X116148773Y-110554804D01*
X116172572Y-110560765D01*
X116195671Y-110569030D01*
X116217850Y-110579520D01*
X116238893Y-110592132D01*
X116258599Y-110606747D01*
X116276777Y-110623223D01*
X116293253Y-110641401D01*
X116307868Y-110661107D01*
X116320480Y-110682150D01*
X116330970Y-110704329D01*
X116339235Y-110727428D01*
X116345196Y-110751227D01*
X116348796Y-110775495D01*
X116350000Y-110799999D01*
X116350000Y-111700001D01*
X116348796Y-111724505D01*
X116345196Y-111748773D01*
X116339235Y-111772572D01*
X116330970Y-111795671D01*
X116320480Y-111817850D01*
X116307868Y-111838893D01*
X116293253Y-111858599D01*
X116276777Y-111876777D01*
X116258599Y-111893253D01*
X116238893Y-111907868D01*
X116217850Y-111920480D01*
X116195671Y-111930970D01*
X116172572Y-111939235D01*
X116148773Y-111945196D01*
X116124505Y-111948796D01*
X116100001Y-111950000D01*
X115449999Y-111950000D01*
X115425495Y-111948796D01*
X115401227Y-111945196D01*
X115377428Y-111939235D01*
X115354329Y-111930970D01*
X115332150Y-111920480D01*
X115311107Y-111907868D01*
X115291401Y-111893253D01*
X115273223Y-111876777D01*
X115256747Y-111858599D01*
X115242132Y-111838893D01*
X115229520Y-111817850D01*
X115219030Y-111795671D01*
X115210765Y-111772572D01*
X115204804Y-111748773D01*
X115201204Y-111724505D01*
X115200000Y-111700001D01*
X115200000Y-110799999D01*
X115201204Y-110775495D01*
X115204804Y-110751227D01*
X115210765Y-110727428D01*
X115219030Y-110704329D01*
X115229520Y-110682150D01*
X115242132Y-110661107D01*
X115256747Y-110641401D01*
X115273223Y-110623223D01*
X115291401Y-110606747D01*
X115311107Y-110592132D01*
X115332150Y-110579520D01*
X115354329Y-110569030D01*
X115377428Y-110560765D01*
X115401227Y-110554804D01*
X115425495Y-110551204D01*
X115449999Y-110550000D01*
X116100001Y-110550000D01*
X116124505Y-110551204D01*
X116124505Y-110551204D01*
G37*
D13*
X115775000Y-111250000D03*
D12*
G36*
X116124505Y-114301204D02*
G01*
X116148773Y-114304804D01*
X116172572Y-114310765D01*
X116195671Y-114319030D01*
X116217850Y-114329520D01*
X116238893Y-114342132D01*
X116258599Y-114356747D01*
X116276777Y-114373223D01*
X116293253Y-114391401D01*
X116307868Y-114411107D01*
X116320480Y-114432150D01*
X116330970Y-114454329D01*
X116339235Y-114477428D01*
X116345196Y-114501227D01*
X116348796Y-114525495D01*
X116350000Y-114549999D01*
X116350000Y-115450001D01*
X116348796Y-115474505D01*
X116345196Y-115498773D01*
X116339235Y-115522572D01*
X116330970Y-115545671D01*
X116320480Y-115567850D01*
X116307868Y-115588893D01*
X116293253Y-115608599D01*
X116276777Y-115626777D01*
X116258599Y-115643253D01*
X116238893Y-115657868D01*
X116217850Y-115670480D01*
X116195671Y-115680970D01*
X116172572Y-115689235D01*
X116148773Y-115695196D01*
X116124505Y-115698796D01*
X116100001Y-115700000D01*
X115449999Y-115700000D01*
X115425495Y-115698796D01*
X115401227Y-115695196D01*
X115377428Y-115689235D01*
X115354329Y-115680970D01*
X115332150Y-115670480D01*
X115311107Y-115657868D01*
X115291401Y-115643253D01*
X115273223Y-115626777D01*
X115256747Y-115608599D01*
X115242132Y-115588893D01*
X115229520Y-115567850D01*
X115219030Y-115545671D01*
X115210765Y-115522572D01*
X115204804Y-115498773D01*
X115201204Y-115474505D01*
X115200000Y-115450001D01*
X115200000Y-114549999D01*
X115201204Y-114525495D01*
X115204804Y-114501227D01*
X115210765Y-114477428D01*
X115219030Y-114454329D01*
X115229520Y-114432150D01*
X115242132Y-114411107D01*
X115256747Y-114391401D01*
X115273223Y-114373223D01*
X115291401Y-114356747D01*
X115311107Y-114342132D01*
X115332150Y-114329520D01*
X115354329Y-114319030D01*
X115377428Y-114310765D01*
X115401227Y-114304804D01*
X115425495Y-114301204D01*
X115449999Y-114300000D01*
X116100001Y-114300000D01*
X116124505Y-114301204D01*
X116124505Y-114301204D01*
G37*
D13*
X115775000Y-115000000D03*
D12*
G36*
X114074505Y-114301204D02*
G01*
X114098773Y-114304804D01*
X114122572Y-114310765D01*
X114145671Y-114319030D01*
X114167850Y-114329520D01*
X114188893Y-114342132D01*
X114208599Y-114356747D01*
X114226777Y-114373223D01*
X114243253Y-114391401D01*
X114257868Y-114411107D01*
X114270480Y-114432150D01*
X114280970Y-114454329D01*
X114289235Y-114477428D01*
X114295196Y-114501227D01*
X114298796Y-114525495D01*
X114300000Y-114549999D01*
X114300000Y-115450001D01*
X114298796Y-115474505D01*
X114295196Y-115498773D01*
X114289235Y-115522572D01*
X114280970Y-115545671D01*
X114270480Y-115567850D01*
X114257868Y-115588893D01*
X114243253Y-115608599D01*
X114226777Y-115626777D01*
X114208599Y-115643253D01*
X114188893Y-115657868D01*
X114167850Y-115670480D01*
X114145671Y-115680970D01*
X114122572Y-115689235D01*
X114098773Y-115695196D01*
X114074505Y-115698796D01*
X114050001Y-115700000D01*
X113399999Y-115700000D01*
X113375495Y-115698796D01*
X113351227Y-115695196D01*
X113327428Y-115689235D01*
X113304329Y-115680970D01*
X113282150Y-115670480D01*
X113261107Y-115657868D01*
X113241401Y-115643253D01*
X113223223Y-115626777D01*
X113206747Y-115608599D01*
X113192132Y-115588893D01*
X113179520Y-115567850D01*
X113169030Y-115545671D01*
X113160765Y-115522572D01*
X113154804Y-115498773D01*
X113151204Y-115474505D01*
X113150000Y-115450001D01*
X113150000Y-114549999D01*
X113151204Y-114525495D01*
X113154804Y-114501227D01*
X113160765Y-114477428D01*
X113169030Y-114454329D01*
X113179520Y-114432150D01*
X113192132Y-114411107D01*
X113206747Y-114391401D01*
X113223223Y-114373223D01*
X113241401Y-114356747D01*
X113261107Y-114342132D01*
X113282150Y-114329520D01*
X113304329Y-114319030D01*
X113327428Y-114310765D01*
X113351227Y-114304804D01*
X113375495Y-114301204D01*
X113399999Y-114300000D01*
X114050001Y-114300000D01*
X114074505Y-114301204D01*
X114074505Y-114301204D01*
G37*
D13*
X113725000Y-115000000D03*
D12*
G36*
X116124505Y-118051204D02*
G01*
X116148773Y-118054804D01*
X116172572Y-118060765D01*
X116195671Y-118069030D01*
X116217850Y-118079520D01*
X116238893Y-118092132D01*
X116258599Y-118106747D01*
X116276777Y-118123223D01*
X116293253Y-118141401D01*
X116307868Y-118161107D01*
X116320480Y-118182150D01*
X116330970Y-118204329D01*
X116339235Y-118227428D01*
X116345196Y-118251227D01*
X116348796Y-118275495D01*
X116350000Y-118299999D01*
X116350000Y-119200001D01*
X116348796Y-119224505D01*
X116345196Y-119248773D01*
X116339235Y-119272572D01*
X116330970Y-119295671D01*
X116320480Y-119317850D01*
X116307868Y-119338893D01*
X116293253Y-119358599D01*
X116276777Y-119376777D01*
X116258599Y-119393253D01*
X116238893Y-119407868D01*
X116217850Y-119420480D01*
X116195671Y-119430970D01*
X116172572Y-119439235D01*
X116148773Y-119445196D01*
X116124505Y-119448796D01*
X116100001Y-119450000D01*
X115449999Y-119450000D01*
X115425495Y-119448796D01*
X115401227Y-119445196D01*
X115377428Y-119439235D01*
X115354329Y-119430970D01*
X115332150Y-119420480D01*
X115311107Y-119407868D01*
X115291401Y-119393253D01*
X115273223Y-119376777D01*
X115256747Y-119358599D01*
X115242132Y-119338893D01*
X115229520Y-119317850D01*
X115219030Y-119295671D01*
X115210765Y-119272572D01*
X115204804Y-119248773D01*
X115201204Y-119224505D01*
X115200000Y-119200001D01*
X115200000Y-118299999D01*
X115201204Y-118275495D01*
X115204804Y-118251227D01*
X115210765Y-118227428D01*
X115219030Y-118204329D01*
X115229520Y-118182150D01*
X115242132Y-118161107D01*
X115256747Y-118141401D01*
X115273223Y-118123223D01*
X115291401Y-118106747D01*
X115311107Y-118092132D01*
X115332150Y-118079520D01*
X115354329Y-118069030D01*
X115377428Y-118060765D01*
X115401227Y-118054804D01*
X115425495Y-118051204D01*
X115449999Y-118050000D01*
X116100001Y-118050000D01*
X116124505Y-118051204D01*
X116124505Y-118051204D01*
G37*
D13*
X115775000Y-118750000D03*
D12*
G36*
X114074505Y-118051204D02*
G01*
X114098773Y-118054804D01*
X114122572Y-118060765D01*
X114145671Y-118069030D01*
X114167850Y-118079520D01*
X114188893Y-118092132D01*
X114208599Y-118106747D01*
X114226777Y-118123223D01*
X114243253Y-118141401D01*
X114257868Y-118161107D01*
X114270480Y-118182150D01*
X114280970Y-118204329D01*
X114289235Y-118227428D01*
X114295196Y-118251227D01*
X114298796Y-118275495D01*
X114300000Y-118299999D01*
X114300000Y-119200001D01*
X114298796Y-119224505D01*
X114295196Y-119248773D01*
X114289235Y-119272572D01*
X114280970Y-119295671D01*
X114270480Y-119317850D01*
X114257868Y-119338893D01*
X114243253Y-119358599D01*
X114226777Y-119376777D01*
X114208599Y-119393253D01*
X114188893Y-119407868D01*
X114167850Y-119420480D01*
X114145671Y-119430970D01*
X114122572Y-119439235D01*
X114098773Y-119445196D01*
X114074505Y-119448796D01*
X114050001Y-119450000D01*
X113399999Y-119450000D01*
X113375495Y-119448796D01*
X113351227Y-119445196D01*
X113327428Y-119439235D01*
X113304329Y-119430970D01*
X113282150Y-119420480D01*
X113261107Y-119407868D01*
X113241401Y-119393253D01*
X113223223Y-119376777D01*
X113206747Y-119358599D01*
X113192132Y-119338893D01*
X113179520Y-119317850D01*
X113169030Y-119295671D01*
X113160765Y-119272572D01*
X113154804Y-119248773D01*
X113151204Y-119224505D01*
X113150000Y-119200001D01*
X113150000Y-118299999D01*
X113151204Y-118275495D01*
X113154804Y-118251227D01*
X113160765Y-118227428D01*
X113169030Y-118204329D01*
X113179520Y-118182150D01*
X113192132Y-118161107D01*
X113206747Y-118141401D01*
X113223223Y-118123223D01*
X113241401Y-118106747D01*
X113261107Y-118092132D01*
X113282150Y-118079520D01*
X113304329Y-118069030D01*
X113327428Y-118060765D01*
X113351227Y-118054804D01*
X113375495Y-118051204D01*
X113399999Y-118050000D01*
X114050001Y-118050000D01*
X114074505Y-118051204D01*
X114074505Y-118051204D01*
G37*
D13*
X113725000Y-118750000D03*
D18*
X127842000Y-126553000D03*
X127842000Y-125603000D03*
X127842000Y-124653000D03*
X125142000Y-124653000D03*
X125142000Y-126553000D03*
D19*
X122745500Y-115633500D03*
X129667000Y-125603000D03*
X122745500Y-114363500D03*
X146685000Y-112903000D03*
X136842500Y-114490500D03*
X146685000Y-111188500D03*
X132778500Y-110553500D03*
X118872000Y-110553500D03*
X150749000Y-116840000D03*
X151700000Y-102900000D03*
X142494000Y-111188500D03*
X123317000Y-126619000D03*
X129667000Y-127254000D03*
X131191000Y-123063000D03*
X119824500Y-112522000D03*
X120650000Y-111442500D03*
X135001000Y-110299500D03*
X138176000Y-119189500D03*
X135826500Y-112141000D03*
X117348000Y-122298500D03*
X143950000Y-146800000D03*
X142650000Y-150750000D03*
X152350000Y-150750000D03*
X151050000Y-146800000D03*
X125666500Y-107759500D03*
X120459500Y-108966000D03*
X112800000Y-151400000D03*
X112800000Y-150000000D03*
X112800000Y-148600000D03*
X112014000Y-109728000D03*
X112014000Y-114808000D03*
X112014000Y-119888000D03*
X131064000Y-121285000D03*
X121793000Y-121666000D03*
X127127000Y-120777000D03*
X147500000Y-150000000D03*
D20*
X126500000Y-115635000D02*
X126498500Y-115633500D01*
X126498500Y-115633500D02*
X122745500Y-115633500D01*
X127842000Y-125603000D02*
X129667000Y-125603000D01*
X122747000Y-114365000D02*
X122745500Y-114363500D01*
X126050000Y-114365000D02*
X122747000Y-114365000D01*
X145097500Y-114490500D02*
X146685000Y-112903000D01*
X136842500Y-114490500D02*
X145097500Y-114490500D01*
X118872000Y-110553500D02*
X132778500Y-110553500D01*
X150749000Y-116840000D02*
X150749000Y-116840000D01*
X133413500Y-111188500D02*
X132778500Y-110553500D01*
X142460000Y-107080000D02*
X144080000Y-108700000D01*
X144080000Y-108700000D02*
X150700000Y-108700000D01*
X150700000Y-108700000D02*
X151700000Y-107700000D01*
X151700000Y-107700000D02*
X151700000Y-102900000D01*
X146685000Y-111188500D02*
X142494000Y-111188500D01*
X142494000Y-111188500D02*
X133413500Y-111188500D01*
X150749000Y-116840000D02*
X150749000Y-115252500D01*
X150749000Y-115252500D02*
X146685000Y-111188500D01*
X107359500Y-102000000D02*
X108370000Y-102000000D01*
X106743500Y-102616000D02*
X107359500Y-102000000D01*
X108370000Y-102000000D02*
X110910000Y-102000000D01*
X106743500Y-106743500D02*
X106743500Y-106743500D01*
X106743500Y-106743500D02*
X106743500Y-102616000D01*
X148440000Y-102900000D02*
X150080000Y-104540000D01*
X138300000Y-102900000D02*
X148440000Y-102900000D01*
X111759999Y-101150001D02*
X110910000Y-102000000D01*
X112185001Y-100724999D02*
X111759999Y-101150001D01*
X129800000Y-102900000D02*
X127624999Y-100724999D01*
X127624999Y-100724999D02*
X112185001Y-100724999D01*
X138300000Y-102900000D02*
X129800000Y-102900000D01*
X138720000Y-107080000D02*
X138300000Y-106660000D01*
X139920000Y-107080000D02*
X138720000Y-107080000D01*
X138300000Y-106660000D02*
X138300000Y-102900000D01*
X114173000Y-126619000D02*
X106743500Y-119189500D01*
X106743500Y-119189500D02*
X106743500Y-118872000D01*
X106743500Y-118872000D02*
X106743500Y-102616000D01*
X123444000Y-126619000D02*
X114173000Y-126619000D01*
X123510000Y-126553000D02*
X123444000Y-126619000D01*
X125142000Y-126553000D02*
X123510000Y-126553000D01*
X129667000Y-127254000D02*
X131191000Y-125730000D01*
X131191000Y-125730000D02*
X131191000Y-123063000D01*
D21*
X126150000Y-102000000D02*
X131465000Y-107315000D01*
X131465000Y-107315000D02*
X135215000Y-107315000D01*
X150052000Y-111190000D02*
X156000000Y-111190000D01*
X149731000Y-110869000D02*
X150052000Y-111190000D01*
X149731000Y-110869000D02*
X148462000Y-109600000D01*
X148462000Y-109600000D02*
X137500000Y-109600000D01*
X137500000Y-109600000D02*
X135215000Y-107315000D01*
X156000000Y-118810000D02*
X147745000Y-110555000D01*
X126150000Y-104540000D02*
X130068000Y-108458000D01*
X130068000Y-108458000D02*
X135258000Y-108458000D01*
X147745000Y-110555000D02*
X147490000Y-110300000D01*
X147490000Y-110300000D02*
X137100000Y-110300000D01*
X137100000Y-110300000D02*
X135258000Y-108458000D01*
X119824500Y-112522000D02*
X119824500Y-114109500D01*
X126500000Y-116905000D02*
X122620000Y-116905000D01*
X122620000Y-116905000D02*
X119824500Y-114109500D01*
X120650000Y-111442500D02*
X122302500Y-113095000D01*
X122302500Y-113095000D02*
X126500000Y-113095000D01*
X128714500Y-109537500D02*
X124884180Y-105707180D01*
X121070000Y-102000000D02*
X122341320Y-103271320D01*
X133985000Y-109537500D02*
X128714500Y-109537500D01*
X135001000Y-110299500D02*
X133985000Y-109537500D01*
X124884180Y-103896160D02*
X124884180Y-105707180D01*
X124259340Y-103271320D02*
X124884180Y-103896160D01*
X122341320Y-103271320D02*
X124259340Y-103271320D01*
X135826500Y-116840000D02*
X138176000Y-119189500D01*
X135826500Y-112141000D02*
X135826500Y-116840000D01*
X125142000Y-124653000D02*
X119702500Y-124653000D01*
X119702500Y-124653000D02*
X117348000Y-122298500D01*
X145500000Y-148350000D02*
X145500000Y-151750000D01*
X145500000Y-148350000D02*
X143950000Y-146800000D01*
X142650000Y-150750000D02*
X142650000Y-150750000D01*
X142650000Y-150750000D02*
X142650000Y-144540000D01*
X142650000Y-143540000D02*
X143690000Y-142500000D01*
X142650000Y-144540000D02*
X142650000Y-143540000D01*
X151310000Y-142500000D02*
X151310000Y-142510000D01*
X152350000Y-143550000D02*
X152350000Y-144700000D01*
X151310000Y-142510000D02*
X152350000Y-143550000D01*
X152350000Y-150750000D02*
X152350000Y-144700000D01*
X149500000Y-151750000D02*
X149500000Y-148350000D01*
X149500000Y-148350000D02*
X151050000Y-146800000D01*
X124460000Y-108966000D02*
X120459500Y-108966000D01*
X125666500Y-107759500D02*
X124460000Y-108966000D01*
X115775000Y-111250000D02*
X115990000Y-111035000D01*
X115990000Y-111035000D02*
X115990000Y-104540000D01*
X115775000Y-115000000D02*
X117094000Y-113681000D01*
X117538500Y-108071500D02*
X117538500Y-108071500D01*
X117538500Y-108071500D02*
X121070000Y-104540000D01*
X117538500Y-108071500D02*
X117094000Y-108516000D01*
X117094000Y-108516000D02*
X117094000Y-113681000D01*
X117983000Y-110167000D02*
X123610000Y-104540000D01*
X115775000Y-118750000D02*
X117865750Y-116659250D01*
X117865750Y-116659250D02*
X117983000Y-116542000D01*
X117983000Y-116542000D02*
X117983000Y-110167000D01*
X133549500Y-139763500D02*
X133770000Y-139984000D01*
X133770000Y-139984000D02*
X133770000Y-142500000D01*
X131499500Y-139763500D02*
X131230000Y-140033000D01*
X131230000Y-140033000D02*
X131230000Y-142500000D01*
X120700000Y-143110000D02*
X121310000Y-142500000D01*
X112800000Y-151400000D02*
X120700000Y-143500000D01*
X120700000Y-143500000D02*
X120700000Y-143110000D01*
X112800000Y-150000000D02*
X116230000Y-146370000D01*
X116230000Y-146370000D02*
X116230000Y-143500000D01*
X116230000Y-143500000D02*
X116230000Y-142500000D01*
X112800000Y-148600000D02*
X112850000Y-148550000D01*
X112850000Y-148550000D02*
X113690000Y-147510000D01*
X113690000Y-147510000D02*
X113690000Y-143500000D01*
X113690000Y-143500000D02*
X113690000Y-142500000D01*
X112014000Y-109728000D02*
X112203000Y-109728000D01*
X112203000Y-109728000D02*
X113725000Y-111250000D01*
X113725000Y-115000000D02*
X113533000Y-114808000D01*
X113533000Y-114808000D02*
X112014000Y-114808000D01*
X112014000Y-119888000D02*
X112776000Y-119126000D01*
X113349000Y-119126000D02*
X113725000Y-118750000D01*
X112776000Y-119126000D02*
X113349000Y-119126000D01*
X146270000Y-105810000D02*
X143730000Y-105810000D01*
X147540000Y-107080000D02*
X146270000Y-105810000D01*
X143730000Y-105810000D02*
X142460000Y-104540000D01*
X128297000Y-124653000D02*
X131064000Y-121886000D01*
X127842000Y-124653000D02*
X128297000Y-124653000D01*
X131064000Y-121886000D02*
X131064000Y-121285000D01*
X127889000Y-121285000D02*
X127508000Y-121666000D01*
X131064000Y-121285000D02*
X127889000Y-121285000D01*
X121793000Y-121666000D02*
X127508000Y-121666000D01*
X110998000Y-115728000D02*
X109000000Y-113730000D01*
X110998000Y-120142000D02*
X110998000Y-115728000D01*
X111633000Y-120777000D02*
X110998000Y-120142000D01*
X112268000Y-120777000D02*
X111633000Y-120777000D01*
X127127000Y-120777000D02*
X112268000Y-120777000D01*
X126812000Y-126553000D02*
X126492000Y-126233000D01*
X127842000Y-126553000D02*
X126812000Y-126553000D01*
X126492000Y-126233000D02*
X126492000Y-125857000D01*
X126492000Y-125857000D02*
X126238000Y-125603000D01*
X116459000Y-125603000D02*
X111633000Y-120777000D01*
X126238000Y-125603000D02*
X116459000Y-125603000D01*
X147500000Y-151750000D02*
X147500000Y-150000000D01*
X147500000Y-148350000D02*
X147500000Y-144770000D01*
X147500000Y-143770000D02*
X148770000Y-142500000D01*
X147500000Y-144770000D02*
X147500000Y-143770000D01*
D22*
G36*
X126873000Y-153597993D02*
G01*
X126865000Y-153638212D01*
X126865000Y-153861788D01*
X126873000Y-153902007D01*
X126873000Y-155315000D01*
X126685000Y-155315000D01*
X126685000Y-132685000D01*
X126873000Y-132685000D01*
X126873000Y-153597993D01*
X126873000Y-153597993D01*
G37*
X126873000Y-153597993D02*
X126865000Y-153638212D01*
X126865000Y-153861788D01*
X126873000Y-153902007D01*
X126873000Y-155315000D01*
X126685000Y-155315000D01*
X126685000Y-132685000D01*
X126873000Y-132685000D01*
X126873000Y-153597993D01*
G36*
X138315000Y-155315000D02*
G01*
X138127000Y-155315000D01*
X138127000Y-153902007D01*
X138135000Y-153861788D01*
X138135000Y-153638212D01*
X138127000Y-153597993D01*
X138127000Y-132685000D01*
X138315001Y-132685000D01*
X138315000Y-155315000D01*
X138315000Y-155315000D01*
G37*
X138315000Y-155315000D02*
X138127000Y-155315000D01*
X138127000Y-153902007D01*
X138135000Y-153861788D01*
X138135000Y-153638212D01*
X138127000Y-153597993D01*
X138127000Y-132685000D01*
X138315001Y-132685000D01*
X138315000Y-155315000D01*
G36*
X153315000Y-155315000D02*
G01*
X153127000Y-155315000D01*
X153127000Y-153902007D01*
X153135000Y-153861788D01*
X153135000Y-153638212D01*
X153127000Y-153597993D01*
X153127000Y-151507422D01*
X153192775Y-151441647D01*
X153311515Y-151263940D01*
X153315000Y-151255526D01*
X153315000Y-155315000D01*
X153315000Y-155315000D01*
G37*
X153315000Y-155315000D02*
X153127000Y-155315000D01*
X153127000Y-153902007D01*
X153135000Y-153861788D01*
X153135000Y-153638212D01*
X153127000Y-153597993D01*
X153127000Y-151507422D01*
X153192775Y-151441647D01*
X153311515Y-151263940D01*
X153315000Y-151255526D01*
X153315000Y-155315000D01*
G36*
X153315000Y-150244474D02*
G01*
X153311515Y-150236060D01*
X153192775Y-150058353D01*
X153127000Y-149992578D01*
X153127000Y-132685000D01*
X153315001Y-132685000D01*
X153315000Y-150244474D01*
X153315000Y-150244474D01*
G37*
X153315000Y-150244474D02*
X153311515Y-150236060D01*
X153192775Y-150058353D01*
X153127000Y-149992578D01*
X153127000Y-132685000D01*
X153315001Y-132685000D01*
X153315000Y-150244474D01*
G36*
X141688485Y-151263940D02*
G01*
X141807225Y-151441647D01*
X141873000Y-151507422D01*
X141873000Y-153597993D01*
X141865000Y-153638212D01*
X141865000Y-153861788D01*
X141873000Y-153902007D01*
X141873000Y-155315000D01*
X141685000Y-155315000D01*
X141685000Y-151255526D01*
X141688485Y-151263940D01*
X141688485Y-151263940D01*
G37*
X141688485Y-151263940D02*
X141807225Y-151441647D01*
X141873000Y-151507422D01*
X141873000Y-153597993D01*
X141865000Y-153638212D01*
X141865000Y-153861788D01*
X141873000Y-153902007D01*
X141873000Y-155315000D01*
X141685000Y-155315000D01*
X141685000Y-151255526D01*
X141688485Y-151263940D01*
G36*
X141873000Y-149992578D02*
G01*
X141807225Y-150058353D01*
X141688485Y-150236060D01*
X141685000Y-150244474D01*
X141685000Y-132685000D01*
X141873000Y-132685000D01*
X141873000Y-149992578D01*
X141873000Y-149992578D01*
G37*
X141873000Y-149992578D02*
X141807225Y-150058353D01*
X141688485Y-150236060D01*
X141685000Y-150244474D01*
X141685000Y-132685000D01*
X141873000Y-132685000D01*
X141873000Y-149992578D01*
G36*
X111873000Y-148034405D02*
G01*
X111838485Y-148086060D01*
X111756696Y-148283517D01*
X111715000Y-148493137D01*
X111715000Y-148706863D01*
X111756696Y-148916483D01*
X111838485Y-149113940D01*
X111873000Y-149165595D01*
X111873000Y-149434405D01*
X111838485Y-149486060D01*
X111756696Y-149683517D01*
X111715000Y-149893137D01*
X111715000Y-150106863D01*
X111756696Y-150316483D01*
X111838485Y-150513940D01*
X111873000Y-150565595D01*
X111873000Y-150834405D01*
X111838485Y-150886060D01*
X111756696Y-151083517D01*
X111715000Y-151293137D01*
X111715000Y-151506863D01*
X111756696Y-151716483D01*
X111838485Y-151913940D01*
X111873000Y-151965595D01*
X111873000Y-153597993D01*
X111865000Y-153638212D01*
X111865000Y-153861788D01*
X111873000Y-153902007D01*
X111873000Y-155315000D01*
X111685000Y-155315000D01*
X111685000Y-132685000D01*
X111873000Y-132685000D01*
X111873000Y-148034405D01*
X111873000Y-148034405D01*
G37*
X111873000Y-148034405D02*
X111838485Y-148086060D01*
X111756696Y-148283517D01*
X111715000Y-148493137D01*
X111715000Y-148706863D01*
X111756696Y-148916483D01*
X111838485Y-149113940D01*
X111873000Y-149165595D01*
X111873000Y-149434405D01*
X111838485Y-149486060D01*
X111756696Y-149683517D01*
X111715000Y-149893137D01*
X111715000Y-150106863D01*
X111756696Y-150316483D01*
X111838485Y-150513940D01*
X111873000Y-150565595D01*
X111873000Y-150834405D01*
X111838485Y-150886060D01*
X111756696Y-151083517D01*
X111715000Y-151293137D01*
X111715000Y-151506863D01*
X111756696Y-151716483D01*
X111838485Y-151913940D01*
X111873000Y-151965595D01*
X111873000Y-153597993D01*
X111865000Y-153638212D01*
X111865000Y-153861788D01*
X111873000Y-153902007D01*
X111873000Y-155315000D01*
X111685000Y-155315000D01*
X111685000Y-132685000D01*
X111873000Y-132685000D01*
X111873000Y-148034405D01*
G36*
X123315000Y-155315000D02*
G01*
X123127000Y-155315000D01*
X123127000Y-153902007D01*
X123135000Y-153861788D01*
X123135000Y-153638212D01*
X123127000Y-153597993D01*
X123127000Y-132685000D01*
X123315001Y-132685000D01*
X123315000Y-155315000D01*
X123315000Y-155315000D01*
G37*
X123315000Y-155315000D02*
X123127000Y-155315000D01*
X123127000Y-153902007D01*
X123135000Y-153861788D01*
X123135000Y-153638212D01*
X123127000Y-153597993D01*
X123127000Y-132685000D01*
X123315001Y-132685000D01*
X123315000Y-155315000D01*
M02*
