%TF.GenerationSoftware,KiCad,Pcbnew,5.1.0*%
%TF.CreationDate,2019-04-08T01:09:32+02:00*%
%TF.ProjectId,Module_Sensor,4d6f6475-6c65-45f5-9365-6e736f722e6b,rev?*%
%TF.SameCoordinates,Original*%
%TF.FileFunction,Soldermask,Top*%
%TF.FilePolarity,Negative*%
%FSLAX46Y46*%
G04 Gerber Fmt 4.6, Leading zero omitted, Abs format (unit mm)*
G04 Created by KiCad (PCBNEW 5.1.0) date 2019-04-08 01:09:32*
%MOMM*%
%LPD*%
G04 APERTURE LIST*
%ADD10C,0.100000*%
G04 APERTURE END LIST*
D10*
G36*
X137145874Y-153269118D02*
G01*
X137145877Y-153269119D01*
X137145876Y-153269119D01*
X137236888Y-153306818D01*
X137318794Y-153361545D01*
X137388455Y-153431206D01*
X137443182Y-153513112D01*
X137443183Y-153513114D01*
X137480882Y-153604126D01*
X137500100Y-153700744D01*
X137500100Y-153799256D01*
X137480882Y-153895874D01*
X137480881Y-153895876D01*
X137443182Y-153986888D01*
X137388455Y-154068794D01*
X137318794Y-154138455D01*
X137236888Y-154193182D01*
X137236887Y-154193183D01*
X137236886Y-154193183D01*
X137145874Y-154230882D01*
X137049256Y-154250100D01*
X136950744Y-154250100D01*
X136854126Y-154230882D01*
X136763114Y-154193183D01*
X136763113Y-154193183D01*
X136763112Y-154193182D01*
X136681206Y-154138455D01*
X136611545Y-154068794D01*
X136556818Y-153986888D01*
X136519119Y-153895876D01*
X136519118Y-153895874D01*
X136499900Y-153799256D01*
X136499900Y-153700744D01*
X136519118Y-153604126D01*
X136556817Y-153513114D01*
X136556818Y-153513112D01*
X136611545Y-153431206D01*
X136681206Y-153361545D01*
X136763112Y-153306818D01*
X136854124Y-153269119D01*
X136854123Y-153269119D01*
X136854126Y-153269118D01*
X136950744Y-153249900D01*
X137049256Y-153249900D01*
X137145874Y-153269118D01*
X137145874Y-153269118D01*
G37*
G36*
X128145874Y-153269118D02*
G01*
X128145877Y-153269119D01*
X128145876Y-153269119D01*
X128236888Y-153306818D01*
X128318794Y-153361545D01*
X128388455Y-153431206D01*
X128443182Y-153513112D01*
X128443183Y-153513114D01*
X128480882Y-153604126D01*
X128500100Y-153700744D01*
X128500100Y-153799256D01*
X128480882Y-153895874D01*
X128480881Y-153895876D01*
X128443182Y-153986888D01*
X128388455Y-154068794D01*
X128318794Y-154138455D01*
X128236888Y-154193182D01*
X128236887Y-154193183D01*
X128236886Y-154193183D01*
X128145874Y-154230882D01*
X128049256Y-154250100D01*
X127950744Y-154250100D01*
X127854126Y-154230882D01*
X127763114Y-154193183D01*
X127763113Y-154193183D01*
X127763112Y-154193182D01*
X127681206Y-154138455D01*
X127611545Y-154068794D01*
X127556818Y-153986888D01*
X127519119Y-153895876D01*
X127519118Y-153895874D01*
X127499900Y-153799256D01*
X127499900Y-153700744D01*
X127519118Y-153604126D01*
X127556817Y-153513114D01*
X127556818Y-153513112D01*
X127611545Y-153431206D01*
X127681206Y-153361545D01*
X127763112Y-153306818D01*
X127854124Y-153269119D01*
X127854123Y-153269119D01*
X127854126Y-153269118D01*
X127950744Y-153249900D01*
X128049256Y-153249900D01*
X128145874Y-153269118D01*
X128145874Y-153269118D01*
G37*
G36*
X137360000Y-143550000D02*
G01*
X135260000Y-143550000D01*
X135260000Y-141450000D01*
X137360000Y-141450000D01*
X137360000Y-143550000D01*
X137360000Y-143550000D01*
G37*
G36*
X133937272Y-141461395D02*
G01*
X133975836Y-141465193D01*
X134107787Y-141505220D01*
X134173763Y-141525233D01*
X134356169Y-141622731D01*
X134516054Y-141753946D01*
X134647269Y-141913831D01*
X134744767Y-142096237D01*
X134744767Y-142096238D01*
X134804807Y-142294164D01*
X134804807Y-142294166D01*
X134825081Y-142500000D01*
X134808143Y-142671961D01*
X134804807Y-142705836D01*
X134764780Y-142837787D01*
X134744767Y-142903763D01*
X134647269Y-143086169D01*
X134516054Y-143246054D01*
X134356169Y-143377269D01*
X134173763Y-143474767D01*
X134107787Y-143494780D01*
X133975836Y-143534807D01*
X133937272Y-143538605D01*
X133821584Y-143550000D01*
X133718416Y-143550000D01*
X133602728Y-143538605D01*
X133564164Y-143534807D01*
X133432213Y-143494780D01*
X133366237Y-143474767D01*
X133183831Y-143377269D01*
X133023946Y-143246054D01*
X132892731Y-143086169D01*
X132795233Y-142903763D01*
X132775220Y-142837787D01*
X132735193Y-142705836D01*
X132731857Y-142671961D01*
X132714919Y-142500000D01*
X132735193Y-142294166D01*
X132735193Y-142294164D01*
X132795233Y-142096238D01*
X132795233Y-142096237D01*
X132892731Y-141913831D01*
X133023946Y-141753946D01*
X133183831Y-141622731D01*
X133366237Y-141525233D01*
X133432213Y-141505220D01*
X133564164Y-141465193D01*
X133602728Y-141461395D01*
X133718416Y-141450000D01*
X133821584Y-141450000D01*
X133937272Y-141461395D01*
X133937272Y-141461395D01*
G37*
G36*
X131397272Y-141461395D02*
G01*
X131435836Y-141465193D01*
X131567787Y-141505220D01*
X131633763Y-141525233D01*
X131816169Y-141622731D01*
X131976054Y-141753946D01*
X132107269Y-141913831D01*
X132204767Y-142096237D01*
X132204767Y-142096238D01*
X132264807Y-142294164D01*
X132264807Y-142294166D01*
X132285081Y-142500000D01*
X132268143Y-142671961D01*
X132264807Y-142705836D01*
X132224780Y-142837787D01*
X132204767Y-142903763D01*
X132107269Y-143086169D01*
X131976054Y-143246054D01*
X131816169Y-143377269D01*
X131633763Y-143474767D01*
X131567787Y-143494780D01*
X131435836Y-143534807D01*
X131397272Y-143538605D01*
X131281584Y-143550000D01*
X131178416Y-143550000D01*
X131062728Y-143538605D01*
X131024164Y-143534807D01*
X130892213Y-143494780D01*
X130826237Y-143474767D01*
X130643831Y-143377269D01*
X130483946Y-143246054D01*
X130352731Y-143086169D01*
X130255233Y-142903763D01*
X130235220Y-142837787D01*
X130195193Y-142705836D01*
X130191857Y-142671961D01*
X130174919Y-142500000D01*
X130195193Y-142294166D01*
X130195193Y-142294164D01*
X130255233Y-142096238D01*
X130255233Y-142096237D01*
X130352731Y-141913831D01*
X130483946Y-141753946D01*
X130643831Y-141622731D01*
X130826237Y-141525233D01*
X130892213Y-141505220D01*
X131024164Y-141465193D01*
X131062728Y-141461395D01*
X131178416Y-141450000D01*
X131281584Y-141450000D01*
X131397272Y-141461395D01*
X131397272Y-141461395D01*
G37*
G36*
X128857272Y-141461395D02*
G01*
X128895836Y-141465193D01*
X129027787Y-141505220D01*
X129093763Y-141525233D01*
X129276169Y-141622731D01*
X129436054Y-141753946D01*
X129567269Y-141913831D01*
X129664767Y-142096237D01*
X129664767Y-142096238D01*
X129724807Y-142294164D01*
X129724807Y-142294166D01*
X129745081Y-142500000D01*
X129728143Y-142671961D01*
X129724807Y-142705836D01*
X129684780Y-142837787D01*
X129664767Y-142903763D01*
X129567269Y-143086169D01*
X129436054Y-143246054D01*
X129276169Y-143377269D01*
X129093763Y-143474767D01*
X129027787Y-143494780D01*
X128895836Y-143534807D01*
X128857272Y-143538605D01*
X128741584Y-143550000D01*
X128638416Y-143550000D01*
X128522728Y-143538605D01*
X128484164Y-143534807D01*
X128352213Y-143494780D01*
X128286237Y-143474767D01*
X128103831Y-143377269D01*
X127943946Y-143246054D01*
X127812731Y-143086169D01*
X127715233Y-142903763D01*
X127695220Y-142837787D01*
X127655193Y-142705836D01*
X127651857Y-142671961D01*
X127634919Y-142500000D01*
X127655193Y-142294166D01*
X127655193Y-142294164D01*
X127715233Y-142096238D01*
X127715233Y-142096237D01*
X127812731Y-141913831D01*
X127943946Y-141753946D01*
X128103831Y-141622731D01*
X128286237Y-141525233D01*
X128352213Y-141505220D01*
X128484164Y-141465193D01*
X128522728Y-141461395D01*
X128638416Y-141450000D01*
X128741584Y-141450000D01*
X128857272Y-141461395D01*
X128857272Y-141461395D01*
G37*
G36*
X134098679Y-138869362D02*
G01*
X134151200Y-138885295D01*
X134199596Y-138911163D01*
X134242021Y-138945979D01*
X134276837Y-138988404D01*
X134302705Y-139036800D01*
X134318638Y-139089321D01*
X134324500Y-139148842D01*
X134324500Y-140378158D01*
X134318638Y-140437679D01*
X134302705Y-140490200D01*
X134276837Y-140538596D01*
X134242021Y-140581021D01*
X134199596Y-140615837D01*
X134151200Y-140641705D01*
X134098679Y-140657638D01*
X134039158Y-140663500D01*
X133059842Y-140663500D01*
X133000321Y-140657638D01*
X132947800Y-140641705D01*
X132899404Y-140615837D01*
X132856979Y-140581021D01*
X132822163Y-140538596D01*
X132796295Y-140490200D01*
X132780362Y-140437679D01*
X132774500Y-140378158D01*
X132774500Y-139148842D01*
X132780362Y-139089321D01*
X132796295Y-139036800D01*
X132822163Y-138988404D01*
X132856979Y-138945979D01*
X132899404Y-138911163D01*
X132947800Y-138885295D01*
X133000321Y-138869362D01*
X133059842Y-138863500D01*
X134039158Y-138863500D01*
X134098679Y-138869362D01*
X134098679Y-138869362D01*
G37*
G36*
X132048679Y-138869362D02*
G01*
X132101200Y-138885295D01*
X132149596Y-138911163D01*
X132192021Y-138945979D01*
X132226837Y-138988404D01*
X132252705Y-139036800D01*
X132268638Y-139089321D01*
X132274500Y-139148842D01*
X132274500Y-140378158D01*
X132268638Y-140437679D01*
X132252705Y-140490200D01*
X132226837Y-140538596D01*
X132192021Y-140581021D01*
X132149596Y-140615837D01*
X132101200Y-140641705D01*
X132048679Y-140657638D01*
X131989158Y-140663500D01*
X131009842Y-140663500D01*
X130950321Y-140657638D01*
X130897800Y-140641705D01*
X130849404Y-140615837D01*
X130806979Y-140581021D01*
X130772163Y-140538596D01*
X130746295Y-140490200D01*
X130730362Y-140437679D01*
X130724500Y-140378158D01*
X130724500Y-139148842D01*
X130730362Y-139089321D01*
X130746295Y-139036800D01*
X130772163Y-138988404D01*
X130806979Y-138945979D01*
X130849404Y-138911163D01*
X130897800Y-138885295D01*
X130950321Y-138869362D01*
X131009842Y-138863500D01*
X131989158Y-138863500D01*
X132048679Y-138869362D01*
X132048679Y-138869362D01*
G37*
M02*
