%TF.GenerationSoftware,KiCad,Pcbnew,5.1.0*%
%TF.CreationDate,2019-04-08T01:09:32+02:00*%
%TF.ProjectId,Module_Sensor,4d6f6475-6c65-45f5-9365-6e736f722e6b,rev?*%
%TF.SameCoordinates,Original*%
%TF.FileFunction,Legend,Bot*%
%TF.FilePolarity,Positive*%
%FSLAX46Y46*%
G04 Gerber Fmt 4.6, Leading zero omitted, Abs format (unit mm)*
G04 Created by KiCad (PCBNEW 5.1.0) date 2019-04-08 01:09:32*
%MOMM*%
%LPD*%
G04 APERTURE LIST*
%ADD10C,0.120000*%
%ADD11C,0.150000*%
%ADD12C,0.001000*%
%ADD13R,2.900000X0.650000*%
%ADD14R,0.650000X3.750000*%
%ADD15C,0.100000*%
%ADD16C,1.100000*%
%ADD17O,2.100000X2.100000*%
%ADD18R,2.100000X2.100000*%
%ADD19C,1.000200*%
G04 APERTURE END LIST*
D10*
X137580000Y-143770000D02*
X137580000Y-142500000D01*
X136310000Y-143770000D02*
X137580000Y-143770000D01*
X128310000Y-141457071D02*
X128310000Y-141060000D01*
X129070000Y-141457071D02*
X129070000Y-141060000D01*
X128310000Y-132400000D02*
X128310000Y-138400000D01*
X129070000Y-132400000D02*
X128310000Y-132400000D01*
X129070000Y-138400000D02*
X129070000Y-132400000D01*
X129960000Y-141060000D02*
X129960000Y-138400000D01*
X130850000Y-141457071D02*
X130850000Y-141060000D01*
X131610000Y-141457071D02*
X131610000Y-141060000D01*
X130850000Y-132400000D02*
X130850000Y-138400000D01*
X131610000Y-132400000D02*
X130850000Y-132400000D01*
X131610000Y-138400000D02*
X131610000Y-132400000D01*
X132500000Y-141060000D02*
X132500000Y-138400000D01*
X133390000Y-141457071D02*
X133390000Y-141060000D01*
X134150000Y-141457071D02*
X134150000Y-141060000D01*
X133390000Y-132400000D02*
X133390000Y-138400000D01*
X134150000Y-132400000D02*
X133390000Y-132400000D01*
X134150000Y-138400000D02*
X134150000Y-132400000D01*
X135040000Y-141060000D02*
X135040000Y-138400000D01*
X135930000Y-141390000D02*
X135930000Y-141060000D01*
X136690000Y-141390000D02*
X136690000Y-141060000D01*
X136030000Y-138400000D02*
X136030000Y-132400000D01*
X136150000Y-138400000D02*
X136150000Y-132400000D01*
X136270000Y-138400000D02*
X136270000Y-132400000D01*
X136390000Y-138400000D02*
X136390000Y-132400000D01*
X136510000Y-138400000D02*
X136510000Y-132400000D01*
X136630000Y-138400000D02*
X136630000Y-132400000D01*
X135930000Y-132400000D02*
X135930000Y-138400000D01*
X136690000Y-132400000D02*
X135930000Y-132400000D01*
X136690000Y-138400000D02*
X136690000Y-132400000D01*
X137640000Y-138400000D02*
X137640000Y-141060000D01*
X127360000Y-138400000D02*
X137640000Y-138400000D01*
X127360000Y-141060000D02*
X127360000Y-138400000D01*
X137640000Y-141060000D02*
X127360000Y-141060000D01*
D11*
X131738095Y-153297619D02*
X131738095Y-152488095D01*
X131785714Y-152392857D01*
X131833333Y-152345238D01*
X131928571Y-152297619D01*
X132119047Y-152297619D01*
X132214285Y-152345238D01*
X132261904Y-152392857D01*
X132309523Y-152488095D01*
X132309523Y-153297619D01*
X133214285Y-152964285D02*
X133214285Y-152297619D01*
X132976190Y-153345238D02*
X132738095Y-152630952D01*
X133357142Y-152630952D01*
X135966666Y-140297619D02*
X135966666Y-139583333D01*
X135919047Y-139440476D01*
X135823809Y-139345238D01*
X135680952Y-139297619D01*
X135585714Y-139297619D01*
X136347619Y-140297619D02*
X137014285Y-140297619D01*
X136585714Y-139297619D01*
%LPC*%
D12*
G36*
X128750000Y-149850000D02*
G01*
X136250000Y-149850000D01*
X136250000Y-151400000D01*
X128750000Y-151400000D01*
X128750000Y-149850000D01*
G37*
X128750000Y-149850000D02*
X136250000Y-149850000D01*
X136250000Y-151400000D01*
X128750000Y-151400000D01*
X128750000Y-149850000D01*
D13*
X130000000Y-151275000D03*
X135000000Y-151275000D03*
D14*
X128875000Y-149725000D03*
X136125000Y-149725000D03*
D15*
G36*
X130896955Y-145751324D02*
G01*
X130923650Y-145755284D01*
X130949828Y-145761841D01*
X130975238Y-145770933D01*
X130999634Y-145782472D01*
X131022782Y-145796346D01*
X131044458Y-145812422D01*
X131064454Y-145830546D01*
X131082578Y-145850542D01*
X131098654Y-145872218D01*
X131112528Y-145895366D01*
X131124067Y-145919762D01*
X131133159Y-145945172D01*
X131139716Y-145971350D01*
X131143676Y-145998045D01*
X131145000Y-146025000D01*
X131145000Y-149375000D01*
X131143676Y-149401955D01*
X131139716Y-149428650D01*
X131133159Y-149454828D01*
X131124067Y-149480238D01*
X131112528Y-149504634D01*
X131098654Y-149527782D01*
X131082578Y-149549458D01*
X131064454Y-149569454D01*
X131044458Y-149587578D01*
X131022782Y-149603654D01*
X130999634Y-149617528D01*
X130975238Y-149629067D01*
X130949828Y-149638159D01*
X130923650Y-149644716D01*
X130896955Y-149648676D01*
X130870000Y-149650000D01*
X130320000Y-149650000D01*
X130293045Y-149648676D01*
X130266350Y-149644716D01*
X130240172Y-149638159D01*
X130214762Y-149629067D01*
X130190366Y-149617528D01*
X130167218Y-149603654D01*
X130145542Y-149587578D01*
X130125546Y-149569454D01*
X130107422Y-149549458D01*
X130091346Y-149527782D01*
X130077472Y-149504634D01*
X130065933Y-149480238D01*
X130056841Y-149454828D01*
X130050284Y-149428650D01*
X130046324Y-149401955D01*
X130045000Y-149375000D01*
X130045000Y-146025000D01*
X130046324Y-145998045D01*
X130050284Y-145971350D01*
X130056841Y-145945172D01*
X130065933Y-145919762D01*
X130077472Y-145895366D01*
X130091346Y-145872218D01*
X130107422Y-145850542D01*
X130125546Y-145830546D01*
X130145542Y-145812422D01*
X130167218Y-145796346D01*
X130190366Y-145782472D01*
X130214762Y-145770933D01*
X130240172Y-145761841D01*
X130266350Y-145755284D01*
X130293045Y-145751324D01*
X130320000Y-145750000D01*
X130870000Y-145750000D01*
X130896955Y-145751324D01*
X130896955Y-145751324D01*
G37*
D16*
X130595000Y-147700000D03*
D15*
G36*
X132166955Y-145751324D02*
G01*
X132193650Y-145755284D01*
X132219828Y-145761841D01*
X132245238Y-145770933D01*
X132269634Y-145782472D01*
X132292782Y-145796346D01*
X132314458Y-145812422D01*
X132334454Y-145830546D01*
X132352578Y-145850542D01*
X132368654Y-145872218D01*
X132382528Y-145895366D01*
X132394067Y-145919762D01*
X132403159Y-145945172D01*
X132409716Y-145971350D01*
X132413676Y-145998045D01*
X132415000Y-146025000D01*
X132415000Y-149375000D01*
X132413676Y-149401955D01*
X132409716Y-149428650D01*
X132403159Y-149454828D01*
X132394067Y-149480238D01*
X132382528Y-149504634D01*
X132368654Y-149527782D01*
X132352578Y-149549458D01*
X132334454Y-149569454D01*
X132314458Y-149587578D01*
X132292782Y-149603654D01*
X132269634Y-149617528D01*
X132245238Y-149629067D01*
X132219828Y-149638159D01*
X132193650Y-149644716D01*
X132166955Y-149648676D01*
X132140000Y-149650000D01*
X131590000Y-149650000D01*
X131563045Y-149648676D01*
X131536350Y-149644716D01*
X131510172Y-149638159D01*
X131484762Y-149629067D01*
X131460366Y-149617528D01*
X131437218Y-149603654D01*
X131415542Y-149587578D01*
X131395546Y-149569454D01*
X131377422Y-149549458D01*
X131361346Y-149527782D01*
X131347472Y-149504634D01*
X131335933Y-149480238D01*
X131326841Y-149454828D01*
X131320284Y-149428650D01*
X131316324Y-149401955D01*
X131315000Y-149375000D01*
X131315000Y-146025000D01*
X131316324Y-145998045D01*
X131320284Y-145971350D01*
X131326841Y-145945172D01*
X131335933Y-145919762D01*
X131347472Y-145895366D01*
X131361346Y-145872218D01*
X131377422Y-145850542D01*
X131395546Y-145830546D01*
X131415542Y-145812422D01*
X131437218Y-145796346D01*
X131460366Y-145782472D01*
X131484762Y-145770933D01*
X131510172Y-145761841D01*
X131536350Y-145755284D01*
X131563045Y-145751324D01*
X131590000Y-145750000D01*
X132140000Y-145750000D01*
X132166955Y-145751324D01*
X132166955Y-145751324D01*
G37*
D16*
X131865000Y-147700000D03*
D15*
G36*
X134706955Y-145751324D02*
G01*
X134733650Y-145755284D01*
X134759828Y-145761841D01*
X134785238Y-145770933D01*
X134809634Y-145782472D01*
X134832782Y-145796346D01*
X134854458Y-145812422D01*
X134874454Y-145830546D01*
X134892578Y-145850542D01*
X134908654Y-145872218D01*
X134922528Y-145895366D01*
X134934067Y-145919762D01*
X134943159Y-145945172D01*
X134949716Y-145971350D01*
X134953676Y-145998045D01*
X134955000Y-146025000D01*
X134955000Y-149375000D01*
X134953676Y-149401955D01*
X134949716Y-149428650D01*
X134943159Y-149454828D01*
X134934067Y-149480238D01*
X134922528Y-149504634D01*
X134908654Y-149527782D01*
X134892578Y-149549458D01*
X134874454Y-149569454D01*
X134854458Y-149587578D01*
X134832782Y-149603654D01*
X134809634Y-149617528D01*
X134785238Y-149629067D01*
X134759828Y-149638159D01*
X134733650Y-149644716D01*
X134706955Y-149648676D01*
X134680000Y-149650000D01*
X134130000Y-149650000D01*
X134103045Y-149648676D01*
X134076350Y-149644716D01*
X134050172Y-149638159D01*
X134024762Y-149629067D01*
X134000366Y-149617528D01*
X133977218Y-149603654D01*
X133955542Y-149587578D01*
X133935546Y-149569454D01*
X133917422Y-149549458D01*
X133901346Y-149527782D01*
X133887472Y-149504634D01*
X133875933Y-149480238D01*
X133866841Y-149454828D01*
X133860284Y-149428650D01*
X133856324Y-149401955D01*
X133855000Y-149375000D01*
X133855000Y-146025000D01*
X133856324Y-145998045D01*
X133860284Y-145971350D01*
X133866841Y-145945172D01*
X133875933Y-145919762D01*
X133887472Y-145895366D01*
X133901346Y-145872218D01*
X133917422Y-145850542D01*
X133935546Y-145830546D01*
X133955542Y-145812422D01*
X133977218Y-145796346D01*
X134000366Y-145782472D01*
X134024762Y-145770933D01*
X134050172Y-145761841D01*
X134076350Y-145755284D01*
X134103045Y-145751324D01*
X134130000Y-145750000D01*
X134680000Y-145750000D01*
X134706955Y-145751324D01*
X134706955Y-145751324D01*
G37*
D16*
X134405000Y-147700000D03*
D15*
G36*
X133436955Y-145751324D02*
G01*
X133463650Y-145755284D01*
X133489828Y-145761841D01*
X133515238Y-145770933D01*
X133539634Y-145782472D01*
X133562782Y-145796346D01*
X133584458Y-145812422D01*
X133604454Y-145830546D01*
X133622578Y-145850542D01*
X133638654Y-145872218D01*
X133652528Y-145895366D01*
X133664067Y-145919762D01*
X133673159Y-145945172D01*
X133679716Y-145971350D01*
X133683676Y-145998045D01*
X133685000Y-146025000D01*
X133685000Y-149375000D01*
X133683676Y-149401955D01*
X133679716Y-149428650D01*
X133673159Y-149454828D01*
X133664067Y-149480238D01*
X133652528Y-149504634D01*
X133638654Y-149527782D01*
X133622578Y-149549458D01*
X133604454Y-149569454D01*
X133584458Y-149587578D01*
X133562782Y-149603654D01*
X133539634Y-149617528D01*
X133515238Y-149629067D01*
X133489828Y-149638159D01*
X133463650Y-149644716D01*
X133436955Y-149648676D01*
X133410000Y-149650000D01*
X132860000Y-149650000D01*
X132833045Y-149648676D01*
X132806350Y-149644716D01*
X132780172Y-149638159D01*
X132754762Y-149629067D01*
X132730366Y-149617528D01*
X132707218Y-149603654D01*
X132685542Y-149587578D01*
X132665546Y-149569454D01*
X132647422Y-149549458D01*
X132631346Y-149527782D01*
X132617472Y-149504634D01*
X132605933Y-149480238D01*
X132596841Y-149454828D01*
X132590284Y-149428650D01*
X132586324Y-149401955D01*
X132585000Y-149375000D01*
X132585000Y-146025000D01*
X132586324Y-145998045D01*
X132590284Y-145971350D01*
X132596841Y-145945172D01*
X132605933Y-145919762D01*
X132617472Y-145895366D01*
X132631346Y-145872218D01*
X132647422Y-145850542D01*
X132665546Y-145830546D01*
X132685542Y-145812422D01*
X132707218Y-145796346D01*
X132730366Y-145782472D01*
X132754762Y-145770933D01*
X132780172Y-145761841D01*
X132806350Y-145755284D01*
X132833045Y-145751324D01*
X132860000Y-145750000D01*
X133410000Y-145750000D01*
X133436955Y-145751324D01*
X133436955Y-145751324D01*
G37*
D16*
X133135000Y-147700000D03*
D17*
X128690000Y-142500000D03*
X131230000Y-142500000D03*
X133770000Y-142500000D03*
D18*
X136310000Y-142500000D03*
D19*
X128000000Y-153750000D03*
X137000000Y-153750000D03*
M02*
