%TF.GenerationSoftware,KiCad,Pcbnew,5.1.0*%
%TF.CreationDate,2019-04-08T01:09:32+02:00*%
%TF.ProjectId,Module_Sensor,4d6f6475-6c65-45f5-9365-6e736f722e6b,rev?*%
%TF.SameCoordinates,Original*%
%TF.FileFunction,Copper,L2,Bot*%
%TF.FilePolarity,Positive*%
%FSLAX46Y46*%
G04 Gerber Fmt 4.6, Leading zero omitted, Abs format (unit mm)*
G04 Created by KiCad (PCBNEW 5.1.0) date 2019-04-08 01:09:32*
%MOMM*%
%LPD*%
G04 APERTURE LIST*
%ADD10R,2.500000X0.250000*%
%ADD11R,0.250000X3.350000*%
%ADD12C,0.100000*%
%ADD13C,0.700000*%
%ADD14O,1.700000X1.700000*%
%ADD15R,1.700000X1.700000*%
%ADD16C,0.250000*%
%ADD17C,0.254000*%
G04 APERTURE END LIST*
D10*
X130000000Y-151275000D03*
X135000000Y-151275000D03*
D11*
X128875000Y-149725000D03*
X136125000Y-149725000D03*
D12*
G36*
X130787153Y-145950843D02*
G01*
X130804141Y-145953363D01*
X130820800Y-145957535D01*
X130836970Y-145963321D01*
X130852494Y-145970664D01*
X130867225Y-145979493D01*
X130881019Y-145989723D01*
X130893744Y-146001256D01*
X130905277Y-146013981D01*
X130915507Y-146027775D01*
X130924336Y-146042506D01*
X130931679Y-146058030D01*
X130937465Y-146074200D01*
X130941637Y-146090859D01*
X130944157Y-146107847D01*
X130945000Y-146125000D01*
X130945000Y-149275000D01*
X130944157Y-149292153D01*
X130941637Y-149309141D01*
X130937465Y-149325800D01*
X130931679Y-149341970D01*
X130924336Y-149357494D01*
X130915507Y-149372225D01*
X130905277Y-149386019D01*
X130893744Y-149398744D01*
X130881019Y-149410277D01*
X130867225Y-149420507D01*
X130852494Y-149429336D01*
X130836970Y-149436679D01*
X130820800Y-149442465D01*
X130804141Y-149446637D01*
X130787153Y-149449157D01*
X130770000Y-149450000D01*
X130420000Y-149450000D01*
X130402847Y-149449157D01*
X130385859Y-149446637D01*
X130369200Y-149442465D01*
X130353030Y-149436679D01*
X130337506Y-149429336D01*
X130322775Y-149420507D01*
X130308981Y-149410277D01*
X130296256Y-149398744D01*
X130284723Y-149386019D01*
X130274493Y-149372225D01*
X130265664Y-149357494D01*
X130258321Y-149341970D01*
X130252535Y-149325800D01*
X130248363Y-149309141D01*
X130245843Y-149292153D01*
X130245000Y-149275000D01*
X130245000Y-146125000D01*
X130245843Y-146107847D01*
X130248363Y-146090859D01*
X130252535Y-146074200D01*
X130258321Y-146058030D01*
X130265664Y-146042506D01*
X130274493Y-146027775D01*
X130284723Y-146013981D01*
X130296256Y-146001256D01*
X130308981Y-145989723D01*
X130322775Y-145979493D01*
X130337506Y-145970664D01*
X130353030Y-145963321D01*
X130369200Y-145957535D01*
X130385859Y-145953363D01*
X130402847Y-145950843D01*
X130420000Y-145950000D01*
X130770000Y-145950000D01*
X130787153Y-145950843D01*
X130787153Y-145950843D01*
G37*
D13*
X130595000Y-147700000D03*
D12*
G36*
X132057153Y-145950843D02*
G01*
X132074141Y-145953363D01*
X132090800Y-145957535D01*
X132106970Y-145963321D01*
X132122494Y-145970664D01*
X132137225Y-145979493D01*
X132151019Y-145989723D01*
X132163744Y-146001256D01*
X132175277Y-146013981D01*
X132185507Y-146027775D01*
X132194336Y-146042506D01*
X132201679Y-146058030D01*
X132207465Y-146074200D01*
X132211637Y-146090859D01*
X132214157Y-146107847D01*
X132215000Y-146125000D01*
X132215000Y-149275000D01*
X132214157Y-149292153D01*
X132211637Y-149309141D01*
X132207465Y-149325800D01*
X132201679Y-149341970D01*
X132194336Y-149357494D01*
X132185507Y-149372225D01*
X132175277Y-149386019D01*
X132163744Y-149398744D01*
X132151019Y-149410277D01*
X132137225Y-149420507D01*
X132122494Y-149429336D01*
X132106970Y-149436679D01*
X132090800Y-149442465D01*
X132074141Y-149446637D01*
X132057153Y-149449157D01*
X132040000Y-149450000D01*
X131690000Y-149450000D01*
X131672847Y-149449157D01*
X131655859Y-149446637D01*
X131639200Y-149442465D01*
X131623030Y-149436679D01*
X131607506Y-149429336D01*
X131592775Y-149420507D01*
X131578981Y-149410277D01*
X131566256Y-149398744D01*
X131554723Y-149386019D01*
X131544493Y-149372225D01*
X131535664Y-149357494D01*
X131528321Y-149341970D01*
X131522535Y-149325800D01*
X131518363Y-149309141D01*
X131515843Y-149292153D01*
X131515000Y-149275000D01*
X131515000Y-146125000D01*
X131515843Y-146107847D01*
X131518363Y-146090859D01*
X131522535Y-146074200D01*
X131528321Y-146058030D01*
X131535664Y-146042506D01*
X131544493Y-146027775D01*
X131554723Y-146013981D01*
X131566256Y-146001256D01*
X131578981Y-145989723D01*
X131592775Y-145979493D01*
X131607506Y-145970664D01*
X131623030Y-145963321D01*
X131639200Y-145957535D01*
X131655859Y-145953363D01*
X131672847Y-145950843D01*
X131690000Y-145950000D01*
X132040000Y-145950000D01*
X132057153Y-145950843D01*
X132057153Y-145950843D01*
G37*
D13*
X131865000Y-147700000D03*
D12*
G36*
X134597153Y-145950843D02*
G01*
X134614141Y-145953363D01*
X134630800Y-145957535D01*
X134646970Y-145963321D01*
X134662494Y-145970664D01*
X134677225Y-145979493D01*
X134691019Y-145989723D01*
X134703744Y-146001256D01*
X134715277Y-146013981D01*
X134725507Y-146027775D01*
X134734336Y-146042506D01*
X134741679Y-146058030D01*
X134747465Y-146074200D01*
X134751637Y-146090859D01*
X134754157Y-146107847D01*
X134755000Y-146125000D01*
X134755000Y-149275000D01*
X134754157Y-149292153D01*
X134751637Y-149309141D01*
X134747465Y-149325800D01*
X134741679Y-149341970D01*
X134734336Y-149357494D01*
X134725507Y-149372225D01*
X134715277Y-149386019D01*
X134703744Y-149398744D01*
X134691019Y-149410277D01*
X134677225Y-149420507D01*
X134662494Y-149429336D01*
X134646970Y-149436679D01*
X134630800Y-149442465D01*
X134614141Y-149446637D01*
X134597153Y-149449157D01*
X134580000Y-149450000D01*
X134230000Y-149450000D01*
X134212847Y-149449157D01*
X134195859Y-149446637D01*
X134179200Y-149442465D01*
X134163030Y-149436679D01*
X134147506Y-149429336D01*
X134132775Y-149420507D01*
X134118981Y-149410277D01*
X134106256Y-149398744D01*
X134094723Y-149386019D01*
X134084493Y-149372225D01*
X134075664Y-149357494D01*
X134068321Y-149341970D01*
X134062535Y-149325800D01*
X134058363Y-149309141D01*
X134055843Y-149292153D01*
X134055000Y-149275000D01*
X134055000Y-146125000D01*
X134055843Y-146107847D01*
X134058363Y-146090859D01*
X134062535Y-146074200D01*
X134068321Y-146058030D01*
X134075664Y-146042506D01*
X134084493Y-146027775D01*
X134094723Y-146013981D01*
X134106256Y-146001256D01*
X134118981Y-145989723D01*
X134132775Y-145979493D01*
X134147506Y-145970664D01*
X134163030Y-145963321D01*
X134179200Y-145957535D01*
X134195859Y-145953363D01*
X134212847Y-145950843D01*
X134230000Y-145950000D01*
X134580000Y-145950000D01*
X134597153Y-145950843D01*
X134597153Y-145950843D01*
G37*
D13*
X134405000Y-147700000D03*
D12*
G36*
X133327153Y-145950843D02*
G01*
X133344141Y-145953363D01*
X133360800Y-145957535D01*
X133376970Y-145963321D01*
X133392494Y-145970664D01*
X133407225Y-145979493D01*
X133421019Y-145989723D01*
X133433744Y-146001256D01*
X133445277Y-146013981D01*
X133455507Y-146027775D01*
X133464336Y-146042506D01*
X133471679Y-146058030D01*
X133477465Y-146074200D01*
X133481637Y-146090859D01*
X133484157Y-146107847D01*
X133485000Y-146125000D01*
X133485000Y-149275000D01*
X133484157Y-149292153D01*
X133481637Y-149309141D01*
X133477465Y-149325800D01*
X133471679Y-149341970D01*
X133464336Y-149357494D01*
X133455507Y-149372225D01*
X133445277Y-149386019D01*
X133433744Y-149398744D01*
X133421019Y-149410277D01*
X133407225Y-149420507D01*
X133392494Y-149429336D01*
X133376970Y-149436679D01*
X133360800Y-149442465D01*
X133344141Y-149446637D01*
X133327153Y-149449157D01*
X133310000Y-149450000D01*
X132960000Y-149450000D01*
X132942847Y-149449157D01*
X132925859Y-149446637D01*
X132909200Y-149442465D01*
X132893030Y-149436679D01*
X132877506Y-149429336D01*
X132862775Y-149420507D01*
X132848981Y-149410277D01*
X132836256Y-149398744D01*
X132824723Y-149386019D01*
X132814493Y-149372225D01*
X132805664Y-149357494D01*
X132798321Y-149341970D01*
X132792535Y-149325800D01*
X132788363Y-149309141D01*
X132785843Y-149292153D01*
X132785000Y-149275000D01*
X132785000Y-146125000D01*
X132785843Y-146107847D01*
X132788363Y-146090859D01*
X132792535Y-146074200D01*
X132798321Y-146058030D01*
X132805664Y-146042506D01*
X132814493Y-146027775D01*
X132824723Y-146013981D01*
X132836256Y-146001256D01*
X132848981Y-145989723D01*
X132862775Y-145979493D01*
X132877506Y-145970664D01*
X132893030Y-145963321D01*
X132909200Y-145957535D01*
X132925859Y-145953363D01*
X132942847Y-145950843D01*
X132960000Y-145950000D01*
X133310000Y-145950000D01*
X133327153Y-145950843D01*
X133327153Y-145950843D01*
G37*
D13*
X133135000Y-147700000D03*
D14*
X128690000Y-142500000D03*
X131230000Y-142500000D03*
X133770000Y-142500000D03*
D15*
X136310000Y-142500000D03*
D16*
X133770000Y-142500000D02*
X133770000Y-143661500D01*
X133135000Y-144296500D02*
X133135000Y-148050000D01*
X133770000Y-143661500D02*
X133135000Y-144296500D01*
X131230000Y-142500000D02*
X131230000Y-143676000D01*
X131865000Y-144311000D02*
X131865000Y-148050000D01*
X131230000Y-143676000D02*
X131865000Y-144311000D01*
X130595000Y-148050000D02*
X130595000Y-144405000D01*
X130595000Y-144405000D02*
X128690000Y-142500000D01*
X134405000Y-148050000D02*
X134405000Y-144405000D01*
X134405000Y-144405000D02*
X136310000Y-142500000D01*
D17*
G36*
X126873000Y-153597993D02*
G01*
X126865000Y-153638212D01*
X126865000Y-153861788D01*
X126873000Y-153902007D01*
X126873000Y-155315000D01*
X126685000Y-155315000D01*
X126685000Y-132685000D01*
X126873000Y-132685000D01*
X126873000Y-153597993D01*
X126873000Y-153597993D01*
G37*
X126873000Y-153597993D02*
X126865000Y-153638212D01*
X126865000Y-153861788D01*
X126873000Y-153902007D01*
X126873000Y-155315000D01*
X126685000Y-155315000D01*
X126685000Y-132685000D01*
X126873000Y-132685000D01*
X126873000Y-153597993D01*
G36*
X138315000Y-155315000D02*
G01*
X138127000Y-155315000D01*
X138127000Y-153902007D01*
X138135000Y-153861788D01*
X138135000Y-153638212D01*
X138127000Y-153597993D01*
X138127000Y-132685000D01*
X138315001Y-132685000D01*
X138315000Y-155315000D01*
X138315000Y-155315000D01*
G37*
X138315000Y-155315000D02*
X138127000Y-155315000D01*
X138127000Y-153902007D01*
X138135000Y-153861788D01*
X138135000Y-153638212D01*
X138127000Y-153597993D01*
X138127000Y-132685000D01*
X138315001Y-132685000D01*
X138315000Y-155315000D01*
M02*
